<svg width="210" height="207" xmlns="http://www.w3.org/2000/svg" xmlns:xlink="http://www.w3.org/1999/xlink" overflow="hidden"><defs><clipPath id="clip0"><rect x="1847" y="297" width="210" height="207"/></clipPath><clipPath id="clip1"><rect x="1853" y="302" width="196" height="196"/></clipPath><clipPath id="clip2"><rect x="1853" y="302" width="196" height="196"/></clipPath><clipPath id="clip3"><rect x="1853" y="302" width="196" height="196"/></clipPath></defs><g clip-path="url(#clip0)" transform="translate(-1847 -297)"><g clip-path="url(#clip1)"><g clip-path="url(#clip2)"><g clip-path="url(#clip3)"><path d="M2011.15 306.875 1889.86 306.875C1886.74 306.875 1884.01 309.41 1884.01 312.725L1884.01 383.705C1884.01 386.825 1886.54 389.555 1889.86 389.555L1902.34 389.555C1898.83 383.705 1897.85 377.075 1899.22 370.835 1896.88 369.275 1894.15 368.105 1891.22 367.715L1891.22 328.715C1898.83 327.935 1904.87 321.89 1905.85 314.09L1994.96 314.09C1995.94 321.695 2001.98 327.74 2009.59 328.715L2009.59 367.52C2006.66 367.91 2003.93 369.08 2001.59 370.64 1999.06 372.395 1997.11 374.93 1995.94 377.855 1995.35 379.22 1995.16 380.585 1994.96 381.95L1936.07 381.95 1941.53 389.36 2011.15 389.36C2014.27 389.36 2016.99 386.825 2016.99 383.51L2016.99 312.725C2016.99 309.41 2014.46 306.875 2011.15 306.875Z" fill="#000000" fill-rule="nonzero" fill-opacity="1"/><path d="M1950.5 377.075C1966.49 377.075 1979.36 364.205 1979.36 348.215 1979.36 332.225 1966.49 319.355 1950.5 319.355 1934.51 319.355 1921.64 332.225 1921.64 348.215 1921.64 364.205 1934.51 377.075 1950.5 377.075ZM1947.77 332.225 1947.77 328.325C1947.77 327.935 1948.16 327.545 1948.55 327.545L1952.45 327.545C1952.84 327.545 1953.23 327.935 1953.23 328.325L1953.23 332.225C1957.13 332.42 1960.45 335.54 1960.84 339.44 1960.84 339.83 1960.45 340.22 1960.06 340.22L1956.16 340.22C1955.77 340.22 1955.57 340.025 1955.38 339.635 1955.18 338.465 1954.01 337.49 1952.65 337.49L1949.14 337.49C1947.19 337.49 1945.24 339.05 1945.04 341 1944.85 343.34 1946.6 345.29 1948.94 345.29L1951.87 345.29C1957.33 345.29 1961.81 349.97 1961.23 355.625 1960.84 359.915 1957.33 363.23 1953.23 363.815L1953.23 367.91C1953.23 368.3 1952.84 368.69 1952.45 368.69L1948.55 368.69C1948.16 368.69 1947.77 368.3 1947.77 367.91L1947.77 364.01C1943.87 363.815 1940.56 360.695 1940.17 356.795 1940.17 356.405 1940.56 356.015 1940.95 356.015L1944.85 356.015C1945.24 356.015 1945.43 356.21 1945.63 356.6 1945.82 357.77 1946.99 358.745 1948.36 358.745L1951.87 358.745C1953.82 358.745 1955.77 357.185 1955.96 355.235 1956.16 352.895 1954.4 350.945 1952.06 350.945L1949.53 350.945C1944.65 350.945 1940.17 347.435 1939.78 342.56 1939.19 337.295 1942.9 332.81 1947.77 332.225Z" fill="#000000" fill-rule="nonzero" fill-opacity="1"/><path d="M1912.09 348.215C1912.09 351.231 1909.64 353.675 1906.63 353.675 1903.61 353.675 1901.17 351.231 1901.17 348.215 1901.17 345.2 1903.61 342.755 1906.63 342.755 1909.64 342.755 1912.09 345.2 1912.09 348.215Z" fill="#000000" fill-rule="nonzero" fill-opacity="1"/><path d="M1999.84 348.215C1999.84 351.231 1997.39 353.675 1994.38 353.675 1991.36 353.675 1988.92 351.231 1988.92 348.215 1988.92 345.2 1991.36 342.755 1994.38 342.755 1997.39 342.755 1999.84 345.2 1999.84 348.215Z" fill="#000000" fill-rule="nonzero" fill-opacity="1"/><path d="M1983.65 446.885C1980.34 446.3 1977.22 446.495 1974.49 447.275 1972.73 447.665 1970.78 446.885 1969.61 445.52L1959.47 431.87 1986.58 395.6 1962.4 395.6 1950.5 411.59 1938.61 395.6 1934.12 389.555 1928.66 382.145 1924.18 376.1 1912.87 360.89C1909.94 363.035 1907.8 365.765 1906.63 369.08 1905.46 372.005 1904.87 375.125 1905.26 378.245 1905.46 381.755 1906.82 385.07 1908.97 387.995L1910.33 389.75 1914.82 395.795 1941.92 432.26 1931.78 445.91C1930.61 447.47 1928.86 448.055 1926.91 447.665 1923.59 446.885 1920.08 446.69 1916.18 447.47 1907.21 449.42 1900.39 456.83 1898.83 465.8 1896.49 480.035 1907.41 492.32 1921.25 492.32 1933.73 492.32 1944.07 482.18 1944.07 469.505 1944.07 465.215 1942.9 461.315 1940.75 457.805 1939.78 456.245 1939.97 454.1 1941.14 452.54L1950.89 439.475 1960.64 452.54C1961.81 454.1 1962.01 456.05 1961.03 457.805 1958.3 462.29 1957.13 467.75 1958.11 473.6 1959.86 483.35 1967.86 490.76 1977.61 492.125 1992.43 493.88 2004.71 481.595 2003.15 466.97 2001.59 456.635 1993.6 448.445 1983.65 446.885ZM1920.86 478.865C1915.6 478.865 1911.5 474.575 1911.5 469.505 1911.5 464.435 1915.79 460.145 1920.86 460.145 1926.13 460.145 1930.22 464.435 1930.22 469.505 1930.22 474.575 1926.13 478.865 1920.86 478.865ZM1950.5 428.36C1947.97 428.36 1946.02 426.41 1946.02 423.875 1946.02 421.34 1947.97 419.39 1950.5 419.39 1953.04 419.39 1954.99 421.34 1954.99 423.875 1954.99 426.41 1953.04 428.36 1950.5 428.36ZM1980.14 478.865C1974.88 478.865 1970.59 474.575 1970.59 469.505 1970.59 464.435 1974.88 460.145 1980.14 460.145 1985.41 460.145 1989.5 464.435 1989.5 469.505 1989.5 474.575 1985.21 478.865 1980.14 478.865Z" fill="#000000" fill-rule="nonzero" fill-opacity="1"/></g></g></g><path d="M1855.5 302.5 2050.5 302.5 2050.5 497.5 1855.5 497.5ZM1879.88 326.875 1879.88 473.125 2026.12 473.125 2026.12 326.875Z" stroke="#2E60B3" stroke-width="9.16667" stroke-linecap="butt" stroke-linejoin="round" stroke-miterlimit="10" stroke-opacity="0" fill="#FFFFFF" fill-rule="evenodd" fill-opacity="0"/></g></svg>