<svg width="206" height="210" xmlns="http://www.w3.org/2000/svg" xmlns:xlink="http://www.w3.org/1999/xlink" overflow="hidden"><defs><clipPath id="clip0"><rect x="334" y="252" width="206" height="210"/></clipPath><clipPath id="clip1"><rect x="337" y="258" width="197" height="197"/></clipPath><clipPath id="clip2"><rect x="337" y="258" width="197" height="197"/></clipPath><clipPath id="clip3"><rect x="337" y="258" width="197" height="197"/></clipPath><clipPath id="clip4"><rect x="374" y="326" width="123" height="61"/></clipPath></defs><g clip-path="url(#clip0)" transform="translate(-334 -252)"><g clip-path="url(#clip1)"><g clip-path="url(#clip2)"><g clip-path="url(#clip3)"><path d="M338 259 533 259 533 454 338 454Z" fill="#A8AAAD" fill-rule="nonzero" fill-opacity="1"/><g clip-path="url(#clip4)"><path d="M383.048 365.73C382.768 348.948 400.389 338.034 414.94 345.872 419.415 336.922 429.764 332.447 439.558 334.964 450.746 320.7 473.408 325.455 477.323 343.635 511.451 347.83 496.902 399.58 463.059 383.078 458.863 387.833 438.44 388.952 435.643 378.883 433.405 386.994 422.497 388.952 417.462 382.239 409.631 387.833 398.722 387.833 391.164 381.68 374.663 392.588 366.824 367.415 383.053 365.737Z" fill="#FFFFFF" fill-rule="evenodd" fill-opacity="1"/></g></g></g></g><path d="M340.5 259.5 534.5 259.5 534.5 454.5 340.5 454.5ZM364.75 283.75 364.75 430.25 510.25 430.25 510.25 283.75Z" stroke="#2E60B3" stroke-width="9.16667" stroke-linecap="butt" stroke-linejoin="round" stroke-miterlimit="10" stroke-opacity="0" fill="#FFFFFF" fill-rule="evenodd" fill-opacity="0"/></g></svg>