<svg width="444" height="449" xmlns="http://www.w3.org/2000/svg" xmlns:xlink="http://www.w3.org/1999/xlink" overflow="hidden"><defs><clipPath id="clip0"><rect x="1824" y="586" width="444" height="449"/></clipPath><clipPath id="clip1"><rect x="1883" y="590" width="323" height="444"/></clipPath><clipPath id="clip2"><rect x="1883" y="590" width="323" height="444"/></clipPath></defs><g clip-path="url(#clip0)" transform="translate(-1824 -586)"><path d="M1831.5 669.001C1831.5 629.512 1863.51 597.5 1903 597.5L2189 597.5C2228.49 597.5 2260.5 629.512 2260.5 669.001L2260.5 954.998C2260.5 994.487 2228.49 1026.5 2189 1026.5L1903 1026.5C1863.51 1026.5 1831.5 994.487 1831.5 954.998Z" stroke="#916CBF" stroke-width="9.16667" stroke-linecap="butt" stroke-linejoin="round" stroke-miterlimit="10" stroke-opacity="0" fill="none" fill-rule="evenodd"/><g clip-path="url(#clip1)"><g clip-path="url(#clip2)"><path d="M4665.65 711.917 4384.27 711.917C4377.04 711.917 4370.7 717.798 4370.7 725.489L4370.7 890.155C4370.7 897.393 4376.57 903.726 4384.27 903.726L4413.23 903.726C4405.08 890.155 4402.81 874.774 4405.99 860.298 4400.56 856.679 4394.23 853.965 4387.43 853.06L4387.43 762.584C4405.08 760.774 4419.1 746.751 4421.37 728.655L4628.1 728.655C4630.37 746.298 4644.38 760.322 4662.04 762.584L4662.04 852.607C4655.24 853.512 4648.9 856.226 4643.48 859.845 4637.61 863.917 4633.08 869.798 4630.37 876.583 4629 879.75 4628.56 882.917 4628.1 886.083L4491.48 886.083 4504.14 903.274 4665.65 903.274C4672.89 903.274 4679.2 897.393 4679.2 889.703L4679.2 725.489C4679.2 717.798 4673.33 711.917 4665.65 711.917Z" fill="#1D0D5C" fill-rule="nonzero" fill-opacity="1" transform="matrix(1 0 0 1.0011 -2480.14 -115.928)"/><path d="M4524.95 874.774C4562.05 874.774 4591.91 844.917 4591.91 807.822 4591.91 770.727 4562.05 740.87 4524.95 740.87 4487.86 740.87 4458 770.727 4458 807.822 4458 844.917 4487.86 874.774 4524.95 874.774ZM4518.62 770.727 4518.62 761.679C4518.62 760.774 4519.52 759.87 4520.43 759.87L4529.48 759.87C4530.38 759.87 4531.29 760.774 4531.29 761.679L4531.29 770.727C4540.33 771.179 4548.04 778.417 4548.94 787.465 4548.94 788.37 4548.04 789.274 4547.13 789.274L4538.08 789.274C4537.18 789.274 4536.71 788.822 4536.27 787.917 4535.81 785.203 4533.1 782.941 4529.94 782.941L4521.8 782.941C4517.27 782.941 4512.75 786.56 4512.29 791.084 4511.85 796.512 4515.91 801.036 4521.33 801.036L4528.13 801.036C4540.8 801.036 4551.19 811.893 4549.85 825.012 4548.94 834.965 4540.8 842.655 4531.29 844.012L4531.29 853.512C4531.29 854.417 4530.38 855.322 4529.48 855.322L4520.43 855.322C4519.52 855.322 4518.62 854.417 4518.62 853.512L4518.62 844.465C4509.57 844.012 4501.89 836.774 4500.99 827.727 4500.99 826.822 4501.89 825.917 4502.8 825.917L4511.85 825.917C4512.75 825.917 4513.19 826.369 4513.66 827.274 4514.1 829.988 4516.81 832.25 4519.99 832.25L4528.13 832.25C4532.65 832.25 4537.18 828.631 4537.62 824.107 4538.08 818.679 4534 814.155 4528.57 814.155L4522.7 814.155C4511.38 814.155 4500.99 806.012 4500.08 794.703 4498.71 782.489 4507.32 772.084 4518.62 770.727Z" fill="#1D0D5C" fill-rule="nonzero" fill-opacity="1" transform="matrix(1 0 0 1.0011 -2480.14 -115.928)"/><path d="M4435.85 807.822C4435.85 814.819 4430.16 820.488 4423.18 820.488 4416.17 820.488 4410.51 814.819 4410.51 807.822 4410.51 800.827 4416.17 795.155 4423.18 795.155 4430.16 795.155 4435.85 800.827 4435.85 807.822Z" fill="#1D0D5C" fill-rule="nonzero" fill-opacity="1" transform="matrix(1 0 0 1.0011 -2480.14 -115.928)"/><path d="M4639.42 807.822C4639.42 814.819 4633.73 820.488 4626.75 820.488 4619.74 820.488 4614.08 814.819 4614.08 807.822 4614.08 800.827 4619.74 795.155 4626.75 795.155 4633.73 795.155 4639.42 800.827 4639.42 807.822Z" fill="#1D0D5C" fill-rule="nonzero" fill-opacity="1" transform="matrix(1 0 0 1.0011 -2480.14 -115.928)"/><path d="M4601.86 1036.73C4594.18 1035.37 4586.94 1035.82 4580.61 1037.63 4576.52 1038.54 4572 1036.73 4569.29 1033.56L4545.76 1001.89 4608.65 917.75 4552.56 917.75 4524.95 954.845 4497.37 917.75 4486.95 903.726 4474.29 886.536 4463.89 872.512 4437.66 837.227C4430.86 842.203 4425.89 848.536 4423.18 856.226 4420.46 863.012 4419.1 870.25 4420 877.488 4420.46 885.631 4423.62 893.322 4428.61 900.107L4431.76 904.179 4442.18 918.202 4505.05 1002.8 4481.52 1034.46C4478.81 1038.08 4474.75 1039.44 4470.23 1038.54 4462.52 1036.73 4454.38 1036.27 4445.33 1038.08 4424.52 1042.61 4408.7 1059.8 4405.08 1080.61 4399.66 1113.63 4424.99 1142.13 4457.1 1142.13 4486.05 1142.13 4510.04 1118.61 4510.04 1089.2 4510.04 1079.25 4507.32 1070.2 4502.33 1062.06 4500.08 1058.44 4500.52 1053.46 4503.24 1049.84L4525.86 1019.54 4548.48 1049.84C4551.19 1053.46 4551.65 1057.99 4549.38 1062.06 4543.05 1072.46 4540.33 1085.13 4542.61 1098.7 4546.67 1121.32 4565.23 1138.51 4587.85 1141.68 4622.23 1145.75 4650.71 1117.25 4647.1 1083.32 4643.48 1059.34 4624.94 1040.34 4601.86 1036.73ZM4456.19 1110.92C4443.99 1110.92 4434.48 1100.96 4434.48 1089.2 4434.48 1077.44 4444.43 1067.49 4456.19 1067.49 4468.42 1067.49 4477.91 1077.44 4477.91 1089.2 4477.91 1100.96 4468.42 1110.92 4456.19 1110.92ZM4524.95 993.75C4519.08 993.75 4514.56 989.226 4514.56 983.345 4514.56 977.464 4519.08 972.94 4524.95 972.94 4530.85 972.94 4535.37 977.464 4535.37 983.345 4535.37 989.226 4530.85 993.75 4524.95 993.75ZM4593.71 1110.92C4581.51 1110.92 4571.56 1100.96 4571.56 1089.2 4571.56 1077.44 4581.51 1067.49 4593.71 1067.49 4605.94 1067.49 4615.43 1077.44 4615.43 1089.2 4615.43 1100.96 4605.48 1110.92 4593.71 1110.92Z" fill="#1D0D5C" fill-rule="nonzero" fill-opacity="1" transform="matrix(1 0 0 1.0011 -2480.14 -115.928)"/></g></g></g></svg>