<svg width="435" height="431" xmlns="http://www.w3.org/2000/svg" xmlns:xlink="http://www.w3.org/1999/xlink" overflow="hidden"><defs><clipPath id="clip0"><rect x="967" y="595" width="435" height="431"/></clipPath><clipPath id="clip1"><rect x="984" y="667" width="387" height="299"/></clipPath><clipPath id="clip2"><rect x="984" y="667" width="387" height="299"/></clipPath><clipPath id="clip3"><rect x="984" y="694" width="280" height="183"/></clipPath><clipPath id="clip4"><rect x="984" y="694" width="280" height="183"/></clipPath><clipPath id="clip5"><rect x="984" y="694" width="280" height="183"/></clipPath><linearGradient x1="81.1223" y1="54.9823" x2="81.1223" y2="166.026" gradientUnits="userSpaceOnUse" spreadMethod="pad" id="fill6"><stop offset="0" stop-color="#916CBF" stop-opacity="1"/><stop offset="1" stop-color="#649CD9" stop-opacity="1"/></linearGradient><linearGradient x1="92.5478" y1="54.9815" x2="92.5478" y2="166.028" gradientUnits="userSpaceOnUse" spreadMethod="pad" id="fill7"><stop offset="0" stop-color="#916CBF" stop-opacity="1"/><stop offset="1" stop-color="#649CD9" stop-opacity="1"/></linearGradient><linearGradient x1="128.592" y1="54.9823" x2="128.592" y2="166.027" gradientUnits="userSpaceOnUse" spreadMethod="pad" id="fill8"><stop offset="0" stop-color="#916CBF" stop-opacity="1"/><stop offset="1" stop-color="#649CD9" stop-opacity="1"/></linearGradient><linearGradient x1="134.635" y1="54.9784" x2="134.635" y2="166.029" gradientUnits="userSpaceOnUse" spreadMethod="pad" id="fill9"><stop offset="0" stop-color="#916CBF" stop-opacity="1"/><stop offset="1" stop-color="#649CD9" stop-opacity="1"/></linearGradient><linearGradient x1="170.477" y1="54.9823" x2="170.477" y2="166.027" gradientUnits="userSpaceOnUse" spreadMethod="pad" id="fill10"><stop offset="0" stop-color="#916CBF" stop-opacity="1"/><stop offset="1" stop-color="#649CD9" stop-opacity="1"/></linearGradient><linearGradient x1="103.723" y1="54.9808" x2="103.723" y2="166.028" gradientUnits="userSpaceOnUse" spreadMethod="pad" id="fill11"><stop offset="0" stop-color="#916CBF" stop-opacity="1"/><stop offset="1" stop-color="#649CD9" stop-opacity="1"/></linearGradient><linearGradient x1="177.831" y1="54.9815" x2="177.831" y2="166.028" gradientUnits="userSpaceOnUse" spreadMethod="pad" id="fill12"><stop offset="0" stop-color="#916CBF" stop-opacity="1"/><stop offset="1" stop-color="#649CD9" stop-opacity="1"/></linearGradient><linearGradient x1="107.278" y1="54.9823" x2="107.278" y2="166.026" gradientUnits="userSpaceOnUse" spreadMethod="pad" id="fill13"><stop offset="0" stop-color="#916CBF" stop-opacity="1"/><stop offset="1" stop-color="#649CD9" stop-opacity="1"/></linearGradient><linearGradient x1="132.144" y1="54.9823" x2="132.144" y2="166.026" gradientUnits="userSpaceOnUse" spreadMethod="pad" id="fill14"><stop offset="0" stop-color="#916CBF" stop-opacity="1"/><stop offset="1" stop-color="#649CD9" stop-opacity="1"/></linearGradient><linearGradient x1="162.81" y1="54.9846" x2="162.81" y2="166.026" gradientUnits="userSpaceOnUse" spreadMethod="pad" id="fill15"><stop offset="0" stop-color="#916CBF" stop-opacity="1"/><stop offset="1" stop-color="#649CD9" stop-opacity="1"/></linearGradient><linearGradient x1="70.9362" y1="54.9769" x2="70.9362" y2="166.033" gradientUnits="userSpaceOnUse" spreadMethod="pad" id="fill16"><stop offset="0" stop-color="#916CBF" stop-opacity="1"/><stop offset="1" stop-color="#649CD9" stop-opacity="1"/></linearGradient><linearGradient x1="144.235" y1="54.9808" x2="144.235" y2="166.027" gradientUnits="userSpaceOnUse" spreadMethod="pad" id="fill17"><stop offset="0" stop-color="#916CBF" stop-opacity="1"/><stop offset="1" stop-color="#649CD9" stop-opacity="1"/></linearGradient><linearGradient x1="122.109" y1="54.9815" x2="122.109" y2="166.033" gradientUnits="userSpaceOnUse" spreadMethod="pad" id="fill18"><stop offset="0" stop-color="#916CBF" stop-opacity="1"/><stop offset="1" stop-color="#649CD9" stop-opacity="1"/></linearGradient></defs><g clip-path="url(#clip0)" transform="translate(-967 -595)"><path d="M970 668.502C970 629.012 1002.01 597 1041.5 597L1327.5 597C1366.99 597 1399 629.012 1399 668.502L1399 954.498C1399 993.987 1366.99 1026 1327.5 1026L1041.5 1026C1002.01 1026 970 993.987 970 954.498Z" fill="#1D0D5C" fill-rule="evenodd" fill-opacity="1"/><g clip-path="url(#clip1)"><g clip-path="url(#clip2)"><path d="M425.817 148.759 127.192 148.759C117.791 148.759 110.049 156.501 110.049 165.903L110.049 352.82C110.049 362.221 117.791 369.963 127.192 369.963L254.937 369.963 254.937 384.341C228.393 386 185.258 388.212 185.258 397.06L185.258 404.802C185.258 404.802 185.258 404.802 185.258 404.802L367.198 404.802C367.198 404.802 367.198 404.802 367.198 404.802L367.198 397.06C367.198 388.765 324.616 386.553 297.519 384.341L297.519 369.963 425.817 369.963C435.218 369.963 442.96 362.221 442.96 352.82L442.96 165.903C443.513 156.501 435.771 148.759 425.817 148.759ZM428.582 352.82C428.582 354.479 427.476 355.585 425.817 355.585L127.192 355.585C125.533 355.585 124.427 354.479 124.427 352.82L124.427 165.903C124.427 164.244 125.533 163.138 127.192 163.138L425.817 163.138C427.476 163.138 428.582 164.244 428.582 165.903L428.582 352.82Z" fill="#916CBF" fill-rule="nonzero" fill-opacity="1" transform="matrix(1 0 0 1.00113 906.688 536.257)"/></g></g><path d="M1218 733 1309.41 733" stroke="#916CBF" stroke-width="5.72917" stroke-linecap="butt" stroke-linejoin="round" stroke-miterlimit="10" stroke-opacity="1" fill="#916CBF" fill-rule="evenodd" fill-opacity="1"/><path d="M1218 757 1309.41 757" stroke="#916CBF" stroke-width="5.72917" stroke-linecap="butt" stroke-linejoin="round" stroke-miterlimit="10" stroke-opacity="1" fill="#916CBF" fill-rule="evenodd" fill-opacity="1"/><path d="M1218 785 1309.41 785" stroke="#916CBF" stroke-width="5.72917" stroke-linecap="butt" stroke-linejoin="round" stroke-miterlimit="10" stroke-opacity="1" fill="#916CBF" fill-rule="evenodd" fill-opacity="1"/><path d="M1244 813 1309.54 813" stroke="#916CBF" stroke-width="5.72917" stroke-linecap="butt" stroke-linejoin="round" stroke-miterlimit="10" stroke-opacity="1" fill="#916CBF" fill-rule="evenodd" fill-opacity="1"/><path d="M1244 839 1309.54 839" stroke="#916CBF" stroke-width="5.72917" stroke-linecap="butt" stroke-linejoin="round" stroke-miterlimit="10" stroke-opacity="1" fill="#916CBF" fill-rule="evenodd" fill-opacity="1"/><g clip-path="url(#clip3)"><g clip-path="url(#clip4)"><g clip-path="url(#clip5)"><path d="M82.3881 140.891C77.1551 140.891 71.8935 139.144 67.5548 135.557 62.7491 131.586 59.7781 125.98 59.1861 119.775 58.5974 113.572 60.4576 107.512 64.4295 102.709 65.2721 101.687 66.7838 101.544 67.8054 102.388 68.827 103.233 68.9695 104.742 68.1253 105.763 64.9721 109.58 63.4938 114.396 63.9624 119.323 64.4311 124.254 66.7902 128.705 70.6109 131.863 78.4839 138.368 90.1895 137.253 96.7019 129.375 97.4578 128.46 98.1166 127.487 98.6632 126.49 99.2957 125.328 100.751 124.893 101.915 125.532 103.076 126.166 103.506 127.624 102.871 128.786 102.182 130.051 101.351 131.277 100.402 132.427 95.7909 138.003 89.113 140.891 82.3881 140.891Z" fill="url(#fill6)" fill-rule="nonzero" transform="matrix(1.00187 0 0 1 985 694)"/><path d="M75.5957 95.3517C74.9472 95.3517 74.2979 95.0883 73.8261 94.5712 62.7769 82.494 62.8286 63.6291 73.9479 51.6203 85.8261 38.796 105.929 38.0242 118.753 49.8993 119.724 50.7992 119.783 52.3157 118.884 53.2888 117.982 54.2603 116.464 54.3167 115.495 53.4177 104.608 43.3376 87.5455 43.9908 77.467 54.8801 68.0298 65.0732 67.9845 81.0857 77.3652 91.3344 78.2579 92.3115 78.1911 93.8296 77.2156 94.7199 76.7533 95.1432 76.1741 95.3517 75.5957 95.3517Z" fill="url(#fill7)" fill-rule="nonzero" transform="matrix(1.00187 0 0 1 985 694)"/><path d="M143.394 122.933C142.781 122.933 142.167 122.7 141.698 122.23L112.093 92.6218C111.157 91.6853 111.157 90.1696 112.093 89.2323 113.029 88.2958 114.546 88.2958 115.482 89.2323L145.091 118.838C146.028 119.775 146.028 121.294 145.091 122.23 144.623 122.7 144.007 122.933 143.394 122.933Z" fill="url(#fill8)" fill-rule="nonzero" transform="matrix(1.00187 0 0 1 985 694)"/><path d="M144.232 148.643C143.62 148.643 143.006 148.409 142.537 147.94L123.342 128.745C122.405 127.809 122.405 126.289 123.342 125.353 124.278 124.416 125.796 124.416 126.732 125.353L145.927 144.549C146.864 145.486 146.864 147.004 145.927 147.94 145.459 148.409 144.847 148.643 144.232 148.643Z" fill="url(#fill9)" fill-rule="nonzero" transform="matrix(1.00187 0 0 1 985 694)"/><path d="M191.046 145.718C190.434 145.718 189.819 145.483 189.352 145.015L148.209 103.878C147.273 102.941 147.273 101.424 148.209 100.487 149.146 99.5495 150.663 99.5495 151.6 100.487L192.744 141.626C193.681 142.563 193.681 144.078 192.744 145.015 192.276 145.483 191.661 145.718 191.046 145.718Z" fill="url(#fill10)" fill-rule="nonzero" transform="matrix(1.00187 0 0 1 985 694)"/><path d="M118.525 147.803C117.912 147.803 117.297 147.569 116.829 147.1L87.2241 117.491C86.2876 116.555 86.2876 115.039 87.2241 114.102 88.1606 113.166 89.6795 113.166 90.6168 114.102L120.221 143.709C121.158 144.645 121.158 146.164 120.221 147.1 119.753 147.569 119.138 147.803 118.525 147.803Z" fill="url(#fill11)" fill-rule="nonzero" transform="matrix(1.00187 0 0 1 985 694)"/><path d="M217.002 146.802C216.388 146.802 215.774 146.569 215.305 146.1L136.965 67.7625C136.029 66.8252 136.029 65.3087 136.965 64.3714 137.902 63.4349 139.42 63.4349 140.359 64.3714L218.697 142.709C219.633 143.646 219.633 145.163 218.697 146.1 218.228 146.569 217.615 146.802 217.002 146.802Z" fill="url(#fill12)" fill-rule="nonzero" transform="matrix(1.00187 0 0 1 985 694)"/><path d="M113.197 117.603C112.584 117.603 111.97 117.368 111.501 116.9L99.6617 105.06C98.7253 104.123 98.7253 102.606 99.6617 101.669 100.598 100.732 102.116 100.732 103.053 101.669L114.894 113.511C115.831 114.447 115.831 115.963 114.894 116.9 114.425 117.368 113.81 117.603 113.197 117.603Z" fill="url(#fill13)" fill-rule="nonzero" transform="matrix(1.00187 0 0 1 985 694)"/><path d="M138.065 92.7404C137.45 92.7404 136.839 92.5056 136.37 92.037L124.529 80.1929C123.593 79.2557 123.593 77.7383 124.529 76.8019 125.466 75.8646 126.983 75.8646 127.92 76.8019L139.759 88.6475C140.697 89.584 140.697 91.0997 139.759 92.037 139.291 92.5056 138.678 92.7404 138.065 92.7404Z" fill="url(#fill14)" fill-rule="nonzero" transform="matrix(1.00187 0 0 1 985 694)"/><path d="M169.789 149.331C169.176 149.331 168.562 149.098 168.093 148.629L154.136 134.669C153.2 133.732 153.2 132.213 154.136 131.276 155.073 130.339 156.591 130.339 157.529 131.276L171.486 145.237C172.422 146.175 172.422 147.692 171.486 148.629 171.017 149.098 170.402 149.331 169.789 149.331Z" fill="url(#fill15)" fill-rule="nonzero" transform="matrix(1.00187 0 0 1 985 694)"/><path d="M66.277 106.634C65.7383 106.634 65.1973 106.453 64.7517 106.085 63.7301 105.24 63.5853 103.73 64.4295 102.709L73.7466 91.4251C74.5908 90.4075 76.1009 90.2627 77.1209 91.1037 78.1425 91.9495 78.2865 93.458 77.4424 94.4797L68.1253 105.763C67.6527 106.336 66.9668 106.634 66.277 106.634Z" fill="url(#fill16)" fill-rule="nonzero" transform="matrix(1.00187 0 0 1 985 694)"/><path d="M150.503 80.3051C149.654 80.3051 148.834 79.8564 148.398 79.0623 147.76 77.9007 148.183 76.4398 149.346 75.8025 153.686 73.4219 156.837 69.493 158.223 64.739 159.609 59.9858 159.058 54.9763 156.672 50.6337 154.291 46.295 150.361 43.1434 145.611 41.7582 140.854 40.3706 135.849 40.922 131.51 43.3065 130.494 43.8643 129.521 44.5215 128.619 45.2646 127.594 46.1072 126.085 45.96 125.242 44.9352 124.402 43.9112 124.549 42.4003 125.571 41.5601 126.706 40.6276 127.926 39.8017 129.2 39.1007 134.662 36.1011 140.969 35.4105 146.95 37.1522 152.935 38.8954 157.878 42.8641 160.877 48.3247 163.878 53.7908 164.573 60.0964 162.829 66.0805 161.086 72.0638 157.117 77.0095 151.651 80.0099 151.287 80.2088 150.891 80.3051 150.503 80.3051Z" fill="url(#fill17)" fill-rule="nonzero" transform="matrix(1.00187 0 0 1 985 694)"/><path d="M117.125 54.0558C116.435 54.0558 115.751 53.7582 115.277 53.1869 114.431 52.1661 114.575 50.6536 115.596 49.8102L125.569 41.5648C126.587 40.7222 128.099 40.8671 128.945 41.8831 129.787 42.9039 129.644 44.4173 128.623 45.2614L118.654 53.506C118.204 53.876 117.665 54.0558 117.125 54.0558Z" fill="url(#fill18)" fill-rule="nonzero" transform="matrix(1.00187 0 0 1 985 694)"/></g></g></g></g></svg>