<?xml version="1.0" encoding="UTF-8"?>
<svg width="128pt" height="128pt" version="1.1" viewBox="0 0 128 128" xmlns="http://www.w3.org/2000/svg">
 <g fill="#fff">
  <path d="m68.609 60.414h-1.0234v-19.07h1.0234c4.2227 0 7.9375 2.8164 9.0898 7.0391 0.51172 1.9219 2.5586 3.0703 4.4805 2.5586 1.9219-0.51172 3.0703-2.5586 2.5586-4.4805-1.9219-7.2969-8.5742-12.289-16.129-12.289h-1.0234v-10.238c0-2.0469-1.6641-3.5859-3.5859-3.5859-2.0469 0-3.5859 1.6641-3.5859 3.5859v10.238h-1.0234c-4.4805 0-8.7031 1.793-11.777 4.8633-3.1992 3.1992-4.8633 7.2969-4.8633 11.777 0 9.2148 7.5508 16.77 16.77 16.77h1.0234v18.945h-1.0234c-4.2227 0-7.9375-2.8164-9.0898-6.7852-0.38281-1.6641-1.793-2.9453-3.5859-2.9453-2.0469 0-3.5859 1.6641-3.5859 3.5859 0 0.38281 0 0.64063 0.12891 1.0234 2.0469 7.2969 8.5742 12.289 16.129 12.289h1.0234v10.238c0 2.0469 1.6641 3.5859 3.5859 3.5859 2.0469 0 3.5859-1.6641 3.5859-3.5859v-10.238h1.0234c9.2148 0 16.77-7.5508 16.77-16.77 0-4.4805-1.793-8.7031-4.8633-11.777-3.3281-3.0703-7.5508-4.7344-12.031-4.7344zm-9.2188 0c-5.2461 0-9.4727-4.2227-9.4727-9.4727 0-2.5586 1.0234-4.9922 2.6875-6.6562 1.793-1.793 4.2227-2.8164 6.6562-2.8164h1.0234v18.945zm9.2188 26.242h-1.0234v-19.07h1.0234c2.5586 0 4.8633 1.0234 6.6562 2.8164 1.793 1.793 2.6875 4.0977 2.6875 6.6562 0.125 5.2461-4.0977 9.5977-9.3438 9.5977z"/>
  <path d="m64 3.1992c-33.535 0-60.801 27.266-60.801 60.801s27.266 60.801 60.801 60.801 60.801-27.266 60.801-60.801-27.266-60.801-60.801-60.801zm-53.504 60.801c0-13.441 4.9922-25.727 13.312-35.199l9.0898 9.0898c0.76953 0.76953 1.6641 1.0234 2.5586 1.0234s1.793-0.38281 2.5586-1.0234c1.4062-1.4062 1.4062-3.7109 0-5.1211l-9.0898-9.0898c9.4727-8.1914 21.762-13.312 35.199-13.312 29.566 0 53.504 24.062 53.504 53.504 0 13.441-4.9922 25.727-13.312 35.199l-9.0898-9.0898c-1.4062-1.4062-3.7109-1.4062-5.1211 0-1.4062 1.4062-1.4062 3.7109 0 5.1211l9.0898 9.0898c-9.4727 8.1914-21.762 13.312-35.199 13.312-29.562 0-53.5-23.938-53.5-53.504z"/>
 </g>
</svg>
