<?xml version="1.0" encoding="UTF-8"?>
<svg width="128pt" height="128pt" version="1.1" viewBox="0 0 128 128" xmlns="http://www.w3.org/2000/svg">
 <g fill="#000">
  <path d="m28.887 73.93c7.9062 0 14.336-6.4336 14.336-14.34s-6.4336-14.336-14.336-14.336c-7.9062 0-14.34 6.4336-14.34 14.34s6.4336 14.336 14.34 14.336zm0-22.641c4.5781 0 8.3047 3.7266 8.3047 8.3047s-3.7266 8.3047-8.3047 8.3047-8.3047-3.7266-8.3047-8.3047 3.7266-8.3047 8.3047-8.3047z"/>
  <path d="m12.434 95.031c0-6.1602 5.0117-11.172 11.172-11.172h10.562c0.31641 0 0.62891 0.011719 0.94141 0.039063 0.875 0.074218 1.7422-0.21875 2.3789-0.80078 0.61719-0.57031 0.96094-1.3477 0.96094-2.1914 0-1.5391-1.1758-2.8594-2.6836-3.0039-0.52344-0.050782-1.0547-0.078125-1.5938-0.078125h-10.562c-9.4922 0-17.211 7.7188-17.211 17.207v1.2422h6.0352z"/>
  <path d="m39.512 96.27h6.0352v-7.4297c0-6.9648 5.6641-12.629 12.629-12.629h11.648c6.9648 0 12.629 5.6641 12.629 12.629v7.4297h6.0352v-7.4297c0-6.3008-3.1641-12.133-8.4609-15.609-3.0469-2-6.5742-3.0547-10.203-3.0547h-11.648c-5.7656 0-11.121 2.625-14.695 7.1992-2.5938 3.3203-3.9648 7.2812-3.9648 11.465v7.4297z"/>
  <path d="m104.39 77.824h-10.562c-0.29688 0-0.58984 0.007812-0.87891 0.023437-1.625 0.089844-2.9023 1.418-2.9023 3.0234 0 0.82812 0.34375 1.6289 0.94531 2.1953 0.60547 0.57031 1.3984 0.85547 2.2227 0.80859 0.20312-0.011719 0.41016-0.019531 0.61328-0.019531h10.562c6.1602 0 11.172 5.0117 11.172 11.172v1.2422h6.0352v-1.2422c0-9.4844-7.7188-17.203-17.207-17.203z"/>
  <path d="m99.113 73.93c7.9062 0 14.34-6.4336 14.34-14.34s-6.4336-14.336-14.34-14.336-14.34 6.4336-14.34 14.34 6.4336 14.336 14.34 14.336zm0-22.641c4.5781 0 8.3047 3.7266 8.3047 8.3047s-3.7266 8.3047-8.3047 8.3047-8.3047-3.7266-8.3047-8.3047 3.7266-8.3047 8.3047-8.3047z"/>
  <path d="m64 67.805c9.9453 0 18.035-8.0898 18.035-18.035 0-9.9453-8.0898-18.035-18.035-18.035s-18.035 8.0898-18.035 18.035c0 9.9414 8.0898 18.035 18.035 18.035zm0-30.043c6.6172 0 12.004 5.3867 12.004 12.004s-5.3867 12.004-12.004 12.004-12.004-5.3867-12.004-12.004 5.3867-12.004 12.004-12.004z"/>
 </g>
</svg>
