<svg width="2389" height="1031" xmlns="http://www.w3.org/2000/svg" xmlns:xlink="http://www.w3.org/1999/xlink" overflow="hidden"><defs><clipPath id="clip0"><rect x="178" y="107" width="2389" height="1031"/></clipPath></defs><g clip-path="url(#clip0)" transform="translate(-178 -107)"><rect x="178" y="127" width="2389" height="1008" fill="#FFFFFF"/><path d="M271 343.889C271 328.486 283.486 316 298.889 316L2460.11 316C2475.51 316 2488 328.486 2488 343.889L2488 1021.11C2488 1036.51 2475.51 1049 2460.11 1049L298.889 1049C283.486 1049 271 1036.51 271 1021.11Z" stroke="#000000" stroke-width="13.75" stroke-linecap="round" stroke-linejoin="round" stroke-miterlimit="10" fill="none" fill-rule="evenodd"/><text font-family="Consolas,Consolas_MSFontService,sans-serif" font-weight="400" font-size="101" transform="matrix(1 0 0 1 386.572 427)">{<tspan fill="#CD3131" font-size="101" x="111.146" y="121">“</tspan><tspan fill="#CD3131" font-size="101" x="166.719" y="121">testLengthInMinutes</tspan><tspan fill="#0451A5" font-size="101" x="1222.6" y="121">": 60,</tspan><tspan fill="#D24747" font-size="101" x="111.146" y="242">“</tspan><tspan fill="#D24747" font-size="101" x="166.719" y="242">numberOfUsers</tspan><tspan fill="#D24747" font-size="101" x="889.167" y="242">"</tspan><tspan fill="#1F63AF" font-size="101" x="944.74" y="242">:</tspan><tspan fill="#0451A5" font-size="101" x="1055.89" y="242">4000</tspan>,<tspan fill="#CD3131" font-size="101" x="111.146" y="363">“</tspan><tspan fill="#CD3131" font-size="101" x="166.719" y="363">rampUpLengthInMinutes</tspan><tspan fill="#0451A5" font-size="101" x="1333.75" y="363">": 50</tspan><tspan fill="#0451A5" font-size="101" x="0" y="484">}</tspan><tspan font-family="Calibri,Calibri_MSFontService,sans-serif" font-weight="700" font-size="119" x="0" y="-172">t</tspan><tspan font-family="Calibri,Calibri_MSFontService,sans-serif" font-weight="700" font-size="119" x="39.8062" y="-172">est_config.json</tspan></text></g></svg>