<svg width="3581" height="1768" xmlns="http://www.w3.org/2000/svg" xmlns:xlink="http://www.w3.org/1999/xlink" overflow="hidden"><defs><clipPath id="clip0"><rect x="363" y="106" width="3581" height="1768"/></clipPath></defs><g clip-path="url(#clip0)" transform="translate(-363 -106)"><rect x="363" y="106" width="3581" height="1768"/><text fill="#FF79C6" font-family="Consolas,Consolas_MSFontService,sans-serif" font-weight="400" font-size="38" transform="matrix(1 0 0 1 495.399 289)">async<tspan font-size="38" x="127.187" y="0">function</tspan><tspan fill="#50FA7B" font-size="38" x="317.969" y="0">testScript</tspan><tspan fill="#F8F8F2" font-size="38" x="529.948" y="0">(browser, page, </tspan><tspan fill="#F8F8F2" font-size="38" x="869.115" y="0">userId</tspan><tspan fill="#F8F8F2" font-size="38" x="996.302" y="0">) {</tspan><tspan font-size="38" x="42.3958" y="46">const</tspan><tspan fill="#F8F8F2" font-size="38" x="169.583" y="46">weatherStation</tspan><tspan font-size="38" x="487.552" y="46">=</tspan><tspan font-weight="700" font-size="38" x="529.948" y="46">new</tspan><tspan fill="#8BE9FD" font-style="italic" font-size="38" x="614.74" y="46">WeatherStation</tspan><tspan fill="#F8F8F2" font-size="38" x="911.51" y="46">(browser, page, </tspan><tspan fill="#F8F8F2" font-size="38" x="1250.68" y="46">userId</tspan><tspan fill="#F8F8F2" font-size="38" x="1377.86" y="46">);</tspan><tspan font-size="38" x="42.3958" y="138">await</tspan><tspan fill="#F8F8F2" font-size="38" x="169.583" y="138">weatherStation</tspan><tspan font-size="38" x="466.354" y="138">.</tspan><tspan fill="#50FA7B" font-size="38" x="487.552" y="138">measure</tspan><tspan fill="#F8F8F2" font-size="38" x="635.937" y="138">(</tspan><tspan fill="#E9F284" font-size="38" x="84.7917" y="184">"</tspan><tspan fill="#F1FA8C" font-size="38" x="105.99" y="184">1) Go to Boost Health Main Page</tspan><tspan fill="#E9F284" font-size="38" x="763.125" y="184">"</tspan><tspan fill="#F8F8F2" font-size="38" x="784.323" y="184">,</tspan><tspan font-size="38" x="84.7917" y="229">async</tspan><tspan fill="#F8F8F2" font-size="38" x="211.979" y="229">() </tspan>=&gt;<tspan fill="#F8F8F2" font-size="38" x="339.167" y="229">{</tspan><tspan font-size="38" x="127.187" y="275">await</tspan><tspan fill="#F8F8F2" font-size="38" x="254.375" y="275">page</tspan><tspan font-size="38" x="339.167" y="275">.</tspan><tspan fill="#50FA7B" font-size="38" x="360.365" y="275">goto</tspan><tspan fill="#F8F8F2" font-size="38" x="445.156" y="275">(</tspan><tspan fill="#E9F284" font-size="38" x="466.354" y="275">"</tspan><tspan fill="#F1FA8C" font-size="38" x="487.552" y="275">https://boosthealth.com</tspan><tspan fill="#E9F284" font-size="38" x="975.104" y="275">"</tspan><tspan fill="#F8F8F2" font-size="38" x="996.302" y="275">);</tspan><tspan fill="#F8F8F2" font-size="38" x="84.7917" y="321">},</tspan><tspan fill="#F8F8F2" font-size="38" x="84.7917" y="367">[</tspan><tspan fill="#BD93F9" font-size="38" x="105.99" y="367">1000</tspan><tspan fill="#F8F8F2" font-size="38" x="190.781" y="367">, </tspan><tspan fill="#BD93F9" font-size="38" x="233.177" y="367">3000</tspan><tspan fill="#F8F8F2" font-size="38" x="317.969" y="367">]</tspan><tspan fill="#F8F8F2" font-size="38" x="42.3958" y="413">);</tspan><tspan font-size="38" x="42.3958" y="505">await</tspan><tspan fill="#F8F8F2" font-size="38" x="169.583" y="505">weatherStation</tspan><tspan font-size="38" x="466.354" y="505">.</tspan><tspan fill="#50FA7B" font-size="38" x="487.552" y="505">measure</tspan><tspan fill="#F8F8F2" font-size="38" x="635.937" y="505">(</tspan><tspan fill="#E9F284" font-size="38" x="84.7917" y="551">"</tspan><tspan fill="#F1FA8C" font-size="38" x="105.99" y="551">2) View Brain Boost product details</tspan><tspan fill="#E9F284" font-size="38" x="847.917" y="551">"</tspan><tspan fill="#F8F8F2" font-size="38" x="869.115" y="551">,</tspan><tspan font-size="38" x="84.7917" y="596">async</tspan><tspan fill="#F8F8F2" font-size="38" x="211.979" y="596">() </tspan>=&gt;<tspan fill="#F8F8F2" font-size="38" x="339.167" y="596">{</tspan><tspan font-size="38" x="127.187" y="642">await</tspan><tspan fill="#8BE9FD" font-style="italic" font-size="38" x="254.375" y="642">Promise</tspan><tspan font-size="38" x="402.76" y="642">.</tspan><tspan fill="#50FA7B" font-size="38" x="423.958" y="642">all</tspan><tspan fill="#F8F8F2" font-size="38" x="487.552" y="642">([</tspan><tspan fill="#F8F8F2" font-size="38" x="169.583" y="688">page</tspan><tspan font-size="38" x="254.375" y="688">.</tspan><tspan fill="#50FA7B" font-size="38" x="275.573" y="688">waitForNavigation</tspan><tspan fill="#F8F8F2" font-size="38" x="635.937" y="688">(),</tspan><tspan fill="#F8F8F2" font-size="38" x="169.583" y="734">page</tspan><tspan font-size="38" x="254.375" y="734">.</tspan><tspan fill="#50FA7B" font-size="38" x="275.573" y="734">click</tspan><tspan fill="#F8F8F2" font-size="38" x="381.562" y="734">(</tspan><tspan fill="#E9F284" font-size="38" x="402.76" y="734">"</tspan><tspan fill="#F1FA8C" font-size="38" x="423.958" y="734">#brain</tspan><tspan fill="#F1FA8C" font-size="38" x="551.146" y="734">-</tspan><tspan fill="#F1FA8C" font-size="38" x="572.344" y="734">boost</tspan><tspan fill="#F1FA8C" font-size="38" x="678.333" y="734">-</tspan><tspan fill="#F1FA8C" font-size="38" x="699.531" y="734">button</tspan><tspan fill="#E9F284" font-size="38" x="826.719" y="734">"</tspan><tspan fill="#F8F8F2" font-size="38" x="847.917" y="734">),</tspan><tspan fill="#F8F8F2" font-size="38" x="127.187" y="780">]);</tspan><tspan fill="#F8F8F2" font-size="38" x="84.7917" y="872">},</tspan><tspan fill="#F8F8F2" font-size="38" x="84.7917" y="918">[</tspan><tspan fill="#BD93F9" font-size="38" x="105.99" y="918">1000</tspan><tspan fill="#F8F8F2" font-size="38" x="190.781" y="918">, </tspan><tspan fill="#BD93F9" font-size="38" x="233.177" y="918">3000</tspan><tspan fill="#F8F8F2" font-size="38" x="317.969" y="918">]</tspan><tspan fill="#F8F8F2" font-size="38" x="42.3958" y="963">);</tspan><tspan font-size="38" x="42.3958" y="1055">await</tspan><tspan fill="#F8F8F2" font-size="38" x="169.583" y="1055">weatherStation</tspan><tspan font-size="38" x="466.354" y="1055">.</tspan><tspan fill="#50FA7B" font-size="38" x="487.552" y="1055">measure</tspan><tspan fill="#F8F8F2" font-size="38" x="635.937" y="1055">(</tspan><tspan fill="#E9F284" font-size="38" x="84.7917" y="1101">"</tspan><tspan fill="#F1FA8C" font-size="38" x="105.99" y="1101">3) Add Brain Boost to Cart</tspan><tspan fill="#E9F284" font-size="38" x="657.135" y="1101">"</tspan><tspan fill="#F8F8F2" font-size="38" x="678.333" y="1101">,</tspan><tspan font-size="38" x="84.7917" y="1147">async</tspan><tspan fill="#F8F8F2" font-size="38" x="211.979" y="1147">() </tspan>=&gt;<tspan fill="#F8F8F2" font-size="38" x="339.167" y="1147">{</tspan><tspan font-size="38" x="127.187" y="1193">await</tspan><tspan fill="#8BE9FD" font-style="italic" font-size="38" x="254.375" y="1193">Promise</tspan><tspan font-size="38" x="402.76" y="1193">.</tspan><tspan fill="#50FA7B" font-size="38" x="423.958" y="1193">all</tspan><tspan fill="#F8F8F2" font-size="38" x="487.552" y="1193">([</tspan><tspan fill="#F8F8F2" font-size="38" x="169.583" y="1239">page</tspan><tspan font-size="38" x="254.375" y="1239">.</tspan><tspan fill="#50FA7B" font-size="38" x="275.573" y="1239">waitForNavigation</tspan><tspan fill="#F8F8F2" font-size="38" x="635.937" y="1239">(),</tspan><tspan fill="#F8F8F2" font-size="38" x="169.583" y="1285">page</tspan><tspan font-size="38" x="254.375" y="1285">.</tspan><tspan fill="#50FA7B" font-size="38" x="275.573" y="1285">click</tspan><tspan fill="#F8F8F2" font-size="38" x="381.562" y="1285">(</tspan><tspan fill="#E9F284" font-size="38" x="402.76" y="1285">"</tspan><tspan fill="#F1FA8C" font-size="38" x="423.958" y="1285">button .submit</tspan><tspan fill="#E9F284" font-size="38" x="720.729" y="1285">"</tspan><tspan fill="#F8F8F2" font-size="38" x="741.927" y="1285">),</tspan><tspan fill="#F8F8F2" font-size="38" x="127.187" y="1331">]);</tspan><tspan fill="#F8F8F2" font-size="38" x="84.7917" y="1376">},</tspan><tspan fill="#F8F8F2" font-size="38" x="84.7917" y="1422">[</tspan><tspan fill="#BD93F9" font-size="38" x="105.99" y="1422">1000</tspan><tspan fill="#F8F8F2" font-size="38" x="190.781" y="1422">, </tspan><tspan fill="#BD93F9" font-size="38" x="233.177" y="1422">3000</tspan><tspan fill="#F8F8F2" font-size="38" x="317.969" y="1422">]</tspan><tspan fill="#F8F8F2" font-size="38" x="42.3958" y="1468">);</tspan><tspan fill="#F8F8F2" font-size="38" x="0" y="1514">}</tspan></text><path d="M410.5 287.965C410.5 245.734 444.734 211.5 486.964 211.5L2514.04 211.5C2556.27 211.5 2590.5 245.734 2590.5 287.965L2590.5 1772.04C2590.5 1814.27 2556.27 1848.5 2514.04 1848.5L486.964 1848.5C444.734 1848.5 410.5 1814.27 410.5 1772.04Z" stroke="#FFFFFF" stroke-width="4.58333" stroke-miterlimit="8" fill="none" fill-rule="evenodd"/><text fill="#F8F8F2" font-family="Consolas,Consolas_MSFontService,sans-serif" font-weight="400" font-size="55" transform="matrix(1 0 0 1 2748.57 303)">{<tspan fill="#8BE9FE" font-size="55" x="59.5833" y="66">“</tspan><tspan fill="#8BE9FD" font-size="55" x="89.375" y="66">testLengthInMinutes</tspan><tspan fill="#8BE9FE" font-size="55" x="655.417" y="66">"</tspan><tspan fill="#FF79C6" font-size="55" x="685.208" y="66">: </tspan><tspan fill="#BD93F9" font-size="55" x="744.792" y="66">60</tspan><tspan font-size="55" x="804.375" y="66">,</tspan><tspan fill="#8BE9FE" font-size="55" x="59.5833" y="131">“</tspan><tspan fill="#8BE9FD" font-size="55" x="89.375" y="131">numberOfUsers</tspan><tspan fill="#8BE9FE" font-size="55" x="476.667" y="131">"</tspan><tspan fill="#FF79C6" font-size="55" x="506.458" y="131">: </tspan><tspan fill="#BD93F9" font-size="55" x="566.042" y="131">4000,</tspan><tspan fill="#8BE9FE" font-size="55" x="59.5833" y="197">“</tspan><tspan fill="#8BE9FD" font-size="55" x="89.375" y="197">rampUpLengthInMinutes</tspan><tspan fill="#8BE9FE" font-size="55" x="715" y="197">"</tspan><tspan fill="#FF79C6" font-size="55" x="744.792" y="197">: </tspan><tspan fill="#BD93F9" font-size="55" x="804.375" y="197">50</tspan><tspan font-size="55" x="0" y="262">}</tspan></text><path d="M2687.5 267.739C2687.5 236.679 2712.68 211.5 2743.74 211.5L3835.26 211.5C3866.32 211.5 3891.5 236.679 3891.5 267.739L3891.5 1792.26C3891.5 1823.32 3866.32 1848.5 3835.26 1848.5L2743.74 1848.5C2712.68 1848.5 2687.5 1823.32 2687.5 1792.26Z" stroke="#FFFFFF" stroke-width="4.58333" stroke-miterlimit="8" fill="none" fill-rule="evenodd"/><text fill="#FFFFFF" font-family="Arial,Arial_MSFontService,sans-serif" font-weight="700" font-size="55" transform="matrix(1 0 0 1 495.399 179)">test_script.js<tspan font-size="55" x="2259.47" y="2">test_config.json</tspan></text></g></svg>