<svg width="4541" height="4555" xmlns="http://www.w3.org/2000/svg" xmlns:xlink="http://www.w3.org/1999/xlink" overflow="hidden"><defs><clipPath id="clip0"><rect x="178" y="104" width="4541" height="4555"/></clipPath></defs><g clip-path="url(#clip0)" transform="translate(-178 -104)"><rect x="178" y="127" width="4356" height="4434" fill="#FFFFFF"/><path d="M271 475.734C271 387.515 342.515 316 430.734 316L4467.27 316C4555.48 316 4627 387.515 4627 475.734L4627 4354.27C4627 4442.48 4555.48 4514 4467.27 4514L430.734 4514C342.515 4514 271 4442.48 271 4354.27Z" stroke="#000000" stroke-width="13.75" stroke-linecap="round" stroke-linejoin="round" stroke-miterlimit="10" fill="none" fill-rule="evenodd"/><text fill="#0000FF" font-family="Consolas,Consolas_MSFontService,sans-serif" font-weight="400" font-size="110" transform="matrix(1 0 0 1 386.572 436)">async<tspan font-size="110" x="364.375" y="0">function</tspan><tspan fill="#795E26" font-size="110" x="910.938" y="0">testScript</tspan><tspan fill="#000000" font-size="110" x="1518.23" y="0">(</tspan><tspan fill="#001080" font-size="110" x="1578.96" y="0">browser</tspan><tspan fill="#000000" font-size="110" x="2004.06" y="0">, </tspan><tspan fill="#001080" font-size="110" x="2125.52" y="0">page</tspan><tspan fill="#000000" font-size="110" x="2368.44" y="0">, </tspan><tspan fill="#001080" font-size="110" x="2489.9" y="0">userId</tspan><tspan fill="#000000" font-size="110" x="2854.27" y="0">) {</tspan><tspan font-size="110" x="121.458" y="132">const</tspan><tspan fill="#001080" font-size="110" x="485.833" y="132">weatherStation</tspan><tspan fill="#000000" font-size="110" x="1396.77" y="132">= </tspan>new<tspan fill="#267F99" font-size="110" x="1761.15" y="132">WeatherStation</tspan><tspan fill="#000000" font-size="110" x="2611.35" y="132">(</tspan><tspan fill="#001080" font-size="110" x="2672.08" y="132">browser</tspan><tspan fill="#000000" font-size="110" x="3097.19" y="132">, </tspan><tspan fill="#001080" font-size="110" x="3218.65" y="132">page</tspan><tspan fill="#000000" font-size="110" x="3461.56" y="132">, </tspan><tspan fill="#001080" font-size="110" x="3583.02" y="132">userId</tspan><tspan fill="#000000" font-size="110" x="3947.4" y="132">);</tspan><tspan fill="#AF00DB" font-size="110" x="182.188" y="264">await</tspan><tspan fill="#001080" font-size="110" x="546.563" y="264">weatherStation</tspan><tspan fill="#000000" font-size="110" x="1396.77" y="264">.</tspan><tspan fill="#795E26" font-size="110" x="1457.5" y="264">measure</tspan><tspan fill="#000000" font-size="110" x="1882.6" y="264">(</tspan><tspan fill="#A31515" font-size="110" x="242.917" y="396">"1) Go to Boost Health Main Page"</tspan><tspan fill="#000000" font-size="110" x="2246.98" y="396">,</tspan><tspan font-size="110" x="242.917" y="528">async</tspan><tspan fill="#000000" font-size="110" x="607.292" y="528">() </tspan><tspan font-size="110" x="789.479" y="528">=&gt;</tspan><tspan fill="#000000" font-size="110" x="971.667" y="528">{</tspan><tspan fill="#AF00DB" font-size="110" x="364.375" y="660">await</tspan><tspan fill="#001080" font-size="110" x="728.75" y="660">page</tspan><tspan fill="#000000" font-size="110" x="971.667" y="660">.</tspan><tspan fill="#795E26" font-size="110" x="1032.4" y="660">goto</tspan><tspan fill="#000000" font-size="110" x="1275.31" y="660">(</tspan><tspan fill="#A31515" font-size="110" x="1336.04" y="660">"https://boosthealth.com"</tspan><tspan fill="#000000" font-size="110" x="2854.27" y="660">);</tspan><tspan fill="#000000" font-size="110" x="242.917" y="792">},</tspan><tspan fill="#000000" font-size="110" x="242.917" y="924">[</tspan><tspan fill="#098658" font-size="110" x="303.646" y="924">1000</tspan><tspan fill="#000000" font-size="110" x="546.563" y="924">, </tspan><tspan fill="#098658" font-size="110" x="668.021" y="924">3000</tspan><tspan fill="#000000" font-size="110" x="910.938" y="924">]</tspan><tspan fill="#000000" font-size="110" x="121.458" y="1056">);</tspan><tspan fill="#AF00DB" font-size="110" x="242.917" y="1188">await</tspan><tspan fill="#001080" font-size="110" x="607.292" y="1188">weatherStation</tspan><tspan fill="#000000" font-size="110" x="1457.5" y="1188">.</tspan><tspan fill="#795E26" font-size="110" x="1518.23" y="1188">measure</tspan><tspan fill="#000000" font-size="110" x="1943.33" y="1188">(</tspan><tspan fill="#A31515" font-size="110" x="242.917" y="1320">"2) View Brain Boost product details"</tspan><tspan fill="#000000" font-size="110" x="2489.9" y="1320">,</tspan><tspan font-size="110" x="242.917" y="1452">async</tspan><tspan fill="#000000" font-size="110" x="607.292" y="1452">() </tspan><tspan font-size="110" x="789.479" y="1452">=&gt;</tspan><tspan fill="#000000" font-size="110" x="971.667" y="1452">{</tspan><tspan fill="#AF00DB" font-size="110" x="364.375" y="1584">await</tspan><tspan fill="#267F99" font-size="110" x="728.75" y="1584">Promise</tspan><tspan fill="#000000" font-size="110" x="1153.85" y="1584">.</tspan><tspan fill="#795E26" font-size="110" x="1214.58" y="1584">all</tspan><tspan fill="#000000" font-size="110" x="1396.77" y="1584">([</tspan><tspan fill="#001080" font-size="110" x="485.833" y="1716">page</tspan><tspan fill="#000000" font-size="110" x="728.75" y="1716">.</tspan><tspan fill="#795E26" font-size="110" x="789.479" y="1716">waitForNavigation</tspan><tspan fill="#000000" font-size="110" x="1821.88" y="1716">(),</tspan><tspan fill="#001080" font-size="110" x="485.833" y="1848">page</tspan><tspan fill="#000000" font-size="110" x="728.75" y="1848">.</tspan><tspan fill="#795E26" font-size="110" x="789.479" y="1848">click</tspan><tspan fill="#000000" font-size="110" x="1093.13" y="1848">(</tspan><tspan fill="#A31515" font-size="110" x="1153.85" y="1848">"#brain</tspan><tspan fill="#A31515" font-size="110" x="1578.96" y="1848">-</tspan><tspan fill="#A31515" font-size="110" x="1639.69" y="1848">boost</tspan><tspan fill="#A31515" font-size="110" x="1943.33" y="1848">-</tspan><tspan fill="#A31515" font-size="110" x="2004.06" y="1848">button"</tspan><tspan fill="#000000" font-size="110" x="2429.17" y="1848">),</tspan><tspan fill="#000000" font-size="110" x="364.375" y="1980">]);</tspan><tspan fill="#000000" font-size="110" x="242.917" y="2244">},</tspan><tspan fill="#000000" font-size="110" x="242.917" y="2376">[</tspan><tspan fill="#098658" font-size="110" x="303.646" y="2376">1000</tspan><tspan fill="#000000" font-size="110" x="546.563" y="2376">, </tspan><tspan fill="#098658" font-size="110" x="668.021" y="2376">3000</tspan><tspan fill="#000000" font-size="110" x="910.938" y="2376">]</tspan><tspan fill="#000000" font-size="110" x="121.458" y="2508">);</tspan><tspan fill="#AF00DB" font-size="110" x="242.917" y="2640">await</tspan><tspan fill="#001080" font-size="110" x="607.292" y="2640">weatherStation</tspan><tspan fill="#000000" font-size="110" x="1457.5" y="2640">.</tspan><tspan fill="#795E26" font-size="110" x="1518.23" y="2640">measure</tspan><tspan fill="#000000" font-size="110" x="1943.33" y="2640">(</tspan><tspan fill="#A31515" font-size="110" x="242.917" y="2772">"3) Add Brain Boost to Cart"</tspan><tspan fill="#000000" font-size="110" x="1943.33" y="2772">,</tspan><tspan font-size="110" x="242.917" y="2904">async</tspan><tspan fill="#000000" font-size="110" x="607.292" y="2904">() </tspan><tspan font-size="110" x="789.479" y="2904">=&gt;</tspan><tspan fill="#000000" font-size="110" x="971.667" y="2904">{</tspan><tspan fill="#AF00DB" font-size="110" x="364.375" y="3036">await</tspan><tspan fill="#267F99" font-size="110" x="728.75" y="3036">Promise</tspan><tspan fill="#000000" font-size="110" x="1153.85" y="3036">.</tspan><tspan fill="#795E26" font-size="110" x="1214.58" y="3036">all</tspan><tspan fill="#000000" font-size="110" x="1396.77" y="3036">([</tspan><tspan fill="#001080" font-size="110" x="485.833" y="3168">page</tspan><tspan fill="#000000" font-size="110" x="728.75" y="3168">.</tspan><tspan fill="#795E26" font-size="110" x="789.479" y="3168">waitForNavigation</tspan><tspan fill="#000000" font-size="110" x="1821.88" y="3168">(),</tspan><tspan fill="#001080" font-size="110" x="485.833" y="3300">page</tspan><tspan fill="#000000" font-size="110" x="728.75" y="3300">.</tspan><tspan fill="#795E26" font-size="110" x="789.479" y="3300">click</tspan><tspan fill="#000000" font-size="110" x="1093.13" y="3300">(</tspan><tspan fill="#A31515" font-size="110" x="1153.85" y="3300">"button .submit"</tspan><tspan fill="#000000" font-size="110" x="2125.52" y="3300">),</tspan><tspan fill="#000000" font-size="110" x="364.375" y="3432">]);</tspan><tspan fill="#000000" font-size="110" x="242.917" y="3564">},</tspan><tspan fill="#000000" font-size="110" x="242.917" y="3696">[</tspan><tspan fill="#098658" font-size="110" x="303.646" y="3696">1000</tspan><tspan fill="#000000" font-size="110" x="546.563" y="3696">, </tspan><tspan fill="#098658" font-size="110" x="668.021" y="3696">3000</tspan><tspan fill="#000000" font-size="110" x="910.938" y="3696">]</tspan><tspan fill="#000000" font-size="110" x="121.458" y="3828">);</tspan><tspan fill="#000000" font-size="110" x="0" y="3960">}</tspan><tspan fill="#000000" font-family="Calibri,Calibri_MSFontService,sans-serif" font-weight="700" font-size="128" x="0" y="-173">t</tspan><tspan fill="#000000" font-family="Calibri,Calibri_MSFontService,sans-serif" font-weight="700" font-size="128" x="43.1292" y="-173">est_script.js</tspan></text></g></svg>