<svg width="2672" height="852" xmlns="http://www.w3.org/2000/svg" xmlns:xlink="http://www.w3.org/1999/xlink" overflow="hidden"><defs><clipPath id="clip0"><rect x="210" y="64" width="2672" height="852"/></clipPath><clipPath id="clip1"><rect x="1325" y="152" width="401" height="138"/></clipPath><clipPath id="clip2"><rect x="1325" y="152" width="401" height="138"/></clipPath><clipPath id="clip3"><rect x="1325" y="152" width="401" height="138"/></clipPath><linearGradient x1="61.0495" y1="15.7956" x2="89.4368" y2="7.90202" gradientUnits="userSpaceOnUse" spreadMethod="pad" id="fill4"><stop offset="0" stop-color="#F69923" stop-opacity="1"/><stop offset="0.3123" stop-color="#F79A23" stop-opacity="1"/><stop offset="0.8383" stop-color="#E97826" stop-opacity="1"/><stop offset="1" stop-color="#E97826" stop-opacity="1"/></linearGradient><linearGradient x1="-1.08369" y1="143.197" x2="56.6527" y2="19.3765" gradientUnits="userSpaceOnUse" spreadMethod="pad" id="fill5"><stop offset="0" stop-color="#9E2064" stop-opacity="1"/><stop offset="0.3233" stop-color="#9E2064" stop-opacity="1"/><stop offset="0.6302" stop-color="#C92037" stop-opacity="1"/><stop offset="0.7514" stop-color="#CD2335" stop-opacity="1"/><stop offset="1" stop-color="#E97826" stop-opacity="1"/></linearGradient><linearGradient x1="18.3052" y1="134.04" x2="52.7098" y2="60.2568" gradientUnits="userSpaceOnUse" spreadMethod="pad" id="fill6"><stop offset="0" stop-color="#282662" stop-opacity="1"/><stop offset="0.0954839" stop-color="#662E8D" stop-opacity="1"/><stop offset="0.7882" stop-color="#9F2064" stop-opacity="1"/><stop offset="0.9487" stop-color="#CD2032" stop-opacity="1"/><stop offset="1" stop-color="#CD2032" stop-opacity="1"/></linearGradient><linearGradient x1="1.0052" y1="135.705" x2="58.7416" y2="11.8845" gradientUnits="userSpaceOnUse" spreadMethod="pad" id="fill7"><stop offset="0" stop-color="#9E2064" stop-opacity="1"/><stop offset="0.3233" stop-color="#9E2064" stop-opacity="1"/><stop offset="0.6302" stop-color="#C92037" stop-opacity="1"/><stop offset="0.7514" stop-color="#CD2335" stop-opacity="1"/><stop offset="1" stop-color="#E97826" stop-opacity="1"/></linearGradient><linearGradient x1="6.89114" y1="127.456" x2="37.2335" y2="62.3837" gradientUnits="userSpaceOnUse" spreadMethod="pad" id="fill8"><stop offset="0" stop-color="#282662" stop-opacity="1"/><stop offset="0.0954839" stop-color="#662E8D" stop-opacity="1"/><stop offset="0.7882" stop-color="#9F2064" stop-opacity="1"/><stop offset="0.9487" stop-color="#CD2032" stop-opacity="1"/><stop offset="1" stop-color="#CD2032" stop-opacity="1"/></linearGradient><linearGradient x1="13.8201" y1="141.68" x2="71.5565" y2="17.8601" gradientUnits="userSpaceOnUse" spreadMethod="pad" id="fill9"><stop offset="0" stop-color="#9E2064" stop-opacity="1"/><stop offset="0.3233" stop-color="#9E2064" stop-opacity="1"/><stop offset="0.6302" stop-color="#C92037" stop-opacity="1"/><stop offset="0.7514" stop-color="#CD2335" stop-opacity="1"/><stop offset="1" stop-color="#E97826" stop-opacity="1"/></linearGradient><linearGradient x1="9.60191" y1="149.065" x2="67.3394" y2="25.2424" gradientUnits="userSpaceOnUse" spreadMethod="pad" id="fill10"><stop offset="0" stop-color="#9E2064" stop-opacity="1"/><stop offset="0.3233" stop-color="#9E2064" stop-opacity="1"/><stop offset="0.6302" stop-color="#C92037" stop-opacity="1"/><stop offset="0.7514" stop-color="#CD2335" stop-opacity="1"/><stop offset="1" stop-color="#E97826" stop-opacity="1"/></linearGradient><linearGradient x1="17.6315" y1="143.458" x2="75.3679" y2="19.6372" gradientUnits="userSpaceOnUse" spreadMethod="pad" id="fill11"><stop offset="0" stop-color="#9E2064" stop-opacity="1"/><stop offset="0.3233" stop-color="#9E2064" stop-opacity="1"/><stop offset="0.6302" stop-color="#C92037" stop-opacity="1"/><stop offset="0.7514" stop-color="#CD2335" stop-opacity="1"/><stop offset="1" stop-color="#E97826" stop-opacity="1"/></linearGradient><linearGradient x1="17.1953" y1="143.254" x2="74.9318" y2="19.4339" gradientUnits="userSpaceOnUse" spreadMethod="pad" id="fill12"><stop offset="0" stop-color="#9E2064" stop-opacity="1"/><stop offset="0.3233" stop-color="#9E2064" stop-opacity="1"/><stop offset="0.6302" stop-color="#C92037" stop-opacity="1"/><stop offset="0.7514" stop-color="#CD2335" stop-opacity="1"/><stop offset="1" stop-color="#E97826" stop-opacity="1"/></linearGradient></defs><g clip-path="url(#clip0)" transform="translate(-210 -64)"><text fill="#649CD9" fill-opacity="1" font-family="Open Sans,Open Sans_MSFontService,sans-serif" font-style="normal" font-variant="normal" font-weight="700" font-stretch="normal" font-size="403" text-anchor="start" direction="ltr" writing-mode="lr-tb" unicode-bidi="normal" text-decoration="none" transform="matrix(1 0 0 1 826.338 568)">3<tspan fill="#1D0D5C" fill-opacity="1" font-family="Open Sans,Open Sans_MSFontService,sans-serif" font-style="normal" font-variant="normal" font-weight="400" font-stretch="normal" font-size="128" text-anchor="start" direction="ltr" writing-mode="lr-tb" unicode-bidi="normal" text-decoration="none" x="-153.627" y="154">ACTIONS</tspan></text><g clip-path="url(#clip1)"><g clip-path="url(#clip2)"><g clip-path="url(#clip3)"><path d="M67.6173 4.96181C65.4908 6.22758 61.9467 9.77173 57.7443 14.9107L61.6176 22.2269C64.3263 18.3283 67.111 14.8348 69.8957 11.8476 70.0982 11.6197 70.2248 11.4932 70.2248 11.4932 70.1235 11.6197 69.9969 11.721 69.8957 11.8476 68.9843 12.8349 66.2503 16.0246 62.1239 22.3788 66.0984 22.1762 72.1994 21.3662 77.1865 20.5054 78.6801 12.202 75.7435 8.4047 75.7435 8.4047 75.7435 8.4047 71.9969 2.35433 67.6173 4.96181Z" fill="url(#fill4)" fill-rule="nonzero" transform="matrix(1 0 0 1.00111 1316.08 148.686)"/><path d="M54.5799 66.3769C54.0736 66.4781 53.5673 66.5541 53.061 66.63 53.061 66.63 53.061 66.63 53.061 66.63 53.3141 66.6047 53.5926 66.5541 53.8458 66.5034 54.0989 66.4781 54.3521 66.4275 54.5799 66.3769Z" fill="#BE202E" fill-rule="nonzero" fill-opacity="1" transform="matrix(1 0 0 1.00111 1316.08 148.686)"/><path d="M54.5799 66.3769C54.0736 66.4781 53.5673 66.5541 53.061 66.63 53.061 66.63 53.061 66.63 53.061 66.63 53.3141 66.6047 53.5926 66.5541 53.8458 66.5034 54.0989 66.4781 54.3521 66.4275 54.5799 66.3769Z" fill="#BE202E" fill-rule="nonzero" fill-opacity="0.35" transform="matrix(1 0 0 1.00111 1316.08 148.686)"/><path d="M55.8963 59.9721C55.8963 59.9721 55.8963 59.9721 55.8963 59.9721 55.871 59.9721 55.871 59.9721 55.8963 59.9721 55.9722 59.9721 56.0482 59.9468 56.1241 59.9468 56.4532 59.8961 56.7823 59.8455 57.0861 59.7696 56.7064 59.8455 56.3013 59.8961 55.8963 59.9721L55.8963 59.9721Z" fill="#BE202E" fill-rule="nonzero" fill-opacity="1" transform="matrix(1 0 0 1.00111 1316.08 148.686)"/><path d="M55.8963 59.9721C55.8963 59.9721 55.8963 59.9721 55.8963 59.9721 55.871 59.9721 55.871 59.9721 55.8963 59.9721 55.9722 59.9721 56.0482 59.9468 56.1241 59.9468 56.4532 59.8961 56.7823 59.8455 57.0861 59.7696 56.7064 59.8455 56.3013 59.8961 55.8963 59.9721L55.8963 59.9721Z" fill="#BE202E" fill-rule="nonzero" fill-opacity="0.35" transform="matrix(1 0 0 1.00111 1316.08 148.686)"/><path d="M50.175 41.1121C51.3648 38.9097 52.5547 36.7579 53.7445 34.6567 54.9849 32.4796 56.2507 30.3784 57.5418 28.3279 57.6177 28.2013 57.6937 28.0747 57.7696 27.9735 59.0354 25.9736 60.3012 24.0496 61.5923 22.2016L57.719 14.9107C57.4405 15.2652 57.1368 15.6196 56.833 15.9993 55.7191 17.3916 54.5546 18.8853 53.3648 20.4801 52.0231 22.2775 50.656 24.1762 49.2384 26.1761 47.9473 28.0241 46.6309 29.9734 45.3145 31.9733 44.2006 33.6947 43.0867 35.4415 41.9729 37.2389 41.9222 37.3148 41.8969 37.3655 41.8463 37.4414L46.884 47.3903C47.9979 45.2892 49.0865 43.188 50.175 41.1121Z" fill="url(#fill5)" fill-rule="nonzero" transform="matrix(1 0 0 1.00111 1316.08 148.686)"/><path d="M27.214 97.2363C26.5558 99.059 25.8723 100.932 25.2141 102.856 25.2141 102.882 25.1888 102.907 25.1888 102.932 25.0875 103.211 24.9863 103.464 24.9103 103.742 24.4546 105.033 24.0749 106.198 23.1635 108.831 24.6572 109.514 25.847 111.286 26.9609 113.312 26.8343 111.21 25.9736 109.236 24.3281 107.717 31.6442 108.046 37.973 106.198 41.2134 100.831 41.4919 100.35 41.7703 99.8438 42.0235 99.3121 40.5299 101.185 38.7072 101.996 35.239 101.793 35.239 101.793 35.2137 101.793 35.2137 101.793 35.2137 101.793 35.239 101.793 35.239 101.793 40.3274 99.5147 42.8842 97.3122 45.1373 93.6921 45.6689 92.8314 46.2005 91.8947 46.7321 90.8568 42.2766 95.4389 37.1123 96.73 31.6695 95.7427L27.5937 96.1983C27.4672 96.5528 27.3406 96.8819 27.214 97.2363Z" fill="url(#fill6)" fill-rule="nonzero" transform="matrix(1 0 0 1.00111 1316.08 148.686)"/><path d="M29.1127 88.0974C29.9987 85.819 30.91 83.5154 31.8214 81.1863 32.7074 78.9586 33.6188 76.7308 34.5555 74.4778 35.4921 72.2247 36.4541 69.9716 37.4161 67.7186 38.4034 65.4149 39.416 63.1365 40.4539 60.8581 41.4665 58.605 42.5298 56.352 43.5677 54.1242 43.9475 53.3141 44.3272 52.5294 44.7322 51.7193 45.3904 50.3522 46.0739 48.9852 46.7575 47.6182 46.7828 47.5422 46.8334 47.4663 46.8587 47.3903L41.8716 37.4667C41.7957 37.5933 41.7197 37.7452 41.6184 37.8718 40.4539 39.7957 39.2641 41.745 38.1249 43.7449 36.9604 45.7702 35.8212 47.8207 34.7074 49.9219 33.7707 51.694 32.8593 53.466 31.948 55.2634 31.7708 55.6178 31.5936 55.9976 31.4164 56.352 30.3278 58.605 29.3152 60.8075 28.4291 62.9087 27.4165 65.2883 26.5305 67.5667 25.7457 69.7185 25.2394 71.1361 24.7584 72.5032 24.3281 73.8196 23.9736 74.9334 23.6445 76.0726 23.3154 77.1865 22.556 79.8193 21.9231 82.4521 21.3915 85.0849L26.4545 95.0845C27.1127 93.2871 27.8216 91.4897 28.5051 89.6417 28.7076 89.1354 28.9101 88.6291 29.1127 88.0974Z" fill="url(#fill7)" fill-rule="nonzero" transform="matrix(1 0 0 1.00111 1316.08 148.686)"/><path d="M21.3155 85.4393C20.6826 88.6291 20.227 91.8188 19.9991 95.0085 19.9991 95.1098 19.9738 95.2364 19.9738 95.3376 18.4043 92.8061 14.1513 90.3252 14.1766 90.3505 17.2144 94.7554 19.5181 99.1096 19.8472 103.388 18.2271 103.717 15.9993 103.236 13.4425 102.299 16.1259 104.755 18.1258 105.438 18.9106 105.616 16.455 105.768 13.8981 107.464 11.316 109.413 15.0879 107.869 18.1511 107.261 20.3282 107.767 16.86 117.564 13.3918 128.399 9.92362 139.893 10.9869 139.589 11.6197 138.855 11.9742 137.893 12.5817 135.817 16.7081 122.147 23.1382 104.198 23.3154 103.692 23.518 103.185 23.6952 102.654 23.7458 102.502 23.7964 102.375 23.8471 102.223 24.5306 100.35 25.2394 98.4261 25.9736 96.4515 26.1508 95.9958 26.3027 95.5655 26.4799 95.1098 26.4799 95.1098 26.4799 95.0845 26.4799 95.0845L21.4168 85.0849C21.3662 85.2115 21.3408 85.3127 21.3155 85.4393Z" fill="url(#fill8)" fill-rule="nonzero" transform="matrix(1 0 0 1.00111 1316.08 148.686)"/><path d="M47.6941 48.2511C47.5422 48.5548 47.4157 48.8333 47.2638 49.1371 46.8334 50.0485 46.3777 50.9598 45.9474 51.8965 45.4664 52.9091 44.9854 53.947 44.4791 55.0103 44.2259 55.5419 43.9728 56.0735 43.7196 56.6304 42.9602 58.2759 42.2007 59.9721 41.4159 61.7188 40.4539 63.8706 39.492 66.0984 38.5047 68.4274 37.568 70.6298 36.606 72.9335 35.644 75.2879 34.7327 77.5409 33.796 79.8446 32.8593 82.2496 32.0239 84.3761 31.1885 86.5785 30.3278 88.8316 30.2772 88.9328 30.2518 89.0594 30.2012 89.1607 29.3658 91.3884 28.5051 93.6921 27.6444 96.0464 27.6191 96.0971 27.5937 96.1477 27.5937 96.1983L31.6695 95.7427C31.5936 95.7174 31.5176 95.7174 31.4164 95.692 36.3022 95.0845 42.7829 91.4391 46.96 86.9329 48.8839 84.8571 50.6307 82.4268 52.2509 79.5662 53.466 77.4397 54.5799 75.0853 55.6685 72.4525 56.6051 70.1742 57.5165 67.6933 58.3772 65.0098 57.2633 65.5921 55.9722 66.0224 54.5546 66.3262 54.3014 66.3769 54.0483 66.4275 53.7951 66.4781 53.542 66.5287 53.2888 66.5541 53.0103 66.6047 53.0103 66.6047 53.0103 66.6047 53.0103 66.6047 57.5671 64.8579 60.4277 61.491 62.5036 57.3393 61.3138 58.1494 59.3645 59.2126 57.0355 59.7442 56.7317 59.8202 56.4026 59.8708 56.0735 59.9214 55.9976 59.9214 55.9216 59.9468 55.8204 59.9468 55.8204 59.9468 55.8204 59.9468 55.8204 59.9468 55.8204 59.9468 55.8204 59.9468 55.8204 59.9468 57.3899 59.2886 58.7316 58.5544 59.8961 57.6684 60.1493 57.4912 60.3771 57.2886 60.605 57.0861 60.9594 56.7823 61.2885 56.4532 61.6176 56.1241 61.8201 55.8963 62.0226 55.6938 62.2251 55.4659 62.6808 54.9343 63.1112 54.3521 63.4909 53.7192 63.6175 53.5167 63.7441 53.3394 63.8453 53.1369 63.9972 52.8331 64.1491 52.5547 64.2757 52.2762 64.9086 51.0104 65.4149 49.8712 65.8199 48.8586 66.0224 48.3523 66.1996 47.8966 66.3515 47.4663 66.4022 47.2891 66.4781 47.1372 66.5287 46.96 66.6806 46.479 66.8325 46.0486 66.9338 45.6689 67.0857 45.112 67.1869 44.6563 67.2376 44.3272 67.0857 44.4538 66.9085 44.5803 66.706 44.6816 65.3389 45.4917 62.9846 46.2511 61.0859 46.6056L64.8326 46.2005 61.0859 46.6056C61.0606 46.6056 61.0353 46.6056 61.01 46.6309 60.8328 46.6562 60.6303 46.6815 60.4277 46.7321 60.4531 46.7068 60.5037 46.7068 60.529 46.6815L47.7194 48.0739C47.7448 48.1751 47.7194 48.2257 47.6941 48.2511Z" fill="url(#fill9)" fill-rule="nonzero" transform="matrix(1 0 0 1.00111 1316.08 148.686)"/><path d="M62.1239 22.3788C60.9847 24.1255 59.7442 26.1254 58.4025 28.3532 58.3266 28.4798 58.2506 28.581 58.2 28.7076 57.0355 30.6569 55.8204 32.7834 54.5293 35.1377 53.4154 37.1629 52.2509 39.3147 51.0358 41.6691 49.9725 43.6943 48.9093 45.8461 47.7701 48.1245L60.5796 46.7321C64.301 45.0107 65.9718 43.4665 67.592 41.2134 68.0224 40.6058 68.4527 39.9476 68.8831 39.2641 70.1995 37.2136 71.4906 34.9605 72.6297 32.7074 73.7436 30.5303 74.7309 28.3785 75.4651 26.4545 75.9461 25.2141 76.3258 24.0749 76.6043 23.0623 76.8321 22.1762 77.0093 21.3408 77.1612 20.5308 72.1994 21.3662 66.0984 22.1762 62.1239 22.3788Z" fill="url(#fill10)" fill-rule="nonzero" transform="matrix(1 0 0 1.00111 1316.08 148.686)"/><path d="M53.8458 66.5287C53.5926 66.5794 53.3394 66.6047 53.061 66.6553L53.061 66.6553C53.3141 66.6047 53.5673 66.5541 53.8458 66.5287Z" fill="#BE202E" fill-rule="nonzero" fill-opacity="1" transform="matrix(1 0 0 1.00111 1316.08 148.686)"/><path d="M53.8458 66.5287C53.5926 66.5794 53.3394 66.6047 53.061 66.6553L53.061 66.6553C53.3141 66.6047 53.5673 66.5541 53.8458 66.5287Z" fill="#BE202E" fill-rule="nonzero" fill-opacity="0.35" transform="matrix(1 0 0 1.00111 1316.08 148.686)"/><path d="M53.8458 66.5287C53.5926 66.5794 53.3394 66.6047 53.061 66.6553L53.061 66.6553C53.3141 66.6047 53.5673 66.5541 53.8458 66.5287Z" fill="url(#fill11)" fill-rule="nonzero" transform="matrix(1 0 0 1.00111 1316.08 148.686)"/><path d="M55.871 59.9721C55.9469 59.9721 56.0229 59.9468 56.1241 59.9468 56.0482 59.9468 55.9722 59.9721 55.871 59.9721L55.871 59.9721Z" fill="#BE202E" fill-rule="nonzero" fill-opacity="1" transform="matrix(1 0 0 1.00111 1316.08 148.686)"/><path d="M55.871 59.9721C55.9469 59.9721 56.0229 59.9468 56.1241 59.9468 56.0482 59.9468 55.9722 59.9721 55.871 59.9721L55.871 59.9721Z" fill="#BE202E" fill-rule="nonzero" fill-opacity="0.35" transform="matrix(1 0 0 1.00111 1316.08 148.686)"/><path d="M55.871 59.9721C55.9469 59.9721 56.0229 59.9468 56.1241 59.9468 56.0482 59.9468 55.9722 59.9721 55.871 59.9721L55.871 59.9721Z" fill="url(#fill12)" fill-rule="nonzero" transform="matrix(1 0 0 1.00111 1316.08 148.686)"/><path d="M88.3875 95.3818 88.3875 97.2321 87.8673 97.2321 87.8673 95.3818 87.212 95.3818 87.212 94.9384 89.0239 94.9384 89.0239 95.3818 88.3875 95.3818Z" fill="#B0AFB0" fill-rule="nonzero" fill-opacity="1" transform="matrix(1 0 0 1.00111 1289.45 99.7499)"/><path d="M91.4529 95.7862 90.8359 97.0397 90.5271 97.0397 89.9107 95.7862 89.9107 97.2321 89.4095 97.2321 89.4095 94.9384 90.1032 94.9384 90.7007 96.1912 91.2981 94.9384 91.9925 94.9384 91.9925 97.2321 91.4912 97.2321 91.4912 95.7862Z" fill="#B0AFB0" fill-rule="nonzero" fill-opacity="1" transform="matrix(1 0 0 1.00111 1289.45 99.7499)"/><path d="M109.419 185.16C107.28 185.16 105.404 185.045 103.792 184.815 102.18 184.618 100.814 184.371 99.6956 184.075L99.6956 171.341C100.913 171.604 102.196 171.834 103.545 172.032 104.862 172.229 106.309 172.328 107.889 172.328 109.403 172.328 110.801 172.164 112.084 171.834 113.4 171.505 114.535 170.93 115.489 170.107 116.477 169.317 117.233 168.248 117.76 166.899 118.32 165.55 118.599 163.855 118.599 161.815L118.599 91.7774 133.9 91.7774 133.9 161.321C133.9 165.467 133.291 169.037 132.074 172.032 130.889 175.026 129.211 177.494 127.039 179.435 124.901 181.41 122.334 182.857 119.34 183.779 116.345 184.7 113.038 185.16 109.419 185.16" stroke="#D22128" stroke-width="1.88679" stroke-linecap="butt" stroke-linejoin="round" stroke-miterlimit="4" stroke-opacity="1" fill="#D22128" fill-rule="nonzero" fill-opacity="1" transform="matrix(1 0 0 1.00111 1289.45 99.7499)"/><path d="M142.099 91.7849 142.099 163.935 155.779 163.935 155.779 130.365C155.778 129.444 155.752 128.412 155.72 127.26 155.72 126.109 155.687 124.914 155.621 123.664 155.588 122.413 155.549 121.154 155.484 119.87 155.45 118.587 155.392 117.334 155.326 116.116 155.194 113.287 155.032 110.359 154.835 107.331L155.287 107.331 171.128 163.935 185.181 163.935 202.26 107.429 202.654 107.429C202.555 110.424 202.451 113.294 202.32 116.057 202.286 117.242 202.228 118.463 202.162 119.713 202.129 120.964 202.096 122.191 202.064 123.408 202.031 124.626 201.998 125.781 201.965 126.867 201.965 127.953 201.965 128.921 201.965 129.776L201.965 163.935 216.235 163.935 216.235 91.7849 195.401 91.7849 178.813 146.954 178.518 146.954 162.933 91.7849 142.099 91.7849ZM285.358 97.0126 281.014 108.648 272.74 113.699 272.74 120.067 279.933 120.067 279.933 146.659C279.933 150.213 280.355 153.174 281.211 155.542 282.099 157.879 283.313 159.748 284.827 161.164 286.341 162.545 288.139 163.533 290.213 164.092 292.286 164.652 294.512 164.918 296.915 164.918 299.383 164.918 301.661 164.684 303.735 164.19 305.84 163.73 307.587 163.126 309.001 162.402L309.001 151.199C307.62 151.693 306.262 152.108 304.913 152.437 303.598 152.766 302.188 152.928 300.708 152.928 298.996 152.928 297.613 152.416 296.56 151.396 295.508 150.376 294.988 148.798 294.988 146.659L294.988 120.067 308.412 120.067 308.412 108.766 294.988 108.766 294.988 97.0126 285.358 97.0126ZM246.718 107.724C242.967 107.724 239.552 108.335 236.459 109.552 233.398 110.769 230.762 112.581 228.557 115.016 226.386 117.418 224.684 120.437 223.467 124.057 222.25 127.676 221.639 131.896 221.639 136.733 221.639 141.504 222.308 145.68 223.624 149.233 224.974 152.754 226.843 155.682 229.245 158.019 231.647 160.322 234.511 162.037 237.834 163.188 241.157 164.34 244.794 164.918 248.742 164.918 250.782 164.918 252.652 164.846 254.364 164.682 256.074 164.55 257.678 164.323 259.159 163.994 260.64 163.665 262.029 163.255 263.345 162.795 264.694 162.301 266.038 161.717 267.355 161.026L267.355 149.371C265.907 150.095 264.491 150.738 263.11 151.297 261.727 151.824 260.318 152.272 258.903 152.634 257.488 152.996 256.034 153.281 254.521 153.479 253.04 153.643 251.462 153.715 249.784 153.715 247.777 153.715 245.978 153.416 244.399 152.791 242.852 152.165 241.508 151.27 240.389 150.118 239.303 148.933 238.459 147.492 237.834 145.814 237.242 144.103 236.917 142.2 236.852 140.094L270.499 140.094 270.499 132.783C270.499 128.769 269.947 125.223 268.829 122.131 267.743 119.004 266.165 116.369 264.092 114.23 262.052 112.091 259.545 110.481 256.584 109.395 253.655 108.276 250.371 107.724 246.718 107.724ZM337.343 107.724C333.592 107.724 330.176 108.335 327.083 109.552 324.023 110.769 321.387 112.581 319.182 115.016 317.011 117.418 315.31 120.437 314.092 124.057 312.874 127.676 312.264 131.896 312.264 136.733 312.264 141.504 312.933 145.68 314.249 149.233 315.598 152.754 317.468 155.682 319.871 158.019 322.272 160.322 325.136 162.037 328.459 163.188 331.783 164.34 335.418 164.918 339.367 164.918 341.407 164.918 343.277 164.846 344.988 164.682 346.699 164.55 348.303 164.323 349.784 163.994 351.264 163.665 352.654 163.255 353.97 162.795 355.319 162.301 356.664 161.717 357.98 161.026L357.98 149.371C356.532 150.095 355.116 150.738 353.735 151.297 352.352 151.824 350.944 152.272 349.528 152.634 348.113 152.996 346.659 153.281 345.145 153.479 343.665 153.643 342.087 153.715 340.409 153.715 338.402 153.715 336.603 153.416 335.024 152.791 333.477 152.165 332.153 151.27 331.034 150.118 329.948 148.933 329.084 147.492 328.459 145.814 327.867 144.103 327.542 142.2 327.477 140.094L361.125 140.094 361.125 132.783C361.124 128.769 360.572 125.223 359.454 122.131 358.368 119.004 356.79 116.369 354.717 114.23 352.677 112.091 350.171 110.481 347.209 109.395 344.281 108.276 340.995 107.724 337.343 107.724ZM393.927 107.724C392.084 107.724 390.442 107.952 388.994 108.412 387.579 108.84 386.293 109.457 385.142 110.279 384.023 111.069 383.016 112.056 382.095 113.208 381.174 114.359 380.31 115.625 379.521 117.04L378.774 117.04 376.553 108.766 365.154 108.766 365.154 163.935 380.208 163.935 380.208 135.849C380.208 133.25 380.527 131.062 381.152 129.284 381.81 127.475 382.713 126.027 383.864 124.941 385.049 123.822 386.458 123.017 388.07 122.523 389.715 122.03 391.494 121.777 393.435 121.777 393.765 121.777 394.18 121.803 394.674 121.836 395.167 121.836 395.654 121.868 396.148 121.934 396.674 121.967 397.181 122.025 397.642 122.091 398.102 122.157 398.459 122.222 398.723 122.287L398.723 108.157C398.525 108.091 398.233 108.052 397.838 108.019 397.476 107.953 397.061 107.894 396.6 107.862 396.172 107.796 395.718 107.764 395.224 107.764 394.764 107.731 394.322 107.724 393.927 107.724ZM246.816 118.435C248.396 118.436 249.779 118.728 250.963 119.32 252.148 119.913 253.141 120.724 253.931 121.777 254.721 122.797 255.305 124.018 255.699 125.433 256.094 126.847 256.315 128.393 256.349 130.07L237.146 130.07C237.41 126.057 238.41 123.121 240.154 121.246 241.93 119.37 244.151 118.436 246.816 118.435ZM337.441 118.435C339.02 118.436 340.404 118.728 341.588 119.32 342.772 119.913 343.766 120.724 344.556 121.777 345.345 122.797 345.93 124.018 346.325 125.433 346.72 126.847 346.94 128.393 346.974 130.07L327.771 130.07C328.035 126.057 329.035 123.121 330.779 121.246 332.555 119.37 334.776 118.436 337.441 118.435Z" stroke="#000000" stroke-width="1.88679" stroke-linecap="butt" stroke-linejoin="round" stroke-miterlimit="4" stroke-opacity="1" fill="#000000" fill-rule="nonzero" fill-opacity="1" transform="matrix(1 0 0 1.00111 1289.45 99.7499)"/><path d="M413.854 107.586 410.508 107.586 410.508 94.5478 406.533 94.5478 406.533 91.7535 417.818 91.7535 417.818 94.5478 413.854 94.5478 413.854 107.586" fill="#4D4D4D" fill-rule="nonzero" fill-opacity="1" transform="matrix(1 0 0 1.00111 1289.45 99.7499)"/><path d="M426.622 107.586 423.146 95.1648 423.049 95.1648C423.091 95.829 423.128 96.4717 423.157 97.0925 423.171 97.3598 423.182 97.634 423.189 97.9158 423.203 98.1975 423.215 98.4749 423.222 98.7497 423.236 99.0239 423.244 99.2875 423.244 99.5403 423.25 99.7925 423.254 100.02 423.254 100.222L423.254 107.586 420.254 107.586 420.254 91.7535 424.825 91.7535 428.247 103.861 428.311 103.861 431.951 91.7535 436.52 91.7535 436.52 107.586 433.391 107.586 433.391 100.092C433.391 99.9044 433.391 99.6919 433.391 99.4535 433.398 99.2151 433.405 98.9623 433.412 98.6956 433.42 98.4283 433.427 98.1573 433.434 97.8831 433.448 97.6088 433.459 97.3415 433.466 97.0818 433.495 96.4755 433.52 95.8434 433.542 95.1868L433.455 95.1868 429.708 107.586 426.622 107.586" fill="#4D4D4D" fill-rule="nonzero" fill-opacity="1" transform="matrix(1 0 0 1.00111 1289.45 99.7499)"/><path d="M50.9909 60.7901 61.7985 34.9658 63.8811 34.9658 74.6888 60.7901 71.9704 60.7901 68.6163 52.7228 56.9976 52.7228 53.6873 60.7901 50.9909 60.7901ZM62.8508 37.9472 57.5456 50.7059 68.0244 50.7059 62.8508 37.9472Z" fill="#D22128" fill-rule="nonzero" fill-opacity="1" transform="matrix(1 0 0 1.00111 1356.85 119.661)"/><path d="M77.4509 60.7901 77.4509 34.9658 88.1489 34.9658C92.5772 34.9658 95.7779 39.0653 95.7779 43.077 95.7779 47.2861 92.7964 51.254 88.3682 51.254L79.972 51.254 79.972 60.7901 77.4509 60.7901ZM79.972 48.996 88.2366 48.996C91.2838 48.996 93.2568 46.19 93.2568 43.077 93.2568 39.8325 90.8673 37.2238 88.0174 37.2238L79.972 37.2238 79.972 48.996Z" fill="#D22128" fill-rule="nonzero" fill-opacity="1" transform="matrix(1 0 0 1.00111 1356.85 119.661)"/><path d="M94.3748 60.7901 105.182 34.9658 107.265 34.9658 118.073 60.7901 115.31 60.7901 111.956 52.7228 100.36 52.7228 97.0493 60.7901 94.3748 60.7901ZM106.235 37.9472 100.93 50.7059 111.408 50.7059 106.235 37.9472Z" fill="#D22128" fill-rule="nonzero" fill-opacity="1" transform="matrix(1 0 0 1.00111 1356.85 119.661)"/><path d="M130.261 34.8124C134.843 34.8124 138.197 37.1361 139.798 40.4464L137.759 41.674C136.115 38.2541 132.914 37.0923 130.13 37.0923 123.948 37.0923 120.572 42.6166 120.572 47.8122 120.572 53.512 124.759 58.6856 130.239 58.6856 133.155 58.6856 136.575 57.2387 138.197 53.8846L140.302 54.9807C138.636 58.839 134.054 60.9874 130.086 60.9874 123.005 60.9874 118.007 54.2135 118.007 47.6807 118.007 41.4767 122.479 34.8124 130.261 34.8124Z" fill="#D22128" fill-rule="nonzero" fill-opacity="1" transform="matrix(1 0 0 1.00111 1356.85 119.661)"/><path d="M164.219 34.9658 164.219 60.7901 161.676 60.7901 161.676 48.711 146.374 48.711 146.374 60.7901 143.875 60.7901 143.875 34.9658 146.374 34.9658 146.374 46.453 161.676 46.453 161.676 34.9658 164.219 34.9658Z" fill="#D22128" fill-rule="nonzero" fill-opacity="1" transform="matrix(1 0 0 1.00111 1356.85 119.661)"/><path d="M187.391 58.5321 187.391 60.7901 170.05 60.7901 170.05 34.9658 187.062 34.9658 187.062 37.2238 172.549 37.2238 172.549 46.5407 185.198 46.5407 185.198 48.6891 172.549 48.6891 172.549 58.5321 187.391 58.5321Z" fill="#D22128" fill-rule="nonzero" fill-opacity="1" transform="matrix(1 0 0 1.00111 1356.85 119.661)"/></g></g></g><path d="M1340.07 341.397 1711.93 341.397 1711.93 385.757 1340.07 385.757ZM1340.07 478.243 1711.93 478.243 1711.93 522.603 1340.07 522.603Z" fill="#649CD9" fill-rule="evenodd" fill-opacity="1"/><text fill="#649CD9" fill-opacity="1" font-family="Open Sans,Open Sans_MSFontService,sans-serif" font-style="normal" font-variant="normal" font-weight="700" font-stretch="normal" font-size="403" text-anchor="start" direction="ltr" writing-mode="lr-tb" unicode-bidi="normal" text-decoration="none" transform="matrix(1 0 0 1 1944.4 568)">125<tspan fill="#1D0D5C" fill-opacity="1" font-family="Open Sans,Open Sans_MSFontService,sans-serif" font-style="normal" font-variant="normal" font-weight="400" font-stretch="normal" font-size="128" text-anchor="start" direction="ltr" writing-mode="lr-tb" unicode-bidi="normal" text-decoration="none" x="-117.03" y="154">HTTP REQUESTS</tspan></text><rect x="219.5" y="84.5001" width="2626" height="741" stroke="#2E60B3" stroke-width="9.16667" stroke-linecap="butt" stroke-linejoin="round" stroke-miterlimit="10" stroke-opacity="0" fill="none"/></g></svg>