<svg width="1435" height="683" xmlns="http://www.w3.org/2000/svg" xmlns:xlink="http://www.w3.org/1999/xlink" overflow="hidden"><defs><clipPath id="clip0"><rect x="380" y="687" width="1435" height="683"/></clipPath><clipPath id="clip1"><rect x="382" y="688" width="680" height="681"/></clipPath><clipPath id="clip2"><rect x="382" y="688" width="680" height="681"/></clipPath><clipPath id="clip3"><rect x="382" y="688" width="680" height="681"/></clipPath><clipPath id="clip4"><rect x="642" y="1081" width="163" height="162"/></clipPath><clipPath id="clip5"><rect x="642" y="1081" width="163" height="162"/></clipPath><clipPath id="clip6"><rect x="642" y="1081" width="163" height="162"/></clipPath><clipPath id="clip7"><rect x="1135" y="688" width="679" height="681"/></clipPath><clipPath id="clip8"><rect x="1135" y="688" width="679" height="681"/></clipPath><clipPath id="clip9"><rect x="1135" y="688" width="679" height="681"/></clipPath><clipPath id="clip10"><rect x="1403" y="1081" width="164" height="162"/></clipPath><clipPath id="clip11"><rect x="1403" y="1081" width="164" height="162"/></clipPath><clipPath id="clip12"><rect x="1403" y="1081" width="164" height="162"/></clipPath></defs><g clip-path="url(#clip0)" transform="translate(-380 -687)"><g clip-path="url(#clip1)"><g clip-path="url(#clip2)"><g clip-path="url(#clip3)"><path d="M280.895 226.691C264.464 226.691 251.087 240.06 251.087 256.492L257.022 256.492 262.95 256.492C262.95 246.606 270.996 238.56 280.889 238.56 290.775 238.56 298.821 246.606 298.821 256.492L304.749 256.492 310.683 256.492C310.697 240.054 297.334 226.691 280.895 226.691Z" fill="#000000" fill-rule="nonzero" fill-opacity="1" transform="matrix(1 0 0 1 383 689)"/><path d="M382.691 256.492 388.626 256.492C388.626 246.606 396.672 238.56 406.558 238.56 416.444 238.56 424.49 246.606 424.49 256.492L430.425 256.492 436.359 256.492C436.359 240.06 422.99 226.691 406.558 226.691 390.126 226.691 376.757 240.06 376.757 256.492L382.691 256.492Z" fill="#000000" fill-rule="nonzero" fill-opacity="1" transform="matrix(1 0 0 1 383 689)"/><path d="M343.717 317.507C343.717 317.507 343.723 317.507 343.73 317.507 350.581 317.507 357.46 314.458 362.586 309.128 367.726 303.798 370.517 296.811 370.252 289.96 370.143 287.108 367.461 284.827 364.915 285.01 362.077 285.119 359.856 287.509 359.958 290.354 360.114 294.428 358.369 298.665 355.171 301.992 351.973 305.312 347.804 307.214 343.73 307.214 343.723 307.214 343.723 307.214 343.717 307.214 339.643 307.214 335.467 305.299 332.269 301.978 329.071 298.651 327.332 294.408 327.488 290.334 327.604 287.489 325.384 285.098 322.545 284.983 319.734 284.942 317.31 287.088 317.202 289.926 316.93 296.784 319.721 303.778 324.847 309.108 329.974 314.445 336.852 317.507 343.717 317.507Z" fill="#000000" fill-rule="nonzero" fill-opacity="1" transform="matrix(1 0 0 1 383 689)"/><path d="M599.061 358.016C599.061 340.647 584.931 326.511 567.562 326.511L469.963 326.511C474.899 316.258 478.084 305.102 479.163 293.437 486.843 292.045 493.972 288.202 499.364 282.416 506.33 274.934 509.78 265.183 509.053 254.937 508.197 243.109 501.197 232.279 490.292 225.951 486.857 223.968 483.278 222.597 479.584 221.836L479.584 154.948C479.584 91.4002 436.733 47.9849 362.077 35.8376 354.648 34.5883 347.05 33.95 339.5 33.95 302.25 33.95 267.119 48.5689 240.583 75.1042L238.506 77.1751C215.807 99.7926 199.415 116.136 199.415 154.948L199.415 221.836C195.695 222.597 192.082 223.982 188.613 225.978 177.715 232.34 170.735 243.184 169.947 254.951 169.22 265.177 172.67 274.934 179.636 282.41 185.021 288.188 192.15 292.031 199.823 293.423 200.889 305.081 204.067 316.237 209.01 326.497L111.444 326.497C94.0754 326.497 79.9387 340.634 79.9387 358.003L79.9387 581.495C79.9387 588.625 82.4102 595.13 86.4163 600.412 82.5053 603.441 79.9387 608.133 79.9387 613.449L79.9387 628.476C79.9387 637.601 87.3669 645.03 96.4927 645.03L582.507 645.03C591.633 645.03 599.061 637.601 599.061 628.476L599.061 613.449C599.061 608.133 596.495 603.441 592.59 600.412 596.596 595.13 599.061 588.618 599.061 581.495L599.061 358.016ZM471.328 245.9 471.328 240.298C474.709 240.047 477.71 240.733 480.739 242.478 486.15 245.621 489.613 250.789 490.014 256.295 490.36 261.184 488.71 265.842 485.397 269.407 481.791 273.27 476.536 275.192 471.518 274.866L461.829 274.445C467.77 266.453 471.328 256.594 471.328 245.9ZM455.568 225.998 455.568 245.9C455.568 263.696 441.085 278.179 423.289 278.179L400.61 278.179C383.75 278.179 370.035 264.457 370.035 247.597L370.035 236.543C370.035 230.935 374.713 222.583 376.791 221.87L451.447 221.87C453.687 221.87 455.568 223.758 455.568 225.998ZM259.921 119.389C261.673 128.677 266.385 137.728 273.223 144.172 288.643 158.696 310.744 163.225 331.712 166.267 370.646 171.916 412.879 175.956 445.845 195.274 447.359 198.825 449.152 202.437 451.311 206.11L376.791 206.11C365.825 206.11 358.22 218.251 355.45 228.66L332.004 228.66C329.233 218.251 321.629 206.11 310.663 206.11L236.014 206.11C233.63 206.11 231.376 206.599 229.258 207.373 250.245 187.424 237.215 145.218 259.921 119.389ZM317.412 236.536 317.412 247.591C317.412 264.457 303.696 278.173 286.837 278.173L264.158 278.173C246.362 278.173 231.878 263.69 231.878 245.893L231.878 225.992C231.878 223.751 233.766 221.863 236.007 221.863L310.425 221.836C312.734 222.583 317.412 230.935 317.412 236.536ZM218.502 214.245C219.412 213.871 220.227 213.437 221.062 213.016 220.071 214.157 219.215 215.413 218.502 216.757L218.502 214.245ZM207.482 274.866C202.03 275.253 197.188 273.257 193.596 269.407 190.276 265.842 188.633 261.184 188.986 256.261 189.346 250.87 192.89 245.581 198.186 242.491 201.371 240.665 204.515 239.972 208.052 240.305L216.119 241.072 216.119 245.893C216.119 272.381 237.67 293.932 264.158 293.932L286.837 293.932C312.387 293.932 333.172 273.141 333.172 247.597L333.172 244.42 354.268 244.42 354.268 247.597C354.268 273.148 375.059 293.932 400.603 293.932L423.282 293.932C438.274 293.932 451.671 287.02 460.491 276.231L460.491 284.474C460.491 299.724 456.05 314.207 448.126 326.511L230.86 326.511C222.936 314.187 218.502 299.67 218.502 284.331L218.502 274.248 207.482 274.866ZM580.986 626.975 98.0136 626.975 98.0136 614.991 580.986 614.991 580.986 626.975ZM580.986 581.509C580.986 588.917 574.964 594.94 567.562 594.94L111.444 594.94C104.036 594.94 98.0136 588.917 98.0136 581.509L98.0136 358.016C98.0136 350.608 104.036 344.586 111.444 344.586L567.562 344.586C574.964 344.586 580.986 350.608 580.986 358.016L580.986 581.509Z" fill="#000000" fill-rule="nonzero" fill-opacity="1" transform="matrix(1 0 0 1 383 689)"/><path d="M339.5 443.333C321.724 443.333 307.254 457.802 307.254 475.585 307.254 493.368 321.724 507.838 339.5 507.838 357.283 507.838 371.752 493.368 371.752 475.585 371.752 457.802 357.283 443.333 339.5 443.333ZM339.5 494.251C329.206 494.251 320.834 485.879 320.834 475.578 320.834 465.278 329.206 456.906 339.5 456.906 349.8 456.906 358.172 465.278 358.172 475.578 358.172 485.879 349.8 494.251 339.5 494.251Z" fill="#000000" fill-rule="nonzero" fill-opacity="1" transform="matrix(1 0 0 1 383 689)"/></g></g></g><rect x="653" y="1092" width="141" height="141" fill="#FFFFFF" fill-opacity="1"/><g clip-path="url(#clip4)"><g clip-path="url(#clip5)"><g clip-path="url(#clip6)"><path d="M740.719 1113.91 715.406 1113.91 715.406 1126.56 709.078 1126.56C706.985 1126.56 705.281 1128.27 705.281 1130.36 705.281 1132.45 706.985 1134.16 709.078 1134.16L715.406 1134.16 715.406 1146.81 723 1146.81 723 1145.55C723 1140.66 726.974 1136.69 731.859 1136.69 736.745 1136.69 740.719 1140.66 740.719 1145.55L740.719 1146.81 748.313 1146.81 748.313 1121.5C748.313 1117.31 744.906 1113.91 740.719 1113.91Z" fill="#649CD9" fill-rule="nonzero" fill-opacity="1"/><path d="M715.406 1086.06 710.344 1086.06C676.792 1086.06 649.594 1113.26 649.594 1146.81L649.594 1160.77C649.594 1174.52 655.056 1187.71 664.781 1197.44L664.781 1237.94 725.531 1237.94 725.531 1222.75 712.875 1222.75 712.875 1217.69 725.531 1217.69 760.969 1217.69C766.56 1217.69 771.094 1213.15 771.094 1207.56L771.094 1205.03C764.115 1205.03 758.438 1199.35 758.438 1192.38L763.5 1192.38C763.5 1196.56 766.907 1199.97 771.094 1199.97L771.094 1184.78 796.406 1184.78 776.156 1146.81C776.156 1113.26 748.958 1086.06 715.406 1086.06ZM687.563 1222.75 682.5 1222.75 682.5 1217.69 687.563 1217.69 687.563 1222.75ZM697.688 1222.75 692.625 1222.75 692.625 1217.69 697.688 1217.69 697.688 1222.75ZM707.813 1222.75 702.75 1222.75 702.75 1217.69 707.813 1217.69 707.813 1222.75ZM753.375 1177.19C753.375 1184.17 747.697 1189.84 740.719 1189.84L685.031 1189.84C678.053 1189.84 672.375 1184.17 672.375 1177.19L672.375 1121.5C672.375 1114.52 678.053 1108.84 685.031 1108.84L740.719 1108.84C747.697 1108.84 753.375 1114.52 753.375 1121.5L753.375 1177.19Z" fill="#649CD9" fill-rule="nonzero" fill-opacity="1"/><path d="M690.094 1153.14C690.094 1155.23 691.797 1156.94 693.891 1156.94 695.984 1156.94 697.688 1155.23 697.688 1153.14L697.688 1146.81 710.344 1146.81 710.344 1139.22 709.078 1139.22C704.193 1139.22 700.219 1135.24 700.219 1130.36 700.219 1125.47 704.193 1121.5 709.078 1121.5L710.344 1121.5 710.344 1113.91 685.031 1113.91C680.845 1113.91 677.438 1117.31 677.438 1121.5L677.438 1146.81 690.094 1146.81 690.094 1153.14Z" fill="#649CD9" fill-rule="nonzero" fill-opacity="1"/><path d="M735.656 1145.55C735.656 1143.45 733.953 1141.75 731.859 1141.75 729.766 1141.75 728.063 1143.45 728.063 1145.55L728.063 1151.88 715.406 1151.88 715.406 1159.47 716.672 1159.47C721.557 1159.47 725.531 1163.44 725.531 1168.33 725.531 1173.21 721.557 1177.19 716.672 1177.19L715.406 1177.19 715.406 1184.78 740.719 1184.78C744.906 1184.78 748.313 1181.37 748.313 1177.19L748.313 1151.88 735.656 1151.88 735.656 1145.55Z" fill="#649CD9" fill-rule="nonzero" fill-opacity="1"/><path d="M720.469 1168.33C720.469 1166.23 718.765 1164.53 716.672 1164.53L710.344 1164.53 710.344 1151.88 702.75 1151.88 702.75 1153.14C702.75 1158.03 698.776 1162 693.891 1162 689.005 1162 685.031 1158.03 685.031 1153.14L685.031 1151.88 677.438 1151.88 677.438 1177.19C677.438 1181.37 680.845 1184.78 685.031 1184.78L710.344 1184.78 710.344 1172.13 716.672 1172.13C718.765 1172.13 720.469 1170.42 720.469 1168.33Z" fill="#649CD9" fill-rule="nonzero" fill-opacity="1"/></g></g></g><g clip-path="url(#clip7)"><g clip-path="url(#clip8)"><g clip-path="url(#clip9)"><path d="M282.681 252.934C291.624 252.934 298.896 260.206 298.896 269.149L304.267 269.149 309.638 269.149C309.638 254.285 297.545 242.192 282.681 242.192 267.818 242.192 255.725 254.285 255.725 269.149L261.096 269.149 266.46 269.149C266.46 260.206 273.739 252.934 282.681 252.934Z" fill="#000000" fill-rule="nonzero" fill-opacity="1" transform="matrix(1 0 0 1 1135 689)"/><path d="M412.54 269.149 417.904 269.149 423.275 269.149C423.275 254.285 411.182 242.192 396.319 242.192 381.455 242.192 369.362 254.285 369.362 269.149L374.733 269.149 380.104 269.149C380.104 260.206 387.376 252.934 396.319 252.934 405.261 252.934 412.54 260.206 412.54 269.149Z" fill="#000000" fill-rule="nonzero" fill-opacity="1" transform="matrix(1 0 0 1 1135 689)"/><path d="M339.486 324.338C339.493 324.338 339.493 324.338 339.5 324.338 345.699 324.338 351.926 321.581 356.556 316.76 361.201 311.939 363.727 305.625 363.489 299.425 363.394 296.852 361.269 294.883 358.661 294.951 356.088 295.046 354.085 297.212 354.187 299.778 354.329 303.459 352.747 307.295 349.855 310.296 346.962 313.297 343.187 315.022 339.507 315.022 339.507 315.022 339.507 315.022 339.5 315.022 335.813 315.022 332.045 313.297 329.152 310.289 326.259 307.281 324.684 303.445 324.834 299.758 324.935 297.185 322.932 295.025 320.359 294.924 317.697 294.659 315.62 296.825 315.524 299.398 315.28 305.597 317.806 311.919 322.437 316.74 327.061 321.561 333.28 324.331 339.486 324.338Z" fill="#000000" fill-rule="nonzero" fill-opacity="1" transform="matrix(1 0 0 1 1135 689)"/><path d="M562.11 334.122 507.274 334.122 507.274 190.819C507.274 104.322 436.902 33.95 350.405 33.95L328.602 33.95C242.097 33.95 171.726 104.322 171.726 190.819L171.726 334.122 116.89 334.122C99.9352 334.122 86.1311 347.92 86.1311 364.874L86.1311 583.023C86.1311 589.983 88.5416 596.332 92.4526 601.492 88.6367 604.453 86.1311 609.029 86.1311 614.216L86.1311 628.883C86.1311 637.791 93.3829 645.043 102.298 645.043L576.695 645.043C585.603 645.043 592.862 637.791 592.862 628.883L592.862 614.216C592.862 609.022 590.356 604.446 586.541 601.492 590.452 596.332 592.862 589.983 592.862 583.023L592.862 364.874C592.862 347.92 579.065 334.122 562.11 334.122ZM191.132 190.819C191.132 115.023 252.798 53.349 328.602 53.349L350.405 53.349C426.201 53.349 487.875 115.016 487.875 190.819L487.875 334.122 445.112 334.122C450.041 324.691 453.151 314.268 453.932 303.296 460.505 302.501 466.663 299.405 471.219 294.523 476.61 288.738 479.279 281.194 478.722 273.27 478.084 264.124 472.645 255.739 464.185 250.823 461.224 249.105 458.108 248.045 454.903 247.509L454.903 241.907 454.903 241.575C454.903 231.661 446.836 223.595 436.923 223.595L369.41 223.595C360.216 223.595 353.637 233.026 350.731 241.907 350.5 242.607 350.296 243.299 350.113 243.985L328.908 243.985C328.724 243.299 328.521 242.607 328.29 241.907 325.377 233.033 318.804 223.595 309.61 223.595L242.097 223.595C232.184 223.595 224.117 231.661 224.117 241.575L224.117 241.907 224.117 247.509C220.906 248.045 217.796 249.105 214.836 250.829 206.375 255.739 200.943 264.131 200.298 273.277 199.748 281.201 202.41 288.745 207.801 294.53 212.35 299.405 218.509 302.508 225.075 303.302 225.842 314.268 228.952 324.691 233.895 334.129L191.138 334.129 191.138 190.819ZM230.106 291.814C225.034 292.316 219.847 290.435 216.275 286.613 213.104 283.204 211.529 278.757 211.855 274.078 212.221 268.85 215.589 263.785 220.641 260.851 221.789 260.186 222.943 259.724 224.104 259.364L224.104 259.568C224.104 283.523 243.591 303.01 267.546 303.01L288.052 303.01C311.159 303.01 329.96 284.216 329.96 261.103L329.96 258.23 349.04 258.23 349.04 261.103C349.04 284.209 367.835 303.01 390.948 303.01L411.454 303.01C435.409 303.01 454.896 283.523 454.896 259.568L454.896 259.371C456.057 259.731 457.205 260.193 458.359 260.858 463.417 263.791 466.779 268.857 467.145 274.078 467.471 278.757 465.903 283.204 462.725 286.613 459.153 290.435 453.973 292.303 448.894 291.814L442.525 291.305 442.525 297.701C442.525 310.941 438.607 323.476 431.688 334.122L247.319 334.122C240.4 323.455 236.475 310.894 236.475 297.585L236.475 291.189 230.106 291.814ZM238.349 259.575 238.349 241.581C238.349 239.558 240.06 237.847 242.084 237.847L309.386 237.82C311.478 238.492 315.715 246.042 315.715 251.115L315.715 261.109C315.715 276.36 303.309 288.765 288.059 288.765L267.553 288.765C251.447 288.765 238.349 275.667 238.349 259.575ZM363.285 261.109 363.285 251.115C363.285 246.042 367.522 238.492 369.396 237.847L436.909 237.847C438.933 237.847 440.644 239.558 440.644 241.581L440.644 259.575C440.644 275.674 427.546 288.772 411.447 288.772L390.941 288.772C375.697 288.765 363.285 276.36 363.285 261.109ZM575.222 627.403 103.778 627.403 103.778 615.704 575.215 615.704 575.215 627.403ZM575.222 583.03C575.222 590.261 569.341 596.142 562.11 596.142L116.89 596.142C109.658 596.142 103.778 590.261 103.778 583.03L103.778 364.874C103.778 357.65 109.658 351.769 116.89 351.769L562.103 351.769C569.335 351.769 575.215 357.65 575.215 364.874L575.215 583.03Z" fill="#000000" fill-rule="nonzero" fill-opacity="1" transform="matrix(1 0 0 1 1135 689)"/><path d="M339.5 443.333C321.717 443.333 307.247 457.802 307.247 475.585 307.247 493.368 321.717 507.838 339.5 507.838 357.283 507.838 371.752 493.368 371.752 475.585 371.752 457.802 357.283 443.333 339.5 443.333ZM339.5 494.251C329.206 494.251 320.827 485.879 320.827 475.578 320.827 465.278 329.2 456.906 339.5 456.906 349.8 456.906 358.172 465.278 358.172 475.578 358.172 485.879 349.8 494.251 339.5 494.251Z" fill="#000000" fill-rule="nonzero" fill-opacity="1" transform="matrix(1 0 0 1 1135 689)"/></g></g></g><rect x="1404" y="1092" width="141" height="141" fill="#FFFFFF" fill-opacity="1"/><g clip-path="url(#clip10)"><g clip-path="url(#clip11)"><g clip-path="url(#clip12)"><path d="M98.7187 32.9062 73.4062 32.9062 73.4062 45.5625 67.0781 45.5625C64.9847 45.5625 63.2812 47.266 63.2812 49.3593 63.2812 51.4527 64.9847 53.1562 67.0781 53.1562L73.4062 53.1562 73.4062 65.8125 81 65.8125 81 64.5468C81 59.6615 84.974 55.6875 89.8593 55.6875 94.7446 55.6875 98.7187 59.6615 98.7187 64.5468L98.7187 65.8125 106.312 65.8125 106.312 40.5C106.312 36.3133 102.905 32.9062 98.7187 32.9062Z" fill="#649CD9" fill-rule="nonzero" fill-opacity="1" transform="matrix(1 0 0 1 1404 1081)"/><path d="M73.4062 5.0625 68.3437 5.0625C34.792 5.0625 7.59375 32.2608 7.59375 65.8125L7.59375 79.7723C7.59375 93.5246 13.0562 106.712 22.7812 116.437L22.7812 156.937 83.5312 156.937 83.5312 141.75 70.875 141.75 70.875 136.687 83.5312 136.687 118.969 136.687C124.56 136.687 129.094 132.154 129.094 126.562L129.094 124.031C122.115 124.031 116.437 118.354 116.437 111.375L121.5 111.375C121.5 115.562 124.907 118.969 129.094 118.969L129.094 103.781 154.406 103.781 134.156 65.8125C134.156 32.2608 106.958 5.0625 73.4062 5.0625ZM45.5625 141.75 40.5 141.75 40.5 136.687 45.5625 136.687 45.5625 141.75ZM55.6875 141.75 50.625 141.75 50.625 136.687 55.6875 136.687 55.6875 141.75ZM65.8125 141.75 60.75 141.75 60.75 136.687 65.8125 136.687 65.8125 141.75ZM111.375 96.1874C111.375 103.166 105.697 108.844 98.7187 108.844L43.0312 108.844C36.0526 108.844 30.375 103.166 30.375 96.1874L30.375 40.5C30.375 33.5213 36.0526 27.8437 43.0312 27.8437L98.7187 27.8437C105.697 27.8437 111.375 33.5213 111.375 40.5L111.375 96.1874Z" fill="#649CD9" fill-rule="nonzero" fill-opacity="1" transform="matrix(1 0 0 1 1404 1081)"/><path d="M48.0937 72.1406C48.0937 74.2339 49.7973 75.9375 51.8906 75.9375 53.9839 75.9375 55.6875 74.2339 55.6875 72.1406L55.6875 65.8125 68.3437 65.8125 68.3437 58.2187 67.0781 58.2187C62.1928 58.2187 58.2187 54.2447 58.2187 49.3593 58.2187 44.474 62.1928 40.5 67.0781 40.5L68.3437 40.5 68.3437 32.9062 43.0312 32.9062C38.8445 32.9062 35.4375 36.3133 35.4375 40.5L35.4375 65.8125 48.0937 65.8125 48.0937 72.1406Z" fill="#649CD9" fill-rule="nonzero" fill-opacity="1" transform="matrix(1 0 0 1 1404 1081)"/><path d="M93.6562 64.5468C93.6562 62.4535 91.9527 60.75 89.8593 60.75 87.766 60.75 86.0625 62.4535 86.0625 64.5468L86.0625 70.875 73.4062 70.875 73.4062 78.4687 74.6718 78.4687C79.5571 78.4687 83.5312 82.4428 83.5312 87.3281 83.5312 92.2134 79.5571 96.1874 74.6718 96.1874L73.4062 96.1874 73.4062 103.781 98.7187 103.781C102.905 103.781 106.312 100.374 106.312 96.1874L106.312 70.875 93.6562 70.875 93.6562 64.5468Z" fill="#649CD9" fill-rule="nonzero" fill-opacity="1" transform="matrix(1 0 0 1 1404 1081)"/><path d="M78.4687 87.3281C78.4687 85.2347 76.7652 83.5312 74.6718 83.5312L68.3437 83.5312 68.3437 70.875 60.75 70.875 60.75 72.1406C60.75 77.0259 56.7759 81 51.8906 81 47.0053 81 43.0312 77.0259 43.0312 72.1406L43.0312 70.875 35.4375 70.875 35.4375 96.1874C35.4375 100.374 38.8445 103.781 43.0312 103.781L68.3437 103.781 68.3437 91.1249 74.6718 91.1249C76.7652 91.1249 78.4687 89.4214 78.4687 87.3281Z" fill="#649CD9" fill-rule="nonzero" fill-opacity="1" transform="matrix(1 0 0 1 1404 1081)"/></g></g></g></g></svg>