<svg width="2679" height="1325" xmlns="http://www.w3.org/2000/svg" xmlns:xlink="http://www.w3.org/1999/xlink" overflow="hidden"><defs><clipPath id="clip0"><rect x="434" y="228" width="2679" height="1325"/></clipPath><clipPath id="clip1"><rect x="656" y="413" width="912" height="913"/></clipPath><clipPath id="clip2"><rect x="656" y="413" width="912" height="913"/></clipPath><clipPath id="clip3"><rect x="656" y="413" width="912" height="913"/></clipPath><clipPath id="clip4"><rect x="1905" y="272" width="1208" height="1210"/></clipPath><clipPath id="clip5"><rect x="1905" y="272" width="1208" height="1210"/></clipPath><clipPath id="clip6"><rect x="1905" y="272" width="1208" height="1210"/></clipPath></defs><g clip-path="url(#clip0)" transform="translate(-434 -228)"><path d="M508.5 878C508.5 544.144 779.144 273.5 1113 273.5 1446.86 273.5 1717.5 544.144 1717.5 878 1717.5 1211.86 1446.86 1482.5 1113 1482.5 779.144 1482.5 508.5 1211.86 508.5 878Z" stroke="#916CBF" stroke-width="20.625" stroke-linejoin="round" stroke-miterlimit="10" fill="none" fill-rule="evenodd"/><g clip-path="url(#clip1)"><g clip-path="url(#clip2)"><g clip-path="url(#clip3)"><path d="M245.97 72.88 245.97 236.86C245.971 246.4 254.65 255.079 264.19 255.08L300.63 255.08 300.63 309.74C300.63 314.318 298.91 316.937 290.951 322.836 282.991 328.734 270.02 335.241 255.935 342.764 241.848 350.287 226.433 359.025 213.801 372.371 201.168 385.717 191.879 404.663 191.879 427.315L191.31 838.12C191.311 847.66 199.99 856.339 209.53 856.34L701.47 856.34C711.01 856.339 719.689 847.66 719.69 838.12L719.121 427.315C719.121 404.663 709.832 385.717 697.199 372.371 684.567 359.025 669.152 350.287 655.065 342.764 640.98 335.241 628.009 328.734 620.049 322.836 612.09 316.937 610.37 314.318 610.37 309.74L610.37 255.08 646.81 255.08C656.35 255.079 665.029 246.4 665.03 236.86L665.03 72.88C665.029 63.3403 656.35 54.6609 646.81 54.66L264.19 54.66C254.271 54.66 245.97 64.6696 245.97 72.88ZM282.41 91.1 628.59 91.1 628.59 218.64 282.41 218.64ZM337.07 255.08 573.93 255.08 573.93 309.74C573.93 328.48 585.982 342.946 598.413 352.158 610.844 361.371 624.884 367.936 637.984 374.933 651.085 381.93 662.966 389.227 670.724 397.424 678.482 405.62 682.681 413.791 682.681 427.315L683.25 819.9 227.75 819.9 228.319 427.315C228.319 413.791 232.518 405.62 240.276 397.424 248.034 389.227 259.915 381.93 273.016 374.933 286.116 367.936 300.156 361.371 312.587 352.158 325.017 342.946 337.07 328.48 337.07 309.74ZM508.737 364.116C503.444 364.562 498.408 367.455 495.356 371.802L376.926 535.782C372.935 541.193 372.302 548.885 375.357 554.875 378.41 560.865 385.006 564.872 391.73 564.82L483.399 564.82 386.036 699.762C380.446 707.513 382.413 719.652 390.164 725.242 397.916 730.831 410.054 728.865 415.644 721.113L534.074 557.133C537.906 551.723 538.44 544.156 535.405 538.261 532.369 532.366 525.901 528.404 519.27 528.38L427.315 528.38 524.964 393.153C529.138 387.552 529.666 379.474 526.259 373.376 522.852 367.279 515.694 363.495 508.737 364.116Z" fill="#916CBF" transform="matrix(1 0 0 1.0011 657 414)"/></g></g></g><g clip-path="url(#clip4)"><g clip-path="url(#clip5)"><g clip-path="url(#clip6)"><path d="M566.25 578.33 566.25 592.172C509.877 598.463 465.583 646.028 465.583 704.163 465.583 766.577 516.42 817.413 578.833 817.413L629.167 817.413C650.055 817.413 666.917 834.275 666.917 855.163 666.917 876.052 650.055 892.913 629.167 892.913L503.333 892.913C482.445 892.913 465.583 909.775 465.583 930.663 465.583 951.552 482.445 968.413 503.333 968.413L566.25 968.413 566.25 980.997C566.25 1001.89 583.112 1018.75 604 1018.75 624.888 1018.75 641.75 1001.89 641.75 980.997L641.75 967.155C698.123 960.863 742.417 913.298 742.417 855.163 742.417 792.75 691.58 741.913 629.167 741.913L578.833 741.913C557.945 741.913 541.083 725.052 541.083 704.163 541.083 683.275 557.945 666.413 578.833 666.413L704.667 666.413C725.555 666.413 742.417 649.552 742.417 628.663 742.417 607.775 725.555 590.913 704.667 590.913L641.75 590.913 641.75 578.33C641.75 557.442 624.888 540.58 604 540.58 583.112 540.58 566.25 557.693 566.25 578.33Z" fill="#1D0D5C" transform="matrix(1 0 0 1.00083 1905 273)"/><path d="M633.948 77.2617C619.603 58.6383 588.145 58.6383 574.052 77.2617L171.385 604C162.577 615.325 161.067 630.677 167.61 643.763 173.902 656.598 186.988 664.652 201.333 664.652L314.583 664.652 314.583 1106.83C314.583 1127.72 331.445 1144.58 352.333 1144.58L855.667 1144.58C876.555 1144.58 893.417 1127.72 893.417 1106.83L893.417 664.652 1006.67 664.652C1021.01 664.652 1034.1 656.598 1040.39 643.763 1046.68 630.928 1045.17 615.577 1036.61 604L633.948 77.2617ZM855.667 589.152C834.778 589.152 817.917 606.013 817.917 626.902 817.917 626.902 817.917 626.902 817.917 626.902 817.917 626.902 817.917 626.902 817.917 626.902L817.917 1069.08 390.083 1069.08 390.083 626.902C390.083 626.902 390.083 626.902 390.083 626.902 390.083 626.902 390.083 626.902 390.083 626.902 390.083 606.013 373.222 589.152 352.333 589.152L277.84 589.152 604 162.325 930.16 589.152 855.667 589.152Z" fill="#1D0D5C" transform="matrix(1 0 0 1.00083 1905 273)"/></g></g></g></g></svg>