<svg width="1229" height="1229" xmlns="http://www.w3.org/2000/svg" xmlns:xlink="http://www.w3.org/1999/xlink" overflow="hidden"><defs><clipPath id="clip0"><rect x="1036" y="314" width="1229" height="1229"/></clipPath><clipPath id="clip1"><rect x="1193" y="465" width="914" height="912"/></clipPath><clipPath id="clip2"><rect x="1193" y="465" width="914" height="912"/></clipPath><clipPath id="clip3"><rect x="1193" y="465" width="914" height="912"/></clipPath></defs><g clip-path="url(#clip0)" transform="translate(-1036 -314)"><path d="M1046.5 928.5C1046.5 594.92 1316.92 324.5 1650.5 324.5 1984.08 324.5 2254.5 594.92 2254.5 928.5 2254.5 1262.08 1984.08 1532.5 1650.5 1532.5 1316.92 1532.5 1046.5 1262.08 1046.5 928.5Z" stroke="#916CBF" stroke-width="20.625" stroke-linejoin="round" stroke-miterlimit="10" fill="none" fill-rule="evenodd"/><g clip-path="url(#clip1)"><g clip-path="url(#clip2)"><g clip-path="url(#clip3)"><path d="M245.97 72.88 245.97 236.86C245.971 246.4 254.65 255.079 264.19 255.08L300.63 255.08 300.63 309.74C300.63 314.318 298.91 316.937 290.951 322.836 282.991 328.734 270.02 335.241 255.935 342.764 241.848 350.287 226.433 359.025 213.801 372.371 201.168 385.717 191.879 404.663 191.879 427.315L191.31 838.12C191.311 847.66 199.99 856.339 209.53 856.34L701.47 856.34C711.01 856.339 719.689 847.66 719.69 838.12L719.121 427.315C719.121 404.663 709.832 385.717 697.199 372.371 684.567 359.025 669.152 350.287 655.065 342.764 640.98 335.241 628.009 328.734 620.049 322.836 612.09 316.937 610.37 314.318 610.37 309.74L610.37 255.08 646.81 255.08C656.35 255.079 665.029 246.4 665.03 236.86L665.03 72.88C665.029 63.3403 656.35 54.6609 646.81 54.66L264.19 54.66C254.271 54.66 245.97 64.6696 245.97 72.88ZM282.41 91.1 628.59 91.1 628.59 218.64 282.41 218.64ZM337.07 255.08 573.93 255.08 573.93 309.74C573.93 328.48 585.982 342.946 598.413 352.158 610.844 361.371 624.884 367.936 637.984 374.933 651.085 381.93 662.966 389.227 670.724 397.424 678.482 405.62 682.681 413.791 682.681 427.315L683.25 819.9 227.75 819.9 228.319 427.315C228.319 413.791 232.518 405.62 240.276 397.424 248.034 389.227 259.915 381.93 273.016 374.933 286.116 367.936 300.156 361.371 312.587 352.158 325.017 342.946 337.07 328.48 337.07 309.74ZM508.737 364.116C503.444 364.562 498.408 367.455 495.356 371.802L376.926 535.782C372.935 541.193 372.302 548.885 375.357 554.875 378.41 560.865 385.006 564.872 391.73 564.82L483.399 564.82 386.036 699.762C380.446 707.513 382.413 719.652 390.164 725.242 397.916 730.831 410.054 728.865 415.644 721.113L534.074 557.133C537.906 551.723 538.44 544.156 535.405 538.261 532.369 532.366 525.901 528.404 519.27 528.38L427.315 528.38 524.964 393.153C529.138 387.552 529.666 379.474 526.259 373.376 522.852 367.279 515.694 363.495 508.737 364.116Z" fill="#916CBF" transform="matrix(1.0011 0 0 1 1194 465)"/></g></g></g></g></svg>