<svg width="2571" height="618" xmlns="http://www.w3.org/2000/svg" xmlns:xlink="http://www.w3.org/1999/xlink" overflow="hidden"><defs><clipPath id="clip0"><rect x="362" y="614" width="2571" height="618"/></clipPath><clipPath id="clip1"><rect x="2479" y="625" width="344" height="346"/></clipPath><clipPath id="clip2"><rect x="2479" y="625" width="344" height="346"/></clipPath><clipPath id="clip3"><rect x="2479" y="625" width="344" height="346"/></clipPath><clipPath id="clip4"><rect x="536" y="654" width="267" height="266"/></clipPath><clipPath id="clip5"><rect x="536" y="654" width="267" height="266"/></clipPath><clipPath id="clip6"><rect x="536" y="654" width="267" height="266"/></clipPath><clipPath id="clip7"><rect x="678" y="767" width="204" height="204"/></clipPath><clipPath id="clip8"><rect x="678" y="767" width="204" height="204"/></clipPath><clipPath id="clip9"><rect x="678" y="767" width="204" height="204"/></clipPath><clipPath id="clip10"><rect x="1493" y="614" width="346" height="346"/></clipPath><clipPath id="clip11"><rect x="1493" y="614" width="346" height="346"/></clipPath><clipPath id="clip12"><rect x="1493" y="614" width="346" height="346"/></clipPath></defs><g clip-path="url(#clip0)" transform="translate(-362 -614)"><g clip-path="url(#clip1)"><g clip-path="url(#clip2)"><g clip-path="url(#clip3)"><path d="M193.5 118.25 204.25 118.25 204.25 172 193.5 172Z" fill="#649CD9" fill-rule="nonzero" fill-opacity="1" transform="matrix(1 0 0 1 2479 626)"/><path d="M172 177.375C172 186.281 179.219 193.5 188.125 193.5L284.875 193.5C293.781 193.5 301 186.281 301 177.375L301 102.125C301 93.2191 293.781 85.9999 284.875 85.9999L188.125 85.9999C179.219 85.9999 172 93.2191 172 102.125L172 136.6 158.1 150.5 172 164.4ZM182.75 107.5 215 107.5 215 118.25 225.75 118.25 225.75 112.875C225.75 103.969 232.969 96.7499 241.875 96.7499 250.781 96.7499 258 103.969 258 112.875L258 118.25 274.125 118.25C283.031 118.25 290.25 125.469 290.25 134.375L290.25 145.125C290.232 159.96 278.21 171.982 263.375 172L215 172 215 182.75 182.75 182.75Z" fill="#649CD9" fill-rule="nonzero" fill-opacity="1" transform="matrix(1 0 0 1 2479 626)"/><path d="M279.5 145.125 279.5 134.375C279.5 131.406 277.093 129 274.125 129L247.25 129 247.25 112.875C247.25 109.906 244.843 107.5 241.875 107.5 238.906 107.5 236.5 109.906 236.5 112.875L236.5 129 215 129 215 161.25 263.375 161.25C272.281 161.25 279.5 154.031 279.5 145.125Z" fill="#649CD9" fill-rule="nonzero" fill-opacity="1" transform="matrix(1 0 0 1 2479 626)"/><path d="M115.562 215.274 91.3749 251.55 67.1874 215.258C53.4884 216.607 43.0358 228.109 43 241.875L43 322.5 139.75 322.5 139.75 241.875C139.706 228.116 129.255 216.623 115.562 215.274ZM95.1912 299.441C93.0836 301.59 89.6329 301.624 87.484 299.517 85.3345 297.409 85.3006 293.958 87.4082 291.809 89.5157 289.66 92.9665 289.626 95.1154 291.734 96.1608 292.758 96.7499 294.161 96.7499 295.625 96.729 297.048 96.1726 298.411 95.1912 299.441ZM95.1912 272.566C93.0836 274.674 89.6662 274.674 87.5587 272.566 85.4511 270.458 85.4511 267.041 87.5587 264.934 88.0725 264.448 88.6745 264.064 89.3324 263.805 90.63 263.213 92.1199 263.213 93.4174 263.805 94.0678 264.079 94.6676 264.461 95.1912 264.934 97.2697 267.053 97.2697 270.447 95.1912 272.566Z" fill="#649CD9" fill-rule="nonzero" fill-opacity="1" transform="matrix(1 0 0 1 2479 626)"/><path d="M66.5586 171.521C72.2555 185.227 87.9849 191.72 101.691 186.022 111.702 181.861 118.232 172.092 118.25 161.25L118.25 155.875 102.125 155.875C88.6106 155.922 75.7251 161.591 66.5586 171.521Z" fill="#649CD9" fill-rule="nonzero" fill-opacity="1" transform="matrix(1 0 0 1 2479 626)"/><path d="M102.834 215 79.9154 215 91.3749 232.184 102.834 215Z" fill="#649CD9" fill-rule="nonzero" fill-opacity="1" transform="matrix(1 0 0 1 2479 626)"/><path d="M21.5 21.5 21.5 53.75 322.5 53.75 322.5 21.5ZM41.4412 41.4412C40.4106 42.4225 39.0479 42.9791 37.625 43 36.9226 42.9915 36.2287 42.8454 35.5825 42.57 34.9247 42.3102 34.3226 41.9271 33.8087 41.4412 31.73 39.3216 31.73 35.9283 33.8087 33.8087 34.3226 33.3228 34.9247 32.9397 35.5825 32.68 37.5841 31.8382 39.8956 32.2836 41.4412 33.8087 43.5199 35.9283 43.5199 39.3216 41.4412 41.4412ZM62.9412 41.4412C60.8218 43.5199 57.4281 43.5199 55.3087 41.4412 55.0776 41.1859 54.862 40.9166 54.6637 40.635 54.46 40.3354 54.2977 40.0101 54.18 39.6675 54.0246 39.3629 53.916 39.0368 53.8575 38.7 53.7978 38.3445 53.7618 37.9853 53.75 37.625 53.7586 36.9226 53.9048 36.2287 54.18 35.5825 54.4525 34.9313 54.8341 34.3315 55.3087 33.8087 57.4641 31.8199 60.7858 31.8199 62.9412 33.8087 63.4158 34.3315 63.7974 34.9313 64.0699 35.5825 64.3451 36.2287 64.4913 36.9226 64.4999 37.625 64.479 39.0479 63.9227 40.4106 62.9412 41.4412ZM84.4412 41.4412C83.4108 42.4225 82.0477 42.9791 80.6249 43 80.2643 42.9908 79.9052 42.9549 79.5499 42.8925 79.2129 42.8339 78.8872 42.7253 78.5824 42.57 78.2384 42.4515 77.9116 42.2889 77.6096 42.0862L76.8087 41.4412C75.8251 40.4121 75.2682 39.0484 75.2499 37.625 75.2311 36.9199 75.3784 36.2203 75.6799 35.5825 75.9396 34.9247 76.3228 34.3226 76.8087 33.8087L77.6096 33.1637C77.9116 32.9611 78.2384 32.7984 78.5824 32.68 78.8872 32.5247 79.2129 32.416 79.5499 32.3575 81.3188 32.031 83.1367 32.5705 84.4412 33.8087 84.9271 34.3226 85.3103 34.9247 85.5699 35.5825 85.8688 36.2211 86.0155 36.9201 85.9999 37.625 85.979 39.0479 85.4227 40.4106 84.4412 41.4412Z" fill="#649CD9" fill-rule="nonzero" fill-opacity="1" transform="matrix(1 0 0 1 2479 626)"/><path d="M21.5 301 32.25 301 32.25 241.875C32.2737 221.105 49.105 204.273 69.8749 204.25L112.875 204.25C133.645 204.273 150.476 221.105 150.5 241.875L150.5 301 322.5 301 322.5 64.4999 21.5 64.4999ZM161.25 132.15 161.25 102.125C161.268 87.2894 173.289 75.2677 188.125 75.2499L284.875 75.2499C299.71 75.2677 311.732 87.2894 311.75 102.125L311.75 177.375C311.732 192.21 299.71 204.232 284.875 204.25L188.125 204.25C173.289 204.232 161.268 192.21 161.25 177.375L161.25 168.85 142.9 150.5ZM91.3749 123.625 129 123.625 129 161.25C129 182.03 112.155 198.875 91.3749 198.875 70.5952 198.875 53.75 182.03 53.75 161.25 53.75 140.47 70.5952 123.625 91.3749 123.625Z" fill="#649CD9" fill-rule="nonzero" fill-opacity="1" transform="matrix(1 0 0 1 2479 626)"/><path d="M118.25 145.125 118.25 134.375 91.3749 134.375C77.6477 134.417 66.1689 144.82 64.7794 158.476 75.3306 149.879 88.5144 145.165 102.125 145.125Z" fill="#649CD9" fill-rule="nonzero" fill-opacity="1" transform="matrix(1 0 0 1 2479 626)"/></g></g></g><g clip-path="url(#clip4)"><g clip-path="url(#clip5)"><g clip-path="url(#clip6)"><path d="M227.533 165.143 38.4662 165.143C29.5978 165.143 22.3945 157.943 22.3945 149.072L22.3945 116.928C22.3945 108.057 29.5978 100.856 38.4662 100.856L227.533 100.856C236.402 100.856 243.605 108.057 243.605 116.928L243.605 149.072C243.605 157.943 236.402 165.143 227.533 165.143ZM209.541 116.678C218.548 116.678 225.86 123.993 225.86 133 225.86 142.007 218.548 149.322 209.541 149.322 200.532 149.322 193.22 142.007 193.22 133 193.22 123.993 200.532 116.678 209.541 116.678ZM135.663 124.275 46.9436 124.275 46.9436 141.725 135.663 141.725 135.663 124.275Z" fill="#649CD9" fill-rule="evenodd" fill-opacity="1" transform="matrix(-1 0 0 1 803 654)"/><path d="M227.533 165.143 38.4662 165.143C29.5978 165.143 22.3945 157.943 22.3945 149.072L22.3945 116.928C22.3945 108.057 29.5978 100.856 38.4662 100.856L227.533 100.856C236.402 100.856 243.605 108.057 243.605 116.928L243.605 149.072C243.605 157.943 236.402 165.143 227.533 165.143ZM209.541 116.678C218.548 116.678 225.86 123.993 225.86 133 225.86 142.007 218.548 149.322 209.541 149.322 200.532 149.322 193.22 142.007 193.22 133 193.22 123.993 200.532 116.678 209.541 116.678ZM135.663 124.275 46.9436 124.275 46.9436 141.725 135.663 141.725 135.663 124.275Z" fill="#649CD9" fill-rule="evenodd" fill-opacity="1" transform="matrix(-1 0 0 1 803 733.8)"/><path d="M227.533 165.143 38.4662 165.143C29.5978 165.143 22.3945 157.943 22.3945 149.072L22.3945 116.928C22.3945 108.057 29.5978 100.856 38.4662 100.856L227.533 100.856C236.402 100.856 243.605 108.057 243.605 116.928L243.605 149.072C243.605 157.943 236.402 165.143 227.533 165.143ZM209.541 116.678C218.548 116.678 225.86 123.993 225.86 133 225.86 142.007 218.548 149.322 209.541 149.322 200.532 149.322 193.22 142.007 193.22 133 193.22 123.993 200.532 116.678 209.541 116.678ZM135.663 124.275 46.9436 124.275 46.9436 141.725 135.663 141.725 135.663 124.275Z" fill="#649CD9" fill-rule="evenodd" fill-opacity="1" transform="matrix(-1 0 0 1 803 574.2)"/></g></g></g><path d="M692 868.5C692 821.832 730.056 784 777 784 823.944 784 862 821.832 862 868.5 862 915.168 823.944 953 777 953 730.056 953 692 915.168 692 868.5Z" fill="#FFFFFF" fill-rule="evenodd" fill-opacity="1"/><g clip-path="url(#clip7)"><g clip-path="url(#clip8)"><g clip-path="url(#clip9)"><path d="M780 780.12C730.961 780.12 691.12 819.961 691.12 869 691.12 918.039 730.961 957.88 780 957.88 829.039 957.88 868.88 918.039 868.88 869 868.88 819.961 829.039 780.12 780 780.12ZM780 788.2C824.672 788.2 860.8 824.327 860.8 869 860.8 913.672 824.672 949.8 780 949.8 735.327 949.8 699.2 913.672 699.2 869 699.2 824.327 735.327 788.2 780 788.2ZM780 800.32C742.117 800.32 711.32 831.117 711.32 869 711.32 906.883 742.117 937.68 780 937.68 817.883 937.68 848.68 906.883 848.68 869 848.68 831.117 817.883 800.32 780 800.32ZM775.96 808.526 775.96 818.5C775.928 820.731 777.711 822.566 779.943 822.597 782.174 822.629 784.008 820.845 784.04 818.614 784.041 818.576 784.041 818.538 784.04 818.5L784.04 808.526C792.134 809.061 799.854 811.192 806.765 814.586L801.778 823.234C800.454 825.031 800.837 827.56 802.633 828.884 804.429 830.208 806.959 829.825 808.283 828.029 808.456 827.794 808.603 827.541 808.722 827.274L813.709 818.626C820.275 823.023 825.905 828.669 830.31 835.228L821.726 840.215C819.791 841.331 819.127 843.804 820.242 845.738 821.358 847.673 823.831 848.337 825.766 847.222L834.351 842.235C837.752 849.152 839.939 856.856 840.474 864.96L830.5 864.96C830.374 864.954 830.247 864.954 830.121 864.96 827.89 865.064 826.166 866.957 826.27 869.189 826.374 871.42 828.267 873.144 830.498 873.04 830.499 873.04 830.499 873.04 830.5 873.04L840.474 873.04C839.941 881.114 837.793 888.805 834.414 895.702L825.766 890.715C825.063 890.293 824.248 890.095 823.43 890.147 821.203 890.28 819.504 892.193 819.637 894.42 819.719 895.807 820.508 897.054 821.726 897.722L830.374 902.709C825.961 909.299 820.299 914.961 813.709 919.374L808.722 910.663C807.913 909.229 806.314 908.43 804.682 908.643 802.473 908.958 800.938 911.005 801.254 913.214 801.329 913.74 801.507 914.246 801.778 914.703L806.765 923.351C799.847 926.752 792.144 928.939 784.04 929.474L784.04 919.5C784.088 917.269 782.318 915.422 780.087 915.374 779.911 915.37 779.734 915.378 779.558 915.397 777.477 915.626 775.915 917.406 775.96 919.5L775.96 929.474C744.348 927.387 719.4 901.149 719.4 869 719.4 836.851 744.348 810.613 775.96 808.526ZM746.733 832.072C744.512 832.289 742.888 834.265 743.105 836.486 743.196 837.419 743.608 838.291 744.271 838.953L767.564 862.246C766.455 864.26 765.86 866.555 765.86 869 765.86 876.761 772.239 883.14 780 883.14 787.761 883.14 794.14 876.761 794.14 869 794.14 861.239 787.761 854.86 780 854.86 777.575 854.86 775.312 855.471 773.309 856.564L750.015 833.271C749.16 832.394 747.952 831.953 746.733 832.072ZM780 862.94C783.395 862.94 786.06 865.605 786.06 869 786.06 872.395 783.395 875.06 780 875.06 776.605 875.06 773.94 872.395 773.94 869 773.94 865.605 776.605 862.94 780 862.94Z" fill="#649CD9" fill-rule="nonzero" fill-opacity="1"/></g></g></g><g clip-path="url(#clip10)"><g clip-path="url(#clip11)"><g clip-path="url(#clip12)"><path d="M1725.12 846.125C1708.59 862.667 1708.59 889.485 1725.13 906.024 1741.67 922.563 1768.49 922.56 1785.03 906.019 1801.57 889.48 1801.57 862.665 1785.03 846.125 1768.48 829.596 1741.67 829.596 1725.12 846.125ZM1777.53 898.531C1765.21 910.872 1745.21 910.888 1732.87 898.566 1732.86 898.555 1732.85 898.542 1732.84 898.531 1720.49 886.19 1720.49 866.178 1732.84 853.835 1745.18 841.492 1765.19 841.49 1777.53 853.832 1789.87 866.173 1789.87 886.185 1777.53 898.529 1777.53 898.529 1777.53 898.531 1777.53 898.531Z" fill="#649CD9" fill-rule="nonzero" fill-opacity="1"/><path d="M1834.37 882.433C1833.68 881.109 1832.46 880.135 1831.01 879.746L1822.52 877.461C1822.52 876.565 1822.52 875.669 1822.52 874.774L1831.01 872.489C1832.46 872.1 1833.68 871.126 1834.37 869.802 1835.2 868.243 1839.26 860.208 1837.6 853.972 1835.93 847.737 1828.38 842.819 1826.85 841.879 1825.59 841.1 1824.06 840.876 1822.63 841.261L1814.16 843.545C1813.73 842.766 1813.28 841.986 1812.82 841.234L1819.19 835.16C1820.24 834.111 1820.82 832.671 1820.77 831.182 1820.77 829.436 1820.21 820.432 1815.64 815.864 1811.07 811.295 1802.2 810.811 1800.32 810.758 1798.84 810.686 1797.4 811.254 1796.37 812.316L1790.16 818.524 1787.85 817.181 1790.11 808.715C1790.49 807.283 1790.27 805.757 1789.49 804.496 1788.58 802.991 1783.63 795.466 1777.4 793.746 1771.16 792.026 1763.13 796.138 1761.57 796.971 1760.25 797.661 1759.28 798.868 1758.88 800.303L1756.6 808.796 1753.91 808.796 1751.57 800.438C1751.17 799.002 1750.2 797.796 1748.88 797.105 1747.32 796.272 1739.29 792.187 1733.05 793.88 1726.82 795.573 1721.87 803.071 1720.96 804.63 1720.18 805.891 1719.96 807.418 1720.34 808.849L1722.63 817.315 1720.31 818.659 1714.11 812.451C1713.05 811.404 1711.61 810.84 1710.13 810.892 1708.38 810.892 1699.38 811.429 1694.81 815.998 1690.24 820.567 1689.76 829.57 1689.7 831.317 1689.65 832.801 1690.22 834.241 1691.26 835.294L1697.47 841.503C1697.01 842.255 1696.56 843.034 1696.13 843.814L1687.66 841.529C1686.23 841.145 1684.7 841.368 1683.44 842.147 1681.94 843.088 1674.41 848.006 1672.69 854.241 1670.97 860.476 1675.08 868.512 1675.92 870.071 1676.61 871.389 1677.81 872.363 1679.25 872.758L1687.74 875.043C1687.74 875.938 1687.74 876.834 1687.74 877.73L1679.44 879.799C1678 880.195 1676.8 881.168 1676.1 882.487 1675.27 884.046 1671.19 892.081 1672.85 898.316 1674.52 904.551 1682.07 909.496 1683.6 910.41 1684.86 911.189 1686.39 911.412 1687.82 911.028L1696.29 908.771C1696.72 909.55 1697.17 910.302 1697.63 911.082L1691.42 917.29C1690.38 918.338 1689.82 919.765 1689.86 921.241 1689.86 922.987 1690.4 931.991 1694.97 936.559 1699.54 941.128 1708.54 941.639 1710.29 941.693 1711.78 941.738 1713.22 941.163 1714.27 940.107L1720.48 933.899 1722.79 935.243 1720.5 943.708C1720.12 945.141 1720.34 946.667 1721.12 947.927 1722.03 949.433 1726.98 956.958 1733.21 958.678 1734.28 958.946 1735.37 959.083 1736.47 959.081 1740.87 958.804 1745.17 957.565 1749.04 955.453 1750.37 954.756 1751.34 953.539 1751.73 952.093L1754.02 943.601C1754.91 943.601 1755.81 943.601 1756.7 943.601L1758.99 952.093C1759.38 953.539 1760.35 954.756 1761.67 955.453 1763.23 956.286 1771.27 960.344 1777.5 958.678 1783.74 957.011 1788.68 949.459 1789.6 947.927 1790.38 946.667 1790.6 945.141 1790.22 943.708L1787.96 935.243 1790.27 933.899 1796.48 940.107C1797.51 941.177 1798.95 941.754 1800.43 941.693 1802.18 941.693 1811.18 941.128 1815.75 936.559 1820.32 931.991 1820.83 923.122 1820.88 921.241 1820.92 919.763 1820.35 918.333 1819.29 917.29L1813.09 911.082C1813.54 910.302 1814 909.55 1814.43 908.771L1822.9 911.028C1824.33 911.412 1825.86 911.189 1827.12 910.41 1828.62 909.496 1836.15 904.551 1837.87 898.316 1839.59 892.081 1835.31 883.992 1834.37 882.433ZM1827.25 895.494C1826.22 897.282 1824.8 898.808 1823.08 899.956L1812.82 897.268C1810.3 896.594 1807.66 897.83 1806.56 900.198 1805.15 903.173 1803.5 906.021 1801.61 908.717 1800.1 910.856 1800.35 913.772 1802.2 915.624L1809.75 923.149C1809.6 925.205 1808.99 927.199 1807.95 928.981 1806.17 930.021 1804.18 930.636 1802.12 930.781L1794.6 923.229C1792.75 921.375 1789.83 921.125 1787.69 922.638 1785.01 924.544 1782.16 926.199 1779.17 927.583 1776.8 928.682 1775.57 931.324 1776.24 933.845L1778.93 944.111C1777.78 945.823 1776.25 947.25 1774.47 948.277 1772.4 948.298 1770.35 947.828 1768.5 946.906L1765.81 936.613C1765.16 934.03 1762.71 932.313 1760.06 932.582 1756.78 932.851 1753.48 932.851 1750.2 932.582 1747.61 932.362 1745.23 934.025 1744.56 936.533L1741.87 946.826C1740.01 947.758 1737.96 948.245 1735.88 948.25 1734.07 947.234 1732.53 945.807 1731.39 944.084L1734.07 933.818C1734.75 931.297 1733.51 928.655 1731.14 927.556 1728.16 926.167 1725.31 924.511 1722.63 922.611 1720.49 921.114 1717.59 921.364 1715.75 923.203L1708.19 930.754C1706.14 930.599 1704.15 929.983 1702.36 928.954 1701.32 927.175 1700.71 925.178 1700.56 923.122L1708.11 915.597C1709.97 913.745 1710.22 910.829 1708.7 908.69 1706.81 906 1705.16 903.148 1703.76 900.171 1702.69 897.83 1700.11 896.58 1697.6 897.188L1687.34 899.875C1685.63 898.722 1684.21 897.196 1683.17 895.414 1683.16 893.347 1683.63 891.305 1684.54 889.448L1694.84 886.76C1697.38 886.088 1699.06 883.679 1698.81 881.062 1698.52 877.781 1698.52 874.481 1698.81 871.199 1699.03 868.603 1697.36 866.224 1694.84 865.556L1684.54 862.868C1683.63 861.003 1683.16 858.952 1683.17 856.875 1684.19 855.073 1685.62 853.535 1687.34 852.387L1697.6 855.074C1700.13 855.748 1702.77 854.512 1703.87 852.145 1705.28 849.173 1706.93 846.324 1708.81 843.626 1710.31 841.492 1710.06 838.592 1708.22 836.746L1700.67 829.301C1700.82 827.247 1701.44 825.254 1702.47 823.469 1704.25 822.43 1706.24 821.814 1708.3 821.669L1715.85 829.221C1717.7 831.06 1720.6 831.309 1722.73 829.812 1725.43 827.93 1728.28 826.276 1731.25 824.867 1733.62 823.768 1734.86 821.127 1734.18 818.605L1731.49 808.339C1732.62 806.635 1734.12 805.211 1735.88 804.173 1737.93 804.169 1739.97 804.638 1741.81 805.544L1744.5 815.837C1745.17 818.356 1747.55 820.032 1750.15 819.814 1753.43 819.519 1756.73 819.519 1760.01 819.814 1762.61 820.045 1765.01 818.366 1765.68 815.837L1768.37 805.544C1770.23 804.644 1772.27 804.175 1774.33 804.173 1776.15 805.191 1777.7 806.617 1778.88 808.339L1776.19 818.605C1775.51 821.127 1776.75 823.768 1779.12 824.867 1782.09 826.27 1784.94 827.925 1787.64 829.812 1789.78 831.324 1792.69 831.074 1794.54 829.221L1802.07 821.669C1804.12 821.814 1806.12 822.43 1807.9 823.469 1808.95 825.244 1809.57 827.242 1809.7 829.301L1802.15 836.853C1800.31 838.7 1800.06 841.6 1801.56 843.733 1803.45 846.425 1805.1 849.275 1806.5 852.253 1807.6 854.62 1810.24 855.855 1812.76 855.182L1823.03 852.494C1824.76 853.605 1826.2 855.106 1827.25 856.875 1827.27 858.935 1826.8 860.972 1825.88 862.814L1815.59 865.502C1813.08 866.181 1811.42 868.557 1811.64 871.146 1811.9 874.428 1811.9 877.727 1811.64 881.009 1811.4 883.607 1813.07 885.999 1815.59 886.679L1825.88 889.367C1826.82 891.27 1827.29 893.371 1827.25 895.494Z" fill="#649CD9" fill-rule="nonzero" fill-opacity="1"/><path d="M1681.35 815.729C1681.25 815.008 1681.02 814.313 1680.65 813.687L1678.2 809.414C1681.86 806.27 1685.27 802.856 1688.41 799.201L1692.69 801.647C1693.31 802.016 1694.01 802.253 1694.73 802.346 1704.48 803.501 1716.87 803.528 1720.58 797.132 1724.29 790.736 1717.9 780.013 1712.14 772.138 1711.71 771.56 1711.16 771.075 1710.53 770.714L1706.31 768.188C1707.91 763.632 1709.16 758.96 1710.05 754.212L1714.97 754.212C1715.69 754.205 1716.42 754.059 1717.09 753.782 1726.12 749.912 1736.87 743.731 1736.87 736.341 1736.87 728.95 1726.12 722.903 1717.09 718.926 1716.42 718.64 1715.7 718.493 1714.97 718.496L1710.02 718.496C1709.14 713.767 1707.9 709.112 1706.31 704.574L1710.56 702.129C1711.19 701.773 1711.74 701.288 1712.17 700.704 1718.06 692.83 1724.29 682.107 1720.61 675.711 1716.93 669.314 1704.48 669.341 1694.76 670.524 1694.04 670.608 1693.34 670.836 1692.71 671.196L1688.44 673.668C1685.29 669.978 1681.86 666.537 1678.17 663.375L1680.65 659.102C1681.02 658.475 1681.25 657.78 1681.35 657.059 1682.5 647.304 1682.53 634.914 1676.13 631.206 1669.74 627.497 1659.01 633.893 1651.14 639.644 1650.56 640.08 1650.07 640.629 1649.71 641.257L1647.19 645.557C1642.66 643.977 1638.01 642.746 1633.29 641.875L1633.29 636.903C1633.29 636.174 1633.14 635.454 1632.86 634.78 1628.99 625.75 1622.81 615 1615.42 615 1608.03 615 1601.98 625.75 1598.01 634.78 1597.71 635.449 1597.56 636.172 1597.55 636.903L1597.55 641.875C1592.8 642.76 1588.13 644.009 1583.57 645.611L1581.13 641.364C1580.77 640.732 1580.29 640.183 1579.7 639.752 1571.94 633.812 1561.19 627.577 1554.71 631.259 1548.23 634.941 1548.34 647.384 1549.52 657.113 1549.6 657.835 1549.83 658.532 1550.2 659.156L1552.67 663.375C1548.98 666.543 1545.54 669.984 1542.37 673.668L1538.1 671.196C1537.47 670.836 1536.78 670.608 1536.06 670.524 1526.3 669.341 1513.91 669.314 1510.21 675.711 1506.5 682.107 1512.81 692.937 1518.7 700.704 1519.13 701.288 1519.68 701.773 1520.31 702.129L1524.56 704.574C1522.97 709.14 1521.74 713.821 1520.87 718.576L1515.9 718.576C1515.17 718.574 1514.45 718.72 1513.78 719.006 1504.75 722.876 1494 729.031 1494 736.421 1494 743.812 1504.75 749.859 1513.78 753.863 1514.45 754.14 1515.17 754.286 1515.9 754.293L1520.87 754.293C1521.75 759.012 1522.98 763.657 1524.56 768.188L1520.31 770.633C1519.68 770.994 1519.13 771.479 1518.7 772.057 1512.81 780.013 1506.58 790.736 1510.26 797.132 1513.94 803.528 1526.38 803.501 1536.11 802.346 1536.83 802.253 1537.53 802.016 1538.16 801.647L1542.37 799.201C1545.53 802.856 1548.95 806.27 1552.61 809.414L1550.14 813.687C1549.77 814.311 1549.54 815.008 1549.47 815.729 1548.29 825.485 1548.26 837.874 1554.66 841.583 1561.05 845.292 1571.78 838.896 1579.65 833.144 1580.23 832.714 1580.72 832.164 1581.07 831.532L1583.57 827.312C1588.13 828.914 1592.8 830.163 1597.55 831.048L1597.55 835.966C1597.56 836.698 1597.71 837.42 1598.01 838.089 1601.88 847.119 1608.03 857.869 1615.42 857.869 1622.81 857.869 1628.86 847.119 1632.86 838.089 1633.14 837.415 1633.29 836.695 1633.29 835.966L1633.29 831.021C1638.01 830.148 1642.66 828.908 1647.19 827.312L1649.63 831.559C1649.99 832.187 1650.48 832.735 1651.06 833.171 1658.93 839.057 1669.65 845.292 1676.05 841.61 1682.45 837.928 1682.5 825.485 1681.35 815.729ZM1667.91 803.904C1665.79 805.556 1665.22 808.516 1666.56 810.838L1670.76 818.068C1671.31 822.644 1671.22 827.276 1670.49 831.828 1666.17 830.202 1662.11 827.966 1658.42 825.189L1654.26 817.96C1652.91 815.646 1650.07 814.672 1647.59 815.676 1641.02 818.313 1634.15 820.119 1627.14 821.051 1624.47 821.428 1622.49 823.728 1622.52 826.426L1622.52 834.784C1620.72 839.028 1618.32 842.992 1615.39 846.555 1612.49 842.979 1610.09 839.018 1608.27 834.784L1608.27 826.453C1608.3 823.755 1606.32 821.455 1603.65 821.078 1596.64 820.146 1589.76 818.34 1583.2 815.703 1580.72 814.699 1577.88 815.672 1576.53 817.987L1572.37 825.216C1568.69 827.987 1564.63 830.222 1560.33 831.854 1559.57 827.306 1559.47 822.671 1560.03 818.094L1564.22 810.865C1565.57 808.542 1565 805.583 1562.88 803.931 1557.29 799.579 1552.26 794.551 1547.91 788.962 1546.26 786.845 1543.3 786.272 1540.98 787.618L1533.77 791.784C1529.2 792.349 1524.56 792.25 1520.01 791.488 1521.65 787.181 1523.88 783.127 1526.65 779.448L1533.88 775.282C1536.2 773.939 1537.17 771.098 1536.17 768.617 1533.53 762.05 1531.73 755.18 1530.79 748.166 1530.41 745.494 1528.11 743.516 1525.42 743.543L1517.03 743.543C1512.79 741.745 1508.82 739.347 1505.26 736.421 1508.83 733.516 1512.79 731.127 1517.03 729.326L1525.39 729.326C1528.1 729.351 1530.4 727.359 1530.76 724.677 1531.7 717.663 1533.51 710.793 1536.14 704.225 1537.14 701.744 1536.17 698.903 1533.86 697.56L1526.63 693.394C1523.86 689.715 1521.62 685.661 1519.99 681.354 1524.54 680.593 1529.17 680.493 1533.75 681.059L1540.98 685.251C1543.3 686.598 1546.26 686.024 1547.91 683.907 1552.26 678.319 1557.29 673.291 1562.88 668.938 1565 667.287 1565.57 664.327 1564.22 662.004L1560.06 654.775C1559.49 650.198 1559.59 645.563 1560.35 641.015 1564.66 642.647 1568.72 644.882 1572.39 647.653L1576.56 654.882C1577.9 657.197 1580.74 658.171 1583.22 657.167 1589.79 654.536 1596.66 652.73 1603.68 651.792 1606.35 651.414 1608.33 649.115 1608.3 646.417L1608.3 638.032C1610.12 633.798 1612.51 629.836 1615.42 626.261 1618.35 629.823 1620.75 633.787 1622.54 638.032L1622.54 646.39C1622.52 649.088 1624.49 651.387 1627.17 651.765 1634.18 652.7 1641.05 654.506 1647.62 657.14 1650.1 658.144 1652.94 657.17 1654.28 654.856L1658.45 647.626C1662.13 644.849 1666.2 642.614 1670.51 640.988 1671.25 645.539 1671.34 650.172 1670.78 654.748L1666.59 661.977C1665.24 664.3 1665.82 667.26 1667.93 668.911 1673.53 673.257 1678.56 678.285 1682.9 683.881 1684.56 685.997 1687.52 686.571 1689.84 685.224L1697.07 681.032C1701.64 680.466 1706.28 680.566 1710.83 681.327 1709.2 685.634 1706.96 689.688 1704.19 693.367L1696.96 697.533C1694.65 698.876 1693.67 701.718 1694.68 704.198 1697.31 710.767 1699.11 717.636 1700.05 724.65 1700.42 727.332 1702.72 729.324 1705.43 729.299L1713.78 729.299C1718.03 731.08 1722 733.47 1725.55 736.394 1721.99 739.32 1718.03 741.718 1713.78 743.516L1705.45 743.516C1702.75 743.49 1700.46 745.467 1700.08 748.139 1699.14 755.153 1697.34 762.023 1694.7 768.591 1693.7 771.071 1694.67 773.912 1696.99 775.256L1704.22 779.421C1706.99 783.1 1709.22 787.154 1710.85 791.461 1706.31 792.223 1701.67 792.323 1697.09 791.757L1689.86 787.564C1687.54 786.218 1684.58 786.791 1682.93 788.908 1678.57 794.508 1673.53 799.545 1667.93 803.904Z" fill="#649CD9" fill-rule="nonzero" fill-opacity="1"/><path d="M1687.5 760.125C1687.5 757.156 1685.09 754.75 1682.12 754.75L1676.75 754.75 1676.75 711.75 1682.12 711.75C1685.09 711.75 1687.5 709.344 1687.5 706.375 1687.5 703.406 1685.09 701 1682.12 701L1660.62 701C1657.66 701 1655.25 703.406 1655.25 706.375 1655.25 709.344 1657.66 711.75 1660.62 711.75L1666 711.75 1666 754.75 1660.62 754.75C1657.66 754.75 1655.25 757.156 1655.25 760.125 1655.25 763.094 1657.66 765.5 1660.62 765.5L1682.12 765.5C1685.09 765.5 1687.5 763.094 1687.5 760.125Z" fill="#649CD9" fill-rule="nonzero" fill-opacity="1"/><path d="M1574.17 704.037C1573.36 702.017 1571.42 700.681 1569.25 700.651L1569.25 700.651C1567.06 700.659 1565.09 701.999 1564.28 704.037L1542.78 758.244C1541.68 761.001 1543.02 764.128 1545.78 765.228 1545.78 765.229 1545.79 765.23 1545.79 765.231 1546.42 765.445 1547.08 765.536 1547.75 765.5 1549.95 765.502 1551.93 764.16 1552.75 762.114L1558.77 746.876 1579.7 746.876 1585.75 762.114C1586.85 764.875 1589.98 766.222 1592.74 765.124 1595.5 764.025 1596.85 760.897 1595.75 758.136ZM1563.01 736.287 1569.25 720.592 1575.46 736.233Z" fill="#649CD9" fill-rule="nonzero" fill-opacity="1"/><path d="M1625.69 701 1612.25 701C1609.28 701 1606.87 703.406 1606.87 706.375L1606.87 760.125C1606.87 763.094 1609.28 765.5 1612.25 765.5 1615.22 765.5 1617.62 763.094 1617.62 760.125L1617.62 746.688 1625.69 746.688C1639.12 746.688 1649.87 736.663 1649.87 723.844 1649.87 711.024 1639.26 701 1625.69 701ZM1625.69 735.938 1617.62 735.938 1617.62 711.75 1625.69 711.75C1632.68 711.327 1638.69 716.654 1639.11 723.647 1639.12 723.712 1639.12 723.778 1639.12 723.844 1638.81 730.843 1632.88 736.262 1625.88 735.948 1625.82 735.945 1625.75 735.942 1625.69 735.938Z" fill="#649CD9" fill-rule="nonzero" fill-opacity="1"/></g></g></g><text fill="#1D0D5C" fill-opacity="1" font-family="Open Sans,Open Sans_MSFontService,sans-serif" font-style="normal" font-variant="normal" font-weight="400" font-stretch="normal" font-size="64" text-anchor="start" direction="ltr" writing-mode="lr-tb" unicode-bidi="normal" text-decoration="none" transform="matrix(1 0 0 1 403.183 1137)">Server Performance<tspan fill="#1D0D5C" fill-opacity="1" font-family="Open Sans,Open Sans_MSFontService,sans-serif" font-style="normal" font-variant="normal" font-weight="400" font-stretch="normal" font-size="64" text-anchor="start" direction="ltr" writing-mode="lr-tb" unicode-bidi="normal" text-decoration="none" x="940.306" y="-39">Frontend &amp; Backend </tspan><tspan fill="#1D0D5C" fill-opacity="1" font-family="Open Sans,Open Sans_MSFontService,sans-serif" font-style="normal" font-variant="normal" font-weight="400" font-stretch="normal" font-size="64" text-anchor="start" direction="ltr" writing-mode="lr-tb" unicode-bidi="normal" text-decoration="none" x="1081.52" y="38">decoupling</tspan><tspan fill="#1D0D5C" fill-opacity="1" font-family="Open Sans,Open Sans_MSFontService,sans-serif" font-style="normal" font-variant="normal" font-weight="400" font-stretch="normal" font-size="64" text-anchor="start" direction="ltr" writing-mode="lr-tb" unicode-bidi="normal" text-decoration="none" x="2002.41" y="0">User Experience</tspan></text></g></svg>