<svg width="1554" height="692" xmlns="http://www.w3.org/2000/svg" xmlns:xlink="http://www.w3.org/1999/xlink" overflow="hidden"><defs><clipPath id="clip0"><rect x="847" y="632" width="1554" height="692"/></clipPath><clipPath id="clip1"><rect x="897" y="638" width="681" height="679"/></clipPath><clipPath id="clip2"><rect x="897" y="638" width="681" height="679"/></clipPath><clipPath id="clip3"><rect x="897" y="638" width="681" height="679"/></clipPath><clipPath id="clip4"><rect x="1167" y="1029" width="162" height="164"/></clipPath><clipPath id="clip5"><rect x="1167" y="1029" width="162" height="164"/></clipPath><clipPath id="clip6"><rect x="1167" y="1029" width="162" height="164"/></clipPath><clipPath id="clip7"><rect x="1741" y="773" width="556" height="513"/></clipPath><clipPath id="clip8"><rect x="1741" y="773" width="556" height="513"/></clipPath><clipPath id="clip9"><rect x="1741" y="773" width="556" height="513"/></clipPath><radialGradient cx="443.062" cy="1438.78" r="280.586" gradientUnits="userSpaceOnUse" spreadMethod="pad" id="fill10" gradientTransform="matrix(1.43817 0 0 -1.43817 -577.013 2548.27)"><stop offset="0" stop-color="#2B2B2B" stop-opacity="1"/><stop offset="1" stop-color="#838383" stop-opacity="1"/></radialGradient><radialGradient cx="517.438" cy="1793.23" r="271.138" gradientUnits="userSpaceOnUse" spreadMethod="pad" id="fill11" gradientTransform="matrix(1.43817 0 0 -1.43817 -577.013 2548.27)"><stop offset="0" stop-color="#FFFFFF" stop-opacity="0.8"/><stop offset="1" stop-color="#FFFFFF" stop-opacity="0.2"/></radialGradient><linearGradient x1="250.974" y1="270.095" x2="434.822" y2="53.9383" gradientUnits="userSpaceOnUse" spreadMethod="pad" id="fill12"><stop offset="0" stop-color="#227716" stop-opacity="1"/><stop offset="1" stop-color="#20B228" stop-opacity="1"/></linearGradient><radialGradient cx="710.572" cy="1585.01" r="88.692" gradientUnits="userSpaceOnUse" spreadMethod="pad" id="fill13" gradientTransform="matrix(1.13025 -0.889367 -2.52944 -3.21458 3543.14 5920.36)"><stop offset="0" stop-color="#FFFFFF" stop-opacity="0.4"/><stop offset="0.998" stop-color="#FFFFFF" stop-opacity="0"/><stop offset="1" stop-color="#FFFFFF" stop-opacity="0"/></radialGradient></defs><g clip-path="url(#clip0)" transform="translate(-847 -632)"><g clip-path="url(#clip1)"><g clip-path="url(#clip2)"><g clip-path="url(#clip3)"><path d="M282.681 252.934C291.624 252.934 298.896 260.206 298.896 269.149L304.267 269.149 309.638 269.149C309.638 254.285 297.545 242.192 282.681 242.192 267.818 242.192 255.725 254.285 255.725 269.149L261.096 269.149 266.46 269.149C266.46 260.206 273.739 252.934 282.681 252.934Z" fill="#000000" fill-rule="nonzero" fill-opacity="1" transform="matrix(1 0 0 1 898 638)"/><path d="M412.54 269.149 417.904 269.149 423.275 269.149C423.275 254.285 411.182 242.192 396.319 242.192 381.455 242.192 369.362 254.285 369.362 269.149L374.733 269.149 380.104 269.149C380.104 260.206 387.376 252.934 396.319 252.934 405.261 252.934 412.54 260.206 412.54 269.149Z" fill="#000000" fill-rule="nonzero" fill-opacity="1" transform="matrix(1 0 0 1 898 638)"/><path d="M339.486 324.338C339.493 324.338 339.493 324.338 339.5 324.338 345.699 324.338 351.926 321.581 356.556 316.76 361.201 311.939 363.727 305.625 363.489 299.425 363.394 296.852 361.269 294.883 358.661 294.951 356.088 295.046 354.085 297.212 354.187 299.778 354.329 303.459 352.747 307.295 349.855 310.296 346.962 313.297 343.187 315.022 339.507 315.022 339.507 315.022 339.507 315.022 339.5 315.022 335.813 315.022 332.045 313.297 329.152 310.289 326.259 307.281 324.684 303.445 324.834 299.758 324.935 297.185 322.932 295.025 320.359 294.924 317.697 294.659 315.62 296.825 315.524 299.398 315.28 305.597 317.806 311.919 322.437 316.74 327.061 321.561 333.28 324.331 339.486 324.338Z" fill="#000000" fill-rule="nonzero" fill-opacity="1" transform="matrix(1 0 0 1 898 638)"/><path d="M562.11 334.122 507.274 334.122 507.274 190.819C507.274 104.322 436.902 33.95 350.405 33.95L328.602 33.95C242.097 33.95 171.726 104.322 171.726 190.819L171.726 334.122 116.89 334.122C99.9352 334.122 86.1311 347.92 86.1311 364.874L86.1311 583.023C86.1311 589.983 88.5416 596.332 92.4526 601.492 88.6367 604.453 86.1311 609.029 86.1311 614.216L86.1311 628.883C86.1311 637.791 93.3829 645.043 102.298 645.043L576.695 645.043C585.603 645.043 592.862 637.791 592.862 628.883L592.862 614.216C592.862 609.022 590.356 604.446 586.541 601.492 590.452 596.332 592.862 589.983 592.862 583.023L592.862 364.874C592.862 347.92 579.065 334.122 562.11 334.122ZM191.132 190.819C191.132 115.023 252.798 53.349 328.602 53.349L350.405 53.349C426.201 53.349 487.875 115.016 487.875 190.819L487.875 334.122 445.112 334.122C450.041 324.691 453.151 314.268 453.932 303.296 460.505 302.501 466.663 299.405 471.219 294.523 476.61 288.738 479.279 281.194 478.722 273.27 478.084 264.124 472.645 255.739 464.185 250.823 461.224 249.105 458.108 248.045 454.903 247.509L454.903 241.907 454.903 241.575C454.903 231.661 446.836 223.595 436.923 223.595L369.41 223.595C360.216 223.595 353.637 233.026 350.731 241.907 350.5 242.607 350.296 243.299 350.113 243.985L328.908 243.985C328.724 243.299 328.521 242.607 328.29 241.907 325.377 233.033 318.804 223.595 309.61 223.595L242.097 223.595C232.184 223.595 224.117 231.661 224.117 241.575L224.117 241.907 224.117 247.509C220.906 248.045 217.796 249.105 214.836 250.829 206.375 255.739 200.943 264.131 200.298 273.277 199.748 281.201 202.41 288.745 207.801 294.53 212.35 299.405 218.509 302.508 225.075 303.302 225.842 314.268 228.952 324.691 233.895 334.129L191.138 334.129 191.138 190.819ZM230.106 291.814C225.034 292.316 219.847 290.435 216.275 286.613 213.104 283.204 211.529 278.757 211.855 274.078 212.221 268.85 215.589 263.785 220.641 260.851 221.789 260.186 222.943 259.724 224.104 259.364L224.104 259.568C224.104 283.523 243.591 303.01 267.546 303.01L288.052 303.01C311.159 303.01 329.96 284.216 329.96 261.103L329.96 258.23 349.04 258.23 349.04 261.103C349.04 284.209 367.835 303.01 390.948 303.01L411.454 303.01C435.409 303.01 454.896 283.523 454.896 259.568L454.896 259.371C456.057 259.731 457.205 260.193 458.359 260.858 463.417 263.791 466.779 268.857 467.145 274.078 467.471 278.757 465.903 283.204 462.725 286.613 459.153 290.435 453.973 292.303 448.894 291.814L442.525 291.305 442.525 297.701C442.525 310.941 438.607 323.476 431.688 334.122L247.319 334.122C240.4 323.455 236.475 310.894 236.475 297.585L236.475 291.189 230.106 291.814ZM238.349 259.575 238.349 241.581C238.349 239.558 240.06 237.847 242.084 237.847L309.386 237.82C311.478 238.492 315.715 246.042 315.715 251.115L315.715 261.109C315.715 276.36 303.309 288.765 288.059 288.765L267.553 288.765C251.447 288.765 238.349 275.667 238.349 259.575ZM363.285 261.109 363.285 251.115C363.285 246.042 367.522 238.492 369.396 237.847L436.909 237.847C438.933 237.847 440.644 239.558 440.644 241.581L440.644 259.575C440.644 275.674 427.546 288.772 411.447 288.772L390.941 288.772C375.697 288.765 363.285 276.36 363.285 261.109ZM575.222 627.403 103.778 627.403 103.778 615.704 575.215 615.704 575.215 627.403ZM575.222 583.03C575.222 590.261 569.341 596.142 562.11 596.142L116.89 596.142C109.658 596.142 103.778 590.261 103.778 583.03L103.778 364.874C103.778 357.65 109.658 351.769 116.89 351.769L562.103 351.769C569.335 351.769 575.215 357.65 575.215 364.874L575.215 583.03Z" fill="#000000" fill-rule="nonzero" fill-opacity="1" transform="matrix(1 0 0 1 898 638)"/><path d="M339.5 443.333C321.717 443.333 307.247 457.802 307.247 475.585 307.247 493.368 321.717 507.838 339.5 507.838 357.283 507.838 371.752 493.368 371.752 475.585 371.752 457.802 357.283 443.333 339.5 443.333ZM339.5 494.251C329.206 494.251 320.827 485.879 320.827 475.578 320.827 465.278 329.2 456.906 339.5 456.906 349.8 456.906 358.172 465.278 358.172 475.578 358.172 485.879 349.8 494.251 339.5 494.251Z" fill="#000000" fill-rule="nonzero" fill-opacity="1" transform="matrix(1 0 0 1 898 638)"/></g></g></g><rect x="1167" y="1040" width="141" height="141" fill="#FFFFFF" fill-opacity="1"/><g clip-path="url(#clip4)"><g clip-path="url(#clip5)"><g clip-path="url(#clip6)"><path d="M98.7187 32.9062 73.4062 32.9062 73.4062 45.5625 67.0781 45.5625C64.9847 45.5625 63.2812 47.266 63.2812 49.3593 63.2812 51.4527 64.9847 53.1562 67.0781 53.1562L73.4062 53.1562 73.4062 65.8125 81 65.8125 81 64.5468C81 59.6615 84.974 55.6875 89.8593 55.6875 94.7446 55.6875 98.7187 59.6615 98.7187 64.5468L98.7187 65.8125 106.312 65.8125 106.312 40.5C106.312 36.3133 102.905 32.9062 98.7187 32.9062Z" fill="#649CD9" fill-rule="nonzero" fill-opacity="1" transform="matrix(1 0 0 1 1167 1030)"/><path d="M73.4062 5.0625 68.3437 5.0625C34.792 5.0625 7.59375 32.2608 7.59375 65.8125L7.59375 79.7723C7.59375 93.5246 13.0562 106.712 22.7812 116.437L22.7812 156.937 83.5312 156.937 83.5312 141.75 70.875 141.75 70.875 136.687 83.5312 136.687 118.969 136.687C124.56 136.687 129.094 132.154 129.094 126.562L129.094 124.031C122.115 124.031 116.437 118.354 116.437 111.375L121.5 111.375C121.5 115.562 124.907 118.969 129.094 118.969L129.094 103.781 154.406 103.781 134.156 65.8125C134.156 32.2608 106.958 5.0625 73.4062 5.0625ZM45.5625 141.75 40.5 141.75 40.5 136.687 45.5625 136.687 45.5625 141.75ZM55.6875 141.75 50.625 141.75 50.625 136.687 55.6875 136.687 55.6875 141.75ZM65.8125 141.75 60.75 141.75 60.75 136.687 65.8125 136.687 65.8125 141.75ZM111.375 96.1874C111.375 103.166 105.697 108.844 98.7187 108.844L43.0312 108.844C36.0526 108.844 30.375 103.166 30.375 96.1874L30.375 40.5C30.375 33.5213 36.0526 27.8437 43.0312 27.8437L98.7187 27.8437C105.697 27.8437 111.375 33.5213 111.375 40.5L111.375 96.1874Z" fill="#649CD9" fill-rule="nonzero" fill-opacity="1" transform="matrix(1 0 0 1 1167 1030)"/><path d="M48.0937 72.1406C48.0937 74.2339 49.7973 75.9375 51.8906 75.9375 53.9839 75.9375 55.6875 74.2339 55.6875 72.1406L55.6875 65.8125 68.3437 65.8125 68.3437 58.2187 67.0781 58.2187C62.1928 58.2187 58.2187 54.2447 58.2187 49.3593 58.2187 44.474 62.1928 40.5 67.0781 40.5L68.3437 40.5 68.3437 32.9062 43.0312 32.9062C38.8445 32.9062 35.4375 36.3133 35.4375 40.5L35.4375 65.8125 48.0937 65.8125 48.0937 72.1406Z" fill="#649CD9" fill-rule="nonzero" fill-opacity="1" transform="matrix(1 0 0 1 1167 1030)"/><path d="M93.6562 64.5468C93.6562 62.4535 91.9527 60.75 89.8593 60.75 87.766 60.75 86.0625 62.4535 86.0625 64.5468L86.0625 70.875 73.4062 70.875 73.4062 78.4687 74.6718 78.4687C79.5571 78.4687 83.5312 82.4428 83.5312 87.3281 83.5312 92.2134 79.5571 96.1874 74.6718 96.1874L73.4062 96.1874 73.4062 103.781 98.7187 103.781C102.905 103.781 106.312 100.374 106.312 96.1874L106.312 70.875 93.6562 70.875 93.6562 64.5468Z" fill="#649CD9" fill-rule="nonzero" fill-opacity="1" transform="matrix(1 0 0 1 1167 1030)"/><path d="M78.4687 87.3281C78.4687 85.2347 76.7652 83.5312 74.6718 83.5312L68.3437 83.5312 68.3437 70.875 60.75 70.875 60.75 72.1406C60.75 77.0259 56.7759 81 51.8906 81 47.0053 81 43.0312 77.0259 43.0312 72.1406L43.0312 70.875 35.4375 70.875 35.4375 96.1874C35.4375 100.374 38.8445 103.781 43.0312 103.781L68.3437 103.781 68.3437 91.1249 74.6718 91.1249C76.7652 91.1249 78.4687 89.4214 78.4687 87.3281Z" fill="#649CD9" fill-rule="nonzero" fill-opacity="1" transform="matrix(1 0 0 1 1167 1030)"/></g></g></g><path d="M1219.6 928 1198 951.158 1213.92 968.526 1252.58 972 1281 962.737 1269.63 944.211 1258.26 931.474 1219.6 928Z" fill="#FFFFFF" fill-rule="evenodd" fill-opacity="1"/><path d="M1216.5 956C1216.5 943.022 1227.02 932.5 1240 932.5 1252.76 932.5 1263.19 942.689 1263.49 955.45" stroke="#000000" stroke-width="9.16667" stroke-linecap="round" stroke-linejoin="round" stroke-miterlimit="10" stroke-opacity="1" fill="none" fill-rule="evenodd"/><g clip-path="url(#clip7)"><g clip-path="url(#clip8)"><g clip-path="url(#clip9)"><path d="M419.571 511.769 86.9197 502.287C46.6464 500.565 0.201255 452.667 0.782657 412.684L2.37033 78.4446C2.95174 38.3279 48.5248 0.357786 88.6639 0.782657L416.843 12.8579C456.826 13.4393 502.712 50.4031 502.131 90.3858L502.131 431.669C502.131 475.23 467.47 511.769 419.571 511.769Z" stroke="#2C2C2C" stroke-width="1.55928" stroke-linecap="butt" stroke-linejoin="miter" stroke-miterlimit="10" stroke-opacity="1" fill="url(#fill10)" fill-rule="nonzero" transform="matrix(1 0 0 1.00076 1741 773.03)"/><path d="M29.4056 386.499 82.3356 373.708C84.4823 380.036 92.9797 395.712 100.448 402.04 107.917 408.368 128.915 411.812 142.869 410.515 156.822 409.218 163.732 396.986 164.448 387.93 165.029 379.007 160.713 372.679 152.506 368.52 144.3 364.361 135.109 361.901 122.162 358.032 109.214 354.298 86.07 349.11 67.8005 336.744 49.6876 324.378 45.2152 296.046 45.0811 285.983 44.9469 275.92 47.3843 261.095 53.8468 250.316 60.3317 239.381 81.4635 215.79 123.459 215.79 165.454 215.79 183.008 229.162 192.623 236.922 202.261 244.681 217.646 272.454 217.646 272.454L169.322 289.852C161.116 265.835 145.887 257.628 125.024 257.628 104.161 257.628 99.2857 270.867 99.2857 278.76 99.2857 286.676 103.892 296.158 123.727 301.345 143.562 306.533 176.366 314.718 192.042 324.78 207.717 334.843 222.096 355.707 222.096 380.014 222.096 404.321 212.614 417.559 204.408 426.615 196.201 435.538 176.366 456.245 134.08 456.245 93.4046 456.11 52.2815 438.132 29.4056 386.499ZM397.143 380.461C397.143 380.461 405.059 282.092 313.152 282.092 230.034 282.092 233.187 367.379 233.187 373.26 233.187 397.858 247.566 460.985 317.759 460.985 387.952 460.985 397.143 402.018 397.143 402.018L349.244 396.405C346.941 402.442 342.2 424.156 319.771 424.156 297.343 424.156 290.142 406.043 288.42 400.139 286.699 394.236 287.123 380.439 287.123 380.439ZM286.699 351.972C286.699 351.972 285.402 314.718 317.625 314.718 349.848 314.718 347.679 351.972 347.679 351.972Z" stroke="#2C2C2C" stroke-width="0.779527" stroke-linecap="butt" stroke-linejoin="miter" stroke-miterlimit="10" stroke-opacity="1" fill="#FFFFFF" fill-rule="nonzero" fill-opacity="1" transform="matrix(1 0 0 1.00076 1741 773.03)"/><path d="M18.8956 113.105 18.8956 278.626C18.8956 278.626 38.462 366.06 99.7106 367.782 160.959 369.504 389.942 378.851 410.649 377.845 431.356 376.838 485.874 348.372 485.874 293.139L485.874 129.362C485.874 97.5862 467.47 35.7339 397.277 32.4244 327.106 29.1149 129.921 24.0835 107.649 24.0835 71.2442 23.927 18.8956 37.8806 18.8956 113.105Z" fill="url(#fill11)" fill-rule="nonzero" transform="matrix(1 0 0 1.00076 1741 773.03)"/><path d="M231.465 138.128 327.956 259.663 555.329 70.3944 523.978 7.4017 335.156 168.182 267.848 92.1076Z" stroke="#0C0000" stroke-width="1.03959" stroke-linecap="butt" stroke-linejoin="miter" stroke-miterlimit="10" stroke-opacity="1" fill="url(#fill12)" fill-rule="nonzero" transform="matrix(1 0 0 1.00076 1741 773.03)"/><path d="M236.787 136.831 330.997 222.252 485.315 100.717 467.492 59.8621 334.754 172.9 267.87 97.5415Z" fill="url(#fill13)" fill-rule="nonzero" transform="matrix(1 -6.20607e-17 -6.20607e-17 1.00076 1741 773.03)"/></g></g></g><rect x="852.5" y="638.5" width="1542" height="679" stroke="#2E60B3" stroke-width="9.16667" stroke-linecap="butt" stroke-linejoin="round" stroke-miterlimit="10" stroke-opacity="0" fill="none"/></g></svg>