<svg width="2291" height="943" xmlns="http://www.w3.org/2000/svg" xmlns:xlink="http://www.w3.org/1999/xlink" overflow="hidden"><defs><clipPath id="clip0"><rect x="679" y="483" width="2291" height="943"/></clipPath><clipPath id="clip1"><rect x="678" y="482" width="903" height="903"/></clipPath><clipPath id="clip2"><rect x="678" y="482" width="903" height="903"/></clipPath><clipPath id="clip3"><rect x="678" y="482" width="903" height="903"/></clipPath><clipPath id="clip4"><rect x="1036" y="1004" width="215" height="215"/></clipPath><clipPath id="clip5"><rect x="1036" y="1004" width="215" height="215"/></clipPath><clipPath id="clip6"><rect x="1036" y="1004" width="215" height="215"/></clipPath><clipPath id="clip7"><rect x="1732" y="669" width="558" height="558"/></clipPath><clipPath id="clip8"><rect x="1732" y="669" width="558" height="558"/></clipPath><clipPath id="clip9"><rect x="1732" y="669" width="558" height="558"/></clipPath><clipPath id="clip10"><rect x="2354" y="655" width="304" height="307"/></clipPath><clipPath id="clip11"><rect x="2354" y="655" width="304" height="307"/></clipPath><clipPath id="clip12"><rect x="2354" y="655" width="304" height="307"/></clipPath><clipPath id="clip13"><rect x="2311" y="929" width="406" height="408"/></clipPath><clipPath id="clip14"><rect x="2311" y="929" width="406" height="408"/></clipPath><clipPath id="clip15"><rect x="2311" y="929" width="406" height="408"/></clipPath></defs><g clip-path="url(#clip0)" transform="translate(-679 -483)"><g clip-path="url(#clip1)"><g clip-path="url(#clip2)"><g clip-path="url(#clip3)"><path d="M1054.52 819.004C1066.4 819.004 1076.06 828.664 1076.06 840.544L1083.2 840.544 1090.33 840.544C1090.33 820.799 1074.27 804.734 1054.52 804.734 1034.78 804.734 1018.71 820.799 1018.71 840.544L1025.85 840.544 1032.97 840.544C1032.97 828.664 1042.64 819.004 1054.52 819.004Z"/><path d="M1227.03 840.544 1234.15 840.544 1241.29 840.544C1241.29 820.799 1225.22 804.734 1205.48 804.734 1185.73 804.734 1169.67 820.799 1169.67 840.544L1176.8 840.544 1183.94 840.544C1183.94 828.664 1193.6 819.004 1205.48 819.004 1217.36 819.004 1227.03 828.664 1227.03 840.544Z"/><path d="M1129.98 913.858C1129.99 913.858 1129.99 913.858 1130 913.858 1138.24 913.858 1146.51 910.196 1152.66 903.792 1158.83 897.388 1162.18 888.999 1161.87 880.764 1161.74 877.345 1158.92 874.73 1155.45 874.82 1152.04 874.946 1149.37 877.823 1149.51 881.233 1149.7 886.122 1147.6 891.218 1143.76 895.205 1139.91 899.192 1134.9 901.483 1130.01 901.483 1130.01 901.483 1130.01 901.483 1130 901.483 1125.1 901.483 1120.1 899.192 1116.25 895.196 1112.41 891.2 1110.32 886.104 1110.52 881.206 1110.65 877.787 1107.99 874.919 1104.57 874.784 1101.04 874.432 1098.28 877.309 1098.15 880.728 1097.83 888.963 1101.18 897.361 1107.33 903.765 1113.48 910.169 1121.74 913.849 1129.98 913.858Z"/><path d="M1425.72 926.856 1352.88 926.856 1352.88 736.489C1352.88 621.583 1259.39 528.1 1144.49 528.1L1115.52 528.1C1000.61 528.1 907.125 621.583 907.125 736.489L907.125 926.856 834.279 926.856C811.756 926.856 793.419 945.185 793.419 967.708L793.419 1257.5C793.419 1266.75 796.621 1275.18 801.816 1282.04 796.747 1285.97 793.419 1292.05 793.419 1298.94L793.419 1318.42C793.419 1330.26 803.052 1339.89 814.895 1339.89L1445.1 1339.89C1456.93 1339.89 1466.57 1330.26 1466.57 1318.42L1466.57 1298.94C1466.57 1292.04 1463.24 1285.96 1458.17 1282.04 1463.37 1275.18 1466.57 1266.75 1466.57 1257.5L1466.57 967.708C1466.57 945.185 1448.24 926.856 1425.72 926.856ZM932.904 736.489C932.904 635.799 1014.82 553.87 1115.52 553.87L1144.49 553.87C1245.18 553.87 1327.1 635.79 1327.1 736.489L1327.1 926.856 1270.3 926.856C1276.85 914.327 1280.98 900.482 1282.01 885.905 1290.75 884.85 1298.93 880.737 1304.98 874.251 1312.14 866.566 1315.69 856.545 1314.95 846.019 1314.1 833.869 1306.87 822.729 1295.63 816.199L1295.63 816.199C1291.7 813.917 1287.56 812.51 1283.3 811.797L1283.3 804.356 1283.3 803.914C1283.3 790.744 1272.59 780.029 1259.42 780.029L1169.73 780.029C1157.52 780.029 1148.78 792.557 1144.92 804.356 1144.61 805.285 1144.34 806.205 1144.1 807.116L1115.93 807.116C1115.69 806.205 1115.41 805.285 1115.11 804.356 1111.24 792.566 1102.51 780.029 1090.29 780.029L1000.61 780.029C987.439 780.029 976.723 790.744 976.723 803.914L976.723 804.356 976.723 811.797C972.457 812.51 968.325 813.917 964.393 816.208 953.154 822.729 945.938 833.878 945.081 846.028 944.35 856.554 947.886 866.576 955.048 874.26 961.091 880.737 969.273 884.859 977.995 885.914 979.014 900.482 983.145 914.327 989.712 926.865L932.913 926.865 932.913 736.489ZM984.679 870.653C977.941 871.32 971.049 868.821 966.305 863.743 962.093 859.215 960 853.307 960.433 847.092 960.92 840.147 965.394 833.418 972.105 829.521 973.629 828.637 975.163 828.024 976.705 827.546L976.705 827.817C976.705 859.639 1002.59 885.526 1034.41 885.526L1061.66 885.526C1092.35 885.526 1117.33 860.559 1117.33 829.855L1117.33 826.04 1142.67 826.04 1142.67 829.855C1142.67 860.55 1167.64 885.526 1198.34 885.526L1225.58 885.526C1257.41 885.526 1283.29 859.639 1283.29 827.817L1283.29 827.555C1284.84 828.033 1286.36 828.646 1287.9 829.53 1294.61 833.427 1299.08 840.156 1299.57 847.092 1300 853.307 1297.92 859.215 1293.69 863.743 1288.95 868.821 1282.07 871.302 1275.32 870.653L1266.86 869.976 1266.86 878.473C1266.86 896.062 1261.66 912.713 1252.46 926.856L1007.54 926.856C998.353 912.686 993.139 895.999 993.139 878.32L993.139 869.823 984.679 870.653ZM995.629 827.826 995.629 803.923C995.629 801.235 997.902 798.962 1000.59 798.962L1090 798.926C1092.77 799.818 1098.4 809.849 1098.4 816.587L1098.4 829.864C1098.4 850.123 1081.92 866.603 1061.66 866.603L1034.42 866.603C1013.03 866.603 995.629 849.203 995.629 827.826ZM1161.6 829.864 1161.6 816.587C1161.6 809.849 1167.23 799.818 1169.71 798.962L1259.4 798.962C1262.09 798.962 1264.36 801.235 1264.36 803.923L1264.36 827.826C1264.36 849.212 1246.96 866.612 1225.58 866.612L1198.34 866.612C1178.09 866.603 1161.6 850.123 1161.6 829.864ZM1443.14 1316.46 816.862 1316.46 816.862 1300.92 1443.13 1300.92 1443.13 1316.46ZM1443.14 1257.51C1443.14 1267.12 1435.33 1274.93 1425.72 1274.93L834.279 1274.93C824.673 1274.93 816.862 1267.12 816.862 1257.51L816.862 967.708C816.862 958.11 824.673 950.299 834.279 950.299L1425.71 950.299C1435.32 950.299 1443.13 958.11 1443.13 967.708L1443.13 1257.51Z"/><path d="M1130 1071.93C1106.38 1071.93 1087.15 1091.16 1087.15 1114.78 1087.15 1138.4 1106.38 1157.62 1130 1157.62 1153.62 1157.62 1172.84 1138.4 1172.84 1114.78 1172.84 1091.16 1153.62 1071.93 1130 1071.93ZM1130 1139.57C1116.33 1139.57 1105.19 1128.45 1105.19 1114.77 1105.19 1101.09 1116.32 1089.96 1130 1089.96 1143.68 1089.96 1154.8 1101.09 1154.8 1114.77 1154.8 1128.45 1143.68 1139.57 1130 1139.57Z"/></g></g></g><rect x="1036" y="1018" width="188" height="187" fill="#FFFFFF"/><g clip-path="url(#clip4)"><g clip-path="url(#clip5)"><g clip-path="url(#clip6)"><path d="M1167.02 1047.67 1133.42 1047.67 1133.42 1064.47 1125.02 1064.47C1122.25 1064.47 1119.98 1066.73 1119.98 1069.51 1119.98 1072.29 1122.25 1074.55 1125.02 1074.55L1133.42 1074.55 1133.42 1091.34 1143.5 1091.34 1143.5 1089.66C1143.5 1083.18 1148.77 1077.91 1155.26 1077.91 1161.74 1077.91 1167.02 1083.18 1167.02 1089.66L1167.02 1091.34 1177.09 1091.34 1177.09 1057.75C1177.09 1052.19 1172.57 1047.67 1167.02 1047.67Z" fill="#649CD9"/><path d="M1133.42 1010.72 1126.7 1010.72C1082.17 1010.72 1046.08 1046.82 1046.08 1091.34L1046.08 1109.87C1046.08 1128.12 1053.33 1145.62 1066.23 1158.53L1066.23 1212.28 1146.86 1212.28 1146.86 1192.12 1130.06 1192.12 1130.06 1185.41 1146.86 1185.41 1193.89 1185.41C1201.31 1185.41 1207.33 1179.39 1207.33 1171.97L1207.33 1168.61C1198.07 1168.61 1190.53 1161.07 1190.53 1151.81L1197.25 1151.81C1197.25 1157.37 1201.77 1161.89 1207.33 1161.89L1207.33 1141.73 1240.92 1141.73 1214.05 1091.34 1214.05 1091.34C1214.05 1046.82 1177.95 1010.72 1133.42 1010.72ZM1096.47 1192.12 1089.75 1192.12 1089.75 1185.41 1096.47 1185.41 1096.47 1192.12ZM1109.91 1192.12 1103.19 1192.12 1103.19 1185.41 1109.91 1185.41 1109.91 1192.12ZM1123.34 1192.12 1116.62 1192.12 1116.62 1185.41 1123.34 1185.41 1123.34 1192.12ZM1183.81 1131.66C1183.81 1140.92 1176.28 1148.45 1167.02 1148.45L1093.11 1148.45C1083.85 1148.45 1076.31 1140.92 1076.31 1131.66L1076.31 1057.75C1076.31 1048.49 1083.85 1040.95 1093.11 1040.95L1167.02 1040.95C1176.28 1040.95 1183.81 1048.49 1183.81 1057.75L1183.81 1131.66Z" fill="#649CD9"/><path d="M1099.83 1099.74C1099.83 1102.52 1102.09 1104.78 1104.87 1104.78 1107.65 1104.78 1109.91 1102.52 1109.91 1099.74L1109.91 1091.34 1126.7 1091.34 1126.7 1081.27 1125.02 1081.27C1118.54 1081.27 1113.27 1075.99 1113.27 1069.51 1113.27 1063.02 1118.54 1057.75 1125.02 1057.75L1126.7 1057.75 1126.7 1047.67 1093.11 1047.67C1087.55 1047.67 1083.03 1052.19 1083.03 1057.75L1083.03 1091.34 1099.83 1091.34 1099.83 1099.74Z" fill="#649CD9"/><path d="M1160.3 1089.66C1160.3 1086.89 1158.04 1084.62 1155.26 1084.62 1152.48 1084.62 1150.22 1086.89 1150.22 1089.66L1150.22 1098.06 1133.42 1098.06 1133.42 1108.14 1135.1 1108.14C1141.59 1108.14 1146.86 1113.41 1146.86 1119.9 1146.86 1126.38 1141.59 1131.66 1135.1 1131.66L1133.42 1131.66 1133.42 1141.73 1167.02 1141.73C1172.57 1141.73 1177.09 1137.21 1177.09 1131.66L1177.09 1098.06 1160.3 1098.06 1160.3 1089.66Z" fill="#649CD9"/><path d="M1140.14 1119.9C1140.14 1117.12 1137.88 1114.86 1135.1 1114.86L1126.7 1114.86 1126.7 1098.06 1116.62 1098.06 1116.62 1099.74C1116.62 1106.23 1111.35 1111.5 1104.87 1111.5 1098.38 1111.5 1093.11 1106.23 1093.11 1099.74L1093.11 1098.06 1083.03 1098.06 1083.03 1131.66C1083.03 1137.21 1087.55 1141.73 1093.11 1141.73L1126.7 1141.73 1126.7 1124.94 1135.1 1124.94C1137.88 1124.94 1140.14 1122.68 1140.14 1119.9Z" fill="#649CD9"/></g></g></g><path d="M1103.15 866 1074 896.526 1095.48 919.421 1147.64 924 1186 911.789 1170.66 887.368 1155.31 870.579 1103.15 866Z" fill="#FFFFFF" fill-rule="evenodd"/><path d="M1098.5 903C1098.5 885.603 1112.83 871.5 1130.5 871.5 1147.88 871.5 1162.08 885.15 1162.49 902.25" stroke="#000000" stroke-width="9.16667" stroke-linecap="round" stroke-linejoin="round" stroke-miterlimit="10" fill="none" fill-rule="evenodd"/><g clip-path="url(#clip7)"><g clip-path="url(#clip8)"><g clip-path="url(#clip9)"><path d="M2011 1173.66C1886.37 1173.66 1785.34 1072.63 1785.34 948 1785.34 823.373 1886.37 722.344 2011 722.344 2135.63 722.344 2236.66 823.373 2236.66 948 2236.66 1072.63 2135.63 1173.66 2011 1173.66M2011 670C1857.47 670 1733 794.466 1733 948 1733 1101.53 1857.47 1226 2011 1226 2164.53 1226 2289 1101.53 2289 948 2289 794.466 2164.53 670 2011 670M2039.08 924.305C2045.89 907.199 2051.39 889.444 2059.62 873.057 2068.28 855.806 2079.52 844.577 2100.69 845.227 2120.96 845.848 2136.72 858.827 2143.78 875.868 2154.93 902.805 2163.08 929.509 2172.18 957.257 2178 974.97 2183.67 994.281 2200.84 1003.35 2216.71 1013.91 2210.45 1023.88 2206.33 1030.99 2198.35 1040.88 2185.3 1037.52 2184.15 1037.37 2170.75 1035.61 2150.47 1014.04 2144.42 998.75 2132.02 967.44 2129.32 949.423 2117.6 917.839 2116.4 914.599 2113.17 902.471 2111.38 899.016 2107.73 891.955 2097.7 891.553 2093.57 898.342 2092.38 900.317 2091.39 902.191 2090.63 904.154 2081.88 926.685 2063.28 980.663 2061.43 984.707 2037.47 1037.01 2002.49 1043.38 1961.53 999.547 1954.58 992.109 1948.18 982.057 1941.42 974.493 1929.29 960.914 1918.76 959.756 1907.91 974.173 1899.88 984.828 1891.46 995.023 1883.85 1006.01 1872.81 1021.96 1858.28 1035.31 1838.65 1037.37 1827.53 1038.54 1816.18 1033.77 1813.11 1021.73 1810.24 1010.44 1817.95 1000.92 1827.97 998.288 1843.11 994.3 1845.32 991.646 1852.85 979.599 1853.86 977.981 1861.43 965.909 1862.43 964.278 1898.86 904.658 1943.61 905.297 1984.34 961.481 1987.25 965.486 1992.02 972.114 1996.34 978.115 2000.74 984.24 2010.06 983.573 2013.54 976.882 2027.28 960.449 2033.99 937.071 2039.08 924.307" fill="#298EEA"/></g></g></g><g clip-path="url(#clip10)"><g clip-path="url(#clip11)"><g clip-path="url(#clip12)"><path d="M142.5 145.54 142.5 149.023C128.313 150.607 117.167 162.577 117.167 177.207 117.167 192.913 129.96 205.707 145.667 205.707L158.333 205.707C163.59 205.707 167.833 209.95 167.833 215.207 167.833 220.463 163.59 224.707 158.333 224.707L126.667 224.707C121.41 224.707 117.167 228.95 117.167 234.207 117.167 239.463 121.41 243.707 126.667 243.707L142.5 243.707 142.5 246.873C142.5 252.13 146.743 256.373 152 256.373 157.257 256.373 161.5 252.13 161.5 246.873L161.5 243.39C175.687 241.807 186.833 229.837 186.833 215.207 186.833 199.5 174.04 186.707 158.333 186.707L145.667 186.707C140.41 186.707 136.167 182.463 136.167 177.207 136.167 171.95 140.41 167.707 145.667 167.707L177.333 167.707C182.59 167.707 186.833 163.463 186.833 158.207 186.833 152.95 182.59 148.707 177.333 148.707L161.5 148.707 161.5 145.54C161.5 140.283 157.257 136.04 152 136.04 146.743 136.04 142.5 140.347 142.5 145.54Z" fill="#1D0D5C" transform="matrix(1 0 0 1.00329 2354 656)"/><path d="M159.537 19.4433C155.927 14.7567 148.01 14.7567 144.463 19.4433L43.13 152C40.9133 154.85 40.5333 158.713 42.18 162.007 43.7633 165.237 47.0566 167.263 50.6666 167.263L79.1666 167.263 79.1666 278.54C79.1666 283.797 83.41 288.04 88.6666 288.04L215.333 288.04C220.59 288.04 224.833 283.797 224.833 278.54L224.833 167.263 253.333 167.263C256.943 167.263 260.237 165.237 261.82 162.007 263.403 158.777 263.023 154.913 260.87 152L159.537 19.4433ZM215.333 148.263C210.077 148.263 205.833 152.507 205.833 157.763 205.833 157.763 205.833 157.763 205.833 157.763 205.833 157.763 205.833 157.763 205.833 157.763L205.833 269.04 98.1666 269.04 98.1666 157.763C98.1666 157.763 98.1666 157.763 98.1666 157.763 98.1666 157.763 98.1666 157.763 98.1666 157.763 98.1666 152.507 93.9233 148.263 88.6666 148.263L69.92 148.263 152 40.85 234.08 148.263 215.333 148.263Z" fill="#1D0D5C" transform="matrix(1 0 0 1.00329 2354 656)"/></g></g></g><g clip-path="url(#clip13)"><g clip-path="url(#clip14)"><g clip-path="url(#clip15)"><path d="M158.873 88.3431C194.626 88.3431 226.599 110.927 238.449 144.549L242.598 156.323 254.435 152.364C259.523 150.664 264.775 149.725 269.191 149.725 289.96 149.725 307.824 163.821 312.62 183.994L314.942 193.751 324.965 193.751 330.979 193.751C365.349 193.751 393.312 221.549 393.312 255.704 393.312 289.871 365.349 317.67 330.979 317.67L75.0212 317.67C40.6507 317.657 12.6875 289.871 12.6875 255.691 12.6875 225.52 34.4592 199.866 64.4525 194.702L76.125 192.698 74.907 180.911C74.6152 178.031 74.4629 175.113 74.4629 172.258 74.4629 125.987 112.335 88.3431 158.873 88.3431M158.873 75.6556C105.255 75.6556 61.7754 118.92 61.7754 172.271 61.7754 175.633 61.9531 178.957 62.2829 182.218 27.0497 188.282 0 218.961 0 255.691 0 296.748 33.7614 330.344 75.0212 330.344L330.979 330.344C372.239 330.344 406 296.748 406 255.691 406 214.647 372.239 181.051 330.979 181.051L324.965 181.051C318.989 155.891 296.317 137.038 269.191 137.038 262.606 137.038 255.932 138.484 250.413 140.336 237.155 102.693 201.224 75.6556 158.873 75.6556L158.873 75.6556Z" fill="#649CD9" transform="matrix(1 0 0 1 2311 930)"/><path d="M172.22 288.691 83.0397 288.691 83.1539 282.233C83.5091 261.781 95.6257 244.298 112.297 237.497 103.276 232.207 97.2116 222.425 97.2116 211.221 97.2116 194.436 110.863 180.784 127.636 180.784 144.409 180.784 158.061 194.436 158.061 211.209 158.061 222.399 151.984 232.194 142.975 237.485 159.634 244.285 171.763 261.768 172.119 282.221L172.22 288.691ZM96.4757 276.004 158.797 276.004C155.815 259.612 142.874 247.165 127.636 247.165 112.399 247.165 99.4573 259.612 96.4757 276.004ZM127.636 193.472C117.854 193.472 109.899 201.427 109.899 211.221 109.899 221.004 117.854 228.971 127.636 228.971 137.418 228.971 145.373 221.004 145.373 211.221 145.373 201.427 137.418 193.472 127.636 193.472Z" fill="#649CD9" transform="matrix(1 0 0 1 2311 930)"/><path d="M277.032 288.691 187.838 288.691 187.953 282.233C188.308 261.781 200.424 244.298 217.096 237.497 208.075 232.207 202.01 222.425 202.01 211.221 202.01 194.436 215.662 180.784 232.435 180.784 249.208 180.784 262.86 194.436 262.86 211.209 262.86 222.399 256.782 232.194 247.774 237.485 264.433 244.285 276.562 261.768 276.93 282.221L277.032 288.691ZM201.262 276.004 263.583 276.004C260.601 259.612 247.66 247.165 232.422 247.165 217.185 247.165 204.256 259.612 201.262 276.004ZM232.422 193.472C222.64 193.472 214.685 201.427 214.685 211.221 214.685 221.004 222.64 228.971 232.422 228.971 242.204 228.971 250.159 221.004 250.159 211.221 250.172 201.427 242.217 193.472 232.422 193.472Z" fill="#649CD9" transform="matrix(1 0 0 1 2311 930)"/></g></g></g></g></svg>