<svg width="2291" height="943" xmlns="http://www.w3.org/2000/svg" xmlns:xlink="http://www.w3.org/1999/xlink" overflow="hidden"><defs><clipPath id="clip0"><rect x="679" y="483" width="2291" height="943"/></clipPath><clipPath id="clip1"><rect x="678" y="482" width="903" height="903"/></clipPath><clipPath id="clip2"><rect x="678" y="482" width="903" height="903"/></clipPath><clipPath id="clip3"><rect x="678" y="482" width="903" height="903"/></clipPath><clipPath id="clip4"><rect x="1036" y="1004" width="215" height="215"/></clipPath><clipPath id="clip5"><rect x="1036" y="1004" width="215" height="215"/></clipPath><clipPath id="clip6"><rect x="1036" y="1004" width="215" height="215"/></clipPath><clipPath id="clip7"><rect x="1650" y="707" width="1281" height="434"/></clipPath><clipPath id="clip8"><rect x="1650" y="707" width="1281" height="434"/></clipPath><clipPath id="clip9"><rect x="1650" y="707" width="1281" height="434"/></clipPath><linearGradient x1="195.036" y1="50.4627" x2="285.726" y2="25.2448" gradientUnits="userSpaceOnUse" spreadMethod="pad" id="fill10"><stop offset="0" stop-color="#F69923"/><stop offset="0.3123" stop-color="#F79A23"/><stop offset="0.8383" stop-color="#E97826"/><stop offset="1" stop-color="#E97826"/></linearGradient><linearGradient x1="-3.46209" y1="457.474" x2="180.99" y2="61.9025" gradientUnits="userSpaceOnUse" spreadMethod="pad" id="fill11"><stop offset="0" stop-color="#9E2064"/><stop offset="0.3233" stop-color="#9E2064"/><stop offset="0.6302" stop-color="#C92037"/><stop offset="0.7514" stop-color="#CD2335"/><stop offset="1" stop-color="#E97826"/></linearGradient><linearGradient x1="58.4799" y1="428.221" x2="168.393" y2="192.504" gradientUnits="userSpaceOnUse" spreadMethod="pad" id="fill12"><stop offset="0" stop-color="#282662"/><stop offset="0.0954839" stop-color="#662E8D"/><stop offset="0.7882" stop-color="#9F2064"/><stop offset="0.9487" stop-color="#CD2032"/><stop offset="1" stop-color="#CD2032"/></linearGradient><linearGradient x1="3.21132" y1="433.539" x2="187.663" y2="37.9676" gradientUnits="userSpaceOnUse" spreadMethod="pad" id="fill13"><stop offset="0" stop-color="#9E2064"/><stop offset="0.3233" stop-color="#9E2064"/><stop offset="0.6302" stop-color="#C92037"/><stop offset="0.7514" stop-color="#CD2335"/><stop offset="1" stop-color="#E97826"/></linearGradient><linearGradient x1="22.0153" y1="407.185" x2="118.951" y2="199.298" gradientUnits="userSpaceOnUse" spreadMethod="pad" id="fill14"><stop offset="0" stop-color="#282662"/><stop offset="0.0954839" stop-color="#662E8D"/><stop offset="0.7882" stop-color="#9F2064"/><stop offset="0.9487" stop-color="#CD2032"/><stop offset="1" stop-color="#CD2032"/></linearGradient><linearGradient x1="44.1514" y1="452.629" x2="228.603" y2="57.0579" gradientUnits="userSpaceOnUse" spreadMethod="pad" id="fill15"><stop offset="0" stop-color="#9E2064"/><stop offset="0.3233" stop-color="#9E2064"/><stop offset="0.6302" stop-color="#C92037"/><stop offset="0.7514" stop-color="#CD2335"/><stop offset="1" stop-color="#E97826"/></linearGradient><linearGradient x1="30.6754" y1="476.221" x2="215.131" y2="80.6425" gradientUnits="userSpaceOnUse" spreadMethod="pad" id="fill16"><stop offset="0" stop-color="#9E2064"/><stop offset="0.3233" stop-color="#9E2064"/><stop offset="0.6302" stop-color="#C92037"/><stop offset="0.7514" stop-color="#CD2335"/><stop offset="1" stop-color="#E97826"/></linearGradient><linearGradient x1="56.3277" y1="458.307" x2="240.779" y2="62.7353" gradientUnits="userSpaceOnUse" spreadMethod="pad" id="fill17"><stop offset="0" stop-color="#9E2064"/><stop offset="0.3233" stop-color="#9E2064"/><stop offset="0.6302" stop-color="#C92037"/><stop offset="0.7514" stop-color="#CD2335"/><stop offset="1" stop-color="#E97826"/></linearGradient><linearGradient x1="54.9341" y1="457.657" x2="239.386" y2="62.0857" gradientUnits="userSpaceOnUse" spreadMethod="pad" id="fill18"><stop offset="0" stop-color="#9E2064"/><stop offset="0.3233" stop-color="#9E2064"/><stop offset="0.6302" stop-color="#C92037"/><stop offset="0.7514" stop-color="#CD2335"/><stop offset="1" stop-color="#E97826"/></linearGradient></defs><g clip-path="url(#clip0)" transform="translate(-679 -483)"><g clip-path="url(#clip1)"><g clip-path="url(#clip2)"><g clip-path="url(#clip3)"><path d="M1054.52 819.004C1066.4 819.004 1076.06 828.664 1076.06 840.544L1083.2 840.544 1090.33 840.544C1090.33 820.799 1074.27 804.734 1054.52 804.734 1034.78 804.734 1018.71 820.799 1018.71 840.544L1025.85 840.544 1032.97 840.544C1032.97 828.664 1042.64 819.004 1054.52 819.004Z"/><path d="M1227.03 840.544 1234.15 840.544 1241.29 840.544C1241.29 820.799 1225.22 804.734 1205.48 804.734 1185.73 804.734 1169.67 820.799 1169.67 840.544L1176.8 840.544 1183.94 840.544C1183.94 828.664 1193.6 819.004 1205.48 819.004 1217.36 819.004 1227.03 828.664 1227.03 840.544Z"/><path d="M1129.98 913.858C1129.99 913.858 1129.99 913.858 1130 913.858 1138.24 913.858 1146.51 910.196 1152.66 903.792 1158.83 897.388 1162.18 888.999 1161.87 880.764 1161.74 877.345 1158.92 874.73 1155.45 874.82 1152.04 874.946 1149.37 877.823 1149.51 881.233 1149.7 886.122 1147.6 891.218 1143.76 895.205 1139.91 899.192 1134.9 901.483 1130.01 901.483 1130.01 901.483 1130.01 901.483 1130 901.483 1125.1 901.483 1120.1 899.192 1116.25 895.196 1112.41 891.2 1110.32 886.104 1110.52 881.206 1110.65 877.787 1107.99 874.919 1104.57 874.784 1101.04 874.432 1098.28 877.309 1098.15 880.728 1097.83 888.963 1101.18 897.361 1107.33 903.765 1113.48 910.169 1121.74 913.849 1129.98 913.858Z"/><path d="M1425.72 926.856 1352.88 926.856 1352.88 736.489C1352.88 621.583 1259.39 528.1 1144.49 528.1L1115.52 528.1C1000.61 528.1 907.125 621.583 907.125 736.489L907.125 926.856 834.279 926.856C811.756 926.856 793.419 945.185 793.419 967.708L793.419 1257.5C793.419 1266.75 796.621 1275.18 801.816 1282.04 796.747 1285.97 793.419 1292.05 793.419 1298.94L793.419 1318.42C793.419 1330.26 803.052 1339.89 814.895 1339.89L1445.1 1339.89C1456.93 1339.89 1466.57 1330.26 1466.57 1318.42L1466.57 1298.94C1466.57 1292.04 1463.24 1285.96 1458.17 1282.04 1463.37 1275.18 1466.57 1266.75 1466.57 1257.5L1466.57 967.708C1466.57 945.185 1448.24 926.856 1425.72 926.856ZM932.904 736.489C932.904 635.799 1014.82 553.87 1115.52 553.87L1144.49 553.87C1245.18 553.87 1327.1 635.79 1327.1 736.489L1327.1 926.856 1270.3 926.856C1276.85 914.327 1280.98 900.482 1282.01 885.905 1290.75 884.85 1298.93 880.737 1304.98 874.251 1312.14 866.566 1315.69 856.545 1314.95 846.019 1314.1 833.869 1306.87 822.729 1295.63 816.199L1295.63 816.199C1291.7 813.917 1287.56 812.51 1283.3 811.797L1283.3 804.356 1283.3 803.914C1283.3 790.744 1272.59 780.029 1259.42 780.029L1169.73 780.029C1157.52 780.029 1148.78 792.557 1144.92 804.356 1144.61 805.285 1144.34 806.205 1144.1 807.116L1115.93 807.116C1115.69 806.205 1115.41 805.285 1115.11 804.356 1111.24 792.566 1102.51 780.029 1090.29 780.029L1000.61 780.029C987.439 780.029 976.723 790.744 976.723 803.914L976.723 804.356 976.723 811.797C972.457 812.51 968.325 813.917 964.393 816.208 953.154 822.729 945.938 833.878 945.081 846.028 944.35 856.554 947.886 866.576 955.048 874.26 961.091 880.737 969.273 884.859 977.995 885.914 979.014 900.482 983.145 914.327 989.712 926.865L932.913 926.865 932.913 736.489ZM984.679 870.653C977.941 871.32 971.049 868.821 966.305 863.743 962.093 859.215 960 853.307 960.433 847.092 960.92 840.147 965.394 833.418 972.105 829.521 973.629 828.637 975.163 828.024 976.705 827.546L976.705 827.817C976.705 859.639 1002.59 885.526 1034.41 885.526L1061.66 885.526C1092.35 885.526 1117.33 860.559 1117.33 829.855L1117.33 826.04 1142.67 826.04 1142.67 829.855C1142.67 860.55 1167.64 885.526 1198.34 885.526L1225.58 885.526C1257.41 885.526 1283.29 859.639 1283.29 827.817L1283.29 827.555C1284.84 828.033 1286.36 828.646 1287.9 829.53 1294.61 833.427 1299.08 840.156 1299.57 847.092 1300 853.307 1297.92 859.215 1293.69 863.743 1288.95 868.821 1282.07 871.302 1275.32 870.653L1266.86 869.976 1266.86 878.473C1266.86 896.062 1261.66 912.713 1252.46 926.856L1007.54 926.856C998.353 912.686 993.139 895.999 993.139 878.32L993.139 869.823 984.679 870.653ZM995.629 827.826 995.629 803.923C995.629 801.235 997.902 798.962 1000.59 798.962L1090 798.926C1092.77 799.818 1098.4 809.849 1098.4 816.587L1098.4 829.864C1098.4 850.123 1081.92 866.603 1061.66 866.603L1034.42 866.603C1013.03 866.603 995.629 849.203 995.629 827.826ZM1161.6 829.864 1161.6 816.587C1161.6 809.849 1167.23 799.818 1169.71 798.962L1259.4 798.962C1262.09 798.962 1264.36 801.235 1264.36 803.923L1264.36 827.826C1264.36 849.212 1246.96 866.612 1225.58 866.612L1198.34 866.612C1178.09 866.603 1161.6 850.123 1161.6 829.864ZM1443.14 1316.46 816.862 1316.46 816.862 1300.92 1443.13 1300.92 1443.13 1316.46ZM1443.14 1257.51C1443.14 1267.12 1435.33 1274.93 1425.72 1274.93L834.279 1274.93C824.673 1274.93 816.862 1267.12 816.862 1257.51L816.862 967.708C816.862 958.11 824.673 950.299 834.279 950.299L1425.71 950.299C1435.32 950.299 1443.13 958.11 1443.13 967.708L1443.13 1257.51Z"/><path d="M1130 1071.93C1106.38 1071.93 1087.15 1091.16 1087.15 1114.78 1087.15 1138.4 1106.38 1157.62 1130 1157.62 1153.62 1157.62 1172.84 1138.4 1172.84 1114.78 1172.84 1091.16 1153.62 1071.93 1130 1071.93ZM1130 1139.57C1116.33 1139.57 1105.19 1128.45 1105.19 1114.77 1105.19 1101.09 1116.32 1089.96 1130 1089.96 1143.68 1089.96 1154.8 1101.09 1154.8 1114.77 1154.8 1128.45 1143.68 1139.57 1130 1139.57Z"/></g></g></g><rect x="1036" y="1018" width="188" height="187" fill="#FFFFFF"/><g clip-path="url(#clip4)"><g clip-path="url(#clip5)"><g clip-path="url(#clip6)"><path d="M1167.02 1047.67 1133.42 1047.67 1133.42 1064.47 1125.02 1064.47C1122.25 1064.47 1119.98 1066.73 1119.98 1069.51 1119.98 1072.29 1122.25 1074.55 1125.02 1074.55L1133.42 1074.55 1133.42 1091.34 1143.5 1091.34 1143.5 1089.66C1143.5 1083.18 1148.77 1077.91 1155.26 1077.91 1161.74 1077.91 1167.02 1083.18 1167.02 1089.66L1167.02 1091.34 1177.09 1091.34 1177.09 1057.75C1177.09 1052.19 1172.57 1047.67 1167.02 1047.67Z" fill="#649CD9"/><path d="M1133.42 1010.72 1126.7 1010.72C1082.17 1010.72 1046.08 1046.82 1046.08 1091.34L1046.08 1109.87C1046.08 1128.12 1053.33 1145.62 1066.23 1158.53L1066.23 1212.28 1146.86 1212.28 1146.86 1192.12 1130.06 1192.12 1130.06 1185.41 1146.86 1185.41 1193.89 1185.41C1201.31 1185.41 1207.33 1179.39 1207.33 1171.97L1207.33 1168.61C1198.07 1168.61 1190.53 1161.07 1190.53 1151.81L1197.25 1151.81C1197.25 1157.37 1201.77 1161.89 1207.33 1161.89L1207.33 1141.73 1240.92 1141.73 1214.05 1091.34 1214.05 1091.34C1214.05 1046.82 1177.95 1010.72 1133.42 1010.72ZM1096.47 1192.12 1089.75 1192.12 1089.75 1185.41 1096.47 1185.41 1096.47 1192.12ZM1109.91 1192.12 1103.19 1192.12 1103.19 1185.41 1109.91 1185.41 1109.91 1192.12ZM1123.34 1192.12 1116.62 1192.12 1116.62 1185.41 1123.34 1185.41 1123.34 1192.12ZM1183.81 1131.66C1183.81 1140.92 1176.28 1148.45 1167.02 1148.45L1093.11 1148.45C1083.85 1148.45 1076.31 1140.92 1076.31 1131.66L1076.31 1057.75C1076.31 1048.49 1083.85 1040.95 1093.11 1040.95L1167.02 1040.95C1176.28 1040.95 1183.81 1048.49 1183.81 1057.75L1183.81 1131.66Z" fill="#649CD9"/><path d="M1099.83 1099.74C1099.83 1102.52 1102.09 1104.78 1104.87 1104.78 1107.65 1104.78 1109.91 1102.52 1109.91 1099.74L1109.91 1091.34 1126.7 1091.34 1126.7 1081.27 1125.02 1081.27C1118.54 1081.27 1113.27 1075.99 1113.27 1069.51 1113.27 1063.02 1118.54 1057.75 1125.02 1057.75L1126.7 1057.75 1126.7 1047.67 1093.11 1047.67C1087.55 1047.67 1083.03 1052.19 1083.03 1057.75L1083.03 1091.34 1099.83 1091.34 1099.83 1099.74Z" fill="#649CD9"/><path d="M1160.3 1089.66C1160.3 1086.89 1158.04 1084.62 1155.26 1084.62 1152.48 1084.62 1150.22 1086.89 1150.22 1089.66L1150.22 1098.06 1133.42 1098.06 1133.42 1108.14 1135.1 1108.14C1141.59 1108.14 1146.86 1113.41 1146.86 1119.9 1146.86 1126.38 1141.59 1131.66 1135.1 1131.66L1133.42 1131.66 1133.42 1141.73 1167.02 1141.73C1172.57 1141.73 1177.09 1137.21 1177.09 1131.66L1177.09 1098.06 1160.3 1098.06 1160.3 1089.66Z" fill="#649CD9"/><path d="M1140.14 1119.9C1140.14 1117.12 1137.88 1114.86 1135.1 1114.86L1126.7 1114.86 1126.7 1098.06 1116.62 1098.06 1116.62 1099.74C1116.62 1106.23 1111.35 1111.5 1104.87 1111.5 1098.38 1111.5 1093.11 1106.23 1093.11 1099.74L1093.11 1098.06 1083.03 1098.06 1083.03 1131.66C1083.03 1137.21 1087.55 1141.73 1093.11 1141.73L1126.7 1141.73 1126.7 1124.94 1135.1 1124.94C1137.88 1124.94 1140.14 1122.68 1140.14 1119.9Z" fill="#649CD9"/></g></g></g><path d="M1103.15 866 1074 896.526 1095.48 919.421 1147.64 924 1186 911.789 1170.66 887.368 1155.31 870.579 1103.15 866Z" fill="#FFFFFF" fill-rule="evenodd"/><path d="M1098.5 903C1098.5 885.603 1112.83 871.5 1130.5 871.5 1147.88 871.5 1162.08 885.15 1162.49 902.25" stroke="#000000" stroke-width="9.16667" stroke-linecap="round" stroke-linejoin="round" stroke-miterlimit="10" fill="none" fill-rule="evenodd"/><g clip-path="url(#clip7)"><g clip-path="url(#clip8)"><g clip-path="url(#clip9)"><path d="M216.018 15.8516C209.225 19.8954 197.902 31.2179 184.477 47.6356L196.851 71.0087C205.505 58.5538 214.401 47.393 223.297 37.8497 223.944 37.1218 224.349 36.7175 224.349 36.7175 224.025 37.1218 223.621 37.4453 223.297 37.8497 220.386 41.0039 211.651 51.1942 198.468 71.4939 211.166 70.8469 230.657 68.2589 246.589 65.5091 251.361 38.982 241.979 26.8507 241.979 26.8507 241.979 26.8507 230.01 7.52142 216.018 15.8516Z" fill="url(#fill10)" transform="matrix(1.00165 0 0 1 1618.24 693.233)"/><path d="M174.368 212.055C172.75 212.379 171.132 212.622 169.515 212.864 169.515 212.864 169.515 212.864 169.515 212.864 170.324 212.783 171.213 212.622 172.022 212.46 172.831 212.379 173.64 212.217 174.368 212.055Z" fill="#BE202E" transform="matrix(1.00165 0 0 1 1618.24 693.233)"/><path d="M174.368 212.055C172.75 212.379 171.132 212.622 169.515 212.864 169.515 212.864 169.515 212.864 169.515 212.864 170.324 212.783 171.213 212.622 172.022 212.46 172.831 212.379 173.64 212.217 174.368 212.055Z" fill="#BE202E" fill-opacity="0.35" transform="matrix(1.00165 0 0 1 1618.24 693.233)"/><path d="M178.573 191.594C178.573 191.594 178.573 191.594 178.573 191.594 178.492 191.594 178.492 191.594 178.573 191.594 178.816 191.594 179.058 191.513 179.301 191.513 180.352 191.351 181.404 191.19 182.374 190.947 181.161 191.19 179.867 191.351 178.573 191.594L178.573 191.594 178.573 191.594Z" fill="#BE202E" transform="matrix(1.00165 0 0 1 1618.24 693.233)"/><path d="M178.573 191.594C178.573 191.594 178.573 191.594 178.573 191.594 178.492 191.594 178.492 191.594 178.573 191.594 178.816 191.594 179.058 191.513 179.301 191.513 180.352 191.351 181.404 191.19 182.374 190.947 181.161 191.19 179.867 191.351 178.573 191.594L178.573 191.594 178.573 191.594Z" fill="#BE202E" fill-opacity="0.35" transform="matrix(1.00165 0 0 1 1618.24 693.233)"/><path d="M160.295 131.342C164.096 124.306 167.897 117.431 171.699 110.719 175.661 103.763 179.705 97.0506 183.83 90.4996 184.073 90.0953 184.315 89.6909 184.558 89.3674 188.602 82.9782 192.645 76.8317 196.77 70.9278L184.396 47.6356C183.506 48.7679 182.536 49.9002 181.565 51.1133 178.007 55.5614 174.287 60.3331 170.485 65.4283 166.199 71.1704 161.832 77.2361 157.303 83.6252 153.178 89.5291 148.973 95.7565 144.767 102.146 141.209 107.645 137.65 113.226 134.092 118.968 133.93 119.21 133.849 119.372 133.687 119.615L149.781 151.399C153.34 144.686 156.818 137.974 160.295 131.342Z" fill="url(#fill11)" transform="matrix(1.00165 0 0 1 1618.24 693.233)"/><path d="M86.9411 310.643C84.8384 316.466 82.6547 322.45 80.552 328.597 80.552 328.678 80.4711 328.759 80.4711 328.84 80.1476 329.729 79.8241 330.538 79.5815 331.428 78.1257 335.552 76.9126 339.273 74.001 347.684 78.7727 349.867 82.5738 355.529 86.1324 361.999 85.728 355.286 82.9782 348.978 77.7213 344.125 101.094 345.176 121.313 339.273 131.665 322.127 132.555 320.59 133.445 318.973 134.253 317.274 129.482 323.259 123.659 325.847 112.579 325.2 112.579 325.2 112.498 325.2 112.498 325.2 112.498 325.2 112.579 325.2 112.579 325.2 128.835 317.921 137.003 310.885 144.201 299.32 145.899 296.57 147.598 293.578 149.296 290.262 135.062 304.9 118.563 309.025 101.175 305.871L88.1543 307.327C87.7499 308.459 87.3455 309.51 86.9411 310.643Z" fill="url(#fill12)" transform="matrix(1.00165 0 0 1 1618.24 693.233)"/><path d="M93.0068 281.447C95.8374 274.168 98.7489 266.808 101.66 259.368 104.491 252.251 107.403 245.134 110.395 237.936 113.387 230.738 116.461 223.54 119.534 216.342 122.688 208.982 125.923 201.703 129.239 194.425 132.474 187.227 135.871 180.029 139.187 172.912 140.4 170.324 141.613 167.817 142.907 165.229 145.01 160.861 147.193 156.494 149.377 152.127 149.458 151.884 149.62 151.641 149.7 151.399L133.768 119.696C133.525 120.1 133.283 120.585 132.959 120.99 129.239 127.136 125.438 133.364 121.798 139.753 118.078 146.223 114.439 152.774 110.88 159.486 107.888 165.148 104.976 170.809 102.065 176.551 101.499 177.683 100.933 178.897 100.366 180.029 96.8888 187.227 93.6538 194.263 90.8231 200.976 87.5881 208.578 84.7575 215.857 82.2503 222.731 80.6328 227.26 79.0962 231.627 77.7213 235.833 76.5891 239.391 75.5377 243.031 74.4863 246.589 72.06 255 70.0381 263.411 68.3398 271.822L84.5149 303.768C86.6176 298.026 88.8821 292.284 91.0658 286.38 91.7128 284.763 92.3598 283.145 93.0068 281.447Z" fill="url(#fill13)" transform="matrix(1.00165 0 0 1 1618.24 693.233)"/><path d="M68.0971 272.955C66.0752 283.145 64.6195 293.335 63.8916 303.526 63.8916 303.849 63.8107 304.254 63.8107 304.577 58.7965 296.489 45.2094 288.564 45.2903 288.645 54.9953 302.717 62.355 316.627 63.4064 330.295 58.2303 331.347 51.1133 329.81 42.9449 326.818 51.5177 334.663 57.9068 336.846 60.414 337.412 52.569 337.898 44.4006 343.316 36.1513 349.544 48.2018 344.61 57.9877 342.669 64.943 344.287 53.8631 375.586 42.7831 410.2 31.7032 446.918 35.1 445.947 37.1218 443.602 38.2541 440.529 40.1951 433.897 53.3778 390.224 73.9202 332.883 74.4863 331.266 75.1333 329.648 75.6994 327.95 75.8612 327.465 76.0229 327.06 76.1847 326.575 78.3683 320.59 80.6328 314.444 82.9782 308.135 83.5444 306.68 84.0296 305.305 84.5957 303.849 84.5957 303.849 84.5957 303.768 84.5957 303.768L68.4206 271.822C68.2589 272.227 68.178 272.55 68.0971 272.955Z" fill="url(#fill14)" transform="matrix(1.00165 0 0 1 1618.24 693.233)"/><path d="M152.369 154.149C151.884 155.119 151.48 156.009 150.994 156.979 149.62 159.891 148.164 162.802 146.789 165.795 145.252 169.03 143.716 172.346 142.098 175.742 141.289 177.441 140.481 179.139 139.672 180.918 137.246 186.175 134.819 191.594 132.312 197.174 129.239 204.049 126.166 211.166 123.012 218.606 120.019 225.643 116.946 233.002 113.873 240.524 110.961 247.722 107.969 255.081 104.976 262.764 102.307 269.558 99.6386 276.594 96.8888 283.792 96.7271 284.115 96.6462 284.52 96.4844 284.843 93.8155 291.96 91.0658 299.32 88.316 306.841 88.2351 307.003 88.1543 307.165 88.1543 307.327L101.175 305.871C100.933 305.79 100.69 305.79 100.366 305.709 115.975 303.768 136.68 292.122 150.024 277.726 156.171 271.095 161.751 263.331 166.927 254.192 170.809 247.398 174.368 239.877 177.845 231.466 180.838 224.187 183.749 216.261 186.499 207.688 182.94 209.548 178.816 210.923 174.287 211.894 173.478 212.055 172.669 212.217 171.86 212.379 171.052 212.541 170.243 212.622 169.353 212.783L169.353 212.783 169.353 212.783C169.353 212.783 169.353 212.783 169.353 212.783 183.911 207.203 193.05 196.446 199.682 183.183 195.88 185.771 189.653 189.168 182.212 190.866 181.242 191.109 180.191 191.27 179.139 191.432 178.897 191.432 178.654 191.513 178.33 191.513L178.33 191.513 178.33 191.513C178.33 191.513 178.33 191.513 178.33 191.513 178.33 191.513 178.33 191.513 178.33 191.513L178.33 191.513C183.345 189.41 187.631 187.065 191.351 184.234 192.16 183.668 192.888 183.021 193.616 182.374 194.748 181.404 195.799 180.352 196.851 179.301 197.498 178.573 198.145 177.926 198.792 177.198 200.248 175.5 201.623 173.64 202.836 171.618 203.24 170.971 203.644 170.405 203.968 169.758 204.453 168.787 204.938 167.897 205.343 167.008 207.365 162.964 208.982 159.325 210.276 156.09 210.923 154.472 211.489 153.016 211.975 151.641 212.136 151.075 212.379 150.59 212.541 150.024 213.026 148.487 213.511 147.112 213.835 145.899 214.32 144.12 214.643 142.664 214.805 141.613L214.805 141.613 214.805 141.613C214.32 142.017 213.754 142.422 213.107 142.745 208.74 145.333 201.218 147.759 195.152 148.892L207.122 147.598 195.152 148.892C195.072 148.892 194.991 148.892 194.91 148.973 194.344 149.053 193.697 149.134 193.05 149.296 193.131 149.215 193.292 149.215 193.373 149.134L152.45 153.583C152.531 153.906 152.45 154.068 152.369 154.149Z" fill="url(#fill15)" transform="matrix(1.00165 0 0 1 1618.24 693.233)"/><path d="M198.468 71.4939C194.829 77.0743 190.866 83.4635 186.58 90.5805 186.337 90.9849 186.094 91.3084 185.933 91.7128 182.212 97.9402 178.33 104.734 174.206 112.255 170.647 118.725 166.927 125.6 163.045 133.121 159.648 139.591 156.251 146.465 152.612 153.744L193.535 149.296C205.424 143.797 210.761 138.863 215.937 131.665 217.312 129.724 218.687 127.621 220.062 125.438 224.268 118.887 228.392 111.689 232.032 104.491 235.59 97.5358 238.744 90.6614 241.09 84.5149 242.626 80.552 243.84 76.9126 244.729 73.6775 245.457 70.8469 246.023 68.178 246.508 65.59 230.657 68.2589 211.166 70.8469 198.468 71.4939Z" fill="url(#fill16)" transform="matrix(1.00165 0 0 1 1618.24 693.233)"/><path d="M172.022 212.541C171.213 212.702 170.405 212.783 169.515 212.945L169.515 212.945C170.324 212.783 171.132 212.622 172.022 212.541Z" fill="#BE202E" transform="matrix(1.00165 0 0 1 1618.24 693.233)"/><path d="M172.022 212.541C171.213 212.702 170.405 212.783 169.515 212.945L169.515 212.945C170.324 212.783 171.132 212.622 172.022 212.541Z" fill="#BE202E" fill-opacity="0.35" transform="matrix(1.00165 0 0 1 1618.24 693.233)"/><path d="M172.022 212.541C171.213 212.702 170.405 212.783 169.515 212.945L169.515 212.945C170.324 212.783 171.132 212.622 172.022 212.541Z" fill="url(#fill17)" transform="matrix(1.00165 0 0 1 1618.24 693.233)"/><path d="M178.492 191.594C178.735 191.594 178.977 191.513 179.301 191.513 179.058 191.513 178.816 191.594 178.492 191.594L178.492 191.594Z" fill="#BE202E" transform="matrix(1.00165 0 0 1 1618.24 693.233)"/><path d="M178.492 191.594C178.735 191.594 178.977 191.513 179.301 191.513 179.058 191.513 178.816 191.594 178.492 191.594L178.492 191.594Z" fill="#BE202E" fill-opacity="0.35" transform="matrix(1.00165 0 0 1 1618.24 693.233)"/><path d="M178.492 191.594C178.735 191.594 178.977 191.513 179.301 191.513 179.058 191.513 178.816 191.594 178.492 191.594L178.492 191.594Z" fill="url(#fill18)" transform="matrix(1.00165 0 0 1 1618.24 693.233)"/><path d="M282.373 304.718 282.373 310.629 280.711 310.629 280.711 304.718 278.618 304.718 278.618 303.302 284.406 303.302 284.406 304.718 282.373 304.718Z" fill="#B0AFB0" transform="matrix(1.00165 0 0 1 1533.04 537.07)"/><path d="M292.166 306.01 290.195 310.014 289.209 310.014 287.24 306.01 287.24 310.629 285.638 310.629 285.638 303.302 287.854 303.302 289.763 307.304 291.672 303.302 293.89 303.302 293.89 310.629 292.289 310.629 292.289 306.01Z" fill="#B0AFB0" transform="matrix(1.00165 0 0 1 1533.04 537.07)"/><path d="M349.563 591.536C342.729 591.536 336.738 591.168 331.586 590.433 326.436 589.802 322.072 589.014 318.5 588.068L318.5 547.386C322.388 548.226 326.488 548.961 330.798 549.592 335.004 550.223 339.629 550.539 344.674 550.539 349.51 550.539 353.977 550.014 358.078 548.961 362.281 547.911 365.908 546.072 368.956 543.444 372.111 540.92 374.528 537.505 376.21 533.195 377.998 528.885 378.892 523.47 378.892 516.952L378.892 293.203 427.773 293.203 427.773 515.377C427.773 528.622 425.828 540.026 421.938 549.592 418.153 559.158 412.792 567.043 405.854 573.245 399.023 579.552 390.823 584.178 381.257 587.121 371.691 590.065 361.126 591.536 349.563 591.536" stroke="#D22128" stroke-width="6.02777" stroke-linejoin="round" fill="#D22128" transform="matrix(1.00165 0 0 1 1533.04 537.07)"/><path d="M453.968 293.227 453.968 523.725 497.669 523.725 497.669 416.481C497.667 413.537 497.585 410.24 497.48 406.561 497.48 402.882 497.376 399.065 497.167 395.07 497.06 391.076 496.936 387.051 496.727 382.953 496.62 378.852 496.433 374.849 496.224 370.959 495.803 361.92 495.284 352.565 494.655 342.892L496.098 342.892 546.707 523.725 591.602 523.725 646.165 343.205 647.421 343.205C647.106 352.774 646.774 361.942 646.354 370.77 646.248 374.556 646.061 378.456 645.852 382.45 645.745 386.445 645.641 390.365 645.536 394.255 645.432 398.145 645.328 401.836 645.223 405.306 645.223 408.774 645.223 411.866 645.223 414.598L645.223 523.725 690.809 523.725 690.809 293.227 624.252 293.227 571.258 469.475 570.316 469.475 520.524 293.227 453.968 293.227ZM911.639 309.928 897.761 347.099 871.327 363.236 871.327 383.579 894.309 383.579 894.309 468.535C894.309 479.887 895.657 489.347 898.39 496.914 901.229 504.378 905.107 510.352 909.943 514.872 914.779 519.287 920.524 522.441 927.148 524.228 933.771 526.016 940.883 526.866 948.559 526.866 956.443 526.866 963.723 526.118 970.347 524.541 977.074 523.07 982.654 521.141 987.173 518.829L987.173 483.038C982.758 484.615 978.422 485.943 974.113 486.994 969.909 488.045 965.406 488.563 960.677 488.563 955.209 488.563 950.791 486.926 947.428 483.667 944.064 480.408 942.404 475.366 942.404 468.535L942.404 383.579 985.29 383.579 985.29 347.477 942.404 347.477 942.404 309.928 911.639 309.928ZM788.194 344.148C776.211 344.148 765.3 346.099 755.419 349.989 745.642 353.877 737.221 359.665 730.177 367.443 723.239 375.116 717.803 384.763 713.914 396.326 710.026 407.889 708.075 421.372 708.075 436.825 708.075 452.067 710.213 465.406 714.416 476.759 718.728 488.007 724.701 497.362 732.375 504.826 740.048 512.184 749.196 517.661 759.813 521.34 770.43 525.019 782.047 526.866 794.662 526.866 801.18 526.866 807.153 526.637 812.62 526.112 818.086 525.69 823.209 524.965 827.939 523.914 832.671 522.863 837.109 521.555 841.315 520.084 845.625 518.507 849.918 516.641 854.124 514.432L854.124 477.199C849.498 479.512 844.975 481.565 840.561 483.351 836.145 485.035 831.644 486.466 827.123 487.623 822.602 488.778 817.957 489.69 813.123 490.321 808.391 490.848 803.35 491.075 797.989 491.075 791.577 491.075 785.831 490.122 780.786 488.125 775.845 486.126 771.551 483.265 767.977 479.586 764.507 475.8 761.81 471.195 759.813 465.834 757.92 460.367 756.884 454.289 756.675 447.562L864.17 447.562 864.17 424.205C864.17 411.38 862.406 400.053 858.833 390.174 855.363 380.186 850.322 371.765 843.7 364.932 837.182 358.098 829.175 352.954 819.715 349.486 810.358 345.912 799.864 344.148 788.194 344.148ZM1077.72 344.148C1065.73 344.148 1054.82 346.099 1044.94 349.989 1035.16 353.877 1026.74 359.665 1019.7 367.443 1012.76 375.116 1007.33 384.763 1003.44 396.326 999.546 407.889 997.597 421.372 997.597 436.825 997.597 452.067 999.735 465.406 1003.94 476.759 1008.25 488.007 1014.22 497.362 1021.9 504.826 1029.57 512.184 1038.72 517.661 1049.34 521.34 1059.95 525.019 1071.57 526.866 1084.18 526.866 1090.7 526.866 1096.68 526.637 1102.14 526.112 1107.61 525.69 1112.73 524.965 1117.46 523.914 1122.19 522.863 1126.63 521.555 1130.83 520.084 1135.14 518.507 1139.44 516.641 1143.65 514.432L1143.65 477.199C1139.02 479.512 1134.5 481.565 1130.08 483.351 1125.67 485.035 1121.17 486.466 1116.65 487.623 1112.12 488.778 1107.48 489.69 1102.64 490.321 1097.91 490.848 1092.87 491.075 1087.51 491.075 1081.1 491.075 1075.35 490.122 1070.31 488.125 1065.37 486.126 1061.14 483.265 1057.56 479.586 1054.09 475.8 1051.33 471.195 1049.34 465.834 1047.44 460.367 1046.41 454.289 1046.2 447.562L1153.69 447.562 1153.69 424.205C1153.69 411.38 1151.93 400.053 1148.35 390.174 1144.89 380.186 1139.84 371.765 1133.22 364.932 1126.7 358.098 1118.7 352.954 1109.24 349.486 1099.88 345.912 1089.38 344.148 1077.72 344.148ZM1258.49 344.148C1252.6 344.148 1247.35 344.875 1242.73 346.346 1238.21 347.712 1234.1 349.683 1230.42 352.311 1226.85 354.833 1223.63 357.988 1220.69 361.667 1217.74 365.345 1214.98 369.39 1212.46 373.911L1210.08 373.911 1202.98 347.477 1166.56 347.477 1166.56 523.725 1214.66 523.725 1214.66 434C1214.66 425.696 1215.68 418.705 1217.67 413.027 1219.78 407.247 1222.66 402.621 1226.34 399.151 1230.12 395.577 1234.62 393.005 1239.77 391.428 1245.03 389.852 1250.72 389.043 1256.92 389.043 1257.97 389.043 1259.29 389.125 1260.87 389.231 1262.45 389.231 1264 389.334 1265.58 389.545 1267.26 389.649 1268.88 389.836 1270.35 390.047 1271.82 390.258 1272.97 390.465 1273.81 390.674L1273.81 345.53C1273.18 345.319 1272.24 345.195 1270.98 345.09 1269.83 344.879 1268.5 344.692 1267.03 344.588 1265.66 344.377 1264.21 344.274 1262.63 344.274 1261.16 344.17 1259.75 344.148 1258.49 344.148ZM788.509 378.367C793.555 378.369 797.973 379.302 801.756 381.194 805.542 383.087 808.714 385.679 811.238 389.043 813.762 392.302 815.628 396.202 816.888 400.722 818.15 405.241 818.855 410.178 818.962 415.539L757.615 415.539C758.457 402.716 761.652 393.338 767.223 387.347 772.899 381.355 779.994 378.369 788.509 378.367ZM1078.03 378.367C1083.07 378.369 1087.49 379.302 1091.28 381.194 1095.06 383.087 1098.24 385.679 1100.76 389.043 1103.28 392.302 1105.15 396.202 1106.41 400.722 1107.67 405.241 1108.38 410.178 1108.48 415.539L1047.14 415.539C1047.98 402.716 1051.17 393.338 1056.75 387.347 1062.42 381.355 1069.51 378.369 1078.03 378.367Z" stroke="#000000" stroke-width="6.02777" stroke-linejoin="round" transform="matrix(1.00165 0 0 1 1533.04 537.07)"/><path d="M1322.15 343.708 1311.46 343.708 1311.46 302.054 1298.76 302.054 1298.76 293.127 1334.81 293.127 1334.81 302.054 1322.15 302.054 1322.15 343.708" fill="#4D4D4D" transform="matrix(1.00165 0 0 1 1533.04 537.07)"/><path d="M1362.94 343.708 1351.83 304.025 1351.52 304.025C1351.66 306.147 1351.77 308.2 1351.87 310.183 1351.91 311.037 1351.95 311.913 1351.97 312.813 1352.02 313.714 1352.05 314.6 1352.07 315.478 1352.12 316.354 1352.14 317.196 1352.14 318.003 1352.17 318.809 1352.18 319.536 1352.18 320.181L1352.18 343.708 1342.59 343.708 1342.59 293.127 1357.2 293.127 1368.13 331.807 1368.34 331.807 1379.96 293.127 1394.56 293.127 1394.56 343.708 1384.56 343.708 1384.56 319.767C1384.56 319.167 1384.56 318.488 1384.56 317.726 1384.58 316.965 1384.61 316.157 1384.63 315.305 1384.65 314.451 1384.68 313.585 1384.7 312.709 1384.74 311.833 1384.78 310.979 1384.8 310.149 1384.9 308.212 1384.98 306.193 1385.05 304.095L1384.77 304.095 1372.8 343.708 1362.94 343.708" fill="#4D4D4D" transform="matrix(1.00165 0 0 1 1533.04 537.07)"/><path d="M162.902 194.207 197.429 111.706 204.082 111.706 238.61 194.207 229.925 194.207 219.21 168.434 182.091 168.434 171.516 194.207 162.902 194.207ZM200.791 121.231 183.842 161.991 217.319 161.991 200.791 121.231Z" fill="#D22128" transform="matrix(1.00165 0 0 1 1748.72 600.61)"/><path d="M247.434 194.207 247.434 111.706 281.611 111.706C295.758 111.706 305.983 124.803 305.983 137.619 305.983 151.066 296.459 163.742 282.312 163.742L255.488 163.742 255.488 194.207 247.434 194.207ZM255.488 156.528 281.891 156.528C291.626 156.528 297.929 147.564 297.929 137.619 297.929 127.254 290.296 118.92 281.191 118.92L255.488 118.92 255.488 156.528Z" fill="#D22128" transform="matrix(1.00165 0 0 1 1748.72 600.61)"/><path d="M301.501 194.207 336.028 111.706 342.682 111.706 377.209 194.207 368.385 194.207 357.669 168.434 320.621 168.434 310.045 194.207 301.501 194.207ZM339.39 121.231 322.442 161.991 355.918 161.991 339.39 121.231Z" fill="#D22128" transform="matrix(1.00165 0 0 1 1748.72 600.61)"/><path d="M416.149 111.216C430.786 111.216 441.501 118.639 446.614 129.215L440.101 133.137C434.848 122.211 424.623 118.499 415.728 118.499 395.979 118.499 385.193 136.148 385.193 152.747 385.193 170.956 398.57 187.484 416.079 187.484 425.393 187.484 436.319 182.862 441.501 172.146L448.225 175.648C442.902 187.974 428.265 194.838 415.588 194.838 392.967 194.838 376.999 173.197 376.999 152.326 376.999 132.506 391.286 111.216 416.149 111.216Z" fill="#D22128" transform="matrix(1.00165 0 0 1 1748.72 600.61)"/><path d="M524.633 111.706 524.633 194.207 516.509 194.207 516.509 155.618 467.624 155.618 467.624 194.207 459.64 194.207 459.64 111.706 467.624 111.706 467.624 148.404 516.509 148.404 516.509 111.706 524.633 111.706Z" fill="#D22128" transform="matrix(1.00165 0 0 1 1748.72 600.61)"/><path d="M598.66 186.994 598.66 194.207 543.262 194.207 543.262 111.706 597.61 111.706 597.61 118.92 551.246 118.92 551.246 148.685 591.657 148.685 591.657 155.548 551.246 155.548 551.246 186.994 598.66 186.994Z" fill="#D22128" transform="matrix(1.00165 0 0 1 1748.72 600.61)"/></g></g></g></g></svg>