<svg width="2460" height="945" xmlns="http://www.w3.org/2000/svg" xmlns:xlink="http://www.w3.org/1999/xlink" overflow="hidden"><defs><clipPath id="clip0"><rect x="467" y="481" width="2460" height="945"/></clipPath><clipPath id="clip1"><rect x="1174" y="482" width="904" height="903"/></clipPath><clipPath id="clip2"><rect x="1174" y="482" width="904" height="903"/></clipPath><clipPath id="clip3"><rect x="1174" y="482" width="904" height="903"/></clipPath><clipPath id="clip4"><rect x="1533" y="1004" width="215" height="215"/></clipPath><clipPath id="clip5"><rect x="1533" y="1004" width="215" height="215"/></clipPath><clipPath id="clip6"><rect x="1533" y="1004" width="215" height="215"/></clipPath><clipPath id="clip7"><rect x="2229" y="669" width="558" height="558"/></clipPath><clipPath id="clip8"><rect x="2229" y="669" width="558" height="558"/></clipPath><clipPath id="clip9"><rect x="2229" y="669" width="558" height="558"/></clipPath><clipPath id="clip10"><rect x="467" y="480" width="905" height="905"/></clipPath><clipPath id="clip11"><rect x="467" y="480" width="905" height="905"/></clipPath><clipPath id="clip12"><rect x="467" y="480" width="905" height="905"/></clipPath><clipPath id="clip13"><rect x="811" y="1003" width="217" height="216"/></clipPath><clipPath id="clip14"><rect x="811" y="1003" width="217" height="216"/></clipPath><clipPath id="clip15"><rect x="811" y="1003" width="217" height="216"/></clipPath></defs><g clip-path="url(#clip0)" transform="translate(-467 -481)"><g clip-path="url(#clip1)"><g clip-path="url(#clip2)"><g clip-path="url(#clip3)"><path d="M375.521 336.004C387.4 336.004 397.06 345.664 397.06 357.544L404.195 357.544 411.33 357.544C411.33 337.799 395.265 321.734 375.521 321.734 355.776 321.734 339.711 337.799 339.711 357.544L346.846 357.544 353.972 357.544C353.972 345.664 363.641 336.004 375.521 336.004Z" transform="matrix(1.00111 0 0 1 1175 483)"/><path d="M548.028 357.544 555.154 357.544 562.289 357.544C562.289 337.799 546.224 321.734 526.479 321.734 506.735 321.734 490.67 337.799 490.67 357.544L497.805 357.544 504.94 357.544C504.94 345.664 514.6 336.004 526.479 336.004 538.359 336.004 548.028 345.664 548.028 357.544Z" transform="matrix(1.00111 0 0 1 1175 483)"/><path d="M450.982 430.858C450.991 430.858 450.991 430.858 451 430.858 459.235 430.858 467.507 427.196 473.658 420.792 479.828 414.388 483.183 405.999 482.868 397.764 482.741 394.345 479.918 391.73 476.454 391.82 473.036 391.946 470.375 394.823 470.51 398.233 470.7 403.122 468.598 408.218 464.756 412.205 460.913 416.192 455.898 418.483 451.009 418.483 451.009 418.483 451.009 418.483 451 418.483 446.102 418.483 441.096 416.192 437.254 412.196 433.411 408.2 431.318 403.104 431.517 398.206 431.652 394.787 428.991 391.919 425.573 391.784 422.037 391.432 419.277 394.309 419.15 397.728 418.826 405.963 422.181 414.361 428.333 420.765 434.475 427.169 442.738 430.849 450.982 430.858Z" transform="matrix(1.00111 0 0 1 1175 483)"/><path d="M746.721 443.856 673.875 443.856 673.875 253.489C673.875 138.583 580.392 45.1 465.486 45.1L436.523 45.1C321.608 45.1 228.125 138.583 228.125 253.489L228.125 443.856 155.279 443.856C132.756 443.856 114.419 462.185 114.419 484.708L114.419 774.502C114.419 783.748 117.621 792.182 122.816 799.037 117.747 802.969 114.419 809.049 114.419 815.94L114.419 835.423C114.419 847.258 124.052 856.891 135.895 856.891L766.096 856.891C777.93 856.891 787.572 847.258 787.572 835.423L787.572 815.94C787.572 809.04 784.244 802.96 779.175 799.037 784.37 792.182 787.572 783.748 787.572 774.502L787.572 484.708C787.572 462.185 769.244 443.856 746.721 443.856ZM253.904 253.489C253.904 152.799 335.824 70.8701 436.523 70.8701L465.486 70.8701C566.176 70.8701 648.105 152.79 648.105 253.489L648.105 443.856 591.297 443.856C597.846 431.327 601.977 417.482 603.014 402.905 611.745 401.85 619.927 397.737 625.979 391.252 633.141 383.566 636.686 373.545 635.946 363.019 635.098 350.869 627.873 339.729 616.634 333.199L616.634 333.199C612.702 330.917 608.561 329.51 604.304 328.797L604.304 321.356 604.304 320.914C604.304 307.744 593.588 297.029 580.419 297.029L490.733 297.029C478.52 297.029 469.78 309.557 465.919 321.356 465.612 322.285 465.342 323.205 465.098 324.116L436.929 324.116C436.685 323.205 436.415 322.285 436.108 321.356 432.238 309.566 423.507 297.029 411.294 297.029L321.608 297.029C308.439 297.029 297.723 307.744 297.723 320.914L297.723 321.356 297.723 328.797C293.457 329.51 289.326 330.917 285.393 333.208 274.154 339.729 266.938 350.878 266.081 363.028 265.35 373.554 268.886 383.576 276.048 391.261 282.091 397.737 290.273 401.859 298.995 402.914 300.014 417.482 304.145 431.327 310.712 443.865L253.913 443.865 253.913 253.489ZM305.679 387.653C298.941 388.32 292.05 385.821 287.305 380.743 283.093 376.215 281 370.307 281.433 364.092 281.92 357.147 286.394 350.418 293.105 346.521 294.629 345.637 296.163 345.024 297.705 344.546L297.705 344.817C297.705 376.639 323.593 402.527 355.415 402.527L382.655 402.527C413.351 402.527 438.327 377.559 438.327 346.855L438.327 343.04 463.673 343.04 463.673 346.855C463.673 377.55 488.641 402.527 519.345 402.527L546.585 402.527C578.408 402.527 604.295 376.639 604.295 344.817L604.295 344.555C605.837 345.033 607.362 345.646 608.895 346.53 615.615 350.427 620.08 357.156 620.567 364.092 621 370.307 618.916 376.215 614.695 380.743 609.951 385.821 603.068 388.302 596.321 387.653L587.86 386.976 587.86 395.473C587.86 413.062 582.656 429.713 573.465 443.856L328.544 443.856C319.353 429.686 314.14 412.999 314.14 395.32L314.14 386.823 305.679 387.653ZM316.629 344.826 316.629 320.923C316.629 318.235 318.902 315.962 321.59 315.962L410.996 315.926C413.775 316.819 419.403 326.849 419.403 333.587L419.403 346.864C419.403 367.123 402.923 383.603 382.664 383.603L355.424 383.603C334.029 383.603 316.629 366.203 316.629 344.826ZM482.597 346.864 482.597 333.587C482.597 326.849 488.226 316.819 490.715 315.962L580.401 315.962C583.089 315.962 585.362 318.235 585.362 320.923L585.362 344.826C585.362 366.212 567.962 383.612 546.576 383.612L519.336 383.612C499.086 383.603 482.597 367.123 482.597 346.864ZM764.138 833.457 137.862 833.457 137.862 817.916 764.129 817.916 764.129 833.457ZM764.138 774.511C764.138 784.118 756.327 791.929 746.721 791.929L155.279 791.929C145.673 791.929 137.862 784.118 137.862 774.511L137.862 484.708C137.862 475.11 145.673 467.299 155.279 467.299L746.712 467.299C756.318 467.299 764.129 475.11 764.129 484.708L764.129 774.511Z" transform="matrix(1.00111 0 0 1 1175 483)"/><path d="M451 588.934C427.377 588.934 408.155 608.155 408.155 631.779 408.155 655.402 427.377 674.624 451 674.624 474.623 674.624 493.845 655.402 493.845 631.779 493.845 608.155 474.623 588.934 451 588.934ZM451 656.575C437.326 656.575 426.195 645.453 426.195 631.77 426.195 618.087 437.317 606.965 451 606.965 464.683 606.965 475.805 618.087 475.805 631.77 475.805 645.453 464.683 656.575 451 656.575Z" transform="matrix(1.00111 0 0 1 1175 483)"/></g></g></g><rect x="1533" y="1018" width="187" height="187" fill="#FFFFFF"/><g clip-path="url(#clip4)"><g clip-path="url(#clip5)"><g clip-path="url(#clip6)"><path d="M1664.02 1047.67 1630.42 1047.67 1630.42 1064.47 1622.02 1064.47C1619.25 1064.47 1616.98 1066.73 1616.98 1069.51 1616.98 1072.29 1619.25 1074.55 1622.02 1074.55L1630.42 1074.55 1630.42 1091.34 1640.5 1091.34 1640.5 1089.66C1640.5 1083.18 1645.77 1077.91 1652.26 1077.91 1658.74 1077.91 1664.02 1083.18 1664.02 1089.66L1664.02 1091.34 1674.09 1091.34 1674.09 1057.75C1674.09 1052.19 1669.57 1047.67 1664.02 1047.67Z" fill="#649CD9"/><path d="M1630.42 1010.72 1623.7 1010.72C1579.17 1010.72 1543.08 1046.82 1543.08 1091.34L1543.08 1109.87C1543.08 1128.12 1550.33 1145.62 1563.23 1158.53L1563.23 1212.28 1643.86 1212.28 1643.86 1192.12 1627.06 1192.12 1627.06 1185.41 1643.86 1185.41 1690.89 1185.41C1698.31 1185.41 1704.33 1179.39 1704.33 1171.97L1704.33 1168.61C1695.07 1168.61 1687.53 1161.07 1687.53 1151.81L1694.25 1151.81C1694.25 1157.37 1698.77 1161.89 1704.33 1161.89L1704.33 1141.73 1737.92 1141.73 1711.05 1091.34 1711.05 1091.34C1711.05 1046.82 1674.95 1010.72 1630.42 1010.72ZM1593.47 1192.12 1586.75 1192.12 1586.75 1185.41 1593.47 1185.41 1593.47 1192.12ZM1606.91 1192.12 1600.19 1192.12 1600.19 1185.41 1606.91 1185.41 1606.91 1192.12ZM1620.34 1192.12 1613.62 1192.12 1613.62 1185.41 1620.34 1185.41 1620.34 1192.12ZM1680.81 1131.66C1680.81 1140.92 1673.28 1148.45 1664.02 1148.45L1590.11 1148.45C1580.85 1148.45 1573.31 1140.92 1573.31 1131.66L1573.31 1057.75C1573.31 1048.49 1580.85 1040.95 1590.11 1040.95L1664.02 1040.95C1673.28 1040.95 1680.81 1048.49 1680.81 1057.75L1680.81 1131.66Z" fill="#649CD9"/><path d="M1596.83 1099.74C1596.83 1102.52 1599.09 1104.78 1601.87 1104.78 1604.65 1104.78 1606.91 1102.52 1606.91 1099.74L1606.91 1091.34 1623.7 1091.34 1623.7 1081.27 1622.02 1081.27C1615.54 1081.27 1610.27 1075.99 1610.27 1069.51 1610.27 1063.02 1615.54 1057.75 1622.02 1057.75L1623.7 1057.75 1623.7 1047.67 1590.11 1047.67C1584.55 1047.67 1580.03 1052.19 1580.03 1057.75L1580.03 1091.34 1596.83 1091.34 1596.83 1099.74Z" fill="#649CD9"/><path d="M1657.3 1089.66C1657.3 1086.89 1655.04 1084.62 1652.26 1084.62 1649.48 1084.62 1647.22 1086.89 1647.22 1089.66L1647.22 1098.06 1630.42 1098.06 1630.42 1108.14 1632.1 1108.14C1638.59 1108.14 1643.86 1113.41 1643.86 1119.9 1643.86 1126.38 1638.59 1131.66 1632.1 1131.66L1630.42 1131.66 1630.42 1141.73 1664.02 1141.73C1669.57 1141.73 1674.09 1137.21 1674.09 1131.66L1674.09 1098.06 1657.3 1098.06 1657.3 1089.66Z" fill="#649CD9"/><path d="M1637.14 1119.9C1637.14 1117.12 1634.88 1114.86 1632.1 1114.86L1623.7 1114.86 1623.7 1098.06 1613.62 1098.06 1613.62 1099.74C1613.62 1106.23 1608.35 1111.5 1601.87 1111.5 1595.38 1111.5 1590.11 1106.23 1590.11 1099.74L1590.11 1098.06 1580.03 1098.06 1580.03 1131.66C1580.03 1137.21 1584.55 1141.73 1590.11 1141.73L1623.7 1141.73 1623.7 1124.94 1632.1 1124.94C1634.88 1124.94 1637.14 1122.68 1637.14 1119.9Z" fill="#649CD9"/></g></g></g><path d="M1599.89 866 1571 896.526 1592.29 919.421 1643.99 924 1682 911.789 1666.79 887.368 1651.59 870.579 1599.89 866Z" fill="#FFFFFF" fill-rule="evenodd"/><path d="M1595.5 903C1595.5 885.603 1609.6 871.5 1627 871.5 1644.11 871.5 1658.09 885.157 1658.49 902.262" stroke="#000000" stroke-width="9.16667" stroke-linecap="round" stroke-linejoin="round" stroke-miterlimit="10" fill="none" fill-rule="evenodd"/><g clip-path="url(#clip7)"><g clip-path="url(#clip8)"><g clip-path="url(#clip9)"><path d="M2508 1173.66C2383.37 1173.66 2282.34 1072.63 2282.34 948 2282.34 823.373 2383.37 722.344 2508 722.344 2632.63 722.344 2733.66 823.373 2733.66 948 2733.66 1072.63 2632.63 1173.66 2508 1173.66M2508 670C2354.47 670 2230 794.466 2230 948 2230 1101.53 2354.47 1226 2508 1226 2661.53 1226 2786 1101.53 2786 948 2786 794.466 2661.53 670 2508 670M2536.08 924.305C2542.89 907.199 2548.39 889.444 2556.62 873.057 2565.28 855.806 2576.52 844.577 2597.69 845.227 2617.96 845.848 2633.72 858.827 2640.78 875.868 2651.93 902.805 2660.08 929.509 2669.18 957.257 2675 974.97 2680.67 994.281 2697.84 1003.35 2713.71 1013.91 2707.45 1023.88 2703.33 1030.99 2695.35 1040.88 2682.3 1037.52 2681.15 1037.37 2667.75 1035.61 2647.47 1014.04 2641.42 998.75 2629.02 967.44 2626.32 949.423 2614.6 917.839 2613.4 914.599 2610.17 902.471 2608.38 899.016 2604.73 891.955 2594.7 891.553 2590.57 898.342 2589.38 900.317 2588.39 902.191 2587.63 904.154 2578.88 926.685 2560.28 980.663 2558.43 984.707 2534.47 1037.01 2499.49 1043.38 2458.53 999.547 2451.58 992.109 2445.18 982.057 2438.42 974.493 2426.29 960.914 2415.76 959.756 2404.91 974.173 2396.88 984.828 2388.46 995.023 2380.85 1006.01 2369.81 1021.96 2355.28 1035.31 2335.65 1037.37 2324.53 1038.54 2313.18 1033.77 2310.11 1021.73 2307.24 1010.44 2314.96 1000.92 2324.97 998.288 2340.11 994.3 2342.32 991.646 2349.85 979.599 2350.86 977.981 2358.43 965.909 2359.43 964.278 2395.86 904.658 2440.61 905.297 2481.34 961.481 2484.25 965.486 2489.02 972.114 2493.34 978.115 2497.74 984.24 2507.06 983.573 2510.54 976.882 2524.28 960.449 2530.99 937.071 2536.08 924.307" fill="#298EEA"/></g></g></g><g clip-path="url(#clip10)"><g clip-path="url(#clip11)"><g clip-path="url(#clip12)"><path d="M373.976 301.809C352.099 301.809 334.29 319.609 334.29 341.486L342.191 341.486 350.083 341.486C350.083 328.324 360.795 317.611 373.967 317.611 387.129 317.611 397.841 328.324 397.841 341.486L405.733 341.486 413.634 341.486C413.652 319.6 395.862 301.809 373.976 301.809Z" transform="matrix(1.00111 0 0 1 467 481)"/><path d="M509.503 341.486 517.404 341.486C517.404 328.324 528.117 317.611 541.279 317.611 554.441 317.611 565.154 328.324 565.154 341.486L573.055 341.486 580.956 341.486C580.956 319.609 563.156 301.809 541.279 301.809 519.402 301.809 501.603 319.609 501.603 341.486L509.503 341.486Z" transform="matrix(1.00111 0 0 1 467 481)"/><path d="M457.614 422.719C457.614 422.719 457.623 422.719 457.632 422.719 466.753 422.719 475.911 418.661 482.736 411.564 489.579 404.468 493.295 395.166 492.942 386.044 492.798 382.247 489.227 379.21 485.837 379.454 482.058 379.599 479.102 382.781 479.238 386.569 479.445 391.993 477.122 397.633 472.864 402.063 468.607 406.484 463.056 409.015 457.632 409.015 457.623 409.015 457.623 409.015 457.614 409.015 452.19 409.015 446.63 406.466 442.372 402.045 438.115 397.615 435.8 391.965 436.008 386.541 436.162 382.754 433.206 379.572 429.427 379.418 425.685 379.364 422.457 382.22 422.313 385.999 421.951 395.129 425.667 404.441 432.492 411.537 439.317 418.642 448.474 422.719 457.614 422.719Z" transform="matrix(1.00111 0 0 1 467 481)"/><path d="M797.572 476.652C797.572 453.528 778.76 434.707 755.636 434.707L625.695 434.707C632.267 421.056 636.506 406.203 637.944 390.673 648.168 388.819 657.66 383.703 664.838 376.001 674.113 366.039 678.705 353.057 677.738 339.416 676.599 323.668 667.279 309.249 652.76 300.824 648.186 298.184 643.422 296.358 638.504 295.346L638.504 206.293C638.504 121.687 581.453 63.8857 482.058 47.7131 472.168 46.0498 462.053 45.2 452 45.2 402.407 45.2 355.634 64.6631 320.305 99.9914L317.539 102.749C287.318 132.861 265.496 154.62 265.496 206.293L265.496 295.346C260.542 296.358 255.733 298.203 251.113 300.86 236.604 309.331 227.311 323.768 226.262 339.434 225.295 353.048 229.887 366.039 239.162 375.992 246.331 383.685 255.823 388.801 266.038 390.655 267.457 406.176 271.688 421.029 278.269 434.688L148.374 434.688C125.249 434.688 106.428 453.51 106.428 476.634L106.428 774.186C106.428 783.678 109.718 792.338 115.052 799.371 109.845 803.403 106.428 809.65 106.428 816.728L106.428 836.733C106.428 848.883 116.318 858.773 128.467 858.773L775.533 858.773C787.682 858.773 797.572 848.883 797.572 836.733L797.572 816.728C797.572 809.65 794.155 803.403 788.957 799.371 794.291 792.338 797.572 783.669 797.572 774.186L797.572 476.652ZM627.512 327.384 627.512 319.926C632.014 319.591 636.009 320.504 640.041 322.827 647.246 327.013 651.856 333.892 652.39 341.224 652.851 347.733 650.654 353.934 646.243 358.68 641.442 363.824 634.445 366.382 627.765 365.948L614.865 365.388C622.775 354.748 627.512 341.622 627.512 327.384ZM606.53 300.887 606.53 327.384C606.53 351.077 587.247 370.36 563.554 370.36L533.36 370.36C510.914 370.36 492.653 352.09 492.653 329.644L492.653 314.927C492.653 307.459 498.882 296.34 501.648 295.391L601.043 295.391C604.026 295.391 606.53 297.904 606.53 300.887ZM346.051 158.95C348.384 171.317 354.657 183.367 363.761 191.946 384.29 211.283 413.716 217.313 441.631 221.363 493.467 228.884 549.695 234.263 593.585 259.981 595.6 264.709 597.987 269.519 600.862 274.409L501.648 274.409C487.048 274.409 476.923 290.573 473.235 304.431L442.02 304.431C438.332 290.573 428.207 274.409 413.607 274.409L314.221 274.409C311.048 274.409 308.047 275.06 305.227 276.091 333.169 249.531 315.821 193.338 346.051 158.95ZM422.593 314.917 422.593 329.635C422.593 352.09 404.332 370.351 381.886 370.351L351.692 370.351C327.998 370.351 308.716 351.068 308.716 327.375L308.716 300.878C308.716 297.895 311.229 295.382 314.212 295.382L413.291 295.346C416.364 296.34 422.593 307.459 422.593 314.917ZM290.907 285.239C292.119 284.742 293.203 284.163 294.315 283.603 292.995 285.122 291.856 286.794 290.907 288.584L290.907 285.239ZM276.235 365.948C268.976 366.464 262.531 363.806 257.749 358.68 253.328 353.934 251.14 347.733 251.61 341.179 252.089 334.001 256.808 326.959 263.86 322.846 268.099 320.414 272.285 319.492 276.995 319.935L287.734 320.956 287.734 327.375C287.734 362.64 316.427 391.333 351.692 391.333L381.886 391.333C415.903 391.333 443.575 363.652 443.575 329.644L443.575 325.413 471.662 325.413 471.662 329.644C471.662 363.661 499.343 391.333 533.351 391.333L563.545 391.333C583.505 391.333 601.341 382.13 613.084 367.765L613.084 378.74C613.084 399.044 607.172 418.326 596.622 434.707L307.36 434.707C296.81 418.299 290.907 398.971 290.907 378.55L290.907 365.126 276.235 365.948ZM773.508 834.736 130.492 834.736 130.492 818.78 773.508 818.78 773.508 834.736ZM773.508 774.204C773.508 784.066 765.489 792.085 755.636 792.085L148.374 792.085C138.511 792.085 130.492 784.066 130.492 774.204L130.492 476.652C130.492 466.789 138.511 458.771 148.374 458.771L755.636 458.771C765.489 458.771 773.508 466.789 773.508 476.652L773.508 774.204Z" transform="matrix(1.00111 0 0 1 467 481)"/><path d="M452 590.24C428.333 590.24 409.069 609.504 409.069 633.18 409.069 656.856 428.333 676.12 452 676.12 475.676 676.12 494.94 656.856 494.94 633.18 494.94 609.504 475.676 590.24 452 590.24ZM452 658.031C438.295 658.031 427.149 646.884 427.149 633.171 427.149 619.457 438.295 608.311 452 608.311 465.714 608.311 476.86 619.457 476.86 633.171 476.86 646.884 465.714 658.031 452 658.031Z" transform="matrix(1.00111 0 0 1 467 481)"/></g></g></g><rect x="827" y="1017" width="188" height="188" fill="#FFFFFF"/><g clip-path="url(#clip13)"><g clip-path="url(#clip14)"><g clip-path="url(#clip15)"><path d="M131.016 43.6719 97.422 43.6719 97.422 60.4688 89.0235 60.4688C86.2453 60.4688 83.9845 62.7297 83.9845 65.5079 83.9845 68.2861 86.2453 70.5469 89.0235 70.5469L97.422 70.5469 97.422 87.3438 107.5 87.3438 107.5 85.6641C107.5 79.1805 112.774 73.9063 119.258 73.9063 125.742 73.9063 131.016 79.1805 131.016 85.6641L131.016 87.3438 141.094 87.3438 141.094 53.75C141.094 48.1936 136.572 43.6719 131.016 43.6719Z" fill="#649CD9" transform="matrix(1 0 0 1.00465 812 1003)"/><path d="M97.422 6.71876 90.7032 6.71876C46.1747 6.71876 10.0781 42.8153 10.0781 87.3438L10.0781 105.871C10.0781 124.122 17.3277 141.625 30.2344 154.531L30.2344 208.281 110.859 208.281 110.859 188.125 94.0626 188.125 94.0626 181.406 110.859 181.406 157.891 181.406C165.312 181.406 171.328 175.39 171.328 167.969L171.328 164.61C162.066 164.61 154.531 157.074 154.531 147.813L161.25 147.813C161.25 153.369 165.772 157.891 171.328 157.891L171.328 137.734 204.922 137.734 178.047 87.3438 178.047 87.3438C178.047 42.8153 141.951 6.71876 97.422 6.71876ZM60.4688 188.125 53.75 188.125 53.75 181.406 60.4688 181.406 60.4688 188.125ZM73.9063 188.125 67.1876 188.125 67.1876 181.406 73.9063 181.406 73.9063 188.125ZM87.3438 188.125 80.6251 188.125 80.6251 181.406 87.3438 181.406 87.3438 188.125ZM147.813 127.656C147.813 136.918 140.278 144.453 131.016 144.453L57.1094 144.453C47.8476 144.453 40.3125 136.918 40.3125 127.656L40.3125 53.75C40.3125 44.4882 47.8476 36.9532 57.1094 36.9532L131.016 36.9532C140.278 36.9532 147.813 44.4882 147.813 53.75L147.813 127.656Z" fill="#649CD9" transform="matrix(1 0 0 1.00465 812 1003)"/><path d="M63.8282 95.7423C63.8282 98.5205 66.089 100.781 68.8672 100.781 71.6455 100.781 73.9063 98.5205 73.9063 95.7423L73.9063 87.3438 90.7032 87.3438 90.7032 77.2657 89.0235 77.2657C82.5399 77.2657 77.2657 71.9915 77.2657 65.5079 77.2657 59.0243 82.5399 53.75 89.0235 53.75L90.7032 53.75 90.7032 43.6719 57.1094 43.6719C51.553 43.6719 47.0313 48.1936 47.0313 53.75L47.0313 87.3438 63.8282 87.3438 63.8282 95.7423Z" fill="#649CD9" transform="matrix(1 0 0 1.00465 812 1003)"/><path d="M124.297 85.6641C124.297 82.8859 122.036 80.6251 119.258 80.6251 116.48 80.6251 114.219 82.8859 114.219 85.6641L114.219 94.0626 97.422 94.0626 97.422 104.141 99.1017 104.141C105.585 104.141 110.859 109.415 110.859 115.899 110.859 122.382 105.585 127.656 99.1017 127.656L97.422 127.656 97.422 137.734 131.016 137.734C136.572 137.734 141.094 133.213 141.094 127.656L141.094 94.0626 124.297 94.0626 124.297 85.6641Z" fill="#649CD9" transform="matrix(1 0 0 1.00465 812 1003)"/><path d="M104.141 115.899C104.141 113.12 101.88 110.859 99.1017 110.859L90.7032 110.859 90.7032 94.0626 80.6251 94.0626 80.6251 95.7423C80.6251 102.226 75.3509 107.5 68.8672 107.5 62.3837 107.5 57.1094 102.226 57.1094 95.7423L57.1094 94.0626 47.0313 94.0626 47.0313 127.656C47.0313 133.213 51.553 137.734 57.1094 137.734L90.7032 137.734 90.7032 120.938 99.1017 120.938C101.88 120.938 104.141 118.677 104.141 115.899Z" fill="#649CD9" transform="matrix(1 0 0 1.00465 812 1003)"/></g></g></g><path d="M894.26 847 856 881.211 884.192 906.868 952.658 912 1003 898.316 982.863 870.947 962.726 852.132 894.26 847Z" fill="#FFFFFF" fill-rule="evenodd"/><path d="M888.5 903C888.5 883.394 907.08 867.5 930 867.5 952.477 867.5 970.869 882.808 971.484 902.028" stroke="#000000" stroke-width="9.16667" stroke-linecap="round" stroke-linejoin="round" stroke-miterlimit="10" fill="none" fill-rule="evenodd"/></g></svg>