<svg width="2251" height="954" xmlns="http://www.w3.org/2000/svg" xmlns:xlink="http://www.w3.org/1999/xlink" overflow="hidden"><defs><clipPath id="clip0"><rect x="679" y="472" width="2251" height="954"/></clipPath><clipPath id="clip1"><rect x="1650" y="707" width="1281" height="434"/></clipPath><clipPath id="clip2"><rect x="1650" y="707" width="1281" height="434"/></clipPath><clipPath id="clip3"><rect x="1650" y="707" width="1281" height="434"/></clipPath><linearGradient x1="195.036" y1="50.4627" x2="285.726" y2="25.2448" gradientUnits="userSpaceOnUse" spreadMethod="pad" id="fill4"><stop offset="0" stop-color="#F69923"/><stop offset="0.3123" stop-color="#F79A23"/><stop offset="0.8383" stop-color="#E97826"/><stop offset="1" stop-color="#E97826"/></linearGradient><linearGradient x1="-3.46209" y1="457.474" x2="180.99" y2="61.9025" gradientUnits="userSpaceOnUse" spreadMethod="pad" id="fill5"><stop offset="0" stop-color="#9E2064"/><stop offset="0.3233" stop-color="#9E2064"/><stop offset="0.6302" stop-color="#C92037"/><stop offset="0.7514" stop-color="#CD2335"/><stop offset="1" stop-color="#E97826"/></linearGradient><linearGradient x1="58.4799" y1="428.221" x2="168.393" y2="192.504" gradientUnits="userSpaceOnUse" spreadMethod="pad" id="fill6"><stop offset="0" stop-color="#282662"/><stop offset="0.0954839" stop-color="#662E8D"/><stop offset="0.7882" stop-color="#9F2064"/><stop offset="0.9487" stop-color="#CD2032"/><stop offset="1" stop-color="#CD2032"/></linearGradient><linearGradient x1="3.21132" y1="433.539" x2="187.663" y2="37.9676" gradientUnits="userSpaceOnUse" spreadMethod="pad" id="fill7"><stop offset="0" stop-color="#9E2064"/><stop offset="0.3233" stop-color="#9E2064"/><stop offset="0.6302" stop-color="#C92037"/><stop offset="0.7514" stop-color="#CD2335"/><stop offset="1" stop-color="#E97826"/></linearGradient><linearGradient x1="22.0153" y1="407.185" x2="118.951" y2="199.298" gradientUnits="userSpaceOnUse" spreadMethod="pad" id="fill8"><stop offset="0" stop-color="#282662"/><stop offset="0.0954839" stop-color="#662E8D"/><stop offset="0.7882" stop-color="#9F2064"/><stop offset="0.9487" stop-color="#CD2032"/><stop offset="1" stop-color="#CD2032"/></linearGradient><linearGradient x1="44.1514" y1="452.629" x2="228.603" y2="57.0579" gradientUnits="userSpaceOnUse" spreadMethod="pad" id="fill9"><stop offset="0" stop-color="#9E2064"/><stop offset="0.3233" stop-color="#9E2064"/><stop offset="0.6302" stop-color="#C92037"/><stop offset="0.7514" stop-color="#CD2335"/><stop offset="1" stop-color="#E97826"/></linearGradient><linearGradient x1="30.6754" y1="476.221" x2="215.131" y2="80.6425" gradientUnits="userSpaceOnUse" spreadMethod="pad" id="fill10"><stop offset="0" stop-color="#9E2064"/><stop offset="0.3233" stop-color="#9E2064"/><stop offset="0.6302" stop-color="#C92037"/><stop offset="0.7514" stop-color="#CD2335"/><stop offset="1" stop-color="#E97826"/></linearGradient><linearGradient x1="56.3277" y1="458.307" x2="240.779" y2="62.7353" gradientUnits="userSpaceOnUse" spreadMethod="pad" id="fill11"><stop offset="0" stop-color="#9E2064"/><stop offset="0.3233" stop-color="#9E2064"/><stop offset="0.6302" stop-color="#C92037"/><stop offset="0.7514" stop-color="#CD2335"/><stop offset="1" stop-color="#E97826"/></linearGradient><linearGradient x1="54.9341" y1="457.657" x2="239.386" y2="62.0857" gradientUnits="userSpaceOnUse" spreadMethod="pad" id="fill12"><stop offset="0" stop-color="#9E2064"/><stop offset="0.3233" stop-color="#9E2064"/><stop offset="0.6302" stop-color="#C92037"/><stop offset="0.7514" stop-color="#CD2335"/><stop offset="1" stop-color="#E97826"/></linearGradient><clipPath id="clip13"><rect x="678" y="471" width="905" height="906"/></clipPath><clipPath id="clip14"><rect x="678" y="471" width="905" height="906"/></clipPath><clipPath id="clip15"><rect x="678" y="471" width="905" height="906"/></clipPath><clipPath id="clip16"><rect x="1023" y="994" width="216" height="215"/></clipPath><clipPath id="clip17"><rect x="1023" y="994" width="216" height="215"/></clipPath><clipPath id="clip18"><rect x="1023" y="994" width="216" height="215"/></clipPath></defs><g clip-path="url(#clip0)" transform="translate(-679 -472)"><g clip-path="url(#clip1)"><g clip-path="url(#clip2)"><g clip-path="url(#clip3)"><path d="M216.018 15.8516C209.225 19.8954 197.902 31.2179 184.477 47.6356L196.851 71.0087C205.505 58.5538 214.401 47.393 223.297 37.8497 223.944 37.1218 224.349 36.7175 224.349 36.7175 224.025 37.1218 223.621 37.4453 223.297 37.8497 220.386 41.0039 211.651 51.1942 198.468 71.4939 211.166 70.8469 230.657 68.2589 246.589 65.5091 251.361 38.982 241.979 26.8507 241.979 26.8507 241.979 26.8507 230.01 7.52142 216.018 15.8516Z" fill="url(#fill4)" transform="matrix(1.00165 0 0 1 1618.24 693.233)"/><path d="M174.368 212.055C172.75 212.379 171.132 212.622 169.515 212.864 169.515 212.864 169.515 212.864 169.515 212.864 170.324 212.783 171.213 212.622 172.022 212.46 172.831 212.379 173.64 212.217 174.368 212.055Z" fill="#BE202E" transform="matrix(1.00165 0 0 1 1618.24 693.233)"/><path d="M174.368 212.055C172.75 212.379 171.132 212.622 169.515 212.864 169.515 212.864 169.515 212.864 169.515 212.864 170.324 212.783 171.213 212.622 172.022 212.46 172.831 212.379 173.64 212.217 174.368 212.055Z" fill="#BE202E" fill-opacity="0.35" transform="matrix(1.00165 0 0 1 1618.24 693.233)"/><path d="M178.573 191.594C178.573 191.594 178.573 191.594 178.573 191.594 178.492 191.594 178.492 191.594 178.573 191.594 178.816 191.594 179.058 191.513 179.301 191.513 180.352 191.351 181.404 191.19 182.374 190.947 181.161 191.19 179.867 191.351 178.573 191.594L178.573 191.594 178.573 191.594Z" fill="#BE202E" transform="matrix(1.00165 0 0 1 1618.24 693.233)"/><path d="M178.573 191.594C178.573 191.594 178.573 191.594 178.573 191.594 178.492 191.594 178.492 191.594 178.573 191.594 178.816 191.594 179.058 191.513 179.301 191.513 180.352 191.351 181.404 191.19 182.374 190.947 181.161 191.19 179.867 191.351 178.573 191.594L178.573 191.594 178.573 191.594Z" fill="#BE202E" fill-opacity="0.35" transform="matrix(1.00165 0 0 1 1618.24 693.233)"/><path d="M160.295 131.342C164.096 124.306 167.897 117.431 171.699 110.719 175.661 103.763 179.705 97.0506 183.83 90.4996 184.073 90.0953 184.315 89.6909 184.558 89.3674 188.602 82.9782 192.645 76.8317 196.77 70.9278L184.396 47.6356C183.506 48.7679 182.536 49.9002 181.565 51.1133 178.007 55.5614 174.287 60.3331 170.485 65.4283 166.199 71.1704 161.832 77.2361 157.303 83.6252 153.178 89.5291 148.973 95.7565 144.767 102.146 141.209 107.645 137.65 113.226 134.092 118.968 133.93 119.21 133.849 119.372 133.687 119.615L149.781 151.399C153.34 144.686 156.818 137.974 160.295 131.342Z" fill="url(#fill5)" transform="matrix(1.00165 0 0 1 1618.24 693.233)"/><path d="M86.9411 310.643C84.8384 316.466 82.6547 322.45 80.552 328.597 80.552 328.678 80.4711 328.759 80.4711 328.84 80.1476 329.729 79.8241 330.538 79.5815 331.428 78.1257 335.552 76.9126 339.273 74.001 347.684 78.7727 349.867 82.5738 355.529 86.1324 361.999 85.728 355.286 82.9782 348.978 77.7213 344.125 101.094 345.176 121.313 339.273 131.665 322.127 132.555 320.59 133.445 318.973 134.253 317.274 129.482 323.259 123.659 325.847 112.579 325.2 112.579 325.2 112.498 325.2 112.498 325.2 112.498 325.2 112.579 325.2 112.579 325.2 128.835 317.921 137.003 310.885 144.201 299.32 145.899 296.57 147.598 293.578 149.296 290.262 135.062 304.9 118.563 309.025 101.175 305.871L88.1543 307.327C87.7499 308.459 87.3455 309.51 86.9411 310.643Z" fill="url(#fill6)" transform="matrix(1.00165 0 0 1 1618.24 693.233)"/><path d="M93.0068 281.447C95.8374 274.168 98.7489 266.808 101.66 259.368 104.491 252.251 107.403 245.134 110.395 237.936 113.387 230.738 116.461 223.54 119.534 216.342 122.688 208.982 125.923 201.703 129.239 194.425 132.474 187.227 135.871 180.029 139.187 172.912 140.4 170.324 141.613 167.817 142.907 165.229 145.01 160.861 147.193 156.494 149.377 152.127 149.458 151.884 149.62 151.641 149.7 151.399L133.768 119.696C133.525 120.1 133.283 120.585 132.959 120.99 129.239 127.136 125.438 133.364 121.798 139.753 118.078 146.223 114.439 152.774 110.88 159.486 107.888 165.148 104.976 170.809 102.065 176.551 101.499 177.683 100.933 178.897 100.366 180.029 96.8888 187.227 93.6538 194.263 90.8231 200.976 87.5881 208.578 84.7575 215.857 82.2503 222.731 80.6328 227.26 79.0962 231.627 77.7213 235.833 76.5891 239.391 75.5377 243.031 74.4863 246.589 72.06 255 70.0381 263.411 68.3398 271.822L84.5149 303.768C86.6176 298.026 88.8821 292.284 91.0658 286.38 91.7128 284.763 92.3598 283.145 93.0068 281.447Z" fill="url(#fill7)" transform="matrix(1.00165 0 0 1 1618.24 693.233)"/><path d="M68.0971 272.955C66.0752 283.145 64.6195 293.335 63.8916 303.526 63.8916 303.849 63.8107 304.254 63.8107 304.577 58.7965 296.489 45.2094 288.564 45.2903 288.645 54.9953 302.717 62.355 316.627 63.4064 330.295 58.2303 331.347 51.1133 329.81 42.9449 326.818 51.5177 334.663 57.9068 336.846 60.414 337.412 52.569 337.898 44.4006 343.316 36.1513 349.544 48.2018 344.61 57.9877 342.669 64.943 344.287 53.8631 375.586 42.7831 410.2 31.7032 446.918 35.1 445.947 37.1218 443.602 38.2541 440.529 40.1951 433.897 53.3778 390.224 73.9202 332.883 74.4863 331.266 75.1333 329.648 75.6994 327.95 75.8612 327.465 76.0229 327.06 76.1847 326.575 78.3683 320.59 80.6328 314.444 82.9782 308.135 83.5444 306.68 84.0296 305.305 84.5957 303.849 84.5957 303.849 84.5957 303.768 84.5957 303.768L68.4206 271.822C68.2589 272.227 68.178 272.55 68.0971 272.955Z" fill="url(#fill8)" transform="matrix(1.00165 0 0 1 1618.24 693.233)"/><path d="M152.369 154.149C151.884 155.119 151.48 156.009 150.994 156.979 149.62 159.891 148.164 162.802 146.789 165.795 145.252 169.03 143.716 172.346 142.098 175.742 141.289 177.441 140.481 179.139 139.672 180.918 137.246 186.175 134.819 191.594 132.312 197.174 129.239 204.049 126.166 211.166 123.012 218.606 120.019 225.643 116.946 233.002 113.873 240.524 110.961 247.722 107.969 255.081 104.976 262.764 102.307 269.558 99.6386 276.594 96.8888 283.792 96.7271 284.115 96.6462 284.52 96.4844 284.843 93.8155 291.96 91.0658 299.32 88.316 306.841 88.2351 307.003 88.1543 307.165 88.1543 307.327L101.175 305.871C100.933 305.79 100.69 305.79 100.366 305.709 115.975 303.768 136.68 292.122 150.024 277.726 156.171 271.095 161.751 263.331 166.927 254.192 170.809 247.398 174.368 239.877 177.845 231.466 180.838 224.187 183.749 216.261 186.499 207.688 182.94 209.548 178.816 210.923 174.287 211.894 173.478 212.055 172.669 212.217 171.86 212.379 171.052 212.541 170.243 212.622 169.353 212.783L169.353 212.783 169.353 212.783C169.353 212.783 169.353 212.783 169.353 212.783 183.911 207.203 193.05 196.446 199.682 183.183 195.88 185.771 189.653 189.168 182.212 190.866 181.242 191.109 180.191 191.27 179.139 191.432 178.897 191.432 178.654 191.513 178.33 191.513L178.33 191.513 178.33 191.513C178.33 191.513 178.33 191.513 178.33 191.513 178.33 191.513 178.33 191.513 178.33 191.513L178.33 191.513C183.345 189.41 187.631 187.065 191.351 184.234 192.16 183.668 192.888 183.021 193.616 182.374 194.748 181.404 195.799 180.352 196.851 179.301 197.498 178.573 198.145 177.926 198.792 177.198 200.248 175.5 201.623 173.64 202.836 171.618 203.24 170.971 203.644 170.405 203.968 169.758 204.453 168.787 204.938 167.897 205.343 167.008 207.365 162.964 208.982 159.325 210.276 156.09 210.923 154.472 211.489 153.016 211.975 151.641 212.136 151.075 212.379 150.59 212.541 150.024 213.026 148.487 213.511 147.112 213.835 145.899 214.32 144.12 214.643 142.664 214.805 141.613L214.805 141.613 214.805 141.613C214.32 142.017 213.754 142.422 213.107 142.745 208.74 145.333 201.218 147.759 195.152 148.892L207.122 147.598 195.152 148.892C195.072 148.892 194.991 148.892 194.91 148.973 194.344 149.053 193.697 149.134 193.05 149.296 193.131 149.215 193.292 149.215 193.373 149.134L152.45 153.583C152.531 153.906 152.45 154.068 152.369 154.149Z" fill="url(#fill9)" transform="matrix(1.00165 0 0 1 1618.24 693.233)"/><path d="M198.468 71.4939C194.829 77.0743 190.866 83.4635 186.58 90.5805 186.337 90.9849 186.094 91.3084 185.933 91.7128 182.212 97.9402 178.33 104.734 174.206 112.255 170.647 118.725 166.927 125.6 163.045 133.121 159.648 139.591 156.251 146.465 152.612 153.744L193.535 149.296C205.424 143.797 210.761 138.863 215.937 131.665 217.312 129.724 218.687 127.621 220.062 125.438 224.268 118.887 228.392 111.689 232.032 104.491 235.59 97.5358 238.744 90.6614 241.09 84.5149 242.626 80.552 243.84 76.9126 244.729 73.6775 245.457 70.8469 246.023 68.178 246.508 65.59 230.657 68.2589 211.166 70.8469 198.468 71.4939Z" fill="url(#fill10)" transform="matrix(1.00165 0 0 1 1618.24 693.233)"/><path d="M172.022 212.541C171.213 212.702 170.405 212.783 169.515 212.945L169.515 212.945C170.324 212.783 171.132 212.622 172.022 212.541Z" fill="#BE202E" transform="matrix(1.00165 0 0 1 1618.24 693.233)"/><path d="M172.022 212.541C171.213 212.702 170.405 212.783 169.515 212.945L169.515 212.945C170.324 212.783 171.132 212.622 172.022 212.541Z" fill="#BE202E" fill-opacity="0.35" transform="matrix(1.00165 0 0 1 1618.24 693.233)"/><path d="M172.022 212.541C171.213 212.702 170.405 212.783 169.515 212.945L169.515 212.945C170.324 212.783 171.132 212.622 172.022 212.541Z" fill="url(#fill11)" transform="matrix(1.00165 0 0 1 1618.24 693.233)"/><path d="M178.492 191.594C178.735 191.594 178.977 191.513 179.301 191.513 179.058 191.513 178.816 191.594 178.492 191.594L178.492 191.594Z" fill="#BE202E" transform="matrix(1.00165 0 0 1 1618.24 693.233)"/><path d="M178.492 191.594C178.735 191.594 178.977 191.513 179.301 191.513 179.058 191.513 178.816 191.594 178.492 191.594L178.492 191.594Z" fill="#BE202E" fill-opacity="0.35" transform="matrix(1.00165 0 0 1 1618.24 693.233)"/><path d="M178.492 191.594C178.735 191.594 178.977 191.513 179.301 191.513 179.058 191.513 178.816 191.594 178.492 191.594L178.492 191.594Z" fill="url(#fill12)" transform="matrix(1.00165 0 0 1 1618.24 693.233)"/><path d="M282.373 304.718 282.373 310.629 280.711 310.629 280.711 304.718 278.618 304.718 278.618 303.302 284.406 303.302 284.406 304.718 282.373 304.718Z" fill="#B0AFB0" transform="matrix(1.00165 0 0 1 1533.04 537.07)"/><path d="M292.166 306.01 290.195 310.014 289.209 310.014 287.24 306.01 287.24 310.629 285.638 310.629 285.638 303.302 287.854 303.302 289.763 307.304 291.672 303.302 293.89 303.302 293.89 310.629 292.289 310.629 292.289 306.01Z" fill="#B0AFB0" transform="matrix(1.00165 0 0 1 1533.04 537.07)"/><path d="M349.563 591.536C342.729 591.536 336.738 591.168 331.586 590.433 326.436 589.802 322.072 589.014 318.5 588.068L318.5 547.386C322.388 548.226 326.488 548.961 330.798 549.592 335.004 550.223 339.629 550.539 344.674 550.539 349.51 550.539 353.977 550.014 358.078 548.961 362.281 547.911 365.908 546.072 368.956 543.444 372.111 540.92 374.528 537.505 376.21 533.195 377.998 528.885 378.892 523.47 378.892 516.952L378.892 293.203 427.773 293.203 427.773 515.377C427.773 528.622 425.828 540.026 421.938 549.592 418.153 559.158 412.792 567.043 405.854 573.245 399.023 579.552 390.823 584.178 381.257 587.121 371.691 590.065 361.126 591.536 349.563 591.536" stroke="#D22128" stroke-width="6.02777" stroke-linejoin="round" fill="#D22128" transform="matrix(1.00165 0 0 1 1533.04 537.07)"/><path d="M453.968 293.227 453.968 523.725 497.669 523.725 497.669 416.481C497.667 413.537 497.585 410.24 497.48 406.561 497.48 402.882 497.376 399.065 497.167 395.07 497.06 391.076 496.936 387.051 496.727 382.953 496.62 378.852 496.433 374.849 496.224 370.959 495.803 361.92 495.284 352.565 494.655 342.892L496.098 342.892 546.707 523.725 591.602 523.725 646.165 343.205 647.421 343.205C647.106 352.774 646.774 361.942 646.354 370.77 646.248 374.556 646.061 378.456 645.852 382.45 645.745 386.445 645.641 390.365 645.536 394.255 645.432 398.145 645.328 401.836 645.223 405.306 645.223 408.774 645.223 411.866 645.223 414.598L645.223 523.725 690.809 523.725 690.809 293.227 624.252 293.227 571.258 469.475 570.316 469.475 520.524 293.227 453.968 293.227ZM911.639 309.928 897.761 347.099 871.327 363.236 871.327 383.579 894.309 383.579 894.309 468.535C894.309 479.887 895.657 489.347 898.39 496.914 901.229 504.378 905.107 510.352 909.943 514.872 914.779 519.287 920.524 522.441 927.148 524.228 933.771 526.016 940.883 526.866 948.559 526.866 956.443 526.866 963.723 526.118 970.347 524.541 977.074 523.07 982.654 521.141 987.173 518.829L987.173 483.038C982.758 484.615 978.422 485.943 974.113 486.994 969.909 488.045 965.406 488.563 960.677 488.563 955.209 488.563 950.791 486.926 947.428 483.667 944.064 480.408 942.404 475.366 942.404 468.535L942.404 383.579 985.29 383.579 985.29 347.477 942.404 347.477 942.404 309.928 911.639 309.928ZM788.194 344.148C776.211 344.148 765.3 346.099 755.419 349.989 745.642 353.877 737.221 359.665 730.177 367.443 723.239 375.116 717.803 384.763 713.914 396.326 710.026 407.889 708.075 421.372 708.075 436.825 708.075 452.067 710.213 465.406 714.416 476.759 718.728 488.007 724.701 497.362 732.375 504.826 740.048 512.184 749.196 517.661 759.813 521.34 770.43 525.019 782.047 526.866 794.662 526.866 801.18 526.866 807.153 526.637 812.62 526.112 818.086 525.69 823.209 524.965 827.939 523.914 832.671 522.863 837.109 521.555 841.315 520.084 845.625 518.507 849.918 516.641 854.124 514.432L854.124 477.199C849.498 479.512 844.975 481.565 840.561 483.351 836.145 485.035 831.644 486.466 827.123 487.623 822.602 488.778 817.957 489.69 813.123 490.321 808.391 490.848 803.35 491.075 797.989 491.075 791.577 491.075 785.831 490.122 780.786 488.125 775.845 486.126 771.551 483.265 767.977 479.586 764.507 475.8 761.81 471.195 759.813 465.834 757.92 460.367 756.884 454.289 756.675 447.562L864.17 447.562 864.17 424.205C864.17 411.38 862.406 400.053 858.833 390.174 855.363 380.186 850.322 371.765 843.7 364.932 837.182 358.098 829.175 352.954 819.715 349.486 810.358 345.912 799.864 344.148 788.194 344.148ZM1077.72 344.148C1065.73 344.148 1054.82 346.099 1044.94 349.989 1035.16 353.877 1026.74 359.665 1019.7 367.443 1012.76 375.116 1007.33 384.763 1003.44 396.326 999.546 407.889 997.597 421.372 997.597 436.825 997.597 452.067 999.735 465.406 1003.94 476.759 1008.25 488.007 1014.22 497.362 1021.9 504.826 1029.57 512.184 1038.72 517.661 1049.34 521.34 1059.95 525.019 1071.57 526.866 1084.18 526.866 1090.7 526.866 1096.68 526.637 1102.14 526.112 1107.61 525.69 1112.73 524.965 1117.46 523.914 1122.19 522.863 1126.63 521.555 1130.83 520.084 1135.14 518.507 1139.44 516.641 1143.65 514.432L1143.65 477.199C1139.02 479.512 1134.5 481.565 1130.08 483.351 1125.67 485.035 1121.17 486.466 1116.65 487.623 1112.12 488.778 1107.48 489.69 1102.64 490.321 1097.91 490.848 1092.87 491.075 1087.51 491.075 1081.1 491.075 1075.35 490.122 1070.31 488.125 1065.37 486.126 1061.14 483.265 1057.56 479.586 1054.09 475.8 1051.33 471.195 1049.34 465.834 1047.44 460.367 1046.41 454.289 1046.2 447.562L1153.69 447.562 1153.69 424.205C1153.69 411.38 1151.93 400.053 1148.35 390.174 1144.89 380.186 1139.84 371.765 1133.22 364.932 1126.7 358.098 1118.7 352.954 1109.24 349.486 1099.88 345.912 1089.38 344.148 1077.72 344.148ZM1258.49 344.148C1252.6 344.148 1247.35 344.875 1242.73 346.346 1238.21 347.712 1234.1 349.683 1230.42 352.311 1226.85 354.833 1223.63 357.988 1220.69 361.667 1217.74 365.345 1214.98 369.39 1212.46 373.911L1210.08 373.911 1202.98 347.477 1166.56 347.477 1166.56 523.725 1214.66 523.725 1214.66 434C1214.66 425.696 1215.68 418.705 1217.67 413.027 1219.78 407.247 1222.66 402.621 1226.34 399.151 1230.12 395.577 1234.62 393.005 1239.77 391.428 1245.03 389.852 1250.72 389.043 1256.92 389.043 1257.97 389.043 1259.29 389.125 1260.87 389.231 1262.45 389.231 1264 389.334 1265.58 389.545 1267.26 389.649 1268.88 389.836 1270.35 390.047 1271.82 390.258 1272.97 390.465 1273.81 390.674L1273.81 345.53C1273.18 345.319 1272.24 345.195 1270.98 345.09 1269.83 344.879 1268.5 344.692 1267.03 344.588 1265.66 344.377 1264.21 344.274 1262.63 344.274 1261.16 344.17 1259.75 344.148 1258.49 344.148ZM788.509 378.367C793.555 378.369 797.973 379.302 801.756 381.194 805.542 383.087 808.714 385.679 811.238 389.043 813.762 392.302 815.628 396.202 816.888 400.722 818.15 405.241 818.855 410.178 818.962 415.539L757.615 415.539C758.457 402.716 761.652 393.338 767.223 387.347 772.899 381.355 779.994 378.369 788.509 378.367ZM1078.03 378.367C1083.07 378.369 1087.49 379.302 1091.28 381.194 1095.06 383.087 1098.24 385.679 1100.76 389.043 1103.28 392.302 1105.15 396.202 1106.41 400.722 1107.67 405.241 1108.38 410.178 1108.48 415.539L1047.14 415.539C1047.98 402.716 1051.17 393.338 1056.75 387.347 1062.42 381.355 1069.51 378.369 1078.03 378.367Z" stroke="#000000" stroke-width="6.02777" stroke-linejoin="round" transform="matrix(1.00165 0 0 1 1533.04 537.07)"/><path d="M1322.15 343.708 1311.46 343.708 1311.46 302.054 1298.76 302.054 1298.76 293.127 1334.81 293.127 1334.81 302.054 1322.15 302.054 1322.15 343.708" fill="#4D4D4D" transform="matrix(1.00165 0 0 1 1533.04 537.07)"/><path d="M1362.94 343.708 1351.83 304.025 1351.52 304.025C1351.66 306.147 1351.77 308.2 1351.87 310.183 1351.91 311.037 1351.95 311.913 1351.97 312.813 1352.02 313.714 1352.05 314.6 1352.07 315.478 1352.12 316.354 1352.14 317.196 1352.14 318.003 1352.17 318.809 1352.18 319.536 1352.18 320.181L1352.18 343.708 1342.59 343.708 1342.59 293.127 1357.2 293.127 1368.13 331.807 1368.34 331.807 1379.96 293.127 1394.56 293.127 1394.56 343.708 1384.56 343.708 1384.56 319.767C1384.56 319.167 1384.56 318.488 1384.56 317.726 1384.58 316.965 1384.61 316.157 1384.63 315.305 1384.65 314.451 1384.68 313.585 1384.7 312.709 1384.74 311.833 1384.78 310.979 1384.8 310.149 1384.9 308.212 1384.98 306.193 1385.05 304.095L1384.77 304.095 1372.8 343.708 1362.94 343.708" fill="#4D4D4D" transform="matrix(1.00165 0 0 1 1533.04 537.07)"/><path d="M162.902 194.207 197.429 111.706 204.082 111.706 238.61 194.207 229.925 194.207 219.21 168.434 182.091 168.434 171.516 194.207 162.902 194.207ZM200.791 121.231 183.842 161.991 217.319 161.991 200.791 121.231Z" fill="#D22128" transform="matrix(1.00165 0 0 1 1748.72 600.61)"/><path d="M247.434 194.207 247.434 111.706 281.611 111.706C295.758 111.706 305.983 124.803 305.983 137.619 305.983 151.066 296.459 163.742 282.312 163.742L255.488 163.742 255.488 194.207 247.434 194.207ZM255.488 156.528 281.891 156.528C291.626 156.528 297.929 147.564 297.929 137.619 297.929 127.254 290.296 118.92 281.191 118.92L255.488 118.92 255.488 156.528Z" fill="#D22128" transform="matrix(1.00165 0 0 1 1748.72 600.61)"/><path d="M301.501 194.207 336.028 111.706 342.682 111.706 377.209 194.207 368.385 194.207 357.669 168.434 320.621 168.434 310.045 194.207 301.501 194.207ZM339.39 121.231 322.442 161.991 355.918 161.991 339.39 121.231Z" fill="#D22128" transform="matrix(1.00165 0 0 1 1748.72 600.61)"/><path d="M416.149 111.216C430.786 111.216 441.501 118.639 446.614 129.215L440.101 133.137C434.848 122.211 424.623 118.499 415.728 118.499 395.979 118.499 385.193 136.148 385.193 152.747 385.193 170.956 398.57 187.484 416.079 187.484 425.393 187.484 436.319 182.862 441.501 172.146L448.225 175.648C442.902 187.974 428.265 194.838 415.588 194.838 392.967 194.838 376.999 173.197 376.999 152.326 376.999 132.506 391.286 111.216 416.149 111.216Z" fill="#D22128" transform="matrix(1.00165 0 0 1 1748.72 600.61)"/><path d="M524.633 111.706 524.633 194.207 516.509 194.207 516.509 155.618 467.624 155.618 467.624 194.207 459.64 194.207 459.64 111.706 467.624 111.706 467.624 148.404 516.509 148.404 516.509 111.706 524.633 111.706Z" fill="#D22128" transform="matrix(1.00165 0 0 1 1748.72 600.61)"/><path d="M598.66 186.994 598.66 194.207 543.262 194.207 543.262 111.706 597.61 111.706 597.61 118.92 551.246 118.92 551.246 148.685 591.657 148.685 591.657 155.548 551.246 155.548 551.246 186.994 598.66 186.994Z" fill="#D22128" transform="matrix(1.00165 0 0 1 1748.72 600.61)"/></g></g></g><g clip-path="url(#clip13)"><g clip-path="url(#clip14)"><g clip-path="url(#clip15)"><path d="M1052.98 773.809C1031.1 773.809 1013.29 791.609 1013.29 813.486L1021.19 813.486 1029.08 813.486C1029.08 800.324 1039.8 789.611 1052.97 789.611 1066.13 789.611 1076.84 800.324 1076.84 813.486L1084.73 813.486 1092.63 813.486C1092.65 791.6 1074.86 773.809 1052.98 773.809Z"/><path d="M1188.5 813.486 1196.4 813.486C1196.4 800.324 1207.12 789.611 1220.28 789.611 1233.44 789.611 1244.15 800.324 1244.15 813.486L1252.05 813.486 1259.96 813.486C1259.96 791.609 1242.16 773.809 1220.28 773.809 1198.4 773.809 1180.6 791.609 1180.6 813.486L1188.5 813.486Z"/><path d="M1136.61 894.719C1136.61 894.719 1136.62 894.719 1136.63 894.719 1145.75 894.719 1154.91 890.661 1161.74 883.564 1168.58 876.468 1172.29 867.166 1171.94 858.044 1171.8 854.247 1168.23 851.21 1164.84 851.454 1161.06 851.599 1158.1 854.781 1158.24 858.568 1158.45 863.992 1156.12 869.633 1151.86 874.063 1147.61 878.484 1142.06 881.015 1136.63 881.015 1136.62 881.015 1136.62 881.015 1136.61 881.015 1131.19 881.015 1125.63 878.466 1121.37 874.045 1117.11 869.615 1114.8 863.965 1115.01 858.541 1115.16 854.754 1112.21 851.572 1108.43 851.418 1104.68 851.364 1101.46 854.22 1101.31 857.999 1100.95 867.129 1104.67 876.441 1111.49 883.537 1118.32 890.642 1127.47 894.719 1136.61 894.719Z"/><path d="M1476.57 948.652C1476.57 925.528 1457.76 906.707 1434.64 906.707L1304.69 906.707C1311.27 893.056 1315.51 878.203 1316.94 862.673 1327.17 860.819 1336.66 855.703 1343.84 848.001 1353.11 838.039 1357.71 825.057 1356.74 811.416 1355.6 795.668 1346.28 781.249 1331.76 772.824 1327.19 770.184 1322.42 768.358 1317.5 767.346L1317.5 678.293C1317.5 593.687 1260.45 535.886 1161.06 519.713 1151.17 518.05 1141.05 517.2 1131 517.2 1081.41 517.2 1034.63 536.663 999.305 571.991L996.539 574.749C966.318 604.861 944.496 626.62 944.496 678.293L944.496 767.346C939.542 768.358 934.732 770.203 930.113 772.86 915.604 781.331 906.311 795.768 905.262 811.434 904.295 825.048 908.887 838.039 918.162 847.992 925.331 855.685 934.823 860.801 945.038 862.655 946.457 878.176 950.688 893.029 957.269 906.688L827.373 906.688C804.249 906.688 785.428 925.51 785.428 948.634L785.428 1246.19C785.428 1255.68 788.718 1264.34 794.052 1271.37 788.845 1275.4 785.428 1281.65 785.428 1288.73L785.428 1308.73C785.428 1320.88 795.318 1330.77 807.467 1330.77L1454.53 1330.77C1466.68 1330.77 1476.57 1320.88 1476.57 1308.73L1476.57 1288.73C1476.57 1281.65 1473.15 1275.4 1467.96 1271.37 1473.29 1264.34 1476.57 1255.67 1476.57 1246.19L1476.57 948.652ZM1306.51 799.384 1306.51 791.926C1311.01 791.591 1315.01 792.504 1319.04 794.827 1326.25 799.013 1330.86 805.892 1331.39 813.224 1331.85 819.733 1329.65 825.934 1325.24 830.68 1320.44 835.824 1313.45 838.382 1306.76 837.948L1293.86 837.388C1301.77 826.748 1306.51 813.622 1306.51 799.384ZM1285.53 772.887 1285.53 799.384C1285.53 823.077 1266.25 842.36 1242.55 842.36L1212.36 842.36C1189.91 842.36 1171.65 824.09 1171.65 801.644L1171.65 786.927C1171.65 779.459 1177.88 768.34 1180.65 767.391L1280.04 767.391C1283.03 767.391 1285.53 769.904 1285.53 772.887ZM1025.05 630.95C1027.38 643.317 1033.66 655.367 1042.76 663.946 1063.29 683.283 1092.72 689.313 1120.63 693.362 1172.47 700.884 1228.7 706.263 1272.58 731.981 1274.6 736.709 1276.99 741.519 1279.86 746.409L1180.65 746.409C1166.05 746.409 1155.92 762.573 1152.23 776.431L1121.02 776.431C1117.33 762.573 1107.21 746.409 1092.61 746.409L993.221 746.409C990.048 746.409 987.047 747.06 984.226 748.091 1012.17 721.531 994.821 665.338 1025.05 630.95ZM1101.59 786.917 1101.59 801.635C1101.59 824.09 1083.33 842.351 1060.89 842.351L1030.69 842.351C1007 842.351 987.716 823.068 987.716 799.375L987.716 772.878C987.716 769.895 990.229 767.382 993.212 767.382L1092.29 767.346C1095.36 768.34 1101.59 779.459 1101.59 786.917ZM969.907 757.239C971.118 756.742 972.203 756.163 973.315 755.603 971.995 757.122 970.856 758.794 969.907 760.584L969.907 757.239ZM955.235 837.948C947.976 838.464 941.531 835.806 936.748 830.68 932.328 825.934 930.14 819.733 930.61 813.179 931.089 806.001 935.808 798.959 942.859 794.846 947.099 792.414 951.285 791.492 955.995 791.935L966.734 792.956 966.734 799.375C966.734 834.64 995.427 863.333 1030.69 863.333L1060.89 863.333C1094.9 863.333 1122.57 835.652 1122.57 801.644L1122.57 797.413 1150.66 797.413 1150.66 801.644C1150.66 835.661 1178.34 863.333 1212.35 863.333L1242.54 863.333C1262.5 863.333 1280.34 854.13 1292.08 839.765L1292.08 850.74C1292.08 871.044 1286.17 890.326 1275.62 906.707L986.36 906.707C975.81 890.299 969.907 870.971 969.907 850.55L969.907 837.126 955.235 837.948ZM1452.51 1306.74 809.492 1306.74 809.492 1290.78 1452.51 1290.78 1452.51 1306.74ZM1452.51 1246.2C1452.51 1256.07 1444.49 1264.08 1434.64 1264.08L827.373 1264.08C817.511 1264.08 809.492 1256.07 809.492 1246.2L809.492 948.652C809.492 938.789 817.511 930.771 827.373 930.771L1434.64 930.771C1444.49 930.771 1452.51 938.789 1452.51 948.652L1452.51 1246.2Z"/><path d="M1131 1062.24C1107.33 1062.24 1088.07 1081.5 1088.07 1105.18 1088.07 1128.86 1107.33 1148.12 1131 1148.12 1154.68 1148.12 1173.94 1128.86 1173.94 1105.18 1173.94 1081.5 1154.68 1062.24 1131 1062.24ZM1131 1130.03C1117.3 1130.03 1106.15 1118.88 1106.15 1105.17 1106.15 1091.46 1117.3 1080.31 1131 1080.31 1144.71 1080.31 1155.86 1091.46 1155.86 1105.17 1155.86 1118.88 1144.71 1130.03 1131 1130.03Z"/></g></g></g><rect x="1038" y="1008" width="188" height="188" fill="#FFFFFF"/><g clip-path="url(#clip16)"><g clip-path="url(#clip17)"><g clip-path="url(#clip18)"><path d="M131.016 43.6718 97.4218 43.6718 97.4218 60.4687 89.0234 60.4687C86.2452 60.4687 83.9843 62.7296 83.9843 65.5078 83.9843 68.286 86.2452 70.5468 89.0234 70.5468L97.4218 70.5468 97.4218 87.3437 107.5 87.3437 107.5 85.664C107.5 79.1804 112.774 73.9062 119.258 73.9062 125.741 73.9062 131.016 79.1804 131.016 85.664L131.016 87.3437 141.094 87.3437 141.094 53.75C141.094 48.1936 136.572 43.6718 131.016 43.6718Z" fill="#649CD9" transform="matrix(1.00465 0 0 1 1023 994)"/><path d="M97.4218 6.71874 90.7031 6.71874C46.1746 6.71874 10.0781 42.8152 10.0781 87.3437L10.0781 105.871C10.0781 124.122 17.3276 141.624 30.2344 154.531L30.2344 208.281 110.859 208.281 110.859 188.125 94.0624 188.125 94.0624 181.406 110.859 181.406 157.891 181.406C165.311 181.406 171.328 175.389 171.328 167.969L171.328 164.609C162.066 164.609 154.531 157.074 154.531 147.812L161.25 147.812C161.25 153.369 165.772 157.891 171.328 157.891L171.328 137.734 204.922 137.734 178.047 87.3437 178.047 87.3437C178.047 42.8152 141.95 6.71874 97.4218 6.71874ZM60.4687 188.125 53.75 188.125 53.75 181.406 60.4687 181.406 60.4687 188.125ZM73.9062 188.125 67.1874 188.125 67.1874 181.406 73.9062 181.406 73.9062 188.125ZM87.3437 188.125 80.6249 188.125 80.6249 181.406 87.3437 181.406 87.3437 188.125ZM147.812 127.656C147.812 136.918 140.277 144.453 131.016 144.453L57.1093 144.453C47.8475 144.453 40.3125 136.918 40.3125 127.656L40.3125 53.75C40.3125 44.4882 47.8475 36.9531 57.1093 36.9531L131.016 36.9531C140.277 36.9531 147.812 44.4882 147.812 53.75L147.812 127.656Z" fill="#649CD9" transform="matrix(1.00465 0 0 1 1023 994)"/><path d="M63.8281 95.7421C63.8281 98.5203 66.0889 100.781 68.8671 100.781 71.6453 100.781 73.9062 98.5203 73.9062 95.7421L73.9062 87.3437 90.7031 87.3437 90.7031 77.2656 89.0234 77.2656C82.5398 77.2656 77.2656 71.9913 77.2656 65.5078 77.2656 59.0242 82.5398 53.75 89.0234 53.75L90.7031 53.75 90.7031 43.6718 57.1093 43.6718C51.5529 43.6718 47.0312 48.1936 47.0312 53.75L47.0312 87.3437 63.8281 87.3437 63.8281 95.7421Z" fill="#649CD9" transform="matrix(1.00465 0 0 1 1023 994)"/><path d="M124.297 85.664C124.297 82.8858 122.036 80.6249 119.258 80.6249 116.48 80.6249 114.219 82.8858 114.219 85.664L114.219 94.0624 97.4218 94.0624 97.4218 104.141 99.1015 104.141C105.585 104.141 110.859 109.415 110.859 115.898 110.859 122.382 105.585 127.656 99.1015 127.656L97.4218 127.656 97.4218 137.734 131.016 137.734C136.572 137.734 141.094 133.213 141.094 127.656L141.094 94.0624 124.297 94.0624 124.297 85.664Z" fill="#649CD9" transform="matrix(1.00465 0 0 1 1023 994)"/><path d="M104.141 115.898C104.141 113.12 101.88 110.859 99.1015 110.859L90.7031 110.859 90.7031 94.0624 80.6249 94.0624 80.6249 95.7421C80.6249 102.226 75.3507 107.5 68.8671 107.5 62.3835 107.5 57.1093 102.226 57.1093 95.7421L57.1093 94.0624 47.0312 94.0624 47.0312 127.656C47.0312 133.213 51.5529 137.734 57.1093 137.734L90.7031 137.734 90.7031 120.937 99.1015 120.937C101.88 120.937 104.141 118.677 104.141 115.898Z" fill="#649CD9" transform="matrix(1.00465 0 0 1 1023 994)"/></g></g></g><path d="M1105.26 838 1067 872.211 1095.19 897.868 1163.66 903 1214 889.316 1193.86 861.947 1173.73 843.132 1105.26 838Z" fill="#FFFFFF" fill-rule="evenodd"/><path d="M1099.5 894C1099.5 874.394 1118.3 858.5 1141.5 858.5 1164.24 858.5 1182.85 873.801 1183.48 893.016" stroke="#000000" stroke-width="9.16667" stroke-linecap="round" stroke-linejoin="round" stroke-miterlimit="10" fill="none" fill-rule="evenodd"/></g></svg>