<svg width="2291" height="929" xmlns="http://www.w3.org/2000/svg" xmlns:xlink="http://www.w3.org/1999/xlink" overflow="hidden"><defs><clipPath id="clip0"><rect x="679" y="483" width="2291" height="929"/></clipPath><clipPath id="clip1"><rect x="678" y="482" width="903" height="903"/></clipPath><clipPath id="clip2"><rect x="678" y="482" width="903" height="903"/></clipPath><clipPath id="clip3"><rect x="678" y="482" width="903" height="903"/></clipPath><clipPath id="clip4"><rect x="1036" y="1004" width="215" height="215"/></clipPath><clipPath id="clip5"><rect x="1036" y="1004" width="215" height="215"/></clipPath><clipPath id="clip6"><rect x="1036" y="1004" width="215" height="215"/></clipPath><clipPath id="clip7"><rect x="1741" y="613" width="695" height="641"/></clipPath><clipPath id="clip8"><rect x="1741" y="613" width="695" height="641"/></clipPath><clipPath id="clip9"><rect x="1741" y="613" width="695" height="641"/></clipPath><radialGradient cx="443.062" cy="1438.78" r="280.586" gradientUnits="userSpaceOnUse" spreadMethod="pad" id="fill10" gradientTransform="matrix(1.79512 0 0 -1.79512 -720.229 3180.75)"><stop offset="0" stop-color="#2B2B2B"/><stop offset="1" stop-color="#838383"/></radialGradient><radialGradient cx="517.438" cy="1793.23" r="271.138" gradientUnits="userSpaceOnUse" spreadMethod="pad" id="fill11" gradientTransform="matrix(1.79512 0 0 -1.79512 -720.229 3180.75)"><stop offset="0" stop-color="#FFFFFF" stop-opacity="0.8"/><stop offset="1" stop-color="#FFFFFF" stop-opacity="0.2"/></radialGradient><linearGradient x1="313.266" y1="337.133" x2="542.745" y2="67.3259" gradientUnits="userSpaceOnUse" spreadMethod="pad" id="fill12"><stop offset="0" stop-color="#227716"/><stop offset="1" stop-color="#20B228"/></linearGradient><radialGradient cx="710.572" cy="1585.01" r="88.692" gradientUnits="userSpaceOnUse" spreadMethod="pad" id="fill13" gradientTransform="matrix(1.41078 -1.11011 -3.15725 -4.01244 4422.55 7389.8)"><stop offset="0" stop-color="#FFFFFF" stop-opacity="0.4"/><stop offset="0.998" stop-color="#FFFFFF" stop-opacity="0"/><stop offset="1" stop-color="#FFFFFF" stop-opacity="0"/></radialGradient></defs><g clip-path="url(#clip0)" transform="translate(-679 -483)"><g clip-path="url(#clip1)"><g clip-path="url(#clip2)"><g clip-path="url(#clip3)"><path d="M1054.52 819.004C1066.4 819.004 1076.06 828.664 1076.06 840.544L1083.2 840.544 1090.33 840.544C1090.33 820.799 1074.27 804.734 1054.52 804.734 1034.78 804.734 1018.71 820.799 1018.71 840.544L1025.85 840.544 1032.97 840.544C1032.97 828.664 1042.64 819.004 1054.52 819.004Z"/><path d="M1227.03 840.544 1234.15 840.544 1241.29 840.544C1241.29 820.799 1225.22 804.734 1205.48 804.734 1185.73 804.734 1169.67 820.799 1169.67 840.544L1176.8 840.544 1183.94 840.544C1183.94 828.664 1193.6 819.004 1205.48 819.004 1217.36 819.004 1227.03 828.664 1227.03 840.544Z"/><path d="M1129.98 913.858C1129.99 913.858 1129.99 913.858 1130 913.858 1138.24 913.858 1146.51 910.196 1152.66 903.792 1158.83 897.388 1162.18 888.999 1161.87 880.764 1161.74 877.345 1158.92 874.73 1155.45 874.82 1152.04 874.946 1149.37 877.823 1149.51 881.233 1149.7 886.122 1147.6 891.218 1143.76 895.205 1139.91 899.192 1134.9 901.483 1130.01 901.483 1130.01 901.483 1130.01 901.483 1130 901.483 1125.1 901.483 1120.1 899.192 1116.25 895.196 1112.41 891.2 1110.32 886.104 1110.52 881.206 1110.65 877.787 1107.99 874.919 1104.57 874.784 1101.04 874.432 1098.28 877.309 1098.15 880.728 1097.83 888.963 1101.18 897.361 1107.33 903.765 1113.48 910.169 1121.74 913.849 1129.98 913.858Z"/><path d="M1425.72 926.856 1352.88 926.856 1352.88 736.489C1352.88 621.583 1259.39 528.1 1144.49 528.1L1115.52 528.1C1000.61 528.1 907.125 621.583 907.125 736.489L907.125 926.856 834.279 926.856C811.756 926.856 793.419 945.185 793.419 967.708L793.419 1257.5C793.419 1266.75 796.621 1275.18 801.816 1282.04 796.747 1285.97 793.419 1292.05 793.419 1298.94L793.419 1318.42C793.419 1330.26 803.052 1339.89 814.895 1339.89L1445.1 1339.89C1456.93 1339.89 1466.57 1330.26 1466.57 1318.42L1466.57 1298.94C1466.57 1292.04 1463.24 1285.96 1458.17 1282.04 1463.37 1275.18 1466.57 1266.75 1466.57 1257.5L1466.57 967.708C1466.57 945.185 1448.24 926.856 1425.72 926.856ZM932.904 736.489C932.904 635.799 1014.82 553.87 1115.52 553.87L1144.49 553.87C1245.18 553.87 1327.1 635.79 1327.1 736.489L1327.1 926.856 1270.3 926.856C1276.85 914.327 1280.98 900.482 1282.01 885.905 1290.75 884.85 1298.93 880.737 1304.98 874.251 1312.14 866.566 1315.69 856.545 1314.95 846.019 1314.1 833.869 1306.87 822.729 1295.63 816.199L1295.63 816.199C1291.7 813.917 1287.56 812.51 1283.3 811.797L1283.3 804.356 1283.3 803.914C1283.3 790.744 1272.59 780.029 1259.42 780.029L1169.73 780.029C1157.52 780.029 1148.78 792.557 1144.92 804.356 1144.61 805.285 1144.34 806.205 1144.1 807.116L1115.93 807.116C1115.69 806.205 1115.41 805.285 1115.11 804.356 1111.24 792.566 1102.51 780.029 1090.29 780.029L1000.61 780.029C987.439 780.029 976.723 790.744 976.723 803.914L976.723 804.356 976.723 811.797C972.457 812.51 968.325 813.917 964.393 816.208 953.154 822.729 945.938 833.878 945.081 846.028 944.35 856.554 947.886 866.576 955.048 874.26 961.091 880.737 969.273 884.859 977.995 885.914 979.014 900.482 983.145 914.327 989.712 926.865L932.913 926.865 932.913 736.489ZM984.679 870.653C977.941 871.32 971.049 868.821 966.305 863.743 962.093 859.215 960 853.307 960.433 847.092 960.92 840.147 965.394 833.418 972.105 829.521 973.629 828.637 975.163 828.024 976.705 827.546L976.705 827.817C976.705 859.639 1002.59 885.526 1034.41 885.526L1061.66 885.526C1092.35 885.526 1117.33 860.559 1117.33 829.855L1117.33 826.04 1142.67 826.04 1142.67 829.855C1142.67 860.55 1167.64 885.526 1198.34 885.526L1225.58 885.526C1257.41 885.526 1283.29 859.639 1283.29 827.817L1283.29 827.555C1284.84 828.033 1286.36 828.646 1287.9 829.53 1294.61 833.427 1299.08 840.156 1299.57 847.092 1300 853.307 1297.92 859.215 1293.69 863.743 1288.95 868.821 1282.07 871.302 1275.32 870.653L1266.86 869.976 1266.86 878.473C1266.86 896.062 1261.66 912.713 1252.46 926.856L1007.54 926.856C998.353 912.686 993.139 895.999 993.139 878.32L993.139 869.823 984.679 870.653ZM995.629 827.826 995.629 803.923C995.629 801.235 997.902 798.962 1000.59 798.962L1090 798.926C1092.77 799.818 1098.4 809.849 1098.4 816.587L1098.4 829.864C1098.4 850.123 1081.92 866.603 1061.66 866.603L1034.42 866.603C1013.03 866.603 995.629 849.203 995.629 827.826ZM1161.6 829.864 1161.6 816.587C1161.6 809.849 1167.23 799.818 1169.71 798.962L1259.4 798.962C1262.09 798.962 1264.36 801.235 1264.36 803.923L1264.36 827.826C1264.36 849.212 1246.96 866.612 1225.58 866.612L1198.34 866.612C1178.09 866.603 1161.6 850.123 1161.6 829.864ZM1443.14 1316.46 816.862 1316.46 816.862 1300.92 1443.13 1300.92 1443.13 1316.46ZM1443.14 1257.51C1443.14 1267.12 1435.33 1274.93 1425.72 1274.93L834.279 1274.93C824.673 1274.93 816.862 1267.12 816.862 1257.51L816.862 967.708C816.862 958.11 824.673 950.299 834.279 950.299L1425.71 950.299C1435.32 950.299 1443.13 958.11 1443.13 967.708L1443.13 1257.51Z"/><path d="M1130 1071.93C1106.38 1071.93 1087.15 1091.16 1087.15 1114.78 1087.15 1138.4 1106.38 1157.62 1130 1157.62 1153.62 1157.62 1172.84 1138.4 1172.84 1114.78 1172.84 1091.16 1153.62 1071.93 1130 1071.93ZM1130 1139.57C1116.33 1139.57 1105.19 1128.45 1105.19 1114.77 1105.19 1101.09 1116.32 1089.96 1130 1089.96 1143.68 1089.96 1154.8 1101.09 1154.8 1114.77 1154.8 1128.45 1143.68 1139.57 1130 1139.57Z"/></g></g></g><rect x="1036" y="1018" width="188" height="187" fill="#FFFFFF"/><g clip-path="url(#clip4)"><g clip-path="url(#clip5)"><g clip-path="url(#clip6)"><path d="M1167.02 1047.67 1133.42 1047.67 1133.42 1064.47 1125.02 1064.47C1122.25 1064.47 1119.98 1066.73 1119.98 1069.51 1119.98 1072.29 1122.25 1074.55 1125.02 1074.55L1133.42 1074.55 1133.42 1091.34 1143.5 1091.34 1143.5 1089.66C1143.5 1083.18 1148.77 1077.91 1155.26 1077.91 1161.74 1077.91 1167.02 1083.18 1167.02 1089.66L1167.02 1091.34 1177.09 1091.34 1177.09 1057.75C1177.09 1052.19 1172.57 1047.67 1167.02 1047.67Z" fill="#649CD9"/><path d="M1133.42 1010.72 1126.7 1010.72C1082.17 1010.72 1046.08 1046.82 1046.08 1091.34L1046.08 1109.87C1046.08 1128.12 1053.33 1145.62 1066.23 1158.53L1066.23 1212.28 1146.86 1212.28 1146.86 1192.12 1130.06 1192.12 1130.06 1185.41 1146.86 1185.41 1193.89 1185.41C1201.31 1185.41 1207.33 1179.39 1207.33 1171.97L1207.33 1168.61C1198.07 1168.61 1190.53 1161.07 1190.53 1151.81L1197.25 1151.81C1197.25 1157.37 1201.77 1161.89 1207.33 1161.89L1207.33 1141.73 1240.92 1141.73 1214.05 1091.34 1214.05 1091.34C1214.05 1046.82 1177.95 1010.72 1133.42 1010.72ZM1096.47 1192.12 1089.75 1192.12 1089.75 1185.41 1096.47 1185.41 1096.47 1192.12ZM1109.91 1192.12 1103.19 1192.12 1103.19 1185.41 1109.91 1185.41 1109.91 1192.12ZM1123.34 1192.12 1116.62 1192.12 1116.62 1185.41 1123.34 1185.41 1123.34 1192.12ZM1183.81 1131.66C1183.81 1140.92 1176.28 1148.45 1167.02 1148.45L1093.11 1148.45C1083.85 1148.45 1076.31 1140.92 1076.31 1131.66L1076.31 1057.75C1076.31 1048.49 1083.85 1040.95 1093.11 1040.95L1167.02 1040.95C1176.28 1040.95 1183.81 1048.49 1183.81 1057.75L1183.81 1131.66Z" fill="#649CD9"/><path d="M1099.83 1099.74C1099.83 1102.52 1102.09 1104.78 1104.87 1104.78 1107.65 1104.78 1109.91 1102.52 1109.91 1099.74L1109.91 1091.34 1126.7 1091.34 1126.7 1081.27 1125.02 1081.27C1118.54 1081.27 1113.27 1075.99 1113.27 1069.51 1113.27 1063.02 1118.54 1057.75 1125.02 1057.75L1126.7 1057.75 1126.7 1047.67 1093.11 1047.67C1087.55 1047.67 1083.03 1052.19 1083.03 1057.75L1083.03 1091.34 1099.83 1091.34 1099.83 1099.74Z" fill="#649CD9"/><path d="M1160.3 1089.66C1160.3 1086.89 1158.04 1084.62 1155.26 1084.62 1152.48 1084.62 1150.22 1086.89 1150.22 1089.66L1150.22 1098.06 1133.42 1098.06 1133.42 1108.14 1135.1 1108.14C1141.59 1108.14 1146.86 1113.41 1146.86 1119.9 1146.86 1126.38 1141.59 1131.66 1135.1 1131.66L1133.42 1131.66 1133.42 1141.73 1167.02 1141.73C1172.57 1141.73 1177.09 1137.21 1177.09 1131.66L1177.09 1098.06 1160.3 1098.06 1160.3 1089.66Z" fill="#649CD9"/><path d="M1140.14 1119.9C1140.14 1117.12 1137.88 1114.86 1135.1 1114.86L1126.7 1114.86 1126.7 1098.06 1116.62 1098.06 1116.62 1099.74C1116.62 1106.23 1111.35 1111.5 1104.87 1111.5 1098.38 1111.5 1093.11 1106.23 1093.11 1099.74L1093.11 1098.06 1083.03 1098.06 1083.03 1131.66C1083.03 1137.21 1087.55 1141.73 1093.11 1141.73L1126.7 1141.73 1126.7 1124.94 1135.1 1124.94C1137.88 1124.94 1140.14 1122.68 1140.14 1119.9Z" fill="#649CD9"/></g></g></g><path d="M1103.15 866 1074 896.526 1095.48 919.421 1147.64 924 1186 911.789 1170.66 887.368 1155.31 870.579 1103.15 866Z" fill="#FFFFFF" fill-rule="evenodd"/><path d="M1098.5 903C1098.5 885.603 1112.83 871.5 1130.5 871.5 1147.88 871.5 1162.08 885.15 1162.49 902.25" stroke="#000000" stroke-width="9.16667" stroke-linecap="round" stroke-linejoin="round" stroke-miterlimit="10" fill="none" fill-rule="evenodd"/><g clip-path="url(#clip7)"><g clip-path="url(#clip8)"><g clip-path="url(#clip9)"><path d="M523.71 638.79 108.493 626.956C58.2241 624.807 0.251207 565.019 0.976914 515.113L2.95866 97.9147C3.68436 47.8409 60.5687 0.446589 110.67 0.976914L520.305 16.0493C570.211 16.775 627.486 62.9133 626.76 112.82L626.76 538.81C626.76 593.182 583.497 638.79 523.71 638.79Z" stroke="#2C2C2C" stroke-width="1.94629" stroke-miterlimit="10" fill="url(#fill10)" transform="matrix(1 0 0 1.00025 1741 614.037)"/><path d="M36.7041 482.428 102.771 466.463C105.451 474.362 116.057 493.928 125.38 501.827 134.703 509.726 160.912 514.024 178.329 512.406 195.746 510.787 204.371 495.519 205.264 484.215 205.989 473.078 200.602 465.179 190.359 459.987 180.115 454.796 168.643 451.725 152.482 446.896 136.321 442.235 107.433 435.76 84.6287 420.324 62.0201 404.889 56.4377 369.525 56.2703 356.965 56.1028 344.404 59.1452 325.899 67.2117 312.445 75.3061 298.796 101.683 269.349 154.101 269.349 206.52 269.349 228.431 286.041 240.433 295.726 252.463 305.411 271.666 340.078 271.666 340.078L211.348 361.793C201.105 331.816 182.097 321.572 156.055 321.572 130.013 321.572 123.929 338.096 123.929 347.949 123.929 357.83 129.678 369.664 154.436 376.14 179.194 382.616 220.141 392.831 239.707 405.392 259.273 417.952 277.22 443.994 277.22 474.334 277.22 504.674 265.386 521.198 255.142 532.502 244.899 543.639 220.141 569.485 167.359 569.485 116.588 569.318 65.2579 546.877 36.7041 482.428ZM495.714 474.892C495.714 474.892 505.595 352.108 390.877 352.108 287.129 352.108 291.065 458.564 291.065 465.904 291.065 496.607 309.012 575.403 396.627 575.403 484.243 575.403 495.714 501.799 495.714 501.799L435.927 494.793C433.052 502.329 427.135 529.432 399.139 529.432 371.144 529.432 362.156 506.823 360.007 499.454 357.858 492.086 358.388 474.864 358.388 474.864ZM357.858 439.332C357.858 439.332 356.239 392.831 396.46 392.831 436.681 392.831 433.973 439.332 433.973 439.332Z" stroke="#2C2C2C" stroke-width="0.973007" stroke-miterlimit="10" fill="#FFFFFF" transform="matrix(1 0 0 1.00025 1741 614.037)"/><path d="M23.5855 141.178 23.5855 347.782C23.5855 347.782 48.0084 456.917 124.459 459.066 200.909 461.215 486.727 472.882 512.573 471.626 538.419 470.37 606.469 434.839 606.469 365.896L606.469 161.47C606.469 121.807 583.497 44.6031 495.882 40.4722 408.294 36.3412 162.168 30.0611 134.368 30.0611 88.9271 29.8657 23.5855 47.2827 23.5855 141.178Z" fill="url(#fill11)" transform="matrix(1 0 0 1.00025 1741 614.037)"/><path d="M288.915 172.411 409.355 324.112 693.163 87.8665 654.03 9.23882 418.343 209.925 334.328 114.969Z" stroke="#0C0000" stroke-width="1.29762" stroke-miterlimit="10" fill="url(#fill12)" transform="matrix(1 0 0 1.00025 1741 614.037)"/><path d="M295.559 170.793 413.151 277.416 605.771 125.715 583.525 74.72 417.84 215.814 334.356 121.751Z" fill="url(#fill13)" transform="matrix(1 0 -9.94401e-17 1.00025 1741 614.037)"/></g></g></g></g></svg>