<svg width="2613" height="1526" xmlns="http://www.w3.org/2000/svg" xmlns:xlink="http://www.w3.org/1999/xlink" overflow="hidden"><defs><clipPath id="clip0"><rect x="311" y="339" width="2613" height="1526"/></clipPath><clipPath id="clip1"><rect x="1037" y="803" width="104" height="91"/></clipPath><clipPath id="clip2"><rect x="1037" y="803" width="104" height="91"/></clipPath><clipPath id="clip3"><rect x="1037" y="803" width="104" height="91"/></clipPath><clipPath id="clip4"><rect x="1568" y="803" width="107" height="91"/></clipPath><clipPath id="clip5"><rect x="1568" y="803" width="107" height="91"/></clipPath><clipPath id="clip6"><rect x="1568" y="803" width="107" height="91"/></clipPath><clipPath id="clip7"><rect x="1037" y="940" width="104" height="90"/></clipPath><clipPath id="clip8"><rect x="1037" y="940" width="104" height="90"/></clipPath><clipPath id="clip9"><rect x="1037" y="940" width="104" height="90"/></clipPath><clipPath id="clip10"><rect x="1568" y="940" width="107" height="90"/></clipPath><clipPath id="clip11"><rect x="1568" y="940" width="107" height="90"/></clipPath><clipPath id="clip12"><rect x="1568" y="940" width="107" height="90"/></clipPath><clipPath id="clip13"><rect x="1568" y="1084" width="107" height="91"/></clipPath><clipPath id="clip14"><rect x="1568" y="1084" width="107" height="91"/></clipPath><clipPath id="clip15"><rect x="1568" y="1084" width="107" height="91"/></clipPath><clipPath id="clip16"><rect x="2102" y="1084" width="105" height="91"/></clipPath><clipPath id="clip17"><rect x="2102" y="1084" width="105" height="91"/></clipPath><clipPath id="clip18"><rect x="2102" y="1084" width="105" height="91"/></clipPath><clipPath id="clip19"><rect x="1037" y="1362" width="104" height="92"/></clipPath><clipPath id="clip20"><rect x="1037" y="1362" width="104" height="92"/></clipPath><clipPath id="clip21"><rect x="1037" y="1362" width="104" height="92"/></clipPath><clipPath id="clip22"><rect x="2102" y="1362" width="105" height="92"/></clipPath><clipPath id="clip23"><rect x="2102" y="1362" width="105" height="92"/></clipPath><clipPath id="clip24"><rect x="2102" y="1362" width="105" height="92"/></clipPath><clipPath id="clip25"><rect x="1422" y="477" width="395" height="301"/></clipPath><clipPath id="clip26"><rect x="1422" y="477" width="395" height="301"/></clipPath><clipPath id="clip27"><rect x="1422" y="477" width="395" height="301"/></clipPath><linearGradient x1="114.889" y1="70.3671" x2="114.889" y2="225.742" gradientUnits="userSpaceOnUse" spreadMethod="pad" id="fill28"><stop offset="0" stop-color="#916CBF" stop-opacity="1"/><stop offset="1" stop-color="#649CD9" stop-opacity="1"/></linearGradient><linearGradient x1="130.877" y1="70.3656" x2="130.877" y2="225.745" gradientUnits="userSpaceOnUse" spreadMethod="pad" id="fill29"><stop offset="0" stop-color="#916CBF" stop-opacity="1"/><stop offset="1" stop-color="#649CD9" stop-opacity="1"/></linearGradient><linearGradient x1="181.309" y1="70.3677" x2="181.309" y2="225.744" gradientUnits="userSpaceOnUse" spreadMethod="pad" id="fill30"><stop offset="0" stop-color="#916CBF" stop-opacity="1"/><stop offset="1" stop-color="#649CD9" stop-opacity="1"/></linearGradient><linearGradient x1="189.766" y1="70.3618" x2="189.766" y2="225.745" gradientUnits="userSpaceOnUse" spreadMethod="pad" id="fill31"><stop offset="0" stop-color="#916CBF" stop-opacity="1"/><stop offset="1" stop-color="#649CD9" stop-opacity="1"/></linearGradient><linearGradient x1="239.916" y1="70.3671" x2="239.916" y2="225.742" gradientUnits="userSpaceOnUse" spreadMethod="pad" id="fill32"><stop offset="0" stop-color="#916CBF" stop-opacity="1"/><stop offset="1" stop-color="#649CD9" stop-opacity="1"/></linearGradient><linearGradient x1="146.512" y1="70.3667" x2="146.512" y2="225.744" gradientUnits="userSpaceOnUse" spreadMethod="pad" id="fill33"><stop offset="0" stop-color="#916CBF" stop-opacity="1"/><stop offset="1" stop-color="#649CD9" stop-opacity="1"/></linearGradient><linearGradient x1="250.206" y1="70.3656" x2="250.206" y2="225.743" gradientUnits="userSpaceOnUse" spreadMethod="pad" id="fill34"><stop offset="0" stop-color="#916CBF" stop-opacity="1"/><stop offset="1" stop-color="#649CD9" stop-opacity="1"/></linearGradient><linearGradient x1="151.485" y1="70.3688" x2="151.485" y2="225.739" gradientUnits="userSpaceOnUse" spreadMethod="pad" id="fill35"><stop offset="0" stop-color="#916CBF" stop-opacity="1"/><stop offset="1" stop-color="#649CD9" stop-opacity="1"/></linearGradient><linearGradient x1="186.28" y1="70.3661" x2="186.28" y2="225.741" gradientUnits="userSpaceOnUse" spreadMethod="pad" id="fill36"><stop offset="0" stop-color="#916CBF" stop-opacity="1"/><stop offset="1" stop-color="#649CD9" stop-opacity="1"/></linearGradient><linearGradient x1="229.19" y1="70.365" x2="229.19" y2="225.743" gradientUnits="userSpaceOnUse" spreadMethod="pad" id="fill37"><stop offset="0" stop-color="#916CBF" stop-opacity="1"/><stop offset="1" stop-color="#649CD9" stop-opacity="1"/></linearGradient><linearGradient x1="100.637" y1="70.3569" x2="100.637" y2="225.756" gradientUnits="userSpaceOnUse" spreadMethod="pad" id="fill38"><stop offset="0" stop-color="#916CBF" stop-opacity="1"/><stop offset="1" stop-color="#649CD9" stop-opacity="1"/></linearGradient><linearGradient x1="203.196" y1="70.365" x2="203.196" y2="225.743" gradientUnits="userSpaceOnUse" spreadMethod="pad" id="fill39"><stop offset="0" stop-color="#916CBF" stop-opacity="1"/><stop offset="1" stop-color="#649CD9" stop-opacity="1"/></linearGradient><linearGradient x1="172.24" y1="70.3656" x2="172.24" y2="225.755" gradientUnits="userSpaceOnUse" spreadMethod="pad" id="fill40"><stop offset="0" stop-color="#916CBF" stop-opacity="1"/><stop offset="1" stop-color="#649CD9" stop-opacity="1"/></linearGradient><clipPath id="clip41"><rect x="1008" y="421" width="156" height="156"/></clipPath><clipPath id="clip42"><rect x="1008" y="421" width="156" height="156"/></clipPath><clipPath id="clip43"><rect x="1008" y="421" width="156" height="156"/></clipPath><clipPath id="clip44"><rect x="2076" y="422" width="156" height="155"/></clipPath><clipPath id="clip45"><rect x="2076" y="422" width="156" height="155"/></clipPath><clipPath id="clip46"><rect x="2076" y="422" width="156" height="155"/></clipPath></defs><g clip-path="url(#clip0)" transform="translate(-311 -339)"><path d="M866.5 670.834C866.5 629.781 899.781 596.5 940.835 596.5L1238.17 596.5C1279.22 596.5 1312.5 629.781 1312.5 670.834L1312.5 1628.17C1312.5 1669.22 1279.22 1702.5 1238.17 1702.5L940.835 1702.5C899.781 1702.5 866.5 1669.22 866.5 1628.17Z" stroke="#000000" stroke-width="4.58333" stroke-linecap="butt" stroke-linejoin="round" stroke-miterlimit="10" stroke-opacity="1" fill="#1D0D5C" fill-rule="evenodd" fill-opacity="1"/><rect x="866.5" y="777.5" width="446" height="142" stroke="#000000" stroke-width="4.58333" stroke-linecap="butt" stroke-linejoin="round" stroke-miterlimit="10" stroke-opacity="1" fill="#FFFFFF" fill-opacity="1"/><rect x="866.5" y="918.5" width="446" height="142" stroke="#000000" stroke-width="4.58333" stroke-linecap="butt" stroke-linejoin="round" stroke-miterlimit="10" stroke-opacity="1" fill="#FFFFFF" fill-opacity="1"/><rect x="866.5" y="1060.5" width="446" height="141" stroke="#000000" stroke-width="4.58333" stroke-linecap="butt" stroke-linejoin="round" stroke-miterlimit="10" stroke-opacity="1" fill="#FFFFFF" fill-opacity="1"/><rect x="866.5" y="1201.5" width="446" height="141" stroke="#000000" stroke-width="4.58333" stroke-linecap="butt" stroke-linejoin="round" stroke-miterlimit="10" stroke-opacity="1" fill="#FFFFFF" fill-opacity="1"/><rect x="866.5" y="1337.5" width="446" height="141" stroke="#000000" stroke-width="4.58333" stroke-linecap="butt" stroke-linejoin="round" stroke-miterlimit="10" stroke-opacity="1" fill="#FFFFFF" fill-opacity="1"/><rect x="866.5" y="1477.5" width="446" height="142" stroke="#000000" stroke-width="4.58333" stroke-linecap="butt" stroke-linejoin="round" stroke-miterlimit="10" stroke-opacity="1" fill="#FFFFFF" fill-opacity="1"/><path d="M1931.5 671.001C1931.5 629.855 1964.86 596.5 2006 596.5L2304 596.5C2345.14 596.5 2378.5 629.855 2378.5 671.001L2378.5 1618C2378.5 1659.14 2345.14 1692.5 2304 1692.5L2006 1692.5C1964.86 1692.5 1931.5 1659.14 1931.5 1618Z" stroke="#000000" stroke-width="4.58333" stroke-linecap="butt" stroke-linejoin="round" stroke-miterlimit="10" stroke-opacity="1" fill="#1D0D5C" fill-rule="evenodd" fill-opacity="1"/><rect x="1931.5" y="777.5" width="447" height="142" stroke="#000000" stroke-width="4.58333" stroke-linecap="butt" stroke-linejoin="round" stroke-miterlimit="10" stroke-opacity="1" fill="#FFFFFF" fill-opacity="1"/><rect x="1931.5" y="918.5" width="447" height="142" stroke="#000000" stroke-width="4.58333" stroke-linecap="butt" stroke-linejoin="round" stroke-miterlimit="10" stroke-opacity="1" fill="#FFFFFF" fill-opacity="1"/><rect x="1931.5" y="1060.5" width="447" height="141" stroke="#000000" stroke-width="4.58333" stroke-linecap="butt" stroke-linejoin="round" stroke-miterlimit="10" stroke-opacity="1" fill="#FFFFFF" fill-opacity="1"/><rect x="1931.5" y="1201.5" width="447" height="141" stroke="#000000" stroke-width="4.58333" stroke-linecap="butt" stroke-linejoin="round" stroke-miterlimit="10" stroke-opacity="1" fill="#FFFFFF" fill-opacity="1"/><rect x="1931.5" y="1337.5" width="447" height="141" stroke="#000000" stroke-width="4.58333" stroke-linecap="butt" stroke-linejoin="round" stroke-miterlimit="10" stroke-opacity="1" fill="#FFFFFF" fill-opacity="1"/><rect x="1931.5" y="1477.5" width="447" height="142" stroke="#000000" stroke-width="4.58333" stroke-linecap="butt" stroke-linejoin="round" stroke-miterlimit="10" stroke-opacity="1" fill="#FFFFFF" fill-opacity="1"/><path d="M1343.5 586.336C1343.5 535.064 1385.06 493.5 1436.34 493.5L1807.66 493.5C1858.94 493.5 1900.5 535.064 1900.5 586.336L1900.5 1609.66C1900.5 1660.94 1858.94 1702.5 1807.66 1702.5L1436.34 1702.5C1385.06 1702.5 1343.5 1660.94 1343.5 1609.66Z" stroke="#000000" stroke-width="4.58333" stroke-linecap="butt" stroke-linejoin="round" stroke-miterlimit="10" stroke-opacity="1" fill="#1D0D5C" fill-rule="evenodd" fill-opacity="1"/><rect x="1343.5" y="777.5" width="557" height="142" stroke="#000000" stroke-width="4.58333" stroke-linecap="butt" stroke-linejoin="round" stroke-miterlimit="10" stroke-opacity="1" fill="#FFFFFF" fill-opacity="1"/><rect x="1343.5" y="918.5" width="557" height="142" stroke="#000000" stroke-width="4.58333" stroke-linecap="butt" stroke-linejoin="round" stroke-miterlimit="10" stroke-opacity="1" fill="#FFFFFF" fill-opacity="1"/><rect x="1343.5" y="1060.5" width="557" height="141" stroke="#000000" stroke-width="4.58333" stroke-linecap="butt" stroke-linejoin="round" stroke-miterlimit="10" stroke-opacity="1" fill="#FFFFFF" fill-opacity="1"/><rect x="1343.5" y="1201.5" width="557" height="141" stroke="#000000" stroke-width="4.58333" stroke-linecap="butt" stroke-linejoin="round" stroke-miterlimit="10" stroke-opacity="1" fill="#FFFFFF" fill-opacity="1"/><rect x="1343.5" y="1337.5" width="557" height="141" stroke="#000000" stroke-width="4.58333" stroke-linecap="butt" stroke-linejoin="round" stroke-miterlimit="10" stroke-opacity="1" fill="#FFFFFF" fill-opacity="1"/><rect x="1343.5" y="1477.5" width="557" height="142" stroke="#000000" stroke-width="4.58333" stroke-linecap="butt" stroke-linejoin="round" stroke-miterlimit="10" stroke-opacity="1" fill="#FFFFFF" fill-opacity="1"/><text fill="#1D0D5C" fill-opacity="1" font-family="Open Sans,Open Sans_MSFontService,sans-serif" font-style="normal" font-variant="normal" font-weight="400" font-stretch="normal" font-size="55" text-anchor="start" direction="ltr" writing-mode="lr-tb" unicode-bidi="normal" text-decoration="none" transform="matrix(1 0 0 1 422.244 866)">Near Real Time<tspan fill="#1D0D5C" fill-opacity="1" font-family="Open Sans,Open Sans_MSFontService,sans-serif" font-style="normal" font-variant="normal" font-weight="400" font-stretch="normal" font-size="55" text-anchor="start" direction="ltr" writing-mode="lr-tb" unicode-bidi="normal" text-decoration="none" x="92.2396" y="138">Ease of Use</tspan><tspan fill="#1D0D5C" fill-opacity="1" font-family="Open Sans,Open Sans_MSFontService,sans-serif" font-style="normal" font-variant="normal" font-weight="400" font-stretch="normal" font-size="55" text-anchor="start" direction="ltr" writing-mode="lr-tb" unicode-bidi="normal" text-decoration="none" x="2.86456" y="285">Own your Data</tspan><tspan fill="#1D0D5C" fill-opacity="1" font-family="Open Sans,Open Sans_MSFontService,sans-serif" font-style="normal" font-variant="normal" font-weight="400" font-stretch="normal" font-size="55" text-anchor="start" direction="ltr" writing-mode="lr-tb" unicode-bidi="normal" text-decoration="none" x="135.208" y="423">Scalability</tspan><tspan fill="#1D0D5C" fill-opacity="1" font-family="Open Sans,Open Sans_MSFontService,sans-serif" font-style="normal" font-variant="normal" font-weight="400" font-stretch="normal" font-size="55" text-anchor="start" direction="ltr" writing-mode="lr-tb" unicode-bidi="normal" text-decoration="none" x="69.8958" y="559">Feature Rich</tspan><tspan fill="#1D0D5C" fill-opacity="1" font-family="Open Sans,Open Sans_MSFontService,sans-serif" font-style="normal" font-variant="normal" font-weight="400" font-stretch="normal" font-size="64" text-anchor="start" direction="ltr" writing-mode="lr-tb" unicode-bidi="normal" text-decoration="none" x="575.026" y="707">$$$$$</tspan><tspan fill="#1D0D5C" fill-opacity="1" font-family="Open Sans,Open Sans_MSFontService,sans-serif" font-style="normal" font-variant="normal" font-weight="400" font-stretch="normal" font-size="64" text-anchor="start" direction="ltr" writing-mode="lr-tb" unicode-bidi="normal" text-decoration="none" x="1677.32" y="707">$$$</tspan><tspan fill="#1D0D5C" fill-opacity="1" font-family="Open Sans,Open Sans_MSFontService,sans-serif" font-style="normal" font-variant="normal" font-weight="400" font-stretch="normal" font-size="64" text-anchor="start" direction="ltr" writing-mode="lr-tb" unicode-bidi="normal" text-decoration="none" x="1181.17" y="707">$</tspan><tspan fill="#FFFFFF" fill-opacity="1" font-family="Open Sans,Open Sans_MSFontService,sans-serif" font-style="normal" font-variant="normal" font-weight="400" font-stretch="normal" font-size="55" text-anchor="start" direction="ltr" writing-mode="lr-tb" unicode-bidi="normal" text-decoration="none" x="505.416" y="-185">Cloud</tspan><tspan fill="#FFFFFF" fill-opacity="1" font-family="Open Sans,Open Sans_MSFontService,sans-serif" font-style="normal" font-variant="normal" font-weight="400" font-stretch="normal" font-size="55" text-anchor="start" direction="ltr" writing-mode="lr-tb" unicode-bidi="normal" text-decoration="none" x="654.947" y="-185">-</tspan><tspan fill="#FFFFFF" fill-opacity="1" font-family="Open Sans,Open Sans_MSFontService,sans-serif" font-style="normal" font-variant="normal" font-weight="400" font-stretch="normal" font-size="55" text-anchor="start" direction="ltr" writing-mode="lr-tb" unicode-bidi="normal" text-decoration="none" x="672.708" y="-185">based </tspan><tspan fill="#FFFFFF" fill-opacity="1" font-family="Open Sans,Open Sans_MSFontService,sans-serif" font-style="normal" font-variant="normal" font-weight="400" font-stretch="normal" font-size="55" text-anchor="start" direction="ltr" writing-mode="lr-tb" unicode-bidi="normal" text-decoration="none" x="605.974" y="-119">SaaS</tspan><tspan fill="#1D0D5C" fill-opacity="1" font-family="Open Sans,Open Sans_MSFontService,sans-serif" font-style="normal" font-variant="normal" font-weight="400" font-stretch="normal" font-size="55" text-anchor="start" direction="ltr" writing-mode="lr-tb" unicode-bidi="normal" text-decoration="none" x="274.427" y="698">Cost</tspan><tspan fill="#FFFFFF" fill-opacity="1" font-family="Open Sans,Open Sans_MSFontService,sans-serif" font-style="normal" font-variant="normal" font-weight="400" font-stretch="normal" font-size="55" text-anchor="start" direction="ltr" writing-mode="lr-tb" unicode-bidi="normal" text-decoration="none" x="1692.32" y="-152">DIY</tspan><tspan fill="#1D0D5C" fill-opacity="1" font-family="Open Sans,Open Sans_MSFontService,sans-serif" font-style="normal" font-variant="normal" font-weight="700" font-stretch="normal" font-size="92" text-anchor="start" direction="ltr" writing-mode="lr-tb" unicode-bidi="normal" text-decoration="none" x="1710.55" y="437">?</tspan><tspan fill="#1D0D5C" fill-opacity="1" font-family="Open Sans,Open Sans_MSFontService,sans-serif" font-style="normal" font-variant="normal" font-weight="700" font-stretch="normal" font-size="92" text-anchor="start" direction="ltr" writing-mode="lr-tb" unicode-bidi="normal" text-decoration="none" x="1710.55" y="15">?</tspan></text><g clip-path="url(#clip1)"><g clip-path="url(#clip2)"><g clip-path="url(#clip3)"><path d="M0 46.103C2.14433 41.8144 6.43298 36.4535 13.9381 38.5979 20.3711 40.7422 24.6597 47.1752 27.8762 55.7525 53.6081 26.8041 75.0514 6.43298 100.783 0 104 0 105.072 0 102.928 2.14433 75.0514 21.4433 48.2473 50.3917 26.8041 87.9174 25.7319 88.9895 24.6597 88.9895 23.5876 87.9174 19.2989 77.1957 16.0824 66.4741 10.7216 55.7525 8.5773 50.3917 5.36081 46.103 0 46.103Z" fill="#1D0D5C" fill-rule="evenodd" fill-opacity="1" transform="matrix(1 0 0 1.01136 1037 803)"/></g></g></g><g clip-path="url(#clip4)"><g clip-path="url(#clip5)"><g clip-path="url(#clip6)"><path d="M0 46.5465C2.16495 42.2166 6.49486 36.8042 14.0722 38.9691 20.567 41.1341 24.897 47.629 28.1444 56.2888 54.1238 27.0619 75.7733 6.49486 101.753 0 105 0 106.083 0 103.918 2.16495 75.7733 21.6495 48.7114 50.8764 27.0619 88.7631 25.9794 89.8455 24.897 89.8455 23.8145 88.7631 19.4846 77.9383 16.2371 67.1135 10.8248 56.2888 8.65981 50.8764 5.41238 46.5465 0 46.5465Z" fill="#1D0D5C" fill-rule="evenodd" fill-opacity="1" transform="matrix(1 0 0 1.00172 1569 803)"/></g></g></g><g clip-path="url(#clip7)"><g clip-path="url(#clip8)"><g clip-path="url(#clip9)"><path d="M0 46.103C2.14433 41.8144 6.43298 36.4535 13.9381 38.5979 20.3711 40.7422 24.6597 47.1752 27.8762 55.7525 53.6081 26.8041 75.0514 6.43298 100.783 0 104 0 105.072 0 102.928 2.14433 75.0514 21.4433 48.2473 50.3917 26.8041 87.9174 25.7319 88.9895 24.6597 88.9895 23.5876 87.9174 19.2989 77.1957 16.0824 66.4741 10.7216 55.7525 8.5773 50.3917 5.36081 46.103 0 46.103Z" fill="#1D0D5C" fill-rule="evenodd" fill-opacity="1" transform="matrix(1 0 0 1.01135 1037 940)"/></g></g></g><g clip-path="url(#clip10)"><g clip-path="url(#clip11)"><g clip-path="url(#clip12)"><path d="M0 46.5465C2.16495 42.2166 6.49486 36.8042 14.0722 38.9691 20.567 41.1341 24.897 47.629 28.1444 56.2888 54.1238 27.0619 75.7733 6.49486 101.753 0 105 0 106.083 0 103.918 2.16495 75.7733 21.6495 48.7114 50.8764 27.0619 88.7631 25.9794 89.8455 24.897 89.8455 23.8145 88.7631 19.4846 77.9383 16.2371 67.1135 10.8248 56.2888 8.65981 50.8764 5.41238 46.5465 0 46.5465Z" fill="#1D0D5C" fill-rule="evenodd" fill-opacity="1" transform="matrix(1 0 0 1.00172 1569 940)"/></g></g></g><g clip-path="url(#clip13)"><g clip-path="url(#clip14)"><g clip-path="url(#clip15)"><path d="M0 46.5465C2.16495 42.2166 6.49486 36.8042 14.0722 38.9691 20.567 41.1341 24.897 47.629 28.1444 56.2888 54.1238 27.0619 75.7733 6.49486 101.753 0 105 0 106.083 0 103.918 2.16495 75.7733 21.6495 48.7114 50.8764 27.0619 88.7631 25.9794 89.8455 24.897 89.8455 23.8145 88.7631 19.4846 77.9383 16.2371 67.1135 10.8248 56.2888 8.65981 50.8764 5.41238 46.5465 0 46.5465Z" fill="#1D0D5C" fill-rule="evenodd" fill-opacity="1" transform="matrix(1 0 0 1.00172 1569 1085)"/></g></g></g><g clip-path="url(#clip16)"><g clip-path="url(#clip17)"><g clip-path="url(#clip18)"><path d="M0 46.5463C2.16495 42.2164 6.49484 36.8041 14.0721 38.969 20.567 41.134 24.8969 47.6288 28.1443 56.2886 54.1236 27.0618 75.7731 6.49484 101.752 0 105 0 106.082 0 103.917 2.16495 75.7731 21.6495 48.7113 50.8762 27.0618 88.7627 25.9793 89.8452 24.8969 89.8452 23.8144 88.7627 19.4845 77.938 16.2371 67.1133 10.8247 56.2886 8.65978 50.8762 5.41236 46.5463 0 46.5463Z" fill="#1D0D5C" fill-rule="evenodd" fill-opacity="1" transform="matrix(1 0 0 1.00172 2102 1085)"/></g></g></g><g clip-path="url(#clip19)"><g clip-path="url(#clip20)"><g clip-path="url(#clip21)"><path d="M0 46.103C2.14433 41.8144 6.43298 36.4535 13.9381 38.5979 20.3711 40.7422 24.6597 47.1752 27.8762 55.7525 53.6081 26.8041 75.0514 6.43298 100.783 0 104 0 105.072 0 102.928 2.14433 75.0514 21.4433 48.2473 50.3917 26.8041 87.9174 25.7319 88.9895 24.6597 88.9895 23.5876 87.9174 19.2989 77.1957 16.0824 66.4741 10.7216 55.7525 8.5773 50.3917 5.36081 46.103 0 46.103Z" fill="#1D0D5C" fill-rule="evenodd" fill-opacity="1" transform="matrix(1 0 0 1.01136 1037 1363)"/></g></g></g><g clip-path="url(#clip22)"><g clip-path="url(#clip23)"><g clip-path="url(#clip24)"><path d="M0 46.5463C2.16495 42.2164 6.49484 36.8041 14.0721 38.969 20.567 41.134 24.8969 47.6288 28.1443 56.2886 54.1236 27.0618 75.7731 6.49484 101.752 0 105 0 106.082 0 103.917 2.16495 75.7731 21.6495 48.7113 50.8762 27.0618 88.7627 25.9793 89.8452 24.8969 89.8452 23.8144 88.7627 19.4845 77.938 16.2371 67.1133 10.8247 56.2886 8.65978 50.8762 5.41236 46.5463 0 46.5463Z" fill="#1D0D5C" fill-rule="evenodd" fill-opacity="1" transform="matrix(1 0 0 1.00172 2102 1363)"/></g></g></g><path d="M1065.5 1272C1065.5 1260.13 1075.13 1250.5 1087 1250.5 1098.87 1250.5 1108.5 1260.13 1108.5 1272 1108.5 1283.87 1098.87 1293.5 1087 1293.5 1075.13 1293.5 1065.5 1283.87 1065.5 1272Z" stroke="#1D0D5C" stroke-width="3.4375" stroke-linecap="butt" stroke-linejoin="round" stroke-miterlimit="10" stroke-opacity="1" fill="#1D0D5C" fill-rule="evenodd" fill-opacity="1"/><path d="M911.5 1272C911.5 1260.13 921.126 1250.5 933 1250.5 944.874 1250.5 954.5 1260.13 954.5 1272 954.5 1283.87 944.874 1293.5 933 1293.5 921.126 1293.5 911.5 1283.87 911.5 1272Z" stroke="#1D0D5C" stroke-width="3.4375" stroke-linecap="butt" stroke-linejoin="round" stroke-miterlimit="10" stroke-opacity="1" fill="#1D0D5C" fill-rule="evenodd" fill-opacity="1"/><path d="M1224.5 1272C1224.5 1260.13 1233.9 1250.5 1245.5 1250.5 1257.1 1250.5 1266.5 1260.13 1266.5 1272 1266.5 1283.87 1257.1 1293.5 1245.5 1293.5 1233.9 1293.5 1224.5 1283.87 1224.5 1272Z" stroke="#1D0D5C" stroke-width="3.4375" stroke-linecap="butt" stroke-linejoin="round" stroke-miterlimit="10" stroke-opacity="1" fill="#1D0D5C" fill-rule="evenodd" fill-opacity="1"/><path d="M986.5 1272C986.5 1260.13 996.126 1250.5 1008 1250.5 1019.87 1250.5 1029.5 1260.13 1029.5 1272 1029.5 1283.87 1019.87 1293.5 1008 1293.5 996.126 1293.5 986.5 1283.87 986.5 1272Z" stroke="#1D0D5C" stroke-width="3.4375" stroke-linecap="butt" stroke-linejoin="round" stroke-miterlimit="10" stroke-opacity="1" fill="#1D0D5C" fill-rule="evenodd" fill-opacity="1"/><path d="M1145.5 1272C1145.5 1260.13 1154.9 1250.5 1166.5 1250.5 1178.1 1250.5 1187.5 1260.13 1187.5 1272 1187.5 1283.87 1178.1 1293.5 1166.5 1293.5 1154.9 1293.5 1145.5 1283.87 1145.5 1272Z" stroke="#1D0D5C" stroke-width="3.4375" stroke-linecap="butt" stroke-linejoin="round" stroke-miterlimit="10" stroke-opacity="1" fill="#1D0D5C" fill-rule="evenodd" fill-opacity="1"/><path d="M1598.5 1272C1598.5 1260.13 1607.9 1250.5 1619.5 1250.5 1631.1 1250.5 1640.5 1260.13 1640.5 1272 1640.5 1283.87 1631.1 1293.5 1619.5 1293.5 1607.9 1293.5 1598.5 1283.87 1598.5 1272Z" stroke="#1D0D5C" stroke-width="3.4375" stroke-linecap="butt" stroke-linejoin="round" stroke-miterlimit="10" stroke-opacity="1" fill="#1D0D5C" fill-rule="evenodd" fill-opacity="1"/><path d="M1444.5 1272C1444.5 1260.13 1454.13 1250.5 1466 1250.5 1477.87 1250.5 1487.5 1260.13 1487.5 1272 1487.5 1283.87 1477.87 1293.5 1466 1293.5 1454.13 1293.5 1444.5 1283.87 1444.5 1272Z" stroke="#1D0D5C" stroke-width="3.4375" stroke-linecap="butt" stroke-linejoin="round" stroke-miterlimit="10" stroke-opacity="1" fill="#1D0D5C" fill-rule="evenodd" fill-opacity="1"/><path d="M1757.5 1272C1757.5 1260.13 1766.9 1250.5 1778.5 1250.5 1790.1 1250.5 1799.5 1260.13 1799.5 1272 1799.5 1283.87 1790.1 1293.5 1778.5 1293.5 1766.9 1293.5 1757.5 1283.87 1757.5 1272Z" stroke="#1D0D5C" stroke-width="3.4375" stroke-linecap="butt" stroke-linejoin="round" stroke-miterlimit="10" stroke-opacity="1" fill="#D9D9D9" fill-rule="evenodd" fill-opacity="1"/><path d="M1519.5 1272C1519.5 1260.13 1529.13 1250.5 1541 1250.5 1552.87 1250.5 1562.5 1260.13 1562.5 1272 1562.5 1283.87 1552.87 1293.5 1541 1293.5 1529.13 1293.5 1519.5 1283.87 1519.5 1272Z" stroke="#1D0D5C" stroke-width="3.4375" stroke-linecap="butt" stroke-linejoin="round" stroke-miterlimit="10" stroke-opacity="1" fill="#1D0D5C" fill-rule="evenodd" fill-opacity="1"/><path d="M1677.5 1272C1677.5 1260.13 1687.13 1250.5 1699 1250.5 1710.87 1250.5 1720.5 1260.13 1720.5 1272 1720.5 1283.87 1710.87 1293.5 1699 1293.5 1687.13 1293.5 1677.5 1283.87 1677.5 1272Z" stroke="#1D0D5C" stroke-width="3.4375" stroke-linecap="butt" stroke-linejoin="round" stroke-miterlimit="10" stroke-opacity="1" fill="#D9D9D9" fill-rule="evenodd" fill-opacity="1"/><g clip-path="url(#clip25)"><g clip-path="url(#clip26)"><g clip-path="url(#clip27)"><path d="M69.3101 272.301 69.3101 246.955 58.8451 266.15 55.768 266.15 45.253 246.955 45.253 272.301 39.6999 272.301 39.6999 237.086 45.6493 237.086 57.3088 258.61 68.9638 237.086 74.9132 237.086 74.9132 272.301 69.3101 272.301Z" fill="#FFFFFF" fill-rule="nonzero" fill-opacity="1" transform="matrix(1.00404 0 0 1 1422 477.206)"/><path d="M107.398 272.55C104.885 272.55 102.596 272.045 100.531 271.035 98.4638 270.024 96.687 268.689 95.2007 267.017 93.7123 265.347 92.5622 263.44 91.7506 261.291 90.9402 259.14 90.5349 256.943 90.5349 254.693 90.5349 252.345 90.9658 250.098 91.8241 247.947 92.6847 245.8 93.867 243.897 95.3733 242.243 96.8762 240.593 98.6642 239.274 100.727 238.302 102.794 237.325 105.054 236.839 107.5 236.839 110.011 236.839 112.3 237.358 114.368 238.4 116.437 239.442 118.207 240.805 119.678 242.491 121.148 244.178 122.29 246.086 123.098 248.22 123.908 250.353 124.315 252.529 124.315 254.742 124.315 257.09 123.891 259.339 123.05 261.486 122.208 263.635 121.025 265.53 119.504 267.166 117.98 268.804 116.187 270.111 114.12 271.085 112.053 272.061 109.815 272.55 107.398 272.55ZM96.1882 254.692C96.1882 256.346 96.4543 257.948 96.9842 259.504 97.513 261.059 98.2645 262.431 99.2386 263.621 100.215 264.809 101.397 265.762 102.788 266.47 104.175 267.185 105.732 267.54 107.448 267.54 109.233 267.54 110.811 267.167 112.186 266.421 113.56 265.679 114.721 264.696 115.681 263.472 116.642 262.249 117.371 260.878 117.866 259.353 118.362 257.833 118.608 256.281 118.608 254.693 118.608 253.008 118.345 251.395 117.816 249.86 117.287 248.319 116.536 246.964 115.559 245.789 114.585 244.616 113.409 243.675 112.041 242.96 110.668 242.255 109.138 241.894 107.449 241.894 105.666 241.894 104.077 242.27 102.69 243.014 101.302 243.756 100.127 244.726 99.1696 245.913 98.2111 247.101 97.4741 248.468 96.9608 250.005 96.4432 251.542 96.1882 253.103 96.1882 254.692Z" fill="#FFFFFF" fill-rule="nonzero" fill-opacity="1" transform="matrix(1.00404 0 0 1 1422 477.206)"/><path d="M145.543 247.501 145.543 272.301 139.987 272.301 139.987 237.086 144.352 237.086 164.491 262.479 164.491 237.134 170.094 237.134 170.094 272.301 165.48 272.301 145.543 247.501Z" fill="#FFFFFF" fill-rule="nonzero" fill-opacity="1" transform="matrix(1.00404 0 0 1 1422 477.206)"/><path d="M208.777 245.369C208.447 245.005 207.967 244.616 207.339 244.202 206.712 243.79 205.975 243.402 205.135 243.038 204.294 242.674 203.367 242.375 202.356 242.146 201.346 241.914 200.315 241.8 199.257 241.8 196.912 241.8 195.18 242.227 194.074 243.088 192.965 243.947 192.413 245.135 192.413 246.658 192.413 247.521 192.586 248.221 192.934 248.769 193.283 249.312 193.819 249.792 194.545 250.204 195.273 250.62 196.184 250.984 197.274 251.298 198.365 251.612 199.637 251.949 201.092 252.314 202.878 252.743 204.492 253.221 205.93 253.752 207.369 254.28 208.584 254.925 209.575 255.686 210.564 256.446 211.337 257.379 211.881 258.487 212.426 259.598 212.696 260.945 212.696 262.53 212.696 264.317 212.36 265.852 211.682 267.146 211.003 268.434 210.076 269.485 208.903 270.293 207.731 271.104 206.366 271.699 204.814 272.079 203.258 272.46 201.59 272.648 199.803 272.648 197.122 272.648 194.537 272.243 192.041 271.432 189.544 270.622 187.286 269.442 185.271 267.886L187.802 263.126C188.229 263.553 188.847 264.034 189.659 264.564 190.468 265.092 191.41 265.58 192.487 266.025 193.562 266.47 194.728 266.853 195.985 267.167 197.242 267.481 198.547 267.638 199.902 267.638 202.083 267.638 203.773 267.258 204.962 266.498 206.151 265.738 206.748 264.613 206.748 263.126 206.748 262.232 206.526 261.487 206.08 260.896 205.629 260.299 204.993 259.776 204.168 259.33 203.339 258.884 202.334 258.479 201.14 258.115 199.951 257.751 198.595 257.372 197.075 256.975 195.321 256.511 193.796 256.025 192.488 255.512 191.18 255 190.099 254.381 189.24 253.653 188.381 252.927 187.725 252.074 187.281 251.098 186.833 250.122 186.608 248.94 186.608 247.552 186.608 245.832 186.939 244.302 187.603 242.96 188.264 241.624 189.165 240.501 190.306 239.59 191.445 238.681 192.793 237.995 194.349 237.53 195.903 237.071 197.588 236.839 199.408 236.839 201.788 236.839 203.985 237.216 206.003 237.977 208.019 238.737 209.788 239.681 211.31 240.806L208.777 245.369Z" fill="#FFFFFF" fill-rule="nonzero" fill-opacity="1" transform="matrix(1.00404 0 0 1 1422 477.206)"/><path d="M242.804 272.55C240.289 272.55 238 272.045 235.934 271.035 233.868 270.025 232.093 268.689 230.605 267.017 229.117 265.347 227.965 263.44 227.157 261.291 226.345 259.14 225.942 256.943 225.942 254.693 225.942 252.345 226.372 250.098 227.227 247.947 228.091 245.8 229.271 243.897 230.776 242.243 232.281 240.593 234.067 239.274 236.131 238.302 238.198 237.325 240.457 236.839 242.905 236.839 245.414 236.839 247.706 237.358 249.773 238.4 251.839 239.442 253.61 240.805 255.079 242.491 256.552 244.178 257.693 246.086 258.501 248.22 259.313 250.353 259.718 252.529 259.718 254.742 259.718 257.09 259.295 259.339 258.452 261.486 257.61 263.635 256.427 265.53 254.905 267.166 253.381 268.804 251.59 270.111 249.523 271.085 247.459 272.061 245.218 272.55 242.804 272.55ZM231.592 254.692C231.592 256.346 231.86 257.948 232.388 259.504 232.917 261.059 233.672 262.431 234.646 263.621 235.619 264.809 236.802 265.762 238.194 266.47 239.579 267.185 241.135 267.54 242.852 267.54 244.638 267.54 246.22 267.167 247.589 266.421 248.964 265.679 250.127 264.696 251.088 263.472 252.048 262.249 252.775 260.878 253.27 259.353 253.769 257.833 254.015 256.281 254.015 254.693 254.015 253.008 253.749 251.395 253.22 249.86 252.691 248.319 251.941 246.964 250.962 245.789 249.989 244.616 248.814 243.675 247.445 242.96 246.071 242.255 244.542 241.894 242.853 241.894 241.071 241.894 239.482 242.27 238.094 243.014 236.708 243.756 235.53 244.726 234.575 245.913 233.615 247.101 232.878 248.468 232.366 250.005 231.849 251.542 231.592 253.103 231.592 254.692Z" fill="#FFFFFF" fill-rule="nonzero" fill-opacity="1" transform="matrix(1.00404 0 0 1 1422 477.206)"/><path d="M290.02 272.55C287.507 272.55 285.218 272.045 283.152 271.035 281.086 270.025 279.311 268.689 277.823 267.017 276.334 265.347 275.183 263.44 274.372 261.291 273.562 259.14 273.157 256.943 273.157 254.693 273.157 252.345 273.588 250.098 274.444 247.947 275.306 245.8 276.489 243.897 277.994 242.243 279.498 240.593 281.284 239.274 283.349 238.302 285.416 237.325 287.674 236.839 290.121 236.839 292.631 236.839 294.92 237.358 296.991 238.4 299.056 239.442 300.828 240.805 302.298 242.491 303.767 244.178 304.911 246.086 305.72 248.22 306.529 250.353 306.935 252.529 306.935 254.742 306.935 257.09 306.512 259.339 305.669 261.486 304.828 263.635 303.644 265.53 302.125 267.166 300.598 268.804 298.806 270.111 296.74 271.085 294.674 272.061 292.436 272.55 290.02 272.55ZM278.81 254.692C278.81 256.346 279.076 257.948 279.606 259.504 280.135 261.059 280.89 262.431 281.862 263.621 282.838 264.809 284.02 265.762 285.41 266.47 286.797 267.185 288.355 267.54 290.071 267.54 291.857 267.54 293.435 267.167 294.808 266.421 296.183 265.679 297.345 264.696 298.304 263.472 299.263 262.249 299.993 260.878 300.488 259.353 300.984 257.833 301.229 256.281 301.229 254.693 301.229 253.008 300.967 251.395 300.439 249.86 299.909 248.319 299.156 246.964 298.181 245.789 297.207 244.616 296.033 243.675 294.663 242.96 293.289 242.255 291.76 241.894 290.072 241.894 288.289 241.894 286.7 242.27 285.312 243.014 283.926 243.756 282.749 244.726 281.794 245.913 280.833 247.101 280.096 248.468 279.585 250.005 279.065 251.542 278.81 253.103 278.81 254.692Z" fill="#FFFFFF" fill-rule="nonzero" fill-opacity="1" transform="matrix(1.00404 0 0 1 1422 477.206)"/><path d="M328.165 247.501 328.165 272.301 322.61 272.301 322.61 237.086 326.974 237.086 347.114 262.479 347.114 237.134 352.715 237.134 352.715 272.301 348.102 272.301 328.165 247.501Z" fill="#FFFFFF" fill-rule="nonzero" fill-opacity="1" transform="matrix(1.00404 0 0 1 1422 477.206)"/><path d="M116.66 190.572C109.339 190.572 101.977 188.127 95.9054 183.108 89.1823 177.551 85.0253 169.709 84.1959 161.026 83.372 152.348 85.9749 143.869 91.5324 137.147 92.7114 135.718 94.8267 135.518 96.255 136.699 97.6845 137.88 97.8849 139.992 96.7026 141.421 92.2906 146.762 90.2232 153.499 90.8778 160.394 91.5347 167.293 94.8356 173.522 100.18 177.938 111.196 187.04 127.575 185.481 136.687 174.459 137.744 173.178 138.666 171.817 139.432 170.422 140.317 168.796 142.353 168.188 143.983 169.082 145.607 169.969 146.207 172.009 145.32 173.633 144.356 175.403 143.194 177.119 141.864 178.727 135.415 186.533 126.071 190.572 116.66 190.572Z" fill="url(#fill28)" fill-rule="nonzero" transform="matrix(1.00404 0 0 1 1422 477.206)"/><path d="M107.156 126.853C106.249 126.853 105.341 126.483 104.68 125.761 89.2201 108.862 89.2936 82.4658 104.851 65.664 121.472 47.7189 149.599 46.6402 167.543 63.256 168.902 64.514 168.984 66.6371 167.725 67.9986 166.462 69.3568 164.339 69.437 162.983 68.179 147.75 54.0747 123.876 54.9898 109.774 70.2241 96.5701 84.4875 96.5055 106.892 109.631 121.233 110.879 122.6 110.786 124.723 109.422 125.97 108.776 126.561 107.966 126.853 107.156 126.853Z" fill="url(#fill29)" fill-rule="nonzero" transform="matrix(1.00404 0 0 1 1422 477.206)"/><path d="M202.021 165.445C201.164 165.445 200.304 165.118 199.647 164.462L158.224 123.033C156.913 121.723 156.913 119.602 158.224 118.29 159.535 116.98 161.655 116.98 162.967 118.29L204.395 159.714C205.707 161.024 205.707 163.15 204.395 164.461 203.741 165.118 202.879 165.445 202.021 165.445Z" fill="url(#fill30)" fill-rule="nonzero" transform="matrix(1.00404 0 0 1 1422 477.206)"/><path d="M203.194 201.419C202.338 201.419 201.479 201.091 200.823 200.436L173.965 173.577C172.653 172.267 172.653 170.142 173.965 168.83 175.276 167.519 177.398 167.52 178.71 168.83L205.568 195.691C206.878 197.001 206.878 199.124 205.568 200.436 204.911 201.091 204.054 201.419 203.194 201.419Z" fill="url(#fill31)" fill-rule="nonzero" transform="matrix(1.00404 0 0 1 1422 477.206)"/><path d="M268.697 197.325C267.841 197.325 266.98 196.998 266.326 196.342L208.758 138.783C207.448 137.472 207.448 135.349 208.758 134.038 210.07 132.726 212.192 132.726 213.503 134.038L271.073 191.6C272.383 192.911 272.383 195.032 271.073 196.342 270.417 196.998 269.556 197.325 268.697 197.325Z" fill="url(#fill32)" fill-rule="nonzero" transform="matrix(1.00404 0 0 1 1422 477.206)"/><path d="M167.224 200.243C166.366 200.243 165.506 199.916 164.85 199.26L123.427 157.831C122.116 156.521 122.116 154.4 123.427 153.088 124.737 151.778 126.863 151.778 128.174 153.088L169.597 194.515C170.908 195.825 170.908 197.948 169.597 199.26 168.942 199.916 168.082 200.243 167.224 200.243Z" fill="url(#fill33)" fill-rule="nonzero" transform="matrix(1.00404 0 0 1 1422 477.206)"/><path d="M305.016 198.844C304.156 198.844 303.297 198.516 302.641 197.86L193.027 88.2493C191.716 86.9379 191.716 84.816 193.027 83.5045 194.337 82.1942 196.463 82.1942 197.775 83.5045L307.387 193.116C308.697 194.426 308.697 196.549 307.387 197.86 306.731 198.516 305.872 198.844 305.016 198.844Z" fill="url(#fill34)" fill-rule="nonzero" transform="matrix(1.00404 0 0 1 1422 477.206)"/><path d="M159.77 157.986C158.912 157.986 158.051 157.658 157.396 157.003L140.83 140.437C139.52 139.126 139.52 137.004 140.83 135.692 142.14 134.382 144.264 134.382 145.575 135.692L162.143 152.26C163.454 153.57 163.454 155.692 162.143 157.002 161.488 157.658 160.627 157.986 159.77 157.986Z" fill="url(#fill35)" fill-rule="nonzero" transform="matrix(1.00404 0 0 1 1422 477.206)"/><path d="M194.565 123.198C193.705 123.198 192.85 122.869 192.193 122.215L175.626 105.642C174.314 104.332 174.314 102.209 175.626 100.897 176.936 99.5871 179.059 99.5871 180.371 100.897L196.935 117.472C198.248 118.782 198.248 120.903 196.935 122.215 196.281 122.869 195.422 123.198 194.565 123.198Z" fill="url(#fill36)" fill-rule="nonzero" transform="matrix(1.00404 0 0 1 1422 477.206)"/><path d="M238.953 202.382C238.096 202.382 237.236 202.054 236.58 201.399L217.051 181.866C215.741 180.554 215.741 178.43 217.051 177.119 218.363 175.807 220.487 175.807 221.8 177.119L241.328 196.654C242.638 197.964 242.638 200.087 241.328 201.399 240.672 202.054 239.811 202.382 238.953 202.382Z" fill="url(#fill37)" fill-rule="nonzero" transform="matrix(1.00404 0 0 1 1422 477.206)"/><path d="M94.1175 142.64C93.3638 142.64 92.6068 142.386 91.9833 141.871 90.5538 140.69 90.3512 138.576 91.5335 137.146L104.569 121.359C105.751 119.934 107.864 119.732 109.292 120.909 110.72 122.092 110.923 124.203 109.741 125.632L96.7037 141.42C96.0435 142.223 95.0816 142.64 94.1175 142.64Z" fill="url(#fill38)" fill-rule="nonzero" transform="matrix(1.00404 0 0 1 1422 477.206)"/><path d="M211.968 105.799C210.78 105.799 209.632 105.171 209.022 104.06 208.131 102.436 208.722 100.392 210.349 99.5002 216.422 96.1682 220.831 90.6707 222.77 84.0188 224.709 77.3681 223.938 70.3588 220.599 64.2836 217.268 58.2117 211.77 53.8019 205.122 51.8637 198.467 49.9221 191.464 50.6936 185.392 54.0302 183.97 54.8106 182.61 55.7313 181.347 56.77 179.912 57.9489 177.801 57.7441 176.622 56.3102 175.446 54.8763 175.653 52.7621 177.082 51.5865 178.671 50.2828 180.377 49.1272 182.161 48.1464 189.804 43.9493 198.628 42.983 206.997 45.42 215.371 47.8592 222.288 53.4123 226.484 61.0528 230.684 68.7011 231.656 77.5228 229.215 85.897 226.777 94.2689 221.223 101.188 213.576 105.386 213.065 105.665 212.511 105.799 211.968 105.799Z" fill="url(#fill39)" fill-rule="nonzero" transform="matrix(1.00404 0 0 1 1422 477.206)"/><path d="M165.264 69.0707C164.299 69.0707 163.343 68.6543 162.679 67.8561 161.496 66.4266 161.696 64.3103 163.125 63.1302L177.079 51.5932C178.503 50.4142 180.62 50.6168 181.802 52.0396 182.981 53.4691 182.781 55.5854 181.353 56.7666L167.403 68.3036C166.776 68.8191 166.02 69.0707 165.264 69.0707Z" fill="url(#fill40)" fill-rule="nonzero" transform="matrix(1.00404 0 0 1 1422 477.206)"/></g></g></g><g clip-path="url(#clip41)"><g clip-path="url(#clip42)"><g clip-path="url(#clip43)"><path d="M1086.5 561.408C1051.76 561.408 1023.59 533.243 1023.59 498.5 1023.59 463.757 1051.76 435.592 1086.5 435.592 1121.24 435.592 1149.41 463.757 1149.41 498.5 1149.41 533.243 1121.24 561.408 1086.5 561.408M1086.5 421C1043.7 421 1009 455.698 1009 498.5 1009 541.302 1043.7 576 1086.5 576 1129.3 576 1164 541.302 1164 498.5 1164 455.698 1129.3 421 1086.5 421M1094.33 491.894C1096.23 487.126 1097.76 482.176 1100.05 477.608 1102.47 472.799 1105.6 469.668 1111.5 469.849 1117.15 470.022 1121.55 473.641 1123.52 478.391 1126.62 485.901 1128.9 493.345 1131.43 501.081 1133.05 506.019 1134.64 511.402 1139.42 513.931 1143.85 516.874 1142.1 519.653 1140.95 521.634 1138.73 524.393 1135.09 523.456 1134.77 523.415 1131.03 522.924 1125.38 516.912 1123.69 512.648 1120.24 503.92 1119.48 498.897 1116.22 490.092 1115.88 489.189 1114.98 485.808 1114.48 484.844 1113.47 482.876 1110.67 482.764 1109.52 484.657 1109.19 485.207 1108.91 485.73 1108.7 486.277 1106.26 492.558 1101.07 507.606 1100.56 508.733 1093.88 523.315 1084.13 525.091 1072.71 512.87 1070.77 510.797 1068.99 507.994 1067.1 505.886 1063.72 502.1 1060.79 501.777 1057.76 505.797 1055.52 508.767 1053.17 511.609 1051.05 514.673 1047.98 519.119 1043.92 522.839 1038.45 523.415 1035.35 523.74 1032.19 522.412 1031.33 519.055 1030.53 515.906 1032.68 513.254 1035.48 512.519 1039.7 511.408 1040.31 510.668 1042.41 507.309 1042.69 506.858 1044.8 503.493 1045.08 503.038 1055.24 486.417 1067.71 486.595 1079.07 502.258 1079.88 503.375 1081.21 505.223 1082.41 506.896 1083.64 508.603 1086.24 508.417 1087.21 506.552 1091.04 501.971 1092.91 495.453 1094.33 491.895" fill="#298EEA" fill-rule="nonzero" fill-opacity="1"/></g></g></g><g clip-path="url(#clip44)"><g clip-path="url(#clip45)"><g clip-path="url(#clip46)"><path d="M143.733 0 10.2667 0C4.59654 0 0 4.59654 2.27966e-15 10.2667L0 143.733C0 149.403 4.59654 154 10.2667 154L143.733 154C149.403 154 154 149.403 154 143.733L154 10.2667C154 4.59654 149.403 0 143.733 0ZM10.2667 5.13333 143.733 5.13333C146.568 5.13333 148.867 7.4316 148.867 10.2667L148.867 20.5333 5.13333 20.5333 5.13333 10.2667C5.13333 7.4316 7.4316 5.13333 10.2667 5.13333ZM143.733 148.867 10.2667 148.867C7.4316 148.867 5.13333 146.568 5.13333 143.733L5.13333 25.6667 148.867 25.6667 148.867 143.733C148.867 146.568 146.568 148.867 143.733 148.867Z" fill="#1D0D5C" fill-rule="nonzero" fill-opacity="1" transform="matrix(1.00649 0 0 1 2077 422)"/><path d="M12.8333 15.4 15.4 15.4C16.8175 15.4 17.9667 14.2509 17.9667 12.8333 17.9667 11.4158 16.8175 10.2667 15.4 10.2667L12.8333 10.2667C11.4158 10.2667 10.2667 11.4158 10.2667 12.8333 10.2667 14.2509 11.4158 15.4 12.8333 15.4Z" fill="#1D0D5C" fill-rule="nonzero" fill-opacity="1" transform="matrix(1.00649 0 0 1 2077 422)"/><path d="M25.6667 15.4 28.2333 15.4C29.6509 15.4 30.8 14.2509 30.8 12.8333 30.8 11.4158 29.6509 10.2667 28.2333 10.2667L25.6667 10.2667C24.2491 10.2667 23.1 11.4158 23.1 12.8333 23.1 14.2509 24.2491 15.4 25.6667 15.4Z" fill="#1D0D5C" fill-rule="nonzero" fill-opacity="1" transform="matrix(1.00649 0 0 1 2077 422)"/><path d="M38.5 15.4 41.0667 15.4C42.4842 15.4 43.6333 14.2509 43.6333 12.8333 43.6333 11.4158 42.4842 10.2667 41.0667 10.2667L38.5 10.2667C37.0824 10.2667 35.9333 11.4158 35.9333 12.8333 35.9333 14.2509 37.0824 15.4 38.5 15.4Z" fill="#1D0D5C" fill-rule="nonzero" fill-opacity="1" transform="matrix(1.00649 0 0 1 2077 422)"/><path d="M125.767 15.4 141.167 15.4C142.584 15.4 143.733 14.2509 143.733 12.8333 143.733 11.4158 142.584 10.2667 141.167 10.2667L125.767 10.2667C124.349 10.2667 123.2 11.4158 123.2 12.8333 123.2 14.2509 124.349 15.4 125.767 15.4Z" fill="#1D0D5C" fill-rule="nonzero" fill-opacity="1" transform="matrix(1.00649 0 0 1 2077 422)"/><path d="M106.391 97.4486 89.533 80.5933 105.665 64.4233C106.067 64.0181 106.594 63.7588 107.161 63.6867L112.533 62.9988C114.963 62.5047 117.01 60.877 118.038 58.6201L125.307 42.6067C126.186 40.655 125.77 38.3637 124.263 36.8445L122.299 34.8784C120.782 33.36 118.482 32.9416 116.527 33.8287L100.539 41.1129C98.2294 42.177 96.5857 44.3027 96.1371 46.8057L95.48 52.0084C95.4066 52.5779 95.1479 53.1074 94.7434 53.515L78.6119 69.685 71.9385 63.0117C74.6248 55.0309 72.5473 46.2169 66.5793 40.2761 61.3053 35.026 53.8566 32.5831 46.4977 33.6901 44.6651 34.0032 43.1623 35.3166 42.6067 37.0909 42.0251 38.8868 42.5001 40.8572 43.8361 42.1909L49.0593 47.4115C49.955 48.3306 49.946 49.7992 49.0387 50.7071L45.5943 54.1772C44.6618 55.0717 43.1901 55.0717 42.2576 54.1772L37.0473 48.9643C35.0833 47.0031 31.9014 47.0054 29.9402 48.9692 29.2151 49.6953 28.7295 50.626 28.549 51.6362 27.2901 60.0135 30.6465 68.4189 37.3296 73.6248 43.1803 78.1296 50.8916 79.4214 57.8912 77.0693L64.5645 83.7426 59.6134 88.7066 55.9533 85.0491C53.9282 83.0686 50.6878 83.0825 48.6794 85.0799L46.6261 87.1512C45.0299 88.6678 44.5851 91.0366 45.5224 93.0288 46.0067 94.0214 45.8235 95.2105 45.063 96.0113 44.2817 96.7898 43.0961 96.9951 42.0985 96.5246 40.1206 95.5585 37.7446 95.9864 36.2285 97.5821L23.2129 110.6C16.3421 117.538 16.2025 128.672 22.8972 135.779 26.1936 139.211 30.7435 141.156 35.5021 141.167L35.7357 141.167C40.7641 141.164 45.5886 139.179 49.1619 135.641L61.6565 123.092C63.2599 121.585 63.7088 119.217 62.7678 117.227 62.1051 115.974 62.5835 114.421 63.8366 113.759 64.595 113.357 65.5039 113.361 66.2585 113.77 68.223 114.681 70.5497 114.242 72.0463 112.677 72.0463 112.677 74.1587 110.59 74.169 110.577 76.1525 108.553 76.1525 105.314 74.169 103.29L70.5217 99.6354 75.4857 94.6638 92.3179 111.496C89.9665 118.497 91.2594 126.209 95.7649 132.06 100.209 137.72 106.975 141.068 114.17 141.167 115.364 141.168 116.555 141.063 117.73 140.854 120.463 140.378 122.293 137.777 121.818 135.044 121.64 134.024 121.152 133.084 120.42 132.353L115.213 127.142C114.324 126.215 114.324 124.752 115.213 123.824L118.724 120.338C119.642 119.449 121.101 119.455 122.012 120.351L127.219 125.561C128.552 126.9 130.523 127.375 132.319 126.791 134.089 126.239 135.401 124.746 135.72 122.92 136.831 115.552 134.387 108.093 129.132 102.81 123.192 96.8373 114.373 94.7583 106.391 97.4486ZM60.3603 72.2953C59.6203 71.5517 58.5023 71.3331 57.537 71.7435 51.8723 74.1094 45.3776 73.2914 40.4763 69.5952 35.3171 65.5593 32.6429 59.1201 33.4257 52.6167L38.636 57.8296C41.5702 60.7325 46.2945 60.7325 49.2287 57.8296L52.6731 54.3594C55.555 51.4268 55.5609 46.7272 52.686 43.7873L47.4012 38.7567C53.1154 37.9138 58.8906 39.8298 62.968 43.9208 67.8968 48.8355 69.3364 56.2562 66.6024 62.6575 66.1915 63.6225 66.4089 64.7403 67.1517 65.4808L74.9954 73.322 68.1963 80.1211ZM68.5095 109.168C65.5321 107.684 61.9396 108.268 59.5852 110.618 57.2985 112.96 56.6866 116.467 58.0452 119.445L45.5224 132.022C42.9157 134.594 39.4004 136.035 35.7383 136.033L35.5663 136.033C32.1927 136.037 28.9623 134.669 26.6163 132.245 21.8374 127.151 21.9417 119.189 26.8525 114.222L39.8013 101.098C42.7776 102.565 46.3566 101.979 48.7102 99.6406 51.0038 97.2969 51.6162 93.7822 50.2502 90.801L52.3446 88.6989 57.7731 94.1453 57.7962 94.1787 57.827 94.2018 70.5371 106.956ZM63.2427 92.3487 98.3855 57.1391C99.5905 55.9256 100.362 54.3487 100.58 52.6526L101.211 47.6322C101.373 46.8175 101.916 46.1299 102.672 45.7842L118.665 38.5 120.631 40.484 113.362 56.5077C113.053 57.2113 112.444 57.7382 111.704 57.9425L106.517 58.6021C104.819 58.8198 103.241 59.5942 102.03 60.8043L84.0917 78.771 66.895 95.9985ZM130.841 121.917 125.643 116.719C122.696 113.884 118.038 113.875 115.079 116.699L111.568 120.184C108.676 123.115 108.676 127.826 111.568 130.756L116.83 135.782C110.331 136.726 103.827 134.1 99.8048 128.908 96.1037 124.008 95.2847 117.51 97.654 111.845 98.0644 110.879 97.8457 109.762 97.1021 109.022L79.0995 91.0166 85.8961 84.2072 103.919 102.23C104.66 102.973 105.777 103.191 106.743 102.78 113.142 100.041 120.565 101.479 125.479 106.409 129.534 110.492 131.508 116.201 130.841 121.917Z" fill="#1D0D5C" fill-rule="nonzero" fill-opacity="1" transform="matrix(1.00649 0 0 1 2077 422)"/><path d="M43.2278 108.773C42.2255 107.771 40.6008 107.771 39.5985 108.773L30.5023 117.89C29.5 118.893 29.5013 120.519 30.5048 121.521 31.5084 122.524 33.1344 122.522 34.1367 121.519L43.2329 112.402C44.2334 111.398 44.2311 109.774 43.2278 108.773Z" fill="#1D0D5C" fill-rule="nonzero" fill-opacity="1" transform="matrix(1.00649 0 0 1 2077 422)"/><path d="M46.875 116.07 37.7788 125.184C36.7773 126.188 36.779 127.813 37.7826 128.815 38.7862 129.816 40.4117 129.814 41.4132 128.811L50.5094 119.694C51.5276 118.708 51.5536 117.083 50.5672 116.065 49.5808 115.046 47.9559 115.021 46.9379 116.007 46.9166 116.027 46.8956 116.048 46.875 116.07Z" fill="#1D0D5C" fill-rule="nonzero" fill-opacity="1" transform="matrix(1.00649 0 0 1 2077 422)"/></g></g></g><rect x="320.5" y="344.5" width="2598" height="1512" stroke="#2E60B3" stroke-width="9.16667" stroke-linecap="butt" stroke-linejoin="round" stroke-miterlimit="10" stroke-opacity="0" fill="none"/></g></svg>