<svg width="3212" height="1402" xmlns="http://www.w3.org/2000/svg" xmlns:xlink="http://www.w3.org/1999/xlink" overflow="hidden"><defs><clipPath id="clip0"><rect x="55" y="362" width="3212" height="1402"/></clipPath></defs><g clip-path="url(#clip0)" transform="translate(-55 -362)"><text fill="#1D0D5C" fill-opacity="1" font-family="Open Sans,Open Sans_MSFontService,sans-serif" font-style="normal" font-variant="normal" font-weight="400" font-stretch="normal" font-size="64" text-anchor="start" direction="ltr" writing-mode="lr-tb" unicode-bidi="normal" text-decoration="none" transform="matrix(1 0 0 1 1184.14 634)">raw data from a data source<tspan fill="#1D0D5C" fill-opacity="1" font-family="Open Sans,Open Sans_MSFontService,sans-serif" font-style="normal" font-variant="normal" font-weight="400" font-stretch="normal" font-size="64" text-anchor="start" direction="ltr" writing-mode="lr-tb" unicode-bidi="normal" text-decoration="none" x="-18.0555" y="402">into storage</tspan><tspan fill="#1D0D5C" fill-opacity="1" font-family="Open Sans,Open Sans_MSFontService,sans-serif" font-style="normal" font-variant="normal" font-weight="400" font-stretch="normal" font-size="64" text-anchor="start" direction="ltr" writing-mode="lr-tb" unicode-bidi="normal" text-decoration="none" x="-18.0555" y="803">from a raw format into a usable format</tspan></text><path d="M766.5 495.168C766.5 462.767 792.767 436.5 825.168 436.5L1059.83 436.5C1092.23 436.5 1118.5 462.767 1118.5 495.168L1118.5 729.832C1118.5 762.234 1092.23 788.5 1059.83 788.5L825.168 788.5C792.767 788.5 766.5 762.234 766.5 729.832Z" stroke="#1D0D5C" stroke-width="4.58333" stroke-linecap="butt" stroke-linejoin="round" stroke-miterlimit="10" stroke-opacity="1" fill="#FFFFFF" fill-rule="evenodd" fill-opacity="1"/><text fill="#1D0D5C" fill-opacity="1" font-family="Open Sans,Open Sans_MSFontService,sans-serif" font-style="normal" font-variant="normal" font-weight="700" font-stretch="normal" font-size="64" text-anchor="start" direction="ltr" writing-mode="lr-tb" unicode-bidi="normal" text-decoration="none" transform="matrix(1 0 0 1 838.174 634)">E<tspan fill="#1D0D5C" fill-opacity="1" font-family="Open Sans,Open Sans_MSFontService,sans-serif" font-style="normal" font-variant="normal" font-weight="400" font-stretch="normal" font-size="64" text-anchor="start" direction="ltr" writing-mode="lr-tb" unicode-bidi="normal" text-decoration="none" x="36.0938" y="0">xtract</tspan></text><path d="M766.5 897.168C766.5 864.766 792.767 838.5 825.168 838.5L1059.83 838.5C1092.23 838.5 1118.5 864.766 1118.5 897.168L1118.5 1131.83C1118.5 1164.23 1092.23 1190.5 1059.83 1190.5L825.168 1190.5C792.767 1190.5 766.5 1164.23 766.5 1131.83Z" stroke="#1D0D5C" stroke-width="4.58333" stroke-linecap="butt" stroke-linejoin="round" stroke-miterlimit="10" stroke-opacity="1" fill="#FFFFFF" fill-rule="evenodd" fill-opacity="1"/><text fill="#1D0D5C" fill-opacity="1" font-family="Open Sans,Open Sans_MSFontService,sans-serif" font-style="normal" font-variant="normal" font-weight="700" font-stretch="normal" font-size="64" text-anchor="start" direction="ltr" writing-mode="lr-tb" unicode-bidi="normal" text-decoration="none" transform="matrix(1 0 0 1 867.106 1036)">L<tspan fill="#1D0D5C" fill-opacity="1" font-family="Open Sans,Open Sans_MSFontService,sans-serif" font-style="normal" font-variant="normal" font-weight="400" font-stretch="normal" font-size="64" text-anchor="start" direction="ltr" writing-mode="lr-tb" unicode-bidi="normal" text-decoration="none" x="36.0938" y="0">oad</tspan></text><path d="M766.5 1299.17C766.5 1266.77 792.767 1240.5 825.168 1240.5L1059.83 1240.5C1092.23 1240.5 1118.5 1266.77 1118.5 1299.17L1118.5 1533.83C1118.5 1566.23 1092.23 1592.5 1059.83 1592.5L825.168 1592.5C792.767 1592.5 766.5 1566.23 766.5 1533.83Z" stroke="#1D0D5C" stroke-width="4.58333" stroke-linecap="butt" stroke-linejoin="round" stroke-miterlimit="10" stroke-opacity="1" fill="#FFFFFF" fill-rule="evenodd" fill-opacity="1"/><text fill="#1D0D5C" fill-opacity="1" font-family="Open Sans,Open Sans_MSFontService,sans-serif" font-style="normal" font-variant="normal" font-weight="700" font-stretch="normal" font-size="64" text-anchor="start" direction="ltr" writing-mode="lr-tb" unicode-bidi="normal" text-decoration="none" transform="matrix(1 0 0 1 784.321 1437)">T<tspan fill="#1D0D5C" fill-opacity="1" font-family="Open Sans,Open Sans_MSFontService,sans-serif" font-style="normal" font-variant="normal" font-weight="400" font-stretch="normal" font-size="64" text-anchor="start" direction="ltr" writing-mode="lr-tb" unicode-bidi="normal" text-decoration="none" x="37.2396" y="0">ransform</tspan></text><path d="M61.5 370.5 3259.5 370.5 3259.5 1757.5 61.5 1757.5ZM234.875 543.875 234.875 1584.12 3086.12 1584.12 3086.12 543.875Z" stroke="#2E60B3" stroke-width="9.16667" stroke-linecap="butt" stroke-linejoin="round" stroke-miterlimit="10" stroke-opacity="0" fill="none" fill-rule="evenodd"/></g></svg>