<svg width="3212" height="1402" xmlns="http://www.w3.org/2000/svg" xmlns:xlink="http://www.w3.org/1999/xlink" overflow="hidden"><defs><clipPath id="clip0"><rect x="55" y="362" width="3212" height="1402"/></clipPath><linearGradient x1="186" y1="752.5" x2="186" y2="1309.5" gradientUnits="userSpaceOnUse" spreadMethod="reflect" id="fill1"><stop offset="0" stop-color="#1D0D5C" stop-opacity="1"/><stop offset="0.74" stop-color="#CEBDE2" stop-opacity="1"/><stop offset="0.83" stop-color="#CEBDE2" stop-opacity="1"/><stop offset="1" stop-color="#DED3EC" stop-opacity="1"/></linearGradient><clipPath id="clip2"><rect x="2444" y="462" width="235" height="235"/></clipPath><clipPath id="clip3"><rect x="2444" y="462" width="235" height="235"/></clipPath><clipPath id="clip4"><rect x="2444" y="462" width="235" height="235"/></clipPath><clipPath id="clip5"><rect x="2423" y="744" width="278" height="278"/></clipPath><clipPath id="clip6"><rect x="2423" y="744" width="278" height="278"/></clipPath><clipPath id="clip7"><rect x="2423" y="744" width="278" height="278"/></clipPath><clipPath id="clip8"><rect x="2588" y="1478" width="117" height="117"/></clipPath><clipPath id="clip9"><rect x="2588" y="1478" width="117" height="117"/></clipPath><clipPath id="clip10"><rect x="2588" y="1478" width="117" height="117"/></clipPath><clipPath id="clip11"><rect x="2436" y="1390" width="207" height="205"/></clipPath><clipPath id="clip12"><rect x="2436" y="1390" width="207" height="205"/></clipPath><clipPath id="clip13"><rect x="2436" y="1390" width="207" height="205"/></clipPath><clipPath id="clip14"><rect x="2601" y="1138" width="118" height="120"/></clipPath><clipPath id="clip15"><rect x="2601" y="1138" width="118" height="120"/></clipPath><clipPath id="clip16"><rect x="2601" y="1138" width="118" height="120"/></clipPath><clipPath id="clip17"><rect x="2466" y="1101" width="168" height="167"/></clipPath><clipPath id="clip18"><rect x="2466" y="1101" width="168" height="167"/></clipPath><clipPath id="clip19"><rect x="2466" y="1101" width="168" height="167"/></clipPath></defs><g clip-path="url(#clip0)" transform="translate(-55 -362)"><path d="M2157.5 1031C2157.5 936.283 2180.56 859.5 2209 859.5 2237.44 859.5 2260.5 936.283 2260.5 1031 2260.5 1125.72 2237.44 1202.5 2209 1202.5 2180.56 1202.5 2157.5 1125.72 2157.5 1031Z" stroke="#1D0D5C" stroke-width="4.58333" stroke-linecap="butt" stroke-linejoin="round" stroke-miterlimit="10" stroke-opacity="1" fill="#916CBF" fill-rule="evenodd" fill-opacity="1"/><path d="M185.5 752.5 2209.5 859.531 2209.5 1203.47 185.5 1310.5Z" stroke="#1D0D5C" stroke-width="4.58333" stroke-linecap="butt" stroke-linejoin="round" stroke-miterlimit="10" stroke-opacity="1" fill="#916CBF" fill-rule="evenodd" fill-opacity="1"/><path d="M134.5 1031C134.5 877.189 157.557 752.5 186 752.5 214.443 752.5 237.5 877.189 237.5 1031 237.5 1184.81 214.443 1309.5 186 1309.5 157.557 1309.5 134.5 1184.81 134.5 1031Z" stroke="#1D0D5C" stroke-width="4.58333" stroke-linecap="butt" stroke-linejoin="round" stroke-miterlimit="10" stroke-opacity="1" fill="url(#fill1)" fill-rule="evenodd"/><path d="M0 0 0.000360892 336.6" stroke="#916CBF" stroke-width="9.16667" stroke-linecap="butt" stroke-linejoin="round" stroke-miterlimit="10" stroke-opacity="1" fill="none" fill-rule="evenodd" transform="matrix(-1 0 0 1 2209.5 862.5)"/><text fill="#1D0D5C" fill-opacity="1" font-family="Open Sans,Open Sans_MSFontService,sans-serif" font-style="normal" font-variant="normal" font-weight="400" font-stretch="normal" font-size="50" text-anchor="start" direction="ltr" writing-mode="lr-tb" unicode-bidi="normal" text-decoration="none" transform="matrix(1 0 0 1 2909.97 607)">Simplicity</text><g clip-path="url(#clip2)"><g clip-path="url(#clip3)"><g clip-path="url(#clip4)"><path d="M2605.93 580.17 2515.6 580.17C2514.43 580.17 2513.26 579.468 2512.56 578.298 2511.86 577.128 2511.86 575.958 2512.56 574.788L2557.72 496.632C2558.43 495.462 2559.6 494.994 2560.77 494.994 2561.94 494.994 2563.11 495.696 2563.81 496.632L2608.97 574.788C2609.67 575.958 2609.67 577.128 2608.97 578.298 2608.27 579.468 2607.1 580.17 2605.93 580.17ZM2521.69 573.15 2599.84 573.15 2560.77 505.524 2521.69 573.15Z" fill="#7F7F7F" fill-rule="nonzero" fill-opacity="1"/><path d="M2635.65 663.006 2565.21 663.006C2563.34 663.006 2561.7 661.368 2561.7 659.496L2561.7 589.062C2561.7 587.19 2563.34 585.552 2565.21 585.552L2635.65 585.552C2637.52 585.552 2639.16 587.19 2639.16 589.062L2639.16 659.496C2639.16 661.368 2637.52 663.006 2635.65 663.006ZM2568.72 655.986 2632.14 655.986 2632.14 592.572 2568.72 592.572 2568.72 655.986Z" fill="#7F7F7F" fill-rule="nonzero" fill-opacity="1"/><path d="M2515.6 662.772C2494.31 662.772 2476.99 645.456 2476.99 624.162 2476.99 602.868 2494.31 585.552 2515.6 585.552 2536.9 585.552 2554.21 602.868 2554.21 624.162 2554.21 645.456 2536.9 662.772 2515.6 662.772ZM2515.6 592.572C2498.29 592.572 2484.01 606.846 2484.01 624.162 2484.01 641.478 2498.29 655.752 2515.6 655.752 2532.92 655.752 2547.19 641.478 2547.19 624.162 2547.19 606.846 2532.92 592.572 2515.6 592.572Z" fill="#7F7F7F" fill-rule="nonzero" fill-opacity="1"/></g></g></g><g clip-path="url(#clip5)"><g clip-path="url(#clip6)"><g clip-path="url(#clip7)"><path d="M2572.3 873.528 2578.4 879.622 2528.26 879.622C2526.04 879.622 2524.1 881.561 2524.1 883.777 2524.1 885.993 2526.04 887.932 2528.26 887.932L2578.4 887.932 2572.3 894.026C2570.64 895.688 2570.64 898.181 2572.3 899.843 2573.13 900.674 2574.24 900.951 2575.35 900.951 2576.46 900.951 2577.57 900.674 2578.4 899.843L2594.46 883.777 2578.4 867.711C2576.74 866.049 2574.24 866.049 2572.58 867.711 2570.92 869.373 2570.64 872.143 2572.3 873.528Z" fill="#7F7F7F" fill-rule="nonzero" fill-opacity="1"/><path d="M2681.72 867.711C2680.06 866.049 2677.56 866.049 2675.9 867.711 2674.24 869.373 2674.24 871.866 2675.9 873.528L2682 879.622 2659.83 879.622C2646.82 879.622 2636.29 869.096 2636.29 856.077 2636.29 838.626 2622.16 824.222 2604.44 824.222L2596.68 824.222C2594.46 824.222 2592.52 826.161 2592.52 828.377 2592.52 830.593 2594.46 832.532 2596.68 832.532L2604.44 832.532C2617.45 832.532 2627.98 843.058 2627.98 856.077 2627.98 865.495 2632.14 873.805 2638.51 879.622L2632.41 879.622C2614.96 879.622 2600.56 893.749 2600.56 911.477 2600.56 924.496 2590.03 935.022 2577.01 935.022L2568.43 935.022C2566.21 935.022 2564.27 936.961 2564.27 939.177 2564.27 941.393 2566.21 943.332 2568.43 943.332L2577.01 943.332C2594.46 943.332 2608.87 929.205 2608.87 911.477 2608.87 898.458 2619.39 887.932 2632.41 887.932L2659.83 887.932 2682 887.932 2675.9 894.026C2674.24 895.688 2674.24 898.181 2675.9 899.843 2676.73 900.674 2677.84 900.951 2678.95 900.951 2680.06 900.951 2681.16 900.674 2682 899.843L2698.06 883.777 2681.72 867.711Z" fill="#7F7F7F" fill-rule="nonzero" fill-opacity="1"/><path d="M2471.2 887.932 2485.6 887.932C2503.05 887.932 2517.46 873.805 2517.46 856.077 2517.46 843.058 2527.98 832.532 2541 832.532L2558.18 832.532 2552.08 838.626C2550.42 840.288 2550.42 842.781 2552.08 844.443 2552.91 845.274 2554.02 845.551 2555.13 845.551 2556.24 845.551 2557.34 845.274 2558.18 844.443L2574.24 828.377 2558.18 812.311C2556.51 810.649 2554.02 810.649 2552.36 812.311 2550.7 813.973 2550.7 816.466 2552.36 818.128L2558.45 824.222 2541.28 824.222C2523.83 824.222 2509.42 838.349 2509.42 856.077 2509.42 869.096 2498.9 879.622 2485.88 879.622L2471.48 879.622C2469.26 879.622 2467.32 881.561 2467.32 883.777 2467.32 885.993 2468.98 887.932 2471.2 887.932Z" fill="#7F7F7F" fill-rule="nonzero" fill-opacity="1"/><path d="M2525.21 923.111C2523.55 924.773 2523.55 927.266 2525.21 928.928L2531.31 935.022 2485.6 935.022C2472.58 935.022 2462.06 924.496 2462.06 911.477 2462.06 894.026 2447.93 879.622 2430.2 879.622L2429.37 879.622C2427.16 879.622 2425.22 881.561 2425.22 883.777 2425.22 885.993 2427.16 887.932 2429.37 887.932L2430.2 887.932C2443.22 887.932 2453.75 898.458 2453.75 911.477 2453.75 928.928 2467.87 943.332 2485.6 943.332L2531.31 943.332 2525.21 949.426C2523.55 951.088 2523.55 953.581 2525.21 955.243 2526.04 956.074 2527.15 956.351 2528.26 956.351 2529.37 956.351 2530.48 956.074 2531.31 955.243L2547.37 939.177 2531.03 923.111C2529.37 921.449 2526.88 921.449 2525.21 923.111Z" fill="#7F7F7F" fill-rule="nonzero" fill-opacity="1"/></g></g></g><text fill="#1D0D5C" fill-opacity="1" font-family="Open Sans,Open Sans_MSFontService,sans-serif" font-style="normal" font-variant="normal" font-weight="400" font-stretch="normal" font-size="50" text-anchor="start" direction="ltr" writing-mode="lr-tb" unicode-bidi="normal" text-decoration="none" transform="matrix(1 0 0 1 2915.7 893)">Flexibility<tspan fill="#916CBF" fill-opacity="1" font-family="Open Sans,Open Sans_MSFontService,sans-serif" font-style="normal" font-variant="normal" font-weight="400" font-stretch="normal" font-size="50" text-anchor="start" direction="ltr" writing-mode="lr-tb" unicode-bidi="normal" text-decoration="none" x="-72.1875" y="307">Storage cost</tspan><tspan fill="#916CBF" fill-opacity="1" font-family="Open Sans,Open Sans_MSFontService,sans-serif" font-style="normal" font-variant="normal" font-weight="400" font-stretch="normal" font-size="50" text-anchor="start" direction="ltr" writing-mode="lr-tb" unicode-bidi="normal" text-decoration="none" x="-205.677" y="618">Transmission cost</tspan></text><rect x="2368.5" y="445.5" width="818" height="1219" stroke="#1D0D5C" stroke-width="4.58333" stroke-linecap="butt" stroke-linejoin="round" stroke-miterlimit="10" stroke-opacity="1" fill="none"/><g clip-path="url(#clip8)"><g clip-path="url(#clip9)"><g clip-path="url(#clip10)"><path d="M8757.52 4286.11 8757.52 4283.77C8757.52 4280.5 8751.67 4279.09 8746.17 4279.09 8740.67 4279.09 8734.82 4280.61 8734.82 4283.77L8734.82 4286.11C8734.82 4288.22 8735.64 4290.33 8737.16 4291.85L8743.01 4297.58C8743.36 4297.93 8743.48 4298.28 8743.48 4298.75L8743.48 4306.24C8743.48 4306.71 8743.71 4307.06 8744.18 4307.17L8747.58 4308.23C8748.16 4308.34 8748.75 4307.99 8748.75 4307.29L8748.75 4298.87C8748.75 4298.4 8748.98 4298.05 8749.21 4297.7L8755.18 4291.85C8756.7 4290.33 8757.52 4288.22 8757.52 4286.11ZM8746.17 4286C8740.55 4286 8737.51 4284.48 8737.4 4283.89 8737.51 4283.31 8740.55 4281.78 8746.17 4281.78 8751.79 4281.78 8754.71 4283.31 8754.95 4283.89 8754.71 4284.48 8751.79 4286 8746.17 4286Z" fill="#916CBF" fill-rule="nonzero" fill-opacity="1"/><path d="M8752.02 4298.05C8751.32 4298.05 8750.85 4298.52 8750.85 4299.22 8750.85 4299.92 8751.32 4300.39 8752.02 4300.39L8757.05 4300.39C8757.75 4300.39 8758.22 4299.92 8758.22 4299.22 8758.22 4298.52 8757.75 4298.05 8757.05 4298.05L8752.02 4298.05Z" fill="#916CBF" fill-rule="nonzero" fill-opacity="1"/><path d="M8757.05 4302.03 8752.02 4302.03C8751.32 4302.03 8750.85 4302.49 8750.85 4303.2 8750.85 4303.9 8751.32 4304.37 8752.02 4304.37L8757.05 4304.37C8757.75 4304.37 8758.22 4303.9 8758.22 4303.2 8758.22 4302.49 8757.75 4302.03 8757.05 4302.03Z" fill="#916CBF" fill-rule="nonzero" fill-opacity="1"/><path d="M8757.05 4305.89 8752.02 4305.89C8751.32 4305.89 8750.85 4306.35 8750.85 4307.06 8750.85 4307.76 8751.32 4308.23 8752.02 4308.23L8757.05 4308.23C8757.75 4308.23 8758.22 4307.76 8758.22 4307.06 8758.22 4306.47 8757.75 4305.89 8757.05 4305.89Z" fill="#916CBF" fill-rule="nonzero" fill-opacity="1"/><path d="M2642.29 1530.18 2651.3 1530.18C2656.21 1530.18 2660.19 1534.75 2659.14 1539.78 2658.43 1543.52 2654.92 1546.09 2651.06 1546.09L2641.59 1546.09C2637.72 1546.09 2634.45 1543.29 2633.75 1539.54 2633.63 1538.72 2632.81 1538.14 2631.99 1538.14L2623.69 1538.14C2622.75 1538.14 2622.05 1538.84 2622.05 1539.78 2622.87 1549.49 2630.82 1557.09 2640.53 1557.56L2640.53 1567.15 2627.43 1567.15C2626.49 1567.15 2626.02 1568.21 2626.61 1569.03L2645.68 1591.72C2646.15 1592.19 2646.97 1592.19 2647.32 1591.72L2666.39 1569.03C2666.97 1568.32 2666.51 1567.15 2665.57 1567.15L2652.23 1567.15 2652.23 1557.56C2663.11 1556.97 2671.65 1547.73 2670.72 1536.5 2669.9 1526.2 2660.89 1518.6 2650.59 1518.6L2641.59 1518.6C2636.67 1518.6 2632.69 1514.04 2633.75 1509.01 2634.57 1505.26 2637.96 1502.69 2641.82 1502.69L2651.18 1502.69C2655.04 1502.69 2658.32 1505.5 2659.02 1509.24 2659.14 1510.06 2659.95 1510.64 2660.77 1510.64L2669.08 1510.64C2670.02 1510.64 2670.72 1509.94 2670.72 1509.01 2669.9 1499.29 2661.94 1491.69 2652.23 1491.22L2652.23 1482.56C2652.23 1481.74 2651.53 1480.93 2650.59 1480.93L2642.17 1480.93C2641.35 1480.93 2640.53 1481.63 2640.53 1482.56L2640.53 1491.22C2629.65 1491.81 2621.11 1501.05 2622.05 1512.28 2622.98 1522.46 2631.99 1530.18 2642.29 1530.18Z" fill="#916CBF" fill-rule="nonzero" fill-opacity="1"/></g></g></g><g clip-path="url(#clip11)"><g clip-path="url(#clip12)"><g clip-path="url(#clip13)"><path d="M153.947 160.798C169.594 160.798 182.325 148.067 182.325 132.42 182.325 122.795 177.503 114.289 170.164 109.152 177.505 104.017 182.325 95.5156 182.325 85.897 182.325 76.2804 177.505 67.7812 170.166 62.6459 177.503 57.5107 182.321 49.0114 182.321 39.3948 182.321 23.7472 169.59 11.0146 153.941 11.0146L74.4519 11.0146C58.8042 11.0146 46.0717 23.7451 46.0717 39.3948 46.0717 49.0093 50.8892 57.5086 58.2261 62.6459 56.8752 63.591 55.5816 64.6406 54.3865 65.8296 50.1081 70.112 47.357 75.5199 46.4325 81.467 45.9979 84.2631 47.9126 86.8851 50.7088 87.3176 53.5234 87.7605 56.1269 85.8376 56.5595 83.0414 57.1478 79.255 58.9047 75.809 61.6271 73.0845 65.0608 69.6692 69.6016 67.7853 74.415 67.773 74.4273 67.773 74.4396 67.775 74.4519 67.775L153.941 67.775C153.955 67.775 153.969 67.773 153.984 67.773 163.963 67.7935 172.075 75.9135 172.075 85.897 172.075 95.8928 163.943 104.025 153.947 104.025L101.912 104.025C99.0805 104.025 96.7866 106.319 96.7866 109.15 96.7866 111.981 99.0805 114.275 101.912 114.275L153.947 114.275C163.943 114.275 172.075 122.416 172.075 132.42 172.075 142.415 163.943 150.548 153.947 150.548L114.259 150.548C114.238 150.548 114.22 150.542 114.199 150.542 114.179 150.542 114.16 150.548 114.14 150.548L97.131 150.548C94.2999 150.548 92.006 152.842 92.006 155.673 92.006 158.504 94.2999 160.798 97.131 160.798L109.074 160.798 109.074 183.733 51.1987 183.733C48.3677 183.733 46.0737 186.027 46.0737 188.858 46.0737 191.689 48.3677 193.983 51.1987 193.983L177.194 193.983C180.025 193.983 182.319 191.689 182.319 188.858 182.319 186.027 180.025 183.733 177.194 183.733L119.324 183.733 119.324 160.798 153.947 160.798ZM153.984 57.525C153.971 57.525 153.959 57.523 153.947 57.523L74.458 57.523C74.4437 57.523 74.4293 57.525 74.415 57.525 64.4356 57.5045 56.3217 49.3804 56.3217 39.3969 56.3217 29.4011 64.454 21.2667 74.4519 21.2667L153.941 21.2667C163.936 21.2667 172.071 29.399 172.071 39.3969 172.071 49.3804 163.959 57.5025 153.984 57.525Z" fill="#916CBF" fill-rule="nonzero" fill-opacity="1" transform="matrix(1 0 0 1 2437 1390)"/><path d="M153.943 91.0281C156.774 91.0281 159.068 88.7342 159.068 85.9031 159.068 83.0721 156.774 80.7782 153.943 80.7782L138.721 80.7782C135.89 80.7782 133.596 83.0721 133.596 85.9031 133.596 88.7342 135.89 91.0281 138.721 91.0281L153.943 91.0281Z" fill="#916CBF" fill-rule="nonzero" fill-opacity="1" transform="matrix(1 0 0 1 2437 1390)"/><path d="M153.943 34.2719 138.721 34.2719C135.89 34.2719 133.596 36.5658 133.596 39.3969 133.596 42.2279 135.89 44.5219 138.721 44.5219L153.943 44.5219C156.774 44.5219 159.068 42.2279 159.068 39.3969 159.068 36.5658 156.774 34.2719 153.943 34.2719Z" fill="#916CBF" fill-rule="nonzero" fill-opacity="1" transform="matrix(1 0 0 1 2437 1390)"/><path d="M153.943 137.539C156.774 137.539 159.068 135.245 159.068 132.414 159.068 129.582 156.774 127.289 153.943 127.289L138.721 127.289C135.89 127.289 133.596 129.582 133.596 132.414 133.596 135.245 135.89 137.539 138.721 137.539L153.943 137.539Z" fill="#916CBF" fill-rule="nonzero" fill-opacity="1" transform="matrix(1 0 0 1 2437 1390)"/><path d="M97.8628 126.94C97.8628 106.212 80.9975 89.3471 60.27 89.3471 39.5424 89.3471 22.6771 106.212 22.6771 126.94 22.6771 147.668 39.5424 164.533 60.27 164.533 80.9975 164.533 97.8628 147.668 97.8628 126.94ZM32.9271 126.94C32.9271 111.864 45.1922 99.5971 60.27 99.5971 75.3477 99.5971 87.6128 111.862 87.6128 126.94 87.6128 142.018 75.3457 154.283 60.27 154.283 45.1943 154.283 32.9271 142.016 32.9271 126.94Z" fill="#916CBF" fill-rule="nonzero" fill-opacity="1" transform="matrix(1 0 0 1 2437 1390)"/><path d="M66.0202 142.405 81.4834 126.94 77.8631 123.322C77.859 123.318 77.8569 123.316 77.8528 123.312L66.0182 111.479C64.0153 109.476 60.7722 109.476 58.7694 111.479 56.7686 113.482 56.7686 116.727 58.7694 118.726L61.8587 121.815 46.2992 121.815C43.4682 121.815 41.1742 124.109 41.1742 126.94 41.1742 129.771 43.4682 132.065 46.2992 132.065L61.8608 132.065 58.7673 135.158C56.7665 137.161 56.7665 140.406 58.7673 142.405 59.7677 143.406 61.0797 143.906 62.3917 143.906 63.7037 143.906 65.0198 143.406 66.0202 142.405Z" fill="#916CBF" fill-rule="nonzero" fill-opacity="1" transform="matrix(1 0 0 1 2437 1390)"/></g></g></g><g clip-path="url(#clip14)"><g clip-path="url(#clip15)"><g clip-path="url(#clip16)"><path d="M6169.52 2808.11 6169.52 2805.77C6169.52 2802.5 6163.67 2801.09 6158.17 2801.09 6152.67 2801.09 6146.82 2802.61 6146.82 2805.77L6146.82 2808.11C6146.82 2810.22 6147.64 2812.33 6149.16 2813.85L6155.01 2819.58C6155.36 2819.93 6155.48 2820.28 6155.48 2820.75L6155.48 2828.24C6155.48 2828.71 6155.71 2829.06 6156.18 2829.17L6159.58 2830.23C6160.16 2830.34 6160.75 2829.99 6160.75 2829.29L6160.75 2820.87C6160.75 2820.4 6160.98 2820.05 6161.21 2819.7L6167.18 2813.85C6168.7 2812.33 6169.52 2810.22 6169.52 2808.11ZM6158.17 2808C6152.56 2808 6149.51 2806.48 6149.4 2805.89 6149.51 2805.31 6152.56 2803.78 6158.17 2803.78 6163.79 2803.78 6166.71 2805.31 6166.95 2805.89 6166.71 2806.48 6163.79 2808 6158.17 2808Z" fill="#916CBF" fill-rule="nonzero" fill-opacity="1" transform="matrix(1 0 0 1.00855 2601 1139)"/><path d="M6164.02 2820.05C6163.32 2820.05 6162.85 2820.52 6162.85 2821.22 6162.85 2821.92 6163.32 2822.39 6164.02 2822.39L6169.05 2822.39C6169.75 2822.39 6170.22 2821.92 6170.22 2821.22 6170.22 2820.52 6169.75 2820.05 6169.05 2820.05L6164.02 2820.05Z" fill="#916CBF" fill-rule="nonzero" fill-opacity="1" transform="matrix(1 0 0 1.00855 2601 1139)"/><path d="M6169.05 2824.03 6164.02 2824.03C6163.32 2824.03 6162.85 2824.49 6162.85 2825.2 6162.85 2825.9 6163.32 2826.37 6164.02 2826.37L6169.05 2826.37C6169.75 2826.37 6170.22 2825.9 6170.22 2825.2 6170.22 2824.49 6169.75 2824.03 6169.05 2824.03Z" fill="#916CBF" fill-rule="nonzero" fill-opacity="1" transform="matrix(1 0 0 1.00855 2601 1139)"/><path d="M6169.05 2827.89 6164.02 2827.89C6163.32 2827.89 6162.85 2828.35 6162.85 2829.06 6162.85 2829.76 6163.32 2830.23 6164.02 2830.23L6169.05 2830.23C6169.75 2830.23 6170.22 2829.76 6170.22 2829.06 6170.22 2828.47 6169.75 2827.89 6169.05 2827.89Z" fill="#916CBF" fill-rule="nonzero" fill-opacity="1" transform="matrix(1 0 0 1.00855 2601 1139)"/><path d="M54.2879 52.1819 63.2969 52.1819C68.2109 52.1819 72.1889 56.7449 71.1359 61.7759 70.4339 65.5199 66.9239 68.0939 63.0629 68.0939L53.5859 68.0939C49.7249 68.0939 46.4489 65.2859 45.7469 61.5419 45.6299 60.7229 44.8109 60.1379 43.9919 60.1379L35.685 60.1379C34.749 60.1379 34.047 60.8399 34.047 61.7759 34.866 71.4869 42.8219 79.0919 52.5329 79.5599L52.5329 89.1539 39.429 89.1539C38.493 89.1539 38.025 90.2069 38.61 91.0259L57.6809 113.724C58.1489 114.192 58.9679 114.192 59.3189 113.724L78.3899 91.0259C78.9749 90.3239 78.5069 89.1539 77.5709 89.1539L64.2329 89.1539 64.2329 79.5599C75.1139 78.9749 83.6549 69.7319 82.7189 58.4999 81.8999 48.2039 72.8909 40.599 62.5949 40.599L53.5859 40.599C48.6719 40.599 44.694 36.036 45.7469 31.005 46.5659 27.261 49.9589 24.687 53.8199 24.687L63.1799 24.687C67.0409 24.687 70.3169 27.495 71.0189 31.239 71.1359 32.058 71.9549 32.643 72.7739 32.643L81.0809 32.643C82.0169 32.643 82.7189 31.941 82.7189 31.005 81.8999 21.294 73.9439 13.689 64.2329 13.221L64.2329 4.56299C64.2329 3.744 63.5309 2.925 62.5949 2.925L54.1709 2.925C53.3519 2.925 52.5329 3.627 52.5329 4.56299L52.5329 13.221C41.652 13.806 33.111 23.049 34.047 34.281 34.983 44.4599 43.9919 52.1819 54.2879 52.1819Z" fill="#916CBF" fill-rule="nonzero" fill-opacity="1" transform="matrix(1 0 0 1.00855 2601 1139)"/></g></g></g><g clip-path="url(#clip17)"><g clip-path="url(#clip18)"><g clip-path="url(#clip19)"><path d="M158.014 25.6847C154.519 12.7367 128.505 0 83 0 37.4949 0 11.4781 12.7367 7.98611 25.6847 7.73258 26.1284 7.54546 26.6143 7.54546 27.1636L7.54546 28.6727 7.54546 63.3818 7.54546 64.8909 7.54546 66.4 7.54546 99.6 7.54546 101.109 7.54546 102.618 7.54546 138.836C7.54546 139.325 7.67524 139.787 7.89858 140.198 11.4631 154.972 43.3532 166 83 166 122.556 166 154.395 155.017 158.077 140.297 158.319 139.866 158.455 139.368 158.455 138.836L158.455 102.618 158.455 101.109 158.455 99.6 158.455 66.4 158.455 64.8909 158.455 63.3818 158.455 28.6727 158.455 27.1636C158.455 26.6143 158.267 26.1284 158.014 25.6847ZM152.18 102.573C152.095 102.938 151.978 103.3 151.83 103.669 151.709 103.967 151.561 104.266 151.398 104.565 151.196 104.936 150.969 105.307 150.701 105.679 150.502 105.959 150.275 106.237 150.04 106.515 149.705 106.91 149.349 107.305 148.944 107.698 148.7 107.936 148.431 108.172 148.16 108.41 147.665 108.842 147.148 109.27 146.572 109.696 146.325 109.88 146.059 110.058 145.796 110.239 145.114 110.71 144.402 111.178 143.62 111.637 143.415 111.76 143.195 111.878 142.98 111.999 142.081 112.506 141.142 113.01 140.128 113.499 139.998 113.562 139.863 113.622 139.73 113.683 138.598 114.217 137.415 114.742 136.15 115.249 136.114 115.264 136.078 115.276 136.042 115.292 129.187 118.029 120.419 120.332 110.203 121.841 110.152 121.847 110.1 121.853 110.049 121.862 108.063 122.155 106.026 122.414 103.934 122.644 103.593 122.68 103.234 122.704 102.89 122.74 101.064 122.931 99.2167 123.106 97.3153 123.244 96.446 123.308 95.5345 123.338 94.6502 123.392 93.2196 123.477 91.8041 123.57 90.3372 123.622 87.9408 123.697 85.4961 123.745 83 123.745 80.504 123.745 78.0593 123.697 75.6598 123.613 74.193 123.561 72.7774 123.465 71.3468 123.383 70.4625 123.332 69.551 123.299 68.6818 123.235 66.7803 123.097 64.9332 122.922 63.1072 122.731 62.7631 122.695 62.4039 122.671 62.0629 122.635 59.9713 122.405 57.934 122.143 55.9481 121.853 55.8967 121.847 55.8454 121.841 55.7941 121.832 45.5776 120.323 36.8098 118.02 29.9555 115.282 29.9192 115.27 29.883 115.255 29.8468 115.24 28.5822 114.733 27.396 114.208 26.2672 113.674 26.1375 113.61 25.9986 113.55 25.8688 113.49 24.8547 113.001 23.9161 112.5 23.0167 111.99 22.8054 111.869 22.582 111.751 22.3768 111.627 21.5951 111.169 20.8828 110.701 20.2007 110.23 19.9411 110.049 19.6725 109.871 19.425 109.687 18.8485 109.261 18.3324 108.833 17.8375 108.401 17.5688 108.166 17.2972 107.93 17.0527 107.689 16.6483 107.296 16.2921 106.904 15.9571 106.506 15.7217 106.228 15.4953 105.95 15.2961 105.67 15.0305 105.298 14.8042 104.927 14.5989 104.556 14.436 104.257 14.2911 103.958 14.1673 103.659 14.0195 103.294 13.9017 102.929 13.8172 102.564 13.7056 102.084 13.5818 101.595 13.5818 101.109 13.5818 100.768 13.6211 100.427 13.6754 100.089 13.7508 99.6332 13.7086 99.1775 13.5818 98.7459L13.5818 76.3389C13.6663 76.4174 13.772 76.4928 13.8595 76.5713 14.5175 77.1508 15.1875 77.7273 15.942 78.2826 27.3115 86.8814 50.0475 93.5637 83 93.5637 115.814 93.5637 138.492 86.9357 149.91 78.3882 150.822 77.7242 151.643 77.0391 152.415 76.3419L152.418 76.3389 152.418 98.7459C152.291 99.1775 152.249 99.6332 152.325 100.089 152.382 100.427 152.418 100.768 152.418 101.109 152.418 101.595 152.294 102.084 152.18 102.573ZM152.418 40.1207 152.418 62.5277C152.291 62.9593 152.249 63.415 152.325 63.8708 152.382 64.2088 152.418 64.5499 152.418 64.8909 152.418 65.3768 152.294 65.8658 152.18 66.3547 152.095 66.7199 151.978 67.0821 151.83 67.4503 151.709 67.7491 151.561 68.0479 151.398 68.3467 151.196 68.718 150.969 69.0892 150.701 69.4604 150.502 69.7411 150.275 70.0188 150.04 70.2965 149.705 70.6919 149.349 71.0872 148.944 71.4796 148.7 71.718 148.431 71.9535 148.16 72.1919 147.665 72.6235 147.148 73.0521 146.572 73.4777 146.325 73.6618 146.059 73.8398 145.796 74.0209 145.114 74.4918 144.402 74.9596 143.62 75.4184 143.415 75.5421 143.195 75.6598 142.98 75.7805 142.081 76.2876 141.142 76.7916 140.128 77.2806 139.998 77.3439 139.863 77.4043 139.73 77.4647 138.598 77.9989 137.415 78.5241 136.15 79.0311 136.114 79.0462 136.078 79.0583 136.042 79.0734 129.187 81.8109 120.419 84.1137 110.203 85.6228 110.152 85.6289 110.1 85.6349 110.049 85.6439 108.063 85.9367 106.026 86.1963 103.934 86.4257 103.593 86.4619 103.234 86.486 102.89 86.5222 101.064 86.7124 99.2167 86.8874 97.3153 87.0263 96.446 87.0897 95.5345 87.1198 94.6502 87.1742 93.2196 87.2587 91.8041 87.3522 90.3372 87.4035 87.9408 87.479 85.4961 87.5273 83 87.5273 80.504 87.5273 78.0593 87.479 75.6598 87.3945 74.193 87.3432 72.7774 87.2466 71.3468 87.1651 70.4625 87.1138 69.551 87.0806 68.6818 87.0172 66.7803 86.8784 64.9332 86.7033 63.1072 86.5132 62.7631 86.477 62.4039 86.4528 62.0629 86.4166 59.9713 86.1872 57.934 85.9246 55.9481 85.6349 55.8967 85.6289 55.8454 85.6228 55.7941 85.6138 45.5776 84.1047 36.8098 81.8018 29.9555 79.0643 29.9192 79.0522 29.883 79.0371 29.8468 79.022 28.5822 78.515 27.396 77.9898 26.2672 77.4556 26.1375 77.3922 25.9986 77.3319 25.8688 77.2715 24.8547 76.7826 23.9161 76.2815 23.0167 75.7715 22.8054 75.6507 22.582 75.533 22.3768 75.4093 21.5951 74.9505 20.8828 74.4827 20.2007 74.0119 19.9411 73.8308 19.6725 73.6527 19.425 73.4686 18.8485 73.043 18.3324 72.6145 17.8375 72.1829 17.5688 71.9474 17.2972 71.712 17.0527 71.4706 16.6483 71.0782 16.2921 70.6858 15.9571 70.2874 15.7217 70.0098 15.4953 69.7321 15.2961 69.4514 15.0305 69.0802 14.8042 68.7089 14.5989 68.3377 14.436 68.0389 14.2911 67.7401 14.1673 67.4413 14.0195 67.0761 13.9017 66.7109 13.8172 66.3457 13.7056 65.8658 13.5818 65.3768 13.5818 64.8909 13.5818 64.5499 13.6211 64.2088 13.6754 63.8708 13.7508 63.415 13.7086 62.9593 13.5818 62.5277L13.5818 40.1207C13.944 40.4497 14.3575 40.7726 14.7499 41.0986 14.9672 41.2797 15.1694 41.4608 15.3988 41.6419 16.3042 42.3542 17.2821 43.0574 18.3415 43.7425 18.5618 43.8844 18.8093 44.0232 19.0387 44.1651 19.926 44.7174 20.8647 45.2576 21.8516 45.7888 22.2168 45.985 22.582 46.1782 22.9593 46.3714 24.061 46.9327 25.2169 47.479 26.4332 48.0072 26.6324 48.0947 26.8135 48.1853 27.0158 48.2698 28.4313 48.8704 29.9343 49.4439 31.4978 49.9992 31.9294 50.1531 32.3821 50.298 32.8258 50.4489 34.0692 50.8685 35.355 51.2699 36.686 51.6592 37.1659 51.798 37.6367 51.9429 38.1287 52.0757 39.8943 52.5647 41.7173 53.0295 43.6308 53.458 43.8934 53.5184 44.1771 53.5667 44.4427 53.6241 46.1299 53.9923 47.8804 54.3333 49.6793 54.6532 50.289 54.7619 50.9077 54.8645 51.5294 54.9671 53.2407 55.2478 55.0034 55.5044 56.8112 55.7398 57.276 55.8002 57.7197 55.8696 58.1906 55.9269 60.4361 56.1986 62.7601 56.431 65.1475 56.6302 65.736 56.6784 66.3487 56.7147 66.9463 56.7569 68.8568 56.8958 70.8096 57.0104 72.8076 57.101 73.535 57.1342 74.2594 57.1674 75.0018 57.1946 77.6035 57.2821 80.2535 57.3455 83 57.3455 85.7466 57.3455 88.3965 57.2821 90.9982 57.1946 91.7377 57.1674 92.462 57.1342 93.1924 57.101 95.1905 57.0104 97.1432 56.8958 99.0537 56.7569 99.6513 56.7117 100.261 56.6784 100.853 56.6302 103.24 56.434 105.564 56.1986 107.809 55.9269 108.28 55.8696 108.724 55.8002 109.189 55.7398 110.997 55.5044 112.756 55.2478 114.471 54.9671 115.092 54.8645 115.711 54.7619 116.321 54.6532 118.12 54.3333 119.87 53.9923 121.557 53.6241 121.823 53.5667 122.107 53.5154 122.369 53.458 124.283 53.0295 126.106 52.5617 127.871 52.0757 128.363 51.9399 128.834 51.798 129.314 51.6592 130.645 51.2699 131.931 50.8685 133.174 50.4489 133.618 50.298 134.071 50.1531 134.502 49.9992 136.066 49.4439 137.572 48.8704 138.984 48.2698 139.187 48.1853 139.368 48.0947 139.567 48.0072 140.783 47.476 141.939 46.9327 143.041 46.3714 143.418 46.1782 143.786 45.985 144.148 45.7888 145.135 45.2607 146.074 44.7204 146.961 44.1651 147.191 44.0232 147.438 43.8844 147.659 43.7425 148.718 43.0574 149.696 42.3572 150.601 41.6419 150.828 41.4608 151.03 41.2797 151.25 41.0986 151.643 40.7726 152.056 40.4497 152.418 40.1207ZM83 6.03637C123.911 6.03637 152.418 17.9642 152.418 28.6727 152.418 39.3812 123.911 51.3091 83 51.3091 42.0886 51.3091 13.5818 39.3812 13.5818 28.6727 13.5818 17.9642 42.0886 6.03637 83 6.03637ZM152.418 137.94C152.376 138.073 152.346 138.209 152.322 138.347 150.61 148.787 122.345 159.964 83 159.964 43.655 159.964 15.3897 148.787 13.6784 138.347 13.6543 138.212 13.6211 138.079 13.5818 137.952L13.5818 112.557C13.6663 112.636 13.772 112.711 13.8595 112.789 14.5175 113.369 15.1875 113.945 15.942 114.501 27.3115 123.1 50.0475 129.782 83 129.782 115.814 129.782 138.492 123.154 149.91 114.606 150.822 113.942 151.643 113.257 152.415 112.56L152.418 112.557 152.418 137.94Z" fill="#916CBF" fill-rule="nonzero" fill-opacity="1" transform="matrix(1.00602 0 0 1 2466 1101)"/></g></g></g><path d="M529.5 933.834C529.5 907.14 551.14 885.5 577.834 885.5L771.166 885.5C797.86 885.5 819.5 907.14 819.5 933.834L819.5 1127.17C819.5 1153.86 797.86 1175.5 771.166 1175.5L577.834 1175.5C551.14 1175.5 529.5 1153.86 529.5 1127.17Z" stroke="#1D0D5C" stroke-width="4.58333" stroke-linecap="butt" stroke-linejoin="round" stroke-miterlimit="10" stroke-opacity="1" fill="#FFFFFF" fill-rule="evenodd" fill-opacity="1"/><text fill="#1D0D5C" fill-opacity="1" font-family="Open Sans,Open Sans_MSFontService,sans-serif" font-style="normal" font-variant="normal" font-weight="400" font-stretch="normal" font-size="50" text-anchor="start" direction="ltr" writing-mode="lr-tb" unicode-bidi="normal" text-decoration="none" transform="matrix(1 0 0 1 592.824 1047)">Extract</text><path d="M1052.5 933.834C1052.5 907.14 1074.14 885.5 1100.83 885.5L1294.17 885.5C1320.86 885.5 1342.5 907.14 1342.5 933.834L1342.5 1127.17C1342.5 1153.86 1320.86 1175.5 1294.17 1175.5L1100.83 1175.5C1074.14 1175.5 1052.5 1153.86 1052.5 1127.17Z" stroke="#1D0D5C" stroke-width="4.58333" stroke-linecap="butt" stroke-linejoin="round" stroke-miterlimit="10" stroke-opacity="1" fill="#FFFFFF" fill-rule="evenodd" fill-opacity="1"/><text fill="#1D0D5C" fill-opacity="1" font-family="Open Sans,Open Sans_MSFontService,sans-serif" font-style="normal" font-variant="normal" font-weight="400" font-stretch="normal" font-size="50" text-anchor="start" direction="ltr" writing-mode="lr-tb" unicode-bidi="normal" text-decoration="none" transform="matrix(1 0 0 1 1073.49 1047)">Transform</text><path d="M819.504 1028.21 1034.57 1028.6 1034.56 1033.19 819.496 1032.79ZM1034.56 1030.89 1025.42 1017.13 1052.9 1030.93 1025.37 1044.63Z" fill="#1D0D5C" fill-rule="nonzero" fill-opacity="1"/><path d="M1573.5 933.667C1573.5 907.065 1595.07 885.5 1621.67 885.5L1814.33 885.5C1840.93 885.5 1862.5 907.065 1862.5 933.667L1862.5 1127.33C1862.5 1153.93 1840.93 1175.5 1814.33 1175.5L1621.67 1175.5C1595.07 1175.5 1573.5 1153.93 1573.5 1127.33Z" stroke="#1D0D5C" stroke-width="4.58333" stroke-linecap="butt" stroke-linejoin="round" stroke-miterlimit="10" stroke-opacity="1" fill="#FFFFFF" fill-rule="evenodd" fill-opacity="1"/><text fill="#1D0D5C" fill-opacity="1" font-family="Open Sans,Open Sans_MSFontService,sans-serif" font-style="normal" font-variant="normal" font-weight="400" font-stretch="normal" font-size="50" text-anchor="start" direction="ltr" writing-mode="lr-tb" unicode-bidi="normal" text-decoration="none" transform="matrix(1 0 0 1 1659.62 1047)">Load</text><path d="M1339.5 1028.21 1554.57 1028.6 1554.56 1033.19 1339.5 1032.79ZM1554.56 1030.89 1545.42 1017.13 1572.9 1030.93 1545.37 1044.63Z" fill="#1D0D5C" fill-rule="nonzero" fill-opacity="1"/><path d="M61.5 370.5 3259.5 370.5 3259.5 1757.51 61.5 1757.51ZM234.875 543.875 234.875 1584.14 3086.12 1584.14 3086.12 543.875Z" stroke="#2E60B3" stroke-width="9.16667" stroke-linecap="butt" stroke-linejoin="round" stroke-miterlimit="10" stroke-opacity="0" fill="none" fill-rule="evenodd"/></g></svg>