<svg width="2461" height="1041" xmlns="http://www.w3.org/2000/svg" xmlns:xlink="http://www.w3.org/1999/xlink" overflow="hidden"><defs><clipPath id="clip0"><rect x="366" y="430" width="2461" height="1041"/></clipPath><clipPath id="clip1"><rect x="1267" y="597" width="663" height="663"/></clipPath><clipPath id="clip2"><rect x="1267" y="597" width="663" height="663"/></clipPath><clipPath id="clip3"><rect x="1267" y="597" width="663" height="663"/></clipPath></defs><g clip-path="url(#clip0)" transform="translate(-366 -430)"><g clip-path="url(#clip1)"><g clip-path="url(#clip2)"><g clip-path="url(#clip3)"><path d="M1306.09 1104.9 1269.75 985.57C1267.53 980.12 1266.26 972.738 1267.47 967.247 1270.48 953.39 1280.38 944.498 1296.99 947.361 1308.05 949.266 1315.73 957.711 1319.87 970.479L1357.12 1089.99C1365.51 1118.06 1384.56 1134.67 1414.06 1139.77 1421.44 1141.05 1429.61 1141.23 1438.63 1140.23L1513.35 1131.32C1517.26 1130.75 1520.75 1130.67 1523.84 1131.2 1541.64 1134.3 1549.06 1144.48 1546.08 1161.7 1543.82 1174.61 1534.68 1181.87 1518.57 1183.53L1441.12 1191.95C1428.17 1193.51 1415.81 1193.25 1404.16 1191.22 1353.73 1182.5 1321.05 1153.8 1306.09 1104.9Z" fill="#1D0D5C" fill-rule="nonzero" fill-opacity="1"/><path d="M1555.69 802.063C1555.69 836.208 1528.01 863.889 1493.87 863.889 1459.72 863.889 1432.04 836.208 1432.04 802.063 1432.04 767.917 1459.72 740.236 1493.87 740.236 1528.01 740.236 1555.69 767.917 1555.69 802.063Z" fill="#1D0D5C" fill-rule="nonzero" fill-opacity="1"/><path d="M1777.16 782.045C1773.89 782.045 1770.62 780.942 1767.95 778.722L1717.7 737.045C1711.55 731.948 1710.71 722.833 1715.79 716.699 1720.9 710.538 1730.02 709.711 1736.14 714.807L1776.83 748.551 1837.84 694.172C1843.77 688.866 1852.94 689.391 1858.26 695.354 1863.58 701.318 1863.05 710.446 1857.09 715.766L1786.79 778.42C1784.04 780.823 1780.61 782.045 1777.16 782.045Z" fill="#1D0D5C" fill-rule="nonzero" fill-opacity="1"/><path d="M1928.28 749.969C1928.28 667.18 1860.91 599.824 1778.11 599.824 1695.32 599.824 1627.96 667.167 1627.96 749.969 1627.96 787.864 1642.2 822.422 1665.43 848.875L1486.1 1007.97 1444.58 880.911C1438.53 860.933 1426.02 849.256 1406.95 845.946 1392.22 843.385 1378.24 846.34 1365.07 854.826 1351.89 863.284 1344.04 874.869 1341.5 889.567 1340.14 897.567 1340.94 906.262 1343.92 915.627L1392.54 1068.43C1399.52 1090.02 1413.39 1102.6 1434.13 1106.21 1439.04 1107.06 1444.35 1107.23 1450.09 1106.79L1589.07 1089.3 1566.54 1219.19C1562.71 1241.48 1571.48 1254.46 1593.04 1258.19 1614.56 1261.89 1627.2 1253.02 1630.92 1231.5L1647.56 1135.48C1660.01 1144.41 1680.91 1155.6 1709.92 1157.76L1713.65 1258.71 1727.13 1258.71 1723.41 1158.08C1755.55 1156.6 1780.59 1137.99 1793.03 1126.42L1821.64 1258.71 1835.43 1258.71 1770.04 956.437C1770.15 956.266 1770.4 955.807 1770.44 955.728L1769.82 955.413 1757.5 898.512C1764.26 899.458 1771.09 900.115 1778.11 900.115 1860.91 900.128 1928.28 832.772 1928.28 749.969ZM1638.74 890.579 1674.77 858.621C1679.88 863.481 1685.32 867.947 1691.07 872.072L1670.35 911.595C1663.88 914.76 1654.72 917.177 1646.09 911.608 1635.21 904.528 1636.95 895.215 1638.74 890.579ZM1653.29 1021.14C1648.14 1014.03 1642.38 1009.1 1636.12 1006.02L1657.19 965.776C1664.53 978.438 1679.02 994.62 1704.04 999.467L1706.69 1071.29C1685.06 1071.67 1669.51 1062.4 1661.3 1056L1661.57 1054.41C1663.61 1042.72 1660.8 1031.62 1653.29 1021.14ZM1664.9 951.065 1699.8 884.432 1703.54 985.768C1678.82 979.634 1668.3 959.773 1664.9 951.065ZM1595.85 928.631 1624.64 903.096C1625.98 910.045 1629.88 917.151 1638.74 922.917 1645.08 927.041 1651.45 928.565 1657.4 928.565 1658.85 928.565 1660.26 928.381 1661.64 928.21L1643.62 962.65 1643.49 962.282C1643.24 962.335 1618.28 970.308 1605.42 957.488 1593.67 945.68 1595.44 931.192 1595.85 928.631ZM1619.21 1001.74 1498.92 1014.62 1582.42 940.505C1583.46 948.189 1586.77 957.856 1595.9 966.985 1604.78 975.877 1616.55 978.254 1626.62 978.254 1629.96 978.254 1632.97 977.965 1635.76 977.571L1623.59 1000.83 1627.91 1003.09C1627.54 1003.01 1627.17 1002.82 1626.81 1002.78 1624.3 1002.36 1621.76 1002 1619.21 1001.74ZM1650.16 1120.48 1658.76 1070.79C1669.14 1077.71 1684.81 1085.09 1705.23 1085.09 1705.88 1085.09 1706.56 1084.99 1707.2 1084.99L1709.38 1144.23C1679.52 1141.55 1659.39 1128.1 1650.16 1120.48ZM1713.32 885.22C1722.78 889.751 1732.75 893.311 1743.14 895.859L1755.75 954.191C1748.34 966.131 1732.59 985.492 1717.11 987.252L1713.32 885.22ZM1789.64 1110.83C1782.94 1118 1756.97 1142.97 1722.91 1144.62L1720.63 1083.24C1745.73 1078.04 1766.11 1059.19 1776.07 1048.08L1789.64 1110.83ZM1759.65 972.212 1772.43 1031.2C1769.7 1034.77 1747.53 1062.54 1720.15 1069.54L1717.62 1000.72C1735.33 999.31 1750.23 984.599 1759.65 972.212ZM1656.88 749.969C1656.88 683.126 1711.28 628.734 1778.11 628.734 1844.96 628.734 1899.37 683.126 1899.37 749.969 1899.37 816.813 1844.95 871.218 1778.11 871.218 1711.26 871.218 1656.88 816.813 1656.88 749.969Z" fill="#1D0D5C" fill-rule="nonzero" fill-opacity="1"/></g></g></g><path d="M375.5 439.5 2820.5 439.5 2820.5 1462.5 375.5 1462.5ZM503.376 567.376 503.376 1334.62 2692.62 1334.62 2692.62 567.376Z" stroke="#2E60B3" stroke-width="9.16667" stroke-linecap="butt" stroke-linejoin="round" stroke-miterlimit="10" stroke-opacity="0" fill="none" fill-rule="evenodd"/></g></svg>